  0
SECTION
  2
HEADER
  9
$ANGBASE
  50
0.0
  9
$ANGDIR
  70
1
  9
$MEASUREMENT
  70
1
  0
ENDSEC
  0
SECTION
  2
TABLES
  0
TABLE
  2
LTYPE
  70
4
  0
LTYPE
  5
40F
  2
CONTINUOUS
  70
0
  3
Solid line
  72
65
  73
0
  40
0.0
  0
LTYPE
  5
410
  2
DASHDOT
 70
0
  3
Dash Dot ____ _ ____ _
 72
65
 73
4
 40
2.0
 49
1.25
 49
-0.25
 49
0.25
 49
-0.25
  0
LTYPE
  5
411
  2
DASHED
 70
0
  3
Dashed __ __ __ __ __
 72
65
 73
2
 40
0.75
 49
0.5
 49
-0.25
  0
LTYPE
  5
43B
  2
DOTTED
 70
0
  3
Dotted .  .  .  .
 72
65
 73
2
 40
0.2
 49
0.0
 49
-0.2
  0
ENDTAB
  0
TABLE
  2
STYLE
  70
4
  0
STYLE
  2
KICAD
  70
0
  40
0
  41
1
  42
1
  50
0
  71
0
  3
isocp.shx
  0
STYLE
  2
KICADB
  70
0
  40
0
  41
1
  42
1
  50
0
  71
0
  3
isocp.shx
  0
STYLE
  2
KICADI
  70
0
  40
0
  41
1
  42
1
  50
15
  71
0
  3
isocp.shx
  0
STYLE
  2
KICADBI
  70
0
  40
0
  41
1
  42
1
  50
15
  71
0
  3
isocp.shx
  0
ENDTAB
  0
TABLE
  2
LAYER
  70
1
  0
LAYER
  2
BLACK
  70
0
  62
7
  6
CONTINUOUS
  0
ENDTAB
  0
ENDSEC
  0
SECTION
  2
ENTITIES
0
ARC
8
BLACK
10
69
20
-35.7353
40
1.99997
50
-0.000802141
51
90
0
ARC
8
BLACK
10
121.45
20
-79.7353
40
4
50
-90
51
-0.00040107
0
ARC
8
BLACK
10
73
20
-38.1353
40
2.00003
50
-179.999
51
-90
0
LINE
8
BLACK
6
CONTINUOUS
10
69
20
-33.7353
11
39.45
21
-33.7353
0
LINE
8
BLACK
6
CONTINUOUS
10
35.45
20
-79.7353
11
35.45
21
-37.7353
0
ARC
8
BLACK
10
121.45
20
-37.7353
40
3.99997
50
-0.00040107
51
90
0
ARC
8
BLACK
10
39.45
20
-79.7353
40
4.00003
50
-180
51
-90
0
ARC
8
BLACK
10
87.9
20
-38.1353
40
2
50
-90
51
-0.000802141
0
LINE
8
BLACK
6
CONTINUOUS
10
91.9
20
-33.7353
11
121.45
21
-33.7353
0
LINE
8
BLACK
6
CONTINUOUS
10
121.45
20
-83.7353
11
39.45
21
-83.7353
0
ARC
8
BLACK
10
91.9
20
-35.7353
40
2
50
-270
51
-179.999
0
LINE
8
BLACK
6
CONTINUOUS
10
73
20
-40.1353
11
87.9
21
-40.1353
0
ARC
8
BLACK
10
39.45
20
-37.7353
40
4
50
90
51
180
0
LINE
8
BLACK
6
CONTINUOUS
10
71
20
-35.7353
11
71
21
-38.1353
0
LINE
8
BLACK
6
CONTINUOUS
10
89.9
20
-38.1353
11
89.9
21
-35.7353
0
LINE
8
BLACK
6
CONTINUOUS
10
125.45
20
-37.7353
11
125.45
21
-79.7353
0
LINE
8
BLACK
6
CONTINUOUS
10
41.631
20
-55.4603
11
42.381
21
-56.2103
0
LINE
8
BLACK
6
CONTINUOUS
10
42.381
20
-55.4603
11
41.631
21
-56.2103
0
LINE
8
BLACK
6
CONTINUOUS
10
41.631
20
-61.2603
11
42.381
21
-62.0103
0
LINE
8
BLACK
6
CONTINUOUS
10
42.381
20
-61.2603
11
41.631
21
-62.0103
0
LINE
8
BLACK
6
CONTINUOUS
10
38.0078
20
-86.9002
11
38.0078
21
-84.9002
0
LINE
8
BLACK
6
CONTINUOUS
10
38.0078
20
-84.9002
11
38.484
21
-84.9002
0
LINE
8
BLACK
6
CONTINUOUS
10
38.484
20
-84.9002
11
38.7697
21
-84.9954
0
LINE
8
BLACK
6
CONTINUOUS
10
38.7697
20
-84.9954
11
38.9601
21
-85.1859
0
LINE
8
BLACK
6
CONTINUOUS
10
38.9601
20
-85.1859
11
39.0554
21
-85.3764
0
LINE
8
BLACK
6
CONTINUOUS
10
39.0554
20
-85.3764
11
39.1506
21
-85.7573
0
LINE
8
BLACK
6
CONTINUOUS
10
39.1506
20
-85.7573
11
39.1506
21
-86.043
0
LINE
8
BLACK
6
CONTINUOUS
10
39.1506
20
-86.043
11
39.0554
21
-86.424
0
LINE
8
BLACK
6
CONTINUOUS
10
39.0554
20
-86.424
11
38.9601
21
-86.6145
0
LINE
8
BLACK
6
CONTINUOUS
10
38.9601
20
-86.6145
11
38.7697
21
-86.8049
0
LINE
8
BLACK
6
CONTINUOUS
10
38.7697
20
-86.8049
11
38.484
21
-86.9002
0
LINE
8
BLACK
6
CONTINUOUS
10
38.484
20
-86.9002
11
38.0078
21
-86.9002
0
LINE
8
BLACK
6
CONTINUOUS
10
40.0078
20
-86.9002
11
40.0078
21
-85.5668
0
LINE
8
BLACK
6
CONTINUOUS
10
40.0078
20
-85.9478
11
40.103
21
-85.7573
0
LINE
8
BLACK
6
CONTINUOUS
10
40.103
20
-85.7573
11
40.1982
21
-85.6621
0
LINE
8
BLACK
6
CONTINUOUS
10
40.1982
20
-85.6621
11
40.3887
21
-85.5668
0
LINE
8
BLACK
6
CONTINUOUS
10
40.3887
20
-85.5668
11
40.5792
21
-85.5668
0
LINE
8
BLACK
6
CONTINUOUS
10
41.2459
20
-86.9002
11
41.2459
21
-85.5668
0
LINE
8
BLACK
6
CONTINUOUS
10
41.2459
20
-84.9002
11
41.1506
21
-84.9954
0
LINE
8
BLACK
6
CONTINUOUS
10
41.1506
20
-84.9954
11
41.2459
21
-85.0906
0
LINE
8
BLACK
6
CONTINUOUS
10
41.2459
20
-85.0906
11
41.3411
21
-84.9954
0
LINE
8
BLACK
6
CONTINUOUS
10
41.3411
20
-84.9954
11
41.2459
21
-84.9002
0
LINE
8
BLACK
6
CONTINUOUS
10
41.2459
20
-84.9002
11
41.2459
21
-85.0906
0
LINE
8
BLACK
6
CONTINUOUS
10
42.484
20
-86.9002
11
42.2935
21
-86.8049
0
LINE
8
BLACK
6
CONTINUOUS
10
42.2935
20
-86.8049
11
42.1982
21
-86.6145
0
LINE
8
BLACK
6
CONTINUOUS
10
42.1982
20
-86.6145
11
42.1982
21
-84.9002
0
LINE
8
BLACK
6
CONTINUOUS
10
43.5316
20
-86.9002
11
43.3411
21
-86.8049
0
LINE
8
BLACK
6
CONTINUOUS
10
43.3411
20
-86.8049
11
43.2459
21
-86.6145
0
LINE
8
BLACK
6
CONTINUOUS
10
43.2459
20
-86.6145
11
43.2459
21
-84.9002
0
LINE
8
BLACK
6
CONTINUOUS
10
45.8173
20
-86.9002
11
45.8173
21
-84.9002
0
LINE
8
BLACK
6
CONTINUOUS
10
45.8173
20
-84.9002
11
46.484
21
-86.3287
0
LINE
8
BLACK
6
CONTINUOUS
10
46.484
20
-86.3287
11
47.1506
21
-84.9002
0
LINE
8
BLACK
6
CONTINUOUS
10
47.1506
20
-84.9002
11
47.1506
21
-86.9002
0
LINE
8
BLACK
6
CONTINUOUS
10
48.9601
20
-86.9002
11
48.9601
21
-85.8525
0
LINE
8
BLACK
6
CONTINUOUS
10
48.9601
20
-85.8525
11
48.8649
21
-85.6621
0
LINE
8
BLACK
6
CONTINUOUS
10
48.8649
20
-85.6621
11
48.6744
21
-85.5668
0
LINE
8
BLACK
6
CONTINUOUS
10
48.6744
20
-85.5668
11
48.2935
21
-85.5668
0
LINE
8
BLACK
6
CONTINUOUS
10
48.2935
20
-85.5668
11
48.103
21
-85.6621
0
LINE
8
BLACK
6
CONTINUOUS
10
48.9601
20
-86.8049
11
48.7697
21
-86.9002
0
LINE
8
BLACK
6
CONTINUOUS
10
48.7697
20
-86.9002
11
48.2935
21
-86.9002
0
LINE
8
BLACK
6
CONTINUOUS
10
48.2935
20
-86.9002
11
48.103
21
-86.8049
0
LINE
8
BLACK
6
CONTINUOUS
10
48.103
20
-86.8049
11
48.0078
21
-86.6145
0
LINE
8
BLACK
6
CONTINUOUS
10
48.0078
20
-86.6145
11
48.0078
21
-86.424
0
LINE
8
BLACK
6
CONTINUOUS
10
48.0078
20
-86.424
11
48.103
21
-86.2335
0
LINE
8
BLACK
6
CONTINUOUS
10
48.103
20
-86.2335
11
48.2935
21
-86.1383
0
LINE
8
BLACK
6
CONTINUOUS
10
48.2935
20
-86.1383
11
48.7697
21
-86.1383
0
LINE
8
BLACK
6
CONTINUOUS
10
48.7697
20
-86.1383
11
48.9601
21
-86.043
0
LINE
8
BLACK
6
CONTINUOUS
10
49.9125
20
-85.5668
11
49.9125
21
-87.5668
0
LINE
8
BLACK
6
CONTINUOUS
10
49.9125
20
-85.6621
11
50.103
21
-85.5668
0
LINE
8
BLACK
6
CONTINUOUS
10
50.103
20
-85.5668
11
50.484
21
-85.5668
0
LINE
8
BLACK
6
CONTINUOUS
10
50.484
20
-85.5668
11
50.6744
21
-85.6621
0
LINE
8
BLACK
6
CONTINUOUS
10
50.6744
20
-85.6621
11
50.7697
21
-85.7573
0
LINE
8
BLACK
6
CONTINUOUS
10
50.7697
20
-85.7573
11
50.8649
21
-85.9478
0
LINE
8
BLACK
6
CONTINUOUS
10
50.8649
20
-85.9478
11
50.8649
21
-86.5192
0
LINE
8
BLACK
6
CONTINUOUS
10
50.8649
20
-86.5192
11
50.7697
21
-86.7097
0
LINE
8
BLACK
6
CONTINUOUS
10
50.7697
20
-86.7097
11
50.6744
21
-86.8049
0
LINE
8
BLACK
6
CONTINUOUS
10
50.6744
20
-86.8049
11
50.484
21
-86.9002
0
LINE
8
BLACK
6
CONTINUOUS
10
50.484
20
-86.9002
11
50.103
21
-86.9002
0
LINE
8
BLACK
6
CONTINUOUS
10
50.103
20
-86.9002
11
49.9125
21
-86.8049
0
LINE
8
BLACK
6
CONTINUOUS
10
51.7221
20
-86.7097
11
51.8173
21
-86.8049
0
LINE
8
BLACK
6
CONTINUOUS
10
51.8173
20
-86.8049
11
51.7221
21
-86.9002
0
LINE
8
BLACK
6
CONTINUOUS
10
51.7221
20
-86.9002
11
51.6268
21
-86.8049
0
LINE
8
BLACK
6
CONTINUOUS
10
51.6268
20
-86.8049
11
51.7221
21
-86.7097
0
LINE
8
BLACK
6
CONTINUOUS
10
51.7221
20
-86.7097
11
51.7221
21
-86.9002
0
LINE
8
BLACK
6
CONTINUOUS
10
51.7221
20
-85.6621
11
51.8173
21
-85.7573
0
LINE
8
BLACK
6
CONTINUOUS
10
51.8173
20
-85.7573
11
51.7221
21
-85.8525
0
LINE
8
BLACK
6
CONTINUOUS
10
51.7221
20
-85.8525
11
51.6268
21
-85.7573
0
LINE
8
BLACK
6
CONTINUOUS
10
51.6268
20
-85.7573
11
51.7221
21
-85.6621
0
LINE
8
BLACK
6
CONTINUOUS
10
51.7221
20
-85.6621
11
51.7221
21
-85.8525
0
LINE
8
BLACK
6
CONTINUOUS
10
34.65
20
-89.8103
11
35.4
21
-90.5603
0
LINE
8
BLACK
6
CONTINUOUS
10
35.4
20
-89.8103
11
34.65
21
-90.5603
0
LINE
8
BLACK
6
CONTINUOUS
10
38.3887
20
-89.1002
11
38.5792
21
-89.1002
0
LINE
8
BLACK
6
CONTINUOUS
10
38.5792
20
-89.1002
11
38.7697
21
-89.1954
0
LINE
8
BLACK
6
CONTINUOUS
10
38.7697
20
-89.1954
11
38.8649
21
-89.2906
0
LINE
8
BLACK
6
CONTINUOUS
10
38.8649
20
-89.2906
11
38.9601
21
-89.4811
0
LINE
8
BLACK
6
CONTINUOUS
10
38.9601
20
-89.4811
11
39.0554
21
-89.8621
0
LINE
8
BLACK
6
CONTINUOUS
10
39.0554
20
-89.8621
11
39.0554
21
-90.3383
0
LINE
8
BLACK
6
CONTINUOUS
10
39.0554
20
-90.3383
11
38.9601
21
-90.7192
0
LINE
8
BLACK
6
CONTINUOUS
10
38.9601
20
-90.7192
11
38.8649
21
-90.9097
0
LINE
8
BLACK
6
CONTINUOUS
10
38.8649
20
-90.9097
11
38.7697
21
-91.0049
0
LINE
8
BLACK
6
CONTINUOUS
10
38.7697
20
-91.0049
11
38.5792
21
-91.1002
0
LINE
8
BLACK
6
CONTINUOUS
10
38.5792
20
-91.1002
11
38.3887
21
-91.1002
0
LINE
8
BLACK
6
CONTINUOUS
10
38.3887
20
-91.1002
11
38.1982
21
-91.0049
0
LINE
8
BLACK
6
CONTINUOUS
10
38.1982
20
-91.0049
11
38.103
21
-90.9097
0
LINE
8
BLACK
6
CONTINUOUS
10
38.103
20
-90.9097
11
38.0078
21
-90.7192
0
LINE
8
BLACK
6
CONTINUOUS
10
38.0078
20
-90.7192
11
37.9125
21
-90.3383
0
LINE
8
BLACK
6
CONTINUOUS
10
37.9125
20
-90.3383
11
37.9125
21
-89.8621
0
LINE
8
BLACK
6
CONTINUOUS
10
37.9125
20
-89.8621
11
38.0078
21
-89.4811
0
LINE
8
BLACK
6
CONTINUOUS
10
38.0078
20
-89.4811
11
38.103
21
-89.2906
0
LINE
8
BLACK
6
CONTINUOUS
10
38.103
20
-89.2906
11
38.1982
21
-89.1954
0
LINE
8
BLACK
6
CONTINUOUS
10
38.1982
20
-89.1954
11
38.3887
21
-89.1002
0
LINE
8
BLACK
6
CONTINUOUS
10
39.9125
20
-90.9097
11
40.0078
21
-91.0049
0
LINE
8
BLACK
6
CONTINUOUS
10
40.0078
20
-91.0049
11
39.9125
21
-91.1002
0
LINE
8
BLACK
6
CONTINUOUS
10
39.9125
20
-91.1002
11
39.8173
21
-91.0049
0
LINE
8
BLACK
6
CONTINUOUS
10
39.8173
20
-91.0049
11
39.9125
21
-90.9097
0
LINE
8
BLACK
6
CONTINUOUS
10
39.9125
20
-90.9097
11
39.9125
21
-91.1002
0
LINE
8
BLACK
6
CONTINUOUS
10
40.6744
20
-89.1002
11
42.0078
21
-89.1002
0
LINE
8
BLACK
6
CONTINUOUS
10
42.0078
20
-89.1002
11
41.1506
21
-91.1002
0
LINE
8
BLACK
6
CONTINUOUS
10
43.7221
20
-89.1002
11
42.7697
21
-89.1002
0
LINE
8
BLACK
6
CONTINUOUS
10
42.7697
20
-89.1002
11
42.6744
21
-90.0525
0
LINE
8
BLACK
6
CONTINUOUS
10
42.6744
20
-90.0525
11
42.7697
21
-89.9573
0
LINE
8
BLACK
6
CONTINUOUS
10
42.7697
20
-89.9573
11
42.9601
21
-89.8621
0
LINE
8
BLACK
6
CONTINUOUS
10
42.9601
20
-89.8621
11
43.4363
21
-89.8621
0
LINE
8
BLACK
6
CONTINUOUS
10
43.4363
20
-89.8621
11
43.6268
21
-89.9573
0
LINE
8
BLACK
6
CONTINUOUS
10
43.6268
20
-89.9573
11
43.7221
21
-90.0525
0
LINE
8
BLACK
6
CONTINUOUS
10
43.7221
20
-90.0525
11
43.8173
21
-90.243
0
LINE
8
BLACK
6
CONTINUOUS
10
43.8173
20
-90.243
11
43.8173
21
-90.7192
0
LINE
8
BLACK
6
CONTINUOUS
10
43.8173
20
-90.7192
11
43.7221
21
-90.9097
0
LINE
8
BLACK
6
CONTINUOUS
10
43.7221
20
-90.9097
11
43.6268
21
-91.0049
0
LINE
8
BLACK
6
CONTINUOUS
10
43.6268
20
-91.0049
11
43.4363
21
-91.1002
0
LINE
8
BLACK
6
CONTINUOUS
10
43.4363
20
-91.1002
11
42.9601
21
-91.1002
0
LINE
8
BLACK
6
CONTINUOUS
10
42.9601
20
-91.1002
11
42.7697
21
-91.0049
0
LINE
8
BLACK
6
CONTINUOUS
10
42.7697
20
-91.0049
11
42.6744
21
-90.9097
0
LINE
8
BLACK
6
CONTINUOUS
10
45.0554
20
-89.1002
11
45.2459
21
-89.1002
0
LINE
8
BLACK
6
CONTINUOUS
10
45.2459
20
-89.1002
11
45.4363
21
-89.1954
0
LINE
8
BLACK
6
CONTINUOUS
10
45.4363
20
-89.1954
11
45.5316
21
-89.2906
0
LINE
8
BLACK
6
CONTINUOUS
10
45.5316
20
-89.2906
11
45.6268
21
-89.4811
0
LINE
8
BLACK
6
CONTINUOUS
10
45.6268
20
-89.4811
11
45.7221
21
-89.8621
0
LINE
8
BLACK
6
CONTINUOUS
10
45.7221
20
-89.8621
11
45.7221
21
-90.3383
0
LINE
8
BLACK
6
CONTINUOUS
10
45.7221
20
-90.3383
11
45.6268
21
-90.7192
0
LINE
8
BLACK
6
CONTINUOUS
10
45.6268
20
-90.7192
11
45.5316
21
-90.9097
0
LINE
8
BLACK
6
CONTINUOUS
10
45.5316
20
-90.9097
11
45.4363
21
-91.0049
0
LINE
8
BLACK
6
CONTINUOUS
10
45.4363
20
-91.0049
11
45.2459
21
-91.1002
0
LINE
8
BLACK
6
CONTINUOUS
10
45.2459
20
-91.1002
11
45.0554
21
-91.1002
0
LINE
8
BLACK
6
CONTINUOUS
10
45.0554
20
-91.1002
11
44.8649
21
-91.0049
0
LINE
8
BLACK
6
CONTINUOUS
10
44.8649
20
-91.0049
11
44.7697
21
-90.9097
0
LINE
8
BLACK
6
CONTINUOUS
10
44.7697
20
-90.9097
11
44.6744
21
-90.7192
0
LINE
8
BLACK
6
CONTINUOUS
10
44.6744
20
-90.7192
11
44.5792
21
-90.3383
0
LINE
8
BLACK
6
CONTINUOUS
10
44.5792
20
-90.3383
11
44.5792
21
-89.8621
0
LINE
8
BLACK
6
CONTINUOUS
10
44.5792
20
-89.8621
11
44.6744
21
-89.4811
0
LINE
8
BLACK
6
CONTINUOUS
10
44.6744
20
-89.4811
11
44.7697
21
-89.2906
0
LINE
8
BLACK
6
CONTINUOUS
10
44.7697
20
-89.2906
11
44.8649
21
-89.1954
0
LINE
8
BLACK
6
CONTINUOUS
10
44.8649
20
-89.1954
11
45.0554
21
-89.1002
0
LINE
8
BLACK
6
CONTINUOUS
10
46.5792
20
-91.1002
11
46.5792
21
-89.7668
0
LINE
8
BLACK
6
CONTINUOUS
10
46.5792
20
-89.9573
11
46.6744
21
-89.8621
0
LINE
8
BLACK
6
CONTINUOUS
10
46.6744
20
-89.8621
11
46.8649
21
-89.7668
0
LINE
8
BLACK
6
CONTINUOUS
10
46.8649
20
-89.7668
11
47.1506
21
-89.7668
0
LINE
8
BLACK
6
CONTINUOUS
10
47.1506
20
-89.7668
11
47.3411
21
-89.8621
0
LINE
8
BLACK
6
CONTINUOUS
10
47.3411
20
-89.8621
11
47.4363
21
-90.0525
0
LINE
8
BLACK
6
CONTINUOUS
10
47.4363
20
-90.0525
11
47.4363
21
-91.1002
0
LINE
8
BLACK
6
CONTINUOUS
10
47.4363
20
-90.0525
11
47.5316
21
-89.8621
0
LINE
8
BLACK
6
CONTINUOUS
10
47.5316
20
-89.8621
11
47.7221
21
-89.7668
0
LINE
8
BLACK
6
CONTINUOUS
10
47.7221
20
-89.7668
11
48.0078
21
-89.7668
0
LINE
8
BLACK
6
CONTINUOUS
10
48.0078
20
-89.7668
11
48.1982
21
-89.8621
0
LINE
8
BLACK
6
CONTINUOUS
10
48.1982
20
-89.8621
11
48.2935
21
-90.0525
0
LINE
8
BLACK
6
CONTINUOUS
10
48.2935
20
-90.0525
11
48.2935
21
-91.1002
0
LINE
8
BLACK
6
CONTINUOUS
10
49.2459
20
-91.1002
11
49.2459
21
-89.7668
0
LINE
8
BLACK
6
CONTINUOUS
10
49.2459
20
-89.9573
11
49.3411
21
-89.8621
0
LINE
8
BLACK
6
CONTINUOUS
10
49.3411
20
-89.8621
11
49.5316
21
-89.7668
0
LINE
8
BLACK
6
CONTINUOUS
10
49.5316
20
-89.7668
11
49.8173
21
-89.7668
0
LINE
8
BLACK
6
CONTINUOUS
10
49.8173
20
-89.7668
11
50.0078
21
-89.8621
0
LINE
8
BLACK
6
CONTINUOUS
10
50.0078
20
-89.8621
11
50.103
21
-90.0525
0
LINE
8
BLACK
6
CONTINUOUS
10
50.103
20
-90.0525
11
50.103
21
-91.1002
0
LINE
8
BLACK
6
CONTINUOUS
10
50.103
20
-90.0525
11
50.1982
21
-89.8621
0
LINE
8
BLACK
6
CONTINUOUS
10
50.1982
20
-89.8621
11
50.3887
21
-89.7668
0
LINE
8
BLACK
6
CONTINUOUS
10
50.3887
20
-89.7668
11
50.6744
21
-89.7668
0
LINE
8
BLACK
6
CONTINUOUS
10
50.6744
20
-89.7668
11
50.8649
21
-89.8621
0
LINE
8
BLACK
6
CONTINUOUS
10
50.8649
20
-89.8621
11
50.9601
21
-90.0525
0
LINE
8
BLACK
6
CONTINUOUS
10
50.9601
20
-90.0525
11
50.9601
21
-91.1002
0
LINE
8
BLACK
6
CONTINUOUS
10
54.8649
20
-89.0049
11
53.1506
21
-91.5764
0
LINE
8
BLACK
6
CONTINUOUS
10
57.4363
20
-89.1002
11
57.6268
21
-89.1002
0
LINE
8
BLACK
6
CONTINUOUS
10
57.6268
20
-89.1002
11
57.8173
21
-89.1954
0
LINE
8
BLACK
6
CONTINUOUS
10
57.8173
20
-89.1954
11
57.9125
21
-89.2906
0
LINE
8
BLACK
6
CONTINUOUS
10
57.9125
20
-89.2906
11
58.0078
21
-89.4811
0
LINE
8
BLACK
6
CONTINUOUS
10
58.0078
20
-89.4811
11
58.103
21
-89.8621
0
LINE
8
BLACK
6
CONTINUOUS
10
58.103
20
-89.8621
11
58.103
21
-90.3383
0
LINE
8
BLACK
6
CONTINUOUS
10
58.103
20
-90.3383
11
58.0078
21
-90.7192
0
LINE
8
BLACK
6
CONTINUOUS
10
58.0078
20
-90.7192
11
57.9125
21
-90.9097
0
LINE
8
BLACK
6
CONTINUOUS
10
57.9125
20
-90.9097
11
57.8173
21
-91.0049
0
LINE
8
BLACK
6
CONTINUOUS
10
57.8173
20
-91.0049
11
57.6268
21
-91.1002
0
LINE
8
BLACK
6
CONTINUOUS
10
57.6268
20
-91.1002
11
57.4363
21
-91.1002
0
LINE
8
BLACK
6
CONTINUOUS
10
57.4363
20
-91.1002
11
57.2459
21
-91.0049
0
LINE
8
BLACK
6
CONTINUOUS
10
57.2459
20
-91.0049
11
57.1506
21
-90.9097
0
LINE
8
BLACK
6
CONTINUOUS
10
57.1506
20
-90.9097
11
57.0554
21
-90.7192
0
LINE
8
BLACK
6
CONTINUOUS
10
57.0554
20
-90.7192
11
56.9602
21
-90.3383
0
LINE
8
BLACK
6
CONTINUOUS
10
56.9602
20
-90.3383
11
56.9602
21
-89.8621
0
LINE
8
BLACK
6
CONTINUOUS
10
56.9602
20
-89.8621
11
57.0554
21
-89.4811
0
LINE
8
BLACK
6
CONTINUOUS
10
57.0554
20
-89.4811
11
57.1506
21
-89.2906
0
LINE
8
BLACK
6
CONTINUOUS
10
57.1506
20
-89.2906
11
57.2459
21
-89.1954
0
LINE
8
BLACK
6
CONTINUOUS
10
57.2459
20
-89.1954
11
57.4363
21
-89.1002
0
LINE
8
BLACK
6
CONTINUOUS
10
58.9602
20
-90.9097
11
59.0554
21
-91.0049
0
LINE
8
BLACK
6
CONTINUOUS
10
59.0554
20
-91.0049
11
58.9602
21
-91.1002
0
LINE
8
BLACK
6
CONTINUOUS
10
58.9602
20
-91.1002
11
58.8649
21
-91.0049
0
LINE
8
BLACK
6
CONTINUOUS
10
58.8649
20
-91.0049
11
58.9602
21
-90.9097
0
LINE
8
BLACK
6
CONTINUOUS
10
58.9602
20
-90.9097
11
58.9602
21
-91.1002
0
LINE
8
BLACK
6
CONTINUOUS
10
60.2935
20
-89.1002
11
60.484
21
-89.1002
0
LINE
8
BLACK
6
CONTINUOUS
10
60.484
20
-89.1002
11
60.6744
21
-89.1954
0
LINE
8
BLACK
6
CONTINUOUS
10
60.6744
20
-89.1954
11
60.7697
21
-89.2906
0
LINE
8
BLACK
6
CONTINUOUS
10
60.7697
20
-89.2906
11
60.8649
21
-89.4811
0
LINE
8
BLACK
6
CONTINUOUS
10
60.8649
20
-89.4811
11
60.9602
21
-89.8621
0
LINE
8
BLACK
6
CONTINUOUS
10
60.9602
20
-89.8621
11
60.9602
21
-90.3383
0
LINE
8
BLACK
6
CONTINUOUS
10
60.9602
20
-90.3383
11
60.8649
21
-90.7192
0
LINE
8
BLACK
6
CONTINUOUS
10
60.8649
20
-90.7192
11
60.7697
21
-90.9097
0
LINE
8
BLACK
6
CONTINUOUS
10
60.7697
20
-90.9097
11
60.6744
21
-91.0049
0
LINE
8
BLACK
6
CONTINUOUS
10
60.6744
20
-91.0049
11
60.484
21
-91.1002
0
LINE
8
BLACK
6
CONTINUOUS
10
60.484
20
-91.1002
11
60.2935
21
-91.1002
0
LINE
8
BLACK
6
CONTINUOUS
10
60.2935
20
-91.1002
11
60.103
21
-91.0049
0
LINE
8
BLACK
6
CONTINUOUS
10
60.103
20
-91.0049
11
60.0078
21
-90.9097
0
LINE
8
BLACK
6
CONTINUOUS
10
60.0078
20
-90.9097
11
59.9125
21
-90.7192
0
LINE
8
BLACK
6
CONTINUOUS
10
59.9125
20
-90.7192
11
59.8173
21
-90.3383
0
LINE
8
BLACK
6
CONTINUOUS
10
59.8173
20
-90.3383
11
59.8173
21
-89.8621
0
LINE
8
BLACK
6
CONTINUOUS
10
59.8173
20
-89.8621
11
59.9125
21
-89.4811
0
LINE
8
BLACK
6
CONTINUOUS
10
59.9125
20
-89.4811
11
60.0078
21
-89.2906
0
LINE
8
BLACK
6
CONTINUOUS
10
60.0078
20
-89.2906
11
60.103
21
-89.1954
0
LINE
8
BLACK
6
CONTINUOUS
10
60.103
20
-89.1954
11
60.2935
21
-89.1002
0
LINE
8
BLACK
6
CONTINUOUS
10
61.7221
20
-89.2906
11
61.8173
21
-89.1954
0
LINE
8
BLACK
6
CONTINUOUS
10
61.8173
20
-89.1954
11
62.0078
21
-89.1002
0
LINE
8
BLACK
6
CONTINUOUS
10
62.0078
20
-89.1002
11
62.484
21
-89.1002
0
LINE
8
BLACK
6
CONTINUOUS
10
62.484
20
-89.1002
11
62.6744
21
-89.1954
0
LINE
8
BLACK
6
CONTINUOUS
10
62.6744
20
-89.1954
11
62.7697
21
-89.2906
0
LINE
8
BLACK
6
CONTINUOUS
10
62.7697
20
-89.2906
11
62.8649
21
-89.4811
0
LINE
8
BLACK
6
CONTINUOUS
10
62.8649
20
-89.4811
11
62.8649
21
-89.6716
0
LINE
8
BLACK
6
CONTINUOUS
10
62.8649
20
-89.6716
11
62.7697
21
-89.9573
0
LINE
8
BLACK
6
CONTINUOUS
10
62.7697
20
-89.9573
11
61.6268
21
-91.1002
0
LINE
8
BLACK
6
CONTINUOUS
10
61.6268
20
-91.1002
11
62.8649
21
-91.1002
0
LINE
8
BLACK
6
CONTINUOUS
10
63.8173
20
-91.1002
11
64.1982
21
-91.1002
0
LINE
8
BLACK
6
CONTINUOUS
10
64.1982
20
-91.1002
11
64.3887
21
-91.0049
0
LINE
8
BLACK
6
CONTINUOUS
10
64.3887
20
-91.0049
11
64.484
21
-90.9097
0
LINE
8
BLACK
6
CONTINUOUS
10
64.484
20
-90.9097
11
64.6744
21
-90.624
0
LINE
8
BLACK
6
CONTINUOUS
10
64.6744
20
-90.624
11
64.7697
21
-90.243
0
LINE
8
BLACK
6
CONTINUOUS
10
64.7697
20
-90.243
11
64.7697
21
-89.4811
0
LINE
8
BLACK
6
CONTINUOUS
10
64.7697
20
-89.4811
11
64.6744
21
-89.2906
0
LINE
8
BLACK
6
CONTINUOUS
10
64.6744
20
-89.2906
11
64.5792
21
-89.1954
0
LINE
8
BLACK
6
CONTINUOUS
10
64.5792
20
-89.1954
11
64.3887
21
-89.1002
0
LINE
8
BLACK
6
CONTINUOUS
10
64.3887
20
-89.1002
11
64.0078
21
-89.1002
0
LINE
8
BLACK
6
CONTINUOUS
10
64.0078
20
-89.1002
11
63.8173
21
-89.1954
0
LINE
8
BLACK
6
CONTINUOUS
10
63.8173
20
-89.1954
11
63.7221
21
-89.2906
0
LINE
8
BLACK
6
CONTINUOUS
10
63.7221
20
-89.2906
11
63.6268
21
-89.4811
0
LINE
8
BLACK
6
CONTINUOUS
10
63.6268
20
-89.4811
11
63.6268
21
-89.9573
0
LINE
8
BLACK
6
CONTINUOUS
10
63.6268
20
-89.9573
11
63.7221
21
-90.1478
0
LINE
8
BLACK
6
CONTINUOUS
10
63.7221
20
-90.1478
11
63.8173
21
-90.243
0
LINE
8
BLACK
6
CONTINUOUS
10
63.8173
20
-90.243
11
64.0078
21
-90.3383
0
LINE
8
BLACK
6
CONTINUOUS
10
64.0078
20
-90.3383
11
64.3887
21
-90.3383
0
LINE
8
BLACK
6
CONTINUOUS
10
64.3887
20
-90.3383
11
64.5792
21
-90.243
0
LINE
8
BLACK
6
CONTINUOUS
10
64.5792
20
-90.243
11
64.6744
21
-90.1478
0
LINE
8
BLACK
6
CONTINUOUS
10
64.6744
20
-90.1478
11
64.7697
21
-89.9573
0
LINE
8
BLACK
6
CONTINUOUS
10
66.5792
20
-89.1002
11
65.6268
21
-89.1002
0
LINE
8
BLACK
6
CONTINUOUS
10
65.6268
20
-89.1002
11
65.5316
21
-90.0525
0
LINE
8
BLACK
6
CONTINUOUS
10
65.5316
20
-90.0525
11
65.6268
21
-89.9573
0
LINE
8
BLACK
6
CONTINUOUS
10
65.6268
20
-89.9573
11
65.8173
21
-89.8621
0
LINE
8
BLACK
6
CONTINUOUS
10
65.8173
20
-89.8621
11
66.2935
21
-89.8621
0
LINE
8
BLACK
6
CONTINUOUS
10
66.2935
20
-89.8621
11
66.484
21
-89.9573
0
LINE
8
BLACK
6
CONTINUOUS
10
66.484
20
-89.9573
11
66.5792
21
-90.0525
0
LINE
8
BLACK
6
CONTINUOUS
10
66.5792
20
-90.0525
11
66.6744
21
-90.243
0
LINE
8
BLACK
6
CONTINUOUS
10
66.6744
20
-90.243
11
66.6744
21
-90.7192
0
LINE
8
BLACK
6
CONTINUOUS
10
66.6744
20
-90.7192
11
66.5792
21
-90.9097
0
LINE
8
BLACK
6
CONTINUOUS
10
66.5792
20
-90.9097
11
66.484
21
-91.0049
0
LINE
8
BLACK
6
CONTINUOUS
10
66.484
20
-91.0049
11
66.2935
21
-91.1002
0
LINE
8
BLACK
6
CONTINUOUS
10
66.2935
20
-91.1002
11
65.8173
21
-91.1002
0
LINE
8
BLACK
6
CONTINUOUS
10
65.8173
20
-91.1002
11
65.6268
21
-91.0049
0
LINE
8
BLACK
6
CONTINUOUS
10
65.6268
20
-91.0049
11
65.5316
21
-90.9097
0
LINE
8
BLACK
6
CONTINUOUS
10
67.4363
20
-89.1002
11
67.4363
21
-89.4811
0
LINE
8
BLACK
6
CONTINUOUS
10
68.1982
20
-89.1002
11
68.1982
21
-89.4811
0
LINE
8
BLACK
6
CONTINUOUS
10
71.1506
20
-91.8621
11
71.0554
21
-91.7668
0
LINE
8
BLACK
6
CONTINUOUS
10
71.0554
20
-91.7668
11
70.8649
21
-91.4811
0
LINE
8
BLACK
6
CONTINUOUS
10
70.8649
20
-91.4811
11
70.7697
21
-91.2906
0
LINE
8
BLACK
6
CONTINUOUS
10
70.7697
20
-91.2906
11
70.6744
21
-91.0049
0
LINE
8
BLACK
6
CONTINUOUS
10
70.6744
20
-91.0049
11
70.5792
21
-90.5287
0
LINE
8
BLACK
6
CONTINUOUS
10
70.5792
20
-90.5287
11
70.5792
21
-90.1478
0
LINE
8
BLACK
6
CONTINUOUS
10
70.5792
20
-90.1478
11
70.6744
21
-89.6716
0
LINE
8
BLACK
6
CONTINUOUS
10
70.6744
20
-89.6716
11
70.7697
21
-89.3859
0
LINE
8
BLACK
6
CONTINUOUS
10
70.7697
20
-89.3859
11
70.8649
21
-89.1954
0
LINE
8
BLACK
6
CONTINUOUS
10
70.8649
20
-89.1954
11
71.0554
21
-88.9097
0
LINE
8
BLACK
6
CONTINUOUS
10
71.0554
20
-88.9097
11
71.1506
21
-88.8145
0
LINE
8
BLACK
6
CONTINUOUS
10
71.8173
20
-89.2906
11
71.9125
21
-89.1954
0
LINE
8
BLACK
6
CONTINUOUS
10
71.9125
20
-89.1954
11
72.103
21
-89.1002
0
LINE
8
BLACK
6
CONTINUOUS
10
72.103
20
-89.1002
11
72.5792
21
-89.1002
0
LINE
8
BLACK
6
CONTINUOUS
10
72.5792
20
-89.1002
11
72.7697
21
-89.1954
0
LINE
8
BLACK
6
CONTINUOUS
10
72.7697
20
-89.1954
11
72.8649
21
-89.2906
0
LINE
8
BLACK
6
CONTINUOUS
10
72.8649
20
-89.2906
11
72.9602
21
-89.4811
0
LINE
8
BLACK
6
CONTINUOUS
10
72.9602
20
-89.4811
11
72.9602
21
-89.6716
0
LINE
8
BLACK
6
CONTINUOUS
10
72.9602
20
-89.6716
11
72.8649
21
-89.9573
0
LINE
8
BLACK
6
CONTINUOUS
10
72.8649
20
-89.9573
11
71.7221
21
-91.1002
0
LINE
8
BLACK
6
CONTINUOUS
10
71.7221
20
-91.1002
11
72.9602
21
-91.1002
0
LINE
8
BLACK
6
CONTINUOUS
10
75.3411
20
-91.1002
11
75.3411
21
-89.1002
0
LINE
8
BLACK
6
CONTINUOUS
10
76.1982
20
-91.1002
11
76.1982
21
-90.0525
0
LINE
8
BLACK
6
CONTINUOUS
10
76.1982
20
-90.0525
11
76.103
21
-89.8621
0
LINE
8
BLACK
6
CONTINUOUS
10
76.103
20
-89.8621
11
75.9125
21
-89.7668
0
LINE
8
BLACK
6
CONTINUOUS
10
75.9125
20
-89.7668
11
75.6268
21
-89.7668
0
LINE
8
BLACK
6
CONTINUOUS
10
75.6268
20
-89.7668
11
75.4363
21
-89.8621
0
LINE
8
BLACK
6
CONTINUOUS
10
75.4363
20
-89.8621
11
75.3411
21
-89.9573
0
LINE
8
BLACK
6
CONTINUOUS
10
77.4363
20
-91.1002
11
77.2459
21
-91.0049
0
LINE
8
BLACK
6
CONTINUOUS
10
77.2459
20
-91.0049
11
77.1506
21
-90.9097
0
LINE
8
BLACK
6
CONTINUOUS
10
77.1506
20
-90.9097
11
77.0554
21
-90.7192
0
LINE
8
BLACK
6
CONTINUOUS
10
77.0554
20
-90.7192
11
77.0554
21
-90.1478
0
LINE
8
BLACK
6
CONTINUOUS
10
77.0554
20
-90.1478
11
77.1506
21
-89.9573
0
LINE
8
BLACK
6
CONTINUOUS
10
77.1506
20
-89.9573
11
77.2459
21
-89.8621
0
LINE
8
BLACK
6
CONTINUOUS
10
77.2459
20
-89.8621
11
77.4363
21
-89.7668
0
LINE
8
BLACK
6
CONTINUOUS
10
77.4363
20
-89.7668
11
77.7221
21
-89.7668
0
LINE
8
BLACK
6
CONTINUOUS
10
77.7221
20
-89.7668
11
77.9125
21
-89.8621
0
LINE
8
BLACK
6
CONTINUOUS
10
77.9125
20
-89.8621
11
78.0078
21
-89.9573
0
LINE
8
BLACK
6
CONTINUOUS
10
78.0078
20
-89.9573
11
78.103
21
-90.1478
0
LINE
8
BLACK
6
CONTINUOUS
10
78.103
20
-90.1478
11
78.103
21
-90.7192
0
LINE
8
BLACK
6
CONTINUOUS
10
78.103
20
-90.7192
11
78.0078
21
-90.9097
0
LINE
8
BLACK
6
CONTINUOUS
10
78.0078
20
-90.9097
11
77.9125
21
-91.0049
0
LINE
8
BLACK
6
CONTINUOUS
10
77.9125
20
-91.0049
11
77.7221
21
-91.1002
0
LINE
8
BLACK
6
CONTINUOUS
10
77.7221
20
-91.1002
11
77.4363
21
-91.1002
0
LINE
8
BLACK
6
CONTINUOUS
10
79.2459
20
-91.1002
11
79.0554
21
-91.0049
0
LINE
8
BLACK
6
CONTINUOUS
10
79.0554
20
-91.0049
11
78.9602
21
-90.8145
0
LINE
8
BLACK
6
CONTINUOUS
10
78.9602
20
-90.8145
11
78.9602
21
-89.1002
0
LINE
8
BLACK
6
CONTINUOUS
10
80.7697
20
-91.0049
11
80.5792
21
-91.1002
0
LINE
8
BLACK
6
CONTINUOUS
10
80.5792
20
-91.1002
11
80.1982
21
-91.1002
0
LINE
8
BLACK
6
CONTINUOUS
10
80.1982
20
-91.1002
11
80.0078
21
-91.0049
0
LINE
8
BLACK
6
CONTINUOUS
10
80.0078
20
-91.0049
11
79.9125
21
-90.8145
0
LINE
8
BLACK
6
CONTINUOUS
10
79.9125
20
-90.8145
11
79.9125
21
-90.0525
0
LINE
8
BLACK
6
CONTINUOUS
10
79.9125
20
-90.0525
11
80.0078
21
-89.8621
0
LINE
8
BLACK
6
CONTINUOUS
10
80.0078
20
-89.8621
11
80.1982
21
-89.7668
0
LINE
8
BLACK
6
CONTINUOUS
10
80.1982
20
-89.7668
11
80.5792
21
-89.7668
0
LINE
8
BLACK
6
CONTINUOUS
10
80.5792
20
-89.7668
11
80.7697
21
-89.8621
0
LINE
8
BLACK
6
CONTINUOUS
10
80.7697
20
-89.8621
11
80.8649
21
-90.0525
0
LINE
8
BLACK
6
CONTINUOUS
10
80.8649
20
-90.0525
11
80.8649
21
-90.243
0
LINE
8
BLACK
6
CONTINUOUS
10
80.8649
20
-90.243
11
79.9125
21
-90.4335
0
LINE
8
BLACK
6
CONTINUOUS
10
81.6268
20
-91.0049
11
81.8173
21
-91.1002
0
LINE
8
BLACK
6
CONTINUOUS
10
81.8173
20
-91.1002
11
82.1982
21
-91.1002
0
LINE
8
BLACK
6
CONTINUOUS
10
82.1982
20
-91.1002
11
82.3887
21
-91.0049
0
LINE
8
BLACK
6
CONTINUOUS
10
82.3887
20
-91.0049
11
82.484
21
-90.8145
0
LINE
8
BLACK
6
CONTINUOUS
10
82.484
20
-90.8145
11
82.484
21
-90.7192
0
LINE
8
BLACK
6
CONTINUOUS
10
82.484
20
-90.7192
11
82.3887
21
-90.5287
0
LINE
8
BLACK
6
CONTINUOUS
10
82.3887
20
-90.5287
11
82.1982
21
-90.4335
0
LINE
8
BLACK
6
CONTINUOUS
10
82.1982
20
-90.4335
11
81.9125
21
-90.4335
0
LINE
8
BLACK
6
CONTINUOUS
10
81.9125
20
-90.4335
11
81.7221
21
-90.3383
0
LINE
8
BLACK
6
CONTINUOUS
10
81.7221
20
-90.3383
11
81.6268
21
-90.1478
0
LINE
8
BLACK
6
CONTINUOUS
10
81.6268
20
-90.1478
11
81.6268
21
-90.0525
0
LINE
8
BLACK
6
CONTINUOUS
10
81.6268
20
-90.0525
11
81.7221
21
-89.8621
0
LINE
8
BLACK
6
CONTINUOUS
10
81.7221
20
-89.8621
11
81.9125
21
-89.7668
0
LINE
8
BLACK
6
CONTINUOUS
10
81.9125
20
-89.7668
11
82.1982
21
-89.7668
0
LINE
8
BLACK
6
CONTINUOUS
10
82.1982
20
-89.7668
11
82.3887
21
-89.8621
0
LINE
8
BLACK
6
CONTINUOUS
10
83.1506
20
-91.8621
11
83.2459
21
-91.7668
0
LINE
8
BLACK
6
CONTINUOUS
10
83.2459
20
-91.7668
11
83.4363
21
-91.4811
0
LINE
8
BLACK
6
CONTINUOUS
10
83.4363
20
-91.4811
11
83.5316
21
-91.2906
0
LINE
8
BLACK
6
CONTINUOUS
10
83.5316
20
-91.2906
11
83.6268
21
-91.0049
0
LINE
8
BLACK
6
CONTINUOUS
10
83.6268
20
-91.0049
11
83.7221
21
-90.5287
0
LINE
8
BLACK
6
CONTINUOUS
10
83.7221
20
-90.5287
11
83.7221
21
-90.1478
0
LINE
8
BLACK
6
CONTINUOUS
10
83.7221
20
-90.1478
11
83.6268
21
-89.6716
0
LINE
8
BLACK
6
CONTINUOUS
10
83.6268
20
-89.6716
11
83.5316
21
-89.3859
0
LINE
8
BLACK
6
CONTINUOUS
10
83.5316
20
-89.3859
11
83.4363
21
-89.1954
0
LINE
8
BLACK
6
CONTINUOUS
10
83.4363
20
-89.1954
11
83.2459
21
-88.9097
0
LINE
8
BLACK
6
CONTINUOUS
10
83.2459
20
-88.9097
11
83.1506
21
-88.8145
0
LINE
8
BLACK
6
CONTINUOUS
10
86.7697
20
-91.8621
11
86.6744
21
-91.7668
0
LINE
8
BLACK
6
CONTINUOUS
10
86.6744
20
-91.7668
11
86.484
21
-91.4811
0
LINE
8
BLACK
6
CONTINUOUS
10
86.484
20
-91.4811
11
86.3887
21
-91.2906
0
LINE
8
BLACK
6
CONTINUOUS
10
86.3887
20
-91.2906
11
86.2935
21
-91.0049
0
LINE
8
BLACK
6
CONTINUOUS
10
86.2935
20
-91.0049
11
86.1982
21
-90.5287
0
LINE
8
BLACK
6
CONTINUOUS
10
86.1982
20
-90.5287
11
86.1982
21
-90.1478
0
LINE
8
BLACK
6
CONTINUOUS
10
86.1982
20
-90.1478
11
86.2935
21
-89.6716
0
LINE
8
BLACK
6
CONTINUOUS
10
86.2935
20
-89.6716
11
86.3887
21
-89.3859
0
LINE
8
BLACK
6
CONTINUOUS
10
86.3887
20
-89.3859
11
86.484
21
-89.1954
0
LINE
8
BLACK
6
CONTINUOUS
10
86.484
20
-89.1954
11
86.6744
21
-88.9097
0
LINE
8
BLACK
6
CONTINUOUS
10
86.6744
20
-88.9097
11
86.7697
21
-88.8145
0
LINE
8
BLACK
6
CONTINUOUS
10
87.5316
20
-89.7668
11
87.5316
21
-91.1002
0
LINE
8
BLACK
6
CONTINUOUS
10
87.5316
20
-89.9573
11
87.6268
21
-89.8621
0
LINE
8
BLACK
6
CONTINUOUS
10
87.6268
20
-89.8621
11
87.8173
21
-89.7668
0
LINE
8
BLACK
6
CONTINUOUS
10
87.8173
20
-89.7668
11
88.103
21
-89.7668
0
LINE
8
BLACK
6
CONTINUOUS
10
88.103
20
-89.7668
11
88.2935
21
-89.8621
0
LINE
8
BLACK
6
CONTINUOUS
10
88.2935
20
-89.8621
11
88.3887
21
-90.0525
0
LINE
8
BLACK
6
CONTINUOUS
10
88.3887
20
-90.0525
11
88.3887
21
-91.1002
0
LINE
8
BLACK
6
CONTINUOUS
10
89.6268
20
-91.1002
11
89.4363
21
-91.0049
0
LINE
8
BLACK
6
CONTINUOUS
10
89.4363
20
-91.0049
11
89.3411
21
-90.9097
0
LINE
8
BLACK
6
CONTINUOUS
10
89.3411
20
-90.9097
11
89.2459
21
-90.7192
0
LINE
8
BLACK
6
CONTINUOUS
10
89.2459
20
-90.7192
11
89.2459
21
-90.1478
0
LINE
8
BLACK
6
CONTINUOUS
10
89.2459
20
-90.1478
11
89.3411
21
-89.9573
0
LINE
8
BLACK
6
CONTINUOUS
10
89.3411
20
-89.9573
11
89.4363
21
-89.8621
0
LINE
8
BLACK
6
CONTINUOUS
10
89.4363
20
-89.8621
11
89.6268
21
-89.7668
0
LINE
8
BLACK
6
CONTINUOUS
10
89.6268
20
-89.7668
11
89.9125
21
-89.7668
0
LINE
8
BLACK
6
CONTINUOUS
10
89.9125
20
-89.7668
11
90.103
21
-89.8621
0
LINE
8
BLACK
6
CONTINUOUS
10
90.103
20
-89.8621
11
90.1982
21
-89.9573
0
LINE
8
BLACK
6
CONTINUOUS
10
90.1982
20
-89.9573
11
90.2935
21
-90.1478
0
LINE
8
BLACK
6
CONTINUOUS
10
90.2935
20
-90.1478
11
90.2935
21
-90.7192
0
LINE
8
BLACK
6
CONTINUOUS
10
90.2935
20
-90.7192
11
90.1982
21
-90.9097
0
LINE
8
BLACK
6
CONTINUOUS
10
90.1982
20
-90.9097
11
90.103
21
-91.0049
0
LINE
8
BLACK
6
CONTINUOUS
10
90.103
20
-91.0049
11
89.9125
21
-91.1002
0
LINE
8
BLACK
6
CONTINUOUS
10
89.9125
20
-91.1002
11
89.6268
21
-91.1002
0
LINE
8
BLACK
6
CONTINUOUS
10
90.8649
20
-89.7668
11
91.6268
21
-89.7668
0
LINE
8
BLACK
6
CONTINUOUS
10
91.1506
20
-89.1002
11
91.1506
21
-90.8145
0
LINE
8
BLACK
6
CONTINUOUS
10
91.1506
20
-90.8145
11
91.2459
21
-91.0049
0
LINE
8
BLACK
6
CONTINUOUS
10
91.2459
20
-91.0049
11
91.4363
21
-91.1002
0
LINE
8
BLACK
6
CONTINUOUS
10
91.4363
20
-91.1002
11
91.6268
21
-91.1002
0
LINE
8
BLACK
6
CONTINUOUS
10
93.8173
20
-89.7668
11
93.8173
21
-91.7668
0
LINE
8
BLACK
6
CONTINUOUS
10
93.8173
20
-89.8621
11
94.0078
21
-89.7668
0
LINE
8
BLACK
6
CONTINUOUS
10
94.0078
20
-89.7668
11
94.3887
21
-89.7668
0
LINE
8
BLACK
6
CONTINUOUS
10
94.3887
20
-89.7668
11
94.5792
21
-89.8621
0
LINE
8
BLACK
6
CONTINUOUS
10
94.5792
20
-89.8621
11
94.6744
21
-89.9573
0
LINE
8
BLACK
6
CONTINUOUS
10
94.6744
20
-89.9573
11
94.7697
21
-90.1478
0
LINE
8
BLACK
6
CONTINUOUS
10
94.7697
20
-90.1478
11
94.7697
21
-90.7192
0
LINE
8
BLACK
6
CONTINUOUS
10
94.7697
20
-90.7192
11
94.6744
21
-90.9097
0
LINE
8
BLACK
6
CONTINUOUS
10
94.6744
20
-90.9097
11
94.5792
21
-91.0049
0
LINE
8
BLACK
6
CONTINUOUS
10
94.5792
20
-91.0049
11
94.3887
21
-91.1002
0
LINE
8
BLACK
6
CONTINUOUS
10
94.3887
20
-91.1002
11
94.0078
21
-91.1002
0
LINE
8
BLACK
6
CONTINUOUS
10
94.0078
20
-91.1002
11
93.8173
21
-91.0049
0
LINE
8
BLACK
6
CONTINUOUS
10
95.9125
20
-91.1002
11
95.7221
21
-91.0049
0
LINE
8
BLACK
6
CONTINUOUS
10
95.7221
20
-91.0049
11
95.6268
21
-90.8145
0
LINE
8
BLACK
6
CONTINUOUS
10
95.6268
20
-90.8145
11
95.6268
21
-89.1002
0
LINE
8
BLACK
6
CONTINUOUS
10
97.5316
20
-91.1002
11
97.5316
21
-90.0525
0
LINE
8
BLACK
6
CONTINUOUS
10
97.5316
20
-90.0525
11
97.4363
21
-89.8621
0
LINE
8
BLACK
6
CONTINUOUS
10
97.4363
20
-89.8621
11
97.2459
21
-89.7668
0
LINE
8
BLACK
6
CONTINUOUS
10
97.2459
20
-89.7668
11
96.8649
21
-89.7668
0
LINE
8
BLACK
6
CONTINUOUS
10
96.8649
20
-89.7668
11
96.6744
21
-89.8621
0
LINE
8
BLACK
6
CONTINUOUS
10
97.5316
20
-91.0049
11
97.3411
21
-91.1002
0
LINE
8
BLACK
6
CONTINUOUS
10
97.3411
20
-91.1002
11
96.8649
21
-91.1002
0
LINE
8
BLACK
6
CONTINUOUS
10
96.8649
20
-91.1002
11
96.6744
21
-91.0049
0
LINE
8
BLACK
6
CONTINUOUS
10
96.6744
20
-91.0049
11
96.5792
21
-90.8145
0
LINE
8
BLACK
6
CONTINUOUS
10
96.5792
20
-90.8145
11
96.5792
21
-90.624
0
LINE
8
BLACK
6
CONTINUOUS
10
96.5792
20
-90.624
11
96.6744
21
-90.4335
0
LINE
8
BLACK
6
CONTINUOUS
10
96.6744
20
-90.4335
11
96.8649
21
-90.3383
0
LINE
8
BLACK
6
CONTINUOUS
10
96.8649
20
-90.3383
11
97.3411
21
-90.3383
0
LINE
8
BLACK
6
CONTINUOUS
10
97.3411
20
-90.3383
11
97.5316
21
-90.243
0
LINE
8
BLACK
6
CONTINUOUS
10
98.1983
20
-89.7668
11
98.9602
21
-89.7668
0
LINE
8
BLACK
6
CONTINUOUS
10
98.484
20
-89.1002
11
98.484
21
-90.8145
0
LINE
8
BLACK
6
CONTINUOUS
10
98.484
20
-90.8145
11
98.5792
21
-91.0049
0
LINE
8
BLACK
6
CONTINUOUS
10
98.5792
20
-91.0049
11
98.7697
21
-91.1002
0
LINE
8
BLACK
6
CONTINUOUS
10
98.7697
20
-91.1002
11
98.9602
21
-91.1002
0
LINE
8
BLACK
6
CONTINUOUS
10
100.389
20
-91.0049
11
100.198
21
-91.1002
0
LINE
8
BLACK
6
CONTINUOUS
10
100.198
20
-91.1002
11
99.8173
21
-91.1002
0
LINE
8
BLACK
6
CONTINUOUS
10
99.8173
20
-91.1002
11
99.6268
21
-91.0049
0
LINE
8
BLACK
6
CONTINUOUS
10
99.6268
20
-91.0049
11
99.5316
21
-90.8145
0
LINE
8
BLACK
6
CONTINUOUS
10
99.5316
20
-90.8145
11
99.5316
21
-90.0525
0
LINE
8
BLACK
6
CONTINUOUS
10
99.5316
20
-90.0525
11
99.6268
21
-89.8621
0
LINE
8
BLACK
6
CONTINUOUS
10
99.6268
20
-89.8621
11
99.8173
21
-89.7668
0
LINE
8
BLACK
6
CONTINUOUS
10
99.8173
20
-89.7668
11
100.198
21
-89.7668
0
LINE
8
BLACK
6
CONTINUOUS
10
100.198
20
-89.7668
11
100.389
21
-89.8621
0
LINE
8
BLACK
6
CONTINUOUS
10
100.389
20
-89.8621
11
100.484
21
-90.0525
0
LINE
8
BLACK
6
CONTINUOUS
10
100.484
20
-90.0525
11
100.484
21
-90.243
0
LINE
8
BLACK
6
CONTINUOUS
10
100.484
20
-90.243
11
99.5316
21
-90.4335
0
LINE
8
BLACK
6
CONTINUOUS
10
102.198
20
-91.1002
11
102.198
21
-89.1002
0
LINE
8
BLACK
6
CONTINUOUS
10
102.198
20
-91.0049
11
102.008
21
-91.1002
0
LINE
8
BLACK
6
CONTINUOUS
10
102.008
20
-91.1002
11
101.627
21
-91.1002
0
LINE
8
BLACK
6
CONTINUOUS
10
101.627
20
-91.1002
11
101.436
21
-91.0049
0
LINE
8
BLACK
6
CONTINUOUS
10
101.436
20
-91.0049
11
101.341
21
-90.9097
0
LINE
8
BLACK
6
CONTINUOUS
10
101.341
20
-90.9097
11
101.246
21
-90.7192
0
LINE
8
BLACK
6
CONTINUOUS
10
101.246
20
-90.7192
11
101.246
21
-90.1478
0
LINE
8
BLACK
6
CONTINUOUS
10
101.246
20
-90.1478
11
101.341
21
-89.9573
0
LINE
8
BLACK
6
CONTINUOUS
10
101.341
20
-89.9573
11
101.436
21
-89.8621
0
LINE
8
BLACK
6
CONTINUOUS
10
101.436
20
-89.8621
11
101.627
21
-89.7668
0
LINE
8
BLACK
6
CONTINUOUS
10
101.627
20
-89.7668
11
102.008
21
-89.7668
0
LINE
8
BLACK
6
CONTINUOUS
10
102.008
20
-89.7668
11
102.198
21
-89.8621
0
LINE
8
BLACK
6
CONTINUOUS
10
102.96
20
-91.8621
11
103.055
21
-91.7668
0
LINE
8
BLACK
6
CONTINUOUS
10
103.055
20
-91.7668
11
103.246
21
-91.4811
0
LINE
8
BLACK
6
CONTINUOUS
10
103.246
20
-91.4811
11
103.341
21
-91.2906
0
LINE
8
BLACK
6
CONTINUOUS
10
103.341
20
-91.2906
11
103.436
21
-91.0049
0
LINE
8
BLACK
6
CONTINUOUS
10
103.436
20
-91.0049
11
103.532
21
-90.5287
0
LINE
8
BLACK
6
CONTINUOUS
10
103.532
20
-90.5287
11
103.532
21
-90.1478
0
LINE
8
BLACK
6
CONTINUOUS
10
103.532
20
-90.1478
11
103.436
21
-89.6716
0
LINE
8
BLACK
6
CONTINUOUS
10
103.436
20
-89.6716
11
103.341
21
-89.3859
0
LINE
8
BLACK
6
CONTINUOUS
10
103.341
20
-89.3859
11
103.246
21
-89.1954
0
LINE
8
BLACK
6
CONTINUOUS
10
103.246
20
-89.1954
11
103.055
21
-88.9097
0
LINE
8
BLACK
6
CONTINUOUS
10
103.055
20
-88.9097
11
102.96
21
-88.8145
  0
ENDSEC
  0
EOF
