%TF.GenerationSoftware,KiCad,Pcbnew,7.0.7*%
%TF.CreationDate,2024-06-24T12:24:59-07:00*%
%TF.ProjectId,Business Card PCB Hot Plate,42757369-6e65-4737-9320-436172642050,rev?*%
%TF.SameCoordinates,Original*%
%TF.FileFunction,Paste,Top*%
%TF.FilePolarity,Positive*%
%FSLAX46Y46*%
G04 Gerber Fmt 4.6, Leading zero omitted, Abs format (unit mm)*
G04 Created by KiCad (PCBNEW 7.0.7) date 2024-06-24 12:24:59*
%MOMM*%
%LPD*%
G01*
G04 APERTURE LIST*
G04 Aperture macros list*
%AMRoundRect*
0 Rectangle with rounded corners*
0 $1 Rounding radius*
0 $2 $3 $4 $5 $6 $7 $8 $9 X,Y pos of 4 corners*
0 Add a 4 corners polygon primitive as box body*
4,1,4,$2,$3,$4,$5,$6,$7,$8,$9,$2,$3,0*
0 Add four circle primitives for the rounded corners*
1,1,$1+$1,$2,$3*
1,1,$1+$1,$4,$5*
1,1,$1+$1,$6,$7*
1,1,$1+$1,$8,$9*
0 Add four rect primitives between the rounded corners*
20,1,$1+$1,$2,$3,$4,$5,0*
20,1,$1+$1,$4,$5,$6,$7,0*
20,1,$1+$1,$6,$7,$8,$9,0*
20,1,$1+$1,$8,$9,$2,$3,0*%
G04 Aperture macros list end*
%ADD10C,0.120000*%
%ADD11RoundRect,0.250000X-0.650000X0.325000X-0.650000X-0.325000X0.650000X-0.325000X0.650000X0.325000X0*%
%ADD12RoundRect,0.135000X0.185000X-0.135000X0.185000X0.135000X-0.185000X0.135000X-0.185000X-0.135000X0*%
%ADD13RoundRect,0.135000X-0.185000X0.135000X-0.185000X-0.135000X0.185000X-0.135000X0.185000X0.135000X0*%
%ADD14RoundRect,0.250000X0.650000X-1.000000X0.650000X1.000000X-0.650000X1.000000X-0.650000X-1.000000X0*%
%ADD15RoundRect,0.150000X-0.150000X0.675000X-0.150000X-0.675000X0.150000X-0.675000X0.150000X0.675000X0*%
%ADD16RoundRect,0.140000X0.170000X-0.140000X0.170000X0.140000X-0.170000X0.140000X-0.170000X-0.140000X0*%
%ADD17RoundRect,0.135000X0.135000X0.185000X-0.135000X0.185000X-0.135000X-0.185000X0.135000X-0.185000X0*%
%ADD18RoundRect,0.250000X0.325000X0.650000X-0.325000X0.650000X-0.325000X-0.650000X0.325000X-0.650000X0*%
%ADD19R,0.850000X0.900000*%
%ADD20R,0.650000X0.500000*%
%ADD21R,0.550000X0.500000*%
%ADD22RoundRect,0.135000X-0.135000X-0.185000X0.135000X-0.185000X0.135000X0.185000X-0.135000X0.185000X0*%
%ADD23R,1.500000X0.900000*%
%ADD24R,0.700000X0.700000*%
%ADD25RoundRect,0.250000X-0.650000X1.000000X-0.650000X-1.000000X0.650000X-1.000000X0.650000X1.000000X0*%
%ADD26RoundRect,0.250000X-1.000000X1.750000X-1.000000X-1.750000X1.000000X-1.750000X1.000000X1.750000X0*%
%ADD27RoundRect,0.218750X0.218750X0.256250X-0.218750X0.256250X-0.218750X-0.256250X0.218750X-0.256250X0*%
%ADD28RoundRect,0.200000X0.200000X0.800000X-0.200000X0.800000X-0.200000X-0.800000X0.200000X-0.800000X0*%
%ADD29RoundRect,0.140000X-0.170000X0.140000X-0.170000X-0.140000X0.170000X-0.140000X0.170000X0.140000X0*%
%ADD30RoundRect,0.200000X-0.200000X-0.800000X0.200000X-0.800000X0.200000X0.800000X-0.200000X0.800000X0*%
%ADD31RoundRect,0.243750X0.456250X-0.243750X0.456250X0.243750X-0.456250X0.243750X-0.456250X-0.243750X0*%
%ADD32RoundRect,0.100000X0.100000X-0.637500X0.100000X0.637500X-0.100000X0.637500X-0.100000X-0.637500X0*%
%ADD33R,2.350000X3.400000*%
%ADD34R,0.600000X1.550000*%
%ADD35R,3.100000X2.600000*%
%ADD36RoundRect,0.140000X-0.140000X-0.170000X0.140000X-0.170000X0.140000X0.170000X-0.140000X0.170000X0*%
%ADD37R,1.300000X0.600000*%
%ADD38R,1.300000X0.300000*%
G04 APERTURE END LIST*
%TO.C,J1*%
D10*
X43924000Y-57135328D02*
X42624000Y-57135328D01*
X42624000Y-56835328D01*
X43924000Y-56835328D01*
X43924000Y-57135328D01*
G36*
X43924000Y-57135328D02*
G01*
X42624000Y-57135328D01*
X42624000Y-56835328D01*
X43924000Y-56835328D01*
X43924000Y-57135328D01*
G37*
X43924000Y-57635328D02*
X42624000Y-57635328D01*
X42624000Y-57335328D01*
X43924000Y-57335328D01*
X43924000Y-57635328D01*
G36*
X43924000Y-57635328D02*
G01*
X42624000Y-57635328D01*
X42624000Y-57335328D01*
X43924000Y-57335328D01*
X43924000Y-57635328D01*
G37*
X43924000Y-58135328D02*
X42624000Y-58135328D01*
X42624000Y-57835328D01*
X43924000Y-57835328D01*
X43924000Y-58135328D01*
G36*
X43924000Y-58135328D02*
G01*
X42624000Y-58135328D01*
X42624000Y-57835328D01*
X43924000Y-57835328D01*
X43924000Y-58135328D01*
G37*
X43924000Y-58635328D02*
X42624000Y-58635328D01*
X42624000Y-58335328D01*
X43924000Y-58335328D01*
X43924000Y-58635328D01*
G36*
X43924000Y-58635328D02*
G01*
X42624000Y-58635328D01*
X42624000Y-58335328D01*
X43924000Y-58335328D01*
X43924000Y-58635328D01*
G37*
X43924000Y-59135328D02*
X42624000Y-59135328D01*
X42624000Y-58835328D01*
X43924000Y-58835328D01*
X43924000Y-59135328D01*
G36*
X43924000Y-59135328D02*
G01*
X42624000Y-59135328D01*
X42624000Y-58835328D01*
X43924000Y-58835328D01*
X43924000Y-59135328D01*
G37*
X43924000Y-59635328D02*
X42624000Y-59635328D01*
X42624000Y-59335328D01*
X43924000Y-59335328D01*
X43924000Y-59635328D01*
G36*
X43924000Y-59635328D02*
G01*
X42624000Y-59635328D01*
X42624000Y-59335328D01*
X43924000Y-59335328D01*
X43924000Y-59635328D01*
G37*
X43924000Y-60135328D02*
X42624000Y-60135328D01*
X42624000Y-59835328D01*
X43924000Y-59835328D01*
X43924000Y-60135328D01*
G36*
X43924000Y-60135328D02*
G01*
X42624000Y-60135328D01*
X42624000Y-59835328D01*
X43924000Y-59835328D01*
X43924000Y-60135328D01*
G37*
X43924000Y-60635328D02*
X42624000Y-60635328D01*
X42624000Y-60335328D01*
X43924000Y-60335328D01*
X43924000Y-60635328D01*
G36*
X43924000Y-60635328D02*
G01*
X42624000Y-60635328D01*
X42624000Y-60335328D01*
X43924000Y-60335328D01*
X43924000Y-60635328D01*
G37*
X43924000Y-55535328D02*
X43924000Y-55835328D01*
X42624000Y-55835328D01*
X42624000Y-55535328D01*
X42624000Y-55235328D01*
X43924000Y-55235328D01*
X43924000Y-55535328D01*
G36*
X43924000Y-55535328D02*
G01*
X43924000Y-55835328D01*
X42624000Y-55835328D01*
X42624000Y-55535328D01*
X42624000Y-55235328D01*
X43924000Y-55235328D01*
X43924000Y-55535328D01*
G37*
X43924000Y-56335328D02*
X43924000Y-56635328D01*
X42624000Y-56635328D01*
X42624000Y-56335328D01*
X42624000Y-56035328D01*
X43924000Y-56035328D01*
X43924000Y-56335328D01*
G36*
X43924000Y-56335328D02*
G01*
X43924000Y-56635328D01*
X42624000Y-56635328D01*
X42624000Y-56335328D01*
X42624000Y-56035328D01*
X43924000Y-56035328D01*
X43924000Y-56335328D01*
G37*
X43924000Y-61135328D02*
X43924000Y-61435328D01*
X42624000Y-61435328D01*
X42624000Y-61135328D01*
X42624000Y-60835328D01*
X43924000Y-60835328D01*
X43924000Y-61135328D01*
G36*
X43924000Y-61135328D02*
G01*
X43924000Y-61435328D01*
X42624000Y-61435328D01*
X42624000Y-61135328D01*
X42624000Y-60835328D01*
X43924000Y-60835328D01*
X43924000Y-61135328D01*
G37*
X43924000Y-61935328D02*
X43924000Y-62235328D01*
X42624000Y-62235328D01*
X42624000Y-61935328D01*
X42624000Y-61635328D01*
X43924000Y-61635328D01*
X43924000Y-61935328D01*
G36*
X43924000Y-61935328D02*
G01*
X43924000Y-62235328D01*
X42624000Y-62235328D01*
X42624000Y-61935328D01*
X42624000Y-61635328D01*
X43924000Y-61635328D01*
X43924000Y-61935328D01*
G37*
X38656000Y-53811328D02*
X38686000Y-53813328D01*
X38715000Y-53817328D01*
X38745000Y-53822328D01*
X38774000Y-53828328D01*
X38803000Y-53837328D01*
X38831000Y-53846328D01*
X38859000Y-53857328D01*
X38886000Y-53869328D01*
X38913000Y-53883328D01*
X38939000Y-53898328D01*
X38964000Y-53914328D01*
X38988000Y-53932328D01*
X39012000Y-53950328D01*
X39034000Y-53970328D01*
X39055000Y-53991328D01*
X39076000Y-54013328D01*
X39095000Y-54036328D01*
X39113000Y-54060328D01*
X39130000Y-54084328D01*
X39145000Y-54110328D01*
X39160000Y-54136328D01*
X39173000Y-54163328D01*
X39184000Y-54191328D01*
X39195000Y-54219328D01*
X39203000Y-54247328D01*
X39211000Y-54276328D01*
X39217000Y-54306328D01*
X39221000Y-54335328D01*
X39224000Y-54365328D01*
X39226000Y-54395328D01*
X39226000Y-54425328D01*
X39224000Y-54455328D01*
X39221000Y-54484328D01*
X39217000Y-54514328D01*
X39211000Y-54543328D01*
X39203000Y-54572328D01*
X39195000Y-54601328D01*
X39184000Y-54629328D01*
X39173000Y-54657328D01*
X39160000Y-54684328D01*
X39145000Y-54710328D01*
X39130000Y-54735328D01*
X39113000Y-54760328D01*
X39095000Y-54784328D01*
X39076000Y-54807328D01*
X39055000Y-54829328D01*
X39034000Y-54850328D01*
X39012000Y-54870328D01*
X38988000Y-54888328D01*
X38964000Y-54906328D01*
X38939000Y-54922328D01*
X38913000Y-54937328D01*
X38886000Y-54950328D01*
X38859000Y-54963328D01*
X38831000Y-54974328D01*
X38803000Y-54983328D01*
X38774000Y-54991328D01*
X38745000Y-54998328D01*
X38715000Y-55003328D01*
X38686000Y-55007328D01*
X38656000Y-55009328D01*
X38626000Y-55010328D01*
X38026000Y-55010328D01*
X37996000Y-55009328D01*
X37966000Y-55007328D01*
X37936000Y-55003328D01*
X37907000Y-54998328D01*
X37878000Y-54991328D01*
X37849000Y-54983328D01*
X37821000Y-54974328D01*
X37793000Y-54963328D01*
X37766000Y-54950328D01*
X37739000Y-54937328D01*
X37713000Y-54922328D01*
X37688000Y-54906328D01*
X37664000Y-54888328D01*
X37640000Y-54870328D01*
X37618000Y-54850328D01*
X37596000Y-54829328D01*
X37576000Y-54807328D01*
X37557000Y-54784328D01*
X37539000Y-54760328D01*
X37522000Y-54735328D01*
X37506000Y-54710328D01*
X37492000Y-54684328D01*
X37479000Y-54657328D01*
X37467000Y-54629328D01*
X37457000Y-54601328D01*
X37448000Y-54572328D01*
X37441000Y-54543328D01*
X37435000Y-54514328D01*
X37431000Y-54484328D01*
X37428000Y-54455328D01*
X37426000Y-54425328D01*
X37426000Y-54395328D01*
X37428000Y-54365328D01*
X37431000Y-54335328D01*
X37435000Y-54306328D01*
X37441000Y-54276328D01*
X37448000Y-54247328D01*
X37457000Y-54219328D01*
X37467000Y-54191328D01*
X37479000Y-54163328D01*
X37492000Y-54136328D01*
X37506000Y-54110328D01*
X37522000Y-54084328D01*
X37539000Y-54060328D01*
X37557000Y-54036328D01*
X37576000Y-54013328D01*
X37596000Y-53991328D01*
X37618000Y-53970328D01*
X37640000Y-53950328D01*
X37664000Y-53932328D01*
X37688000Y-53914328D01*
X37713000Y-53898328D01*
X37739000Y-53883328D01*
X37766000Y-53869328D01*
X37793000Y-53857328D01*
X37821000Y-53846328D01*
X37849000Y-53837328D01*
X37878000Y-53828328D01*
X37907000Y-53822328D01*
X37936000Y-53817328D01*
X37966000Y-53813328D01*
X37996000Y-53811328D01*
X38026000Y-53810328D01*
X38626000Y-53810328D01*
X38656000Y-53811328D01*
G36*
X38656000Y-53811328D02*
G01*
X38686000Y-53813328D01*
X38715000Y-53817328D01*
X38745000Y-53822328D01*
X38774000Y-53828328D01*
X38803000Y-53837328D01*
X38831000Y-53846328D01*
X38859000Y-53857328D01*
X38886000Y-53869328D01*
X38913000Y-53883328D01*
X38939000Y-53898328D01*
X38964000Y-53914328D01*
X38988000Y-53932328D01*
X39012000Y-53950328D01*
X39034000Y-53970328D01*
X39055000Y-53991328D01*
X39076000Y-54013328D01*
X39095000Y-54036328D01*
X39113000Y-54060328D01*
X39130000Y-54084328D01*
X39145000Y-54110328D01*
X39160000Y-54136328D01*
X39173000Y-54163328D01*
X39184000Y-54191328D01*
X39195000Y-54219328D01*
X39203000Y-54247328D01*
X39211000Y-54276328D01*
X39217000Y-54306328D01*
X39221000Y-54335328D01*
X39224000Y-54365328D01*
X39226000Y-54395328D01*
X39226000Y-54425328D01*
X39224000Y-54455328D01*
X39221000Y-54484328D01*
X39217000Y-54514328D01*
X39211000Y-54543328D01*
X39203000Y-54572328D01*
X39195000Y-54601328D01*
X39184000Y-54629328D01*
X39173000Y-54657328D01*
X39160000Y-54684328D01*
X39145000Y-54710328D01*
X39130000Y-54735328D01*
X39113000Y-54760328D01*
X39095000Y-54784328D01*
X39076000Y-54807328D01*
X39055000Y-54829328D01*
X39034000Y-54850328D01*
X39012000Y-54870328D01*
X38988000Y-54888328D01*
X38964000Y-54906328D01*
X38939000Y-54922328D01*
X38913000Y-54937328D01*
X38886000Y-54950328D01*
X38859000Y-54963328D01*
X38831000Y-54974328D01*
X38803000Y-54983328D01*
X38774000Y-54991328D01*
X38745000Y-54998328D01*
X38715000Y-55003328D01*
X38686000Y-55007328D01*
X38656000Y-55009328D01*
X38626000Y-55010328D01*
X38026000Y-55010328D01*
X37996000Y-55009328D01*
X37966000Y-55007328D01*
X37936000Y-55003328D01*
X37907000Y-54998328D01*
X37878000Y-54991328D01*
X37849000Y-54983328D01*
X37821000Y-54974328D01*
X37793000Y-54963328D01*
X37766000Y-54950328D01*
X37739000Y-54937328D01*
X37713000Y-54922328D01*
X37688000Y-54906328D01*
X37664000Y-54888328D01*
X37640000Y-54870328D01*
X37618000Y-54850328D01*
X37596000Y-54829328D01*
X37576000Y-54807328D01*
X37557000Y-54784328D01*
X37539000Y-54760328D01*
X37522000Y-54735328D01*
X37506000Y-54710328D01*
X37492000Y-54684328D01*
X37479000Y-54657328D01*
X37467000Y-54629328D01*
X37457000Y-54601328D01*
X37448000Y-54572328D01*
X37441000Y-54543328D01*
X37435000Y-54514328D01*
X37431000Y-54484328D01*
X37428000Y-54455328D01*
X37426000Y-54425328D01*
X37426000Y-54395328D01*
X37428000Y-54365328D01*
X37431000Y-54335328D01*
X37435000Y-54306328D01*
X37441000Y-54276328D01*
X37448000Y-54247328D01*
X37457000Y-54219328D01*
X37467000Y-54191328D01*
X37479000Y-54163328D01*
X37492000Y-54136328D01*
X37506000Y-54110328D01*
X37522000Y-54084328D01*
X37539000Y-54060328D01*
X37557000Y-54036328D01*
X37576000Y-54013328D01*
X37596000Y-53991328D01*
X37618000Y-53970328D01*
X37640000Y-53950328D01*
X37664000Y-53932328D01*
X37688000Y-53914328D01*
X37713000Y-53898328D01*
X37739000Y-53883328D01*
X37766000Y-53869328D01*
X37793000Y-53857328D01*
X37821000Y-53846328D01*
X37849000Y-53837328D01*
X37878000Y-53828328D01*
X37907000Y-53822328D01*
X37936000Y-53817328D01*
X37966000Y-53813328D01*
X37996000Y-53811328D01*
X38026000Y-53810328D01*
X38626000Y-53810328D01*
X38656000Y-53811328D01*
G37*
X42936000Y-53811328D02*
X42966000Y-53813328D01*
X42995000Y-53817328D01*
X43025000Y-53822328D01*
X43054000Y-53828328D01*
X43083000Y-53837328D01*
X43111000Y-53846328D01*
X43139000Y-53857328D01*
X43166000Y-53869328D01*
X43193000Y-53883328D01*
X43219000Y-53898328D01*
X43244000Y-53914328D01*
X43268000Y-53932328D01*
X43291000Y-53950328D01*
X43314000Y-53970328D01*
X43335000Y-53991328D01*
X43356000Y-54013328D01*
X43375000Y-54036328D01*
X43393000Y-54060328D01*
X43410000Y-54084328D01*
X43425000Y-54110328D01*
X43440000Y-54136328D01*
X43453000Y-54163328D01*
X43464000Y-54191328D01*
X43475000Y-54219328D01*
X43483000Y-54247328D01*
X43491000Y-54276328D01*
X43497000Y-54306328D01*
X43501000Y-54335328D01*
X43504000Y-54365328D01*
X43506000Y-54395328D01*
X43506000Y-54425328D01*
X43504000Y-54455328D01*
X43501000Y-54484328D01*
X43497000Y-54514328D01*
X43491000Y-54543328D01*
X43483000Y-54572328D01*
X43475000Y-54601328D01*
X43464000Y-54629328D01*
X43453000Y-54657328D01*
X43440000Y-54684328D01*
X43425000Y-54710328D01*
X43410000Y-54735328D01*
X43393000Y-54760328D01*
X43375000Y-54784328D01*
X43356000Y-54807328D01*
X43335000Y-54829328D01*
X43314000Y-54850328D01*
X43291000Y-54870328D01*
X43268000Y-54888328D01*
X43244000Y-54906328D01*
X43219000Y-54922328D01*
X43193000Y-54937328D01*
X43166000Y-54950328D01*
X43139000Y-54963328D01*
X43111000Y-54974328D01*
X43083000Y-54983328D01*
X43054000Y-54991328D01*
X43025000Y-54998328D01*
X42995000Y-55003328D01*
X42966000Y-55007328D01*
X42936000Y-55009328D01*
X42906000Y-55010328D01*
X42106000Y-55010328D01*
X42076000Y-55009328D01*
X42046000Y-55007328D01*
X42016000Y-55003328D01*
X41987000Y-54998328D01*
X41958000Y-54991328D01*
X41929000Y-54983328D01*
X41901000Y-54974328D01*
X41873000Y-54963328D01*
X41845000Y-54950328D01*
X41819000Y-54937328D01*
X41793000Y-54922328D01*
X41768000Y-54906328D01*
X41744000Y-54888328D01*
X41720000Y-54870328D01*
X41698000Y-54850328D01*
X41676000Y-54829328D01*
X41656000Y-54807328D01*
X41637000Y-54784328D01*
X41619000Y-54760328D01*
X41602000Y-54735328D01*
X41586000Y-54710328D01*
X41572000Y-54684328D01*
X41559000Y-54657328D01*
X41547000Y-54629328D01*
X41537000Y-54601328D01*
X41528000Y-54572328D01*
X41521000Y-54543328D01*
X41515000Y-54514328D01*
X41510000Y-54484328D01*
X41507000Y-54455328D01*
X41506000Y-54425328D01*
X41506000Y-54395328D01*
X41507000Y-54365328D01*
X41510000Y-54335328D01*
X41515000Y-54306328D01*
X41521000Y-54276328D01*
X41528000Y-54247328D01*
X41537000Y-54219328D01*
X41547000Y-54191328D01*
X41559000Y-54163328D01*
X41572000Y-54136328D01*
X41586000Y-54110328D01*
X41602000Y-54084328D01*
X41619000Y-54060328D01*
X41637000Y-54036328D01*
X41656000Y-54013328D01*
X41676000Y-53991328D01*
X41698000Y-53970328D01*
X41720000Y-53950328D01*
X41744000Y-53932328D01*
X41768000Y-53914328D01*
X41793000Y-53898328D01*
X41819000Y-53883328D01*
X41845000Y-53869328D01*
X41873000Y-53857328D01*
X41901000Y-53846328D01*
X41929000Y-53837328D01*
X41958000Y-53828328D01*
X41987000Y-53822328D01*
X42016000Y-53817328D01*
X42046000Y-53813328D01*
X42076000Y-53811328D01*
X42106000Y-53810328D01*
X42906000Y-53810328D01*
X42936000Y-53811328D01*
G36*
X42936000Y-53811328D02*
G01*
X42966000Y-53813328D01*
X42995000Y-53817328D01*
X43025000Y-53822328D01*
X43054000Y-53828328D01*
X43083000Y-53837328D01*
X43111000Y-53846328D01*
X43139000Y-53857328D01*
X43166000Y-53869328D01*
X43193000Y-53883328D01*
X43219000Y-53898328D01*
X43244000Y-53914328D01*
X43268000Y-53932328D01*
X43291000Y-53950328D01*
X43314000Y-53970328D01*
X43335000Y-53991328D01*
X43356000Y-54013328D01*
X43375000Y-54036328D01*
X43393000Y-54060328D01*
X43410000Y-54084328D01*
X43425000Y-54110328D01*
X43440000Y-54136328D01*
X43453000Y-54163328D01*
X43464000Y-54191328D01*
X43475000Y-54219328D01*
X43483000Y-54247328D01*
X43491000Y-54276328D01*
X43497000Y-54306328D01*
X43501000Y-54335328D01*
X43504000Y-54365328D01*
X43506000Y-54395328D01*
X43506000Y-54425328D01*
X43504000Y-54455328D01*
X43501000Y-54484328D01*
X43497000Y-54514328D01*
X43491000Y-54543328D01*
X43483000Y-54572328D01*
X43475000Y-54601328D01*
X43464000Y-54629328D01*
X43453000Y-54657328D01*
X43440000Y-54684328D01*
X43425000Y-54710328D01*
X43410000Y-54735328D01*
X43393000Y-54760328D01*
X43375000Y-54784328D01*
X43356000Y-54807328D01*
X43335000Y-54829328D01*
X43314000Y-54850328D01*
X43291000Y-54870328D01*
X43268000Y-54888328D01*
X43244000Y-54906328D01*
X43219000Y-54922328D01*
X43193000Y-54937328D01*
X43166000Y-54950328D01*
X43139000Y-54963328D01*
X43111000Y-54974328D01*
X43083000Y-54983328D01*
X43054000Y-54991328D01*
X43025000Y-54998328D01*
X42995000Y-55003328D01*
X42966000Y-55007328D01*
X42936000Y-55009328D01*
X42906000Y-55010328D01*
X42106000Y-55010328D01*
X42076000Y-55009328D01*
X42046000Y-55007328D01*
X42016000Y-55003328D01*
X41987000Y-54998328D01*
X41958000Y-54991328D01*
X41929000Y-54983328D01*
X41901000Y-54974328D01*
X41873000Y-54963328D01*
X41845000Y-54950328D01*
X41819000Y-54937328D01*
X41793000Y-54922328D01*
X41768000Y-54906328D01*
X41744000Y-54888328D01*
X41720000Y-54870328D01*
X41698000Y-54850328D01*
X41676000Y-54829328D01*
X41656000Y-54807328D01*
X41637000Y-54784328D01*
X41619000Y-54760328D01*
X41602000Y-54735328D01*
X41586000Y-54710328D01*
X41572000Y-54684328D01*
X41559000Y-54657328D01*
X41547000Y-54629328D01*
X41537000Y-54601328D01*
X41528000Y-54572328D01*
X41521000Y-54543328D01*
X41515000Y-54514328D01*
X41510000Y-54484328D01*
X41507000Y-54455328D01*
X41506000Y-54425328D01*
X41506000Y-54395328D01*
X41507000Y-54365328D01*
X41510000Y-54335328D01*
X41515000Y-54306328D01*
X41521000Y-54276328D01*
X41528000Y-54247328D01*
X41537000Y-54219328D01*
X41547000Y-54191328D01*
X41559000Y-54163328D01*
X41572000Y-54136328D01*
X41586000Y-54110328D01*
X41602000Y-54084328D01*
X41619000Y-54060328D01*
X41637000Y-54036328D01*
X41656000Y-54013328D01*
X41676000Y-53991328D01*
X41698000Y-53970328D01*
X41720000Y-53950328D01*
X41744000Y-53932328D01*
X41768000Y-53914328D01*
X41793000Y-53898328D01*
X41819000Y-53883328D01*
X41845000Y-53869328D01*
X41873000Y-53857328D01*
X41901000Y-53846328D01*
X41929000Y-53837328D01*
X41958000Y-53828328D01*
X41987000Y-53822328D01*
X42016000Y-53817328D01*
X42046000Y-53813328D01*
X42076000Y-53811328D01*
X42106000Y-53810328D01*
X42906000Y-53810328D01*
X42936000Y-53811328D01*
G37*
X42936000Y-62461328D02*
X42966000Y-62463328D01*
X42995000Y-62467328D01*
X43025000Y-62472328D01*
X43054000Y-62479328D01*
X43083000Y-62487328D01*
X43111000Y-62496328D01*
X43139000Y-62507328D01*
X43166000Y-62520328D01*
X43193000Y-62533328D01*
X43219000Y-62548328D01*
X43244000Y-62564328D01*
X43268000Y-62582328D01*
X43291000Y-62600328D01*
X43314000Y-62620328D01*
X43335000Y-62641328D01*
X43356000Y-62663328D01*
X43375000Y-62686328D01*
X43393000Y-62710328D01*
X43410000Y-62735328D01*
X43425000Y-62760328D01*
X43440000Y-62786328D01*
X43453000Y-62813328D01*
X43464000Y-62841328D01*
X43475000Y-62869328D01*
X43483000Y-62898328D01*
X43491000Y-62927328D01*
X43497000Y-62956328D01*
X43501000Y-62986328D01*
X43504000Y-63015328D01*
X43506000Y-63045328D01*
X43506000Y-63075328D01*
X43504000Y-63105328D01*
X43501000Y-63135328D01*
X43497000Y-63164328D01*
X43491000Y-63194328D01*
X43483000Y-63223328D01*
X43475000Y-63251328D01*
X43464000Y-63279328D01*
X43453000Y-63307328D01*
X43440000Y-63334328D01*
X43425000Y-63360328D01*
X43410000Y-63386328D01*
X43393000Y-63410328D01*
X43375000Y-63434328D01*
X43356000Y-63457328D01*
X43335000Y-63479328D01*
X43314000Y-63500328D01*
X43291000Y-63520328D01*
X43268000Y-63538328D01*
X43244000Y-63556328D01*
X43219000Y-63572328D01*
X43193000Y-63587328D01*
X43166000Y-63601328D01*
X43139000Y-63613328D01*
X43111000Y-63624328D01*
X43083000Y-63633328D01*
X43054000Y-63642328D01*
X43025000Y-63648328D01*
X42995000Y-63653328D01*
X42966000Y-63657328D01*
X42936000Y-63659328D01*
X42906000Y-63660328D01*
X42106000Y-63660328D01*
X42076000Y-63659328D01*
X42046000Y-63657328D01*
X42016000Y-63653328D01*
X41987000Y-63648328D01*
X41958000Y-63642328D01*
X41929000Y-63633328D01*
X41901000Y-63624328D01*
X41873000Y-63613328D01*
X41845000Y-63601328D01*
X41819000Y-63587328D01*
X41793000Y-63572328D01*
X41768000Y-63556328D01*
X41744000Y-63538328D01*
X41720000Y-63520328D01*
X41698000Y-63500328D01*
X41676000Y-63479328D01*
X41656000Y-63457328D01*
X41637000Y-63434328D01*
X41619000Y-63410328D01*
X41602000Y-63386328D01*
X41586000Y-63360328D01*
X41572000Y-63334328D01*
X41559000Y-63307328D01*
X41547000Y-63279328D01*
X41537000Y-63251328D01*
X41528000Y-63223328D01*
X41521000Y-63194328D01*
X41515000Y-63164328D01*
X41510000Y-63135328D01*
X41507000Y-63105328D01*
X41506000Y-63075328D01*
X41506000Y-63045328D01*
X41507000Y-63015328D01*
X41510000Y-62986328D01*
X41515000Y-62956328D01*
X41521000Y-62927328D01*
X41528000Y-62898328D01*
X41537000Y-62869328D01*
X41547000Y-62841328D01*
X41559000Y-62813328D01*
X41572000Y-62786328D01*
X41586000Y-62760328D01*
X41602000Y-62735328D01*
X41619000Y-62710328D01*
X41637000Y-62686328D01*
X41656000Y-62663328D01*
X41676000Y-62641328D01*
X41698000Y-62620328D01*
X41720000Y-62600328D01*
X41744000Y-62582328D01*
X41768000Y-62564328D01*
X41793000Y-62548328D01*
X41819000Y-62533328D01*
X41845000Y-62520328D01*
X41873000Y-62507328D01*
X41901000Y-62496328D01*
X41929000Y-62487328D01*
X41958000Y-62479328D01*
X41987000Y-62472328D01*
X42016000Y-62467328D01*
X42046000Y-62463328D01*
X42076000Y-62461328D01*
X42106000Y-62460328D01*
X42906000Y-62460328D01*
X42936000Y-62461328D01*
G36*
X42936000Y-62461328D02*
G01*
X42966000Y-62463328D01*
X42995000Y-62467328D01*
X43025000Y-62472328D01*
X43054000Y-62479328D01*
X43083000Y-62487328D01*
X43111000Y-62496328D01*
X43139000Y-62507328D01*
X43166000Y-62520328D01*
X43193000Y-62533328D01*
X43219000Y-62548328D01*
X43244000Y-62564328D01*
X43268000Y-62582328D01*
X43291000Y-62600328D01*
X43314000Y-62620328D01*
X43335000Y-62641328D01*
X43356000Y-62663328D01*
X43375000Y-62686328D01*
X43393000Y-62710328D01*
X43410000Y-62735328D01*
X43425000Y-62760328D01*
X43440000Y-62786328D01*
X43453000Y-62813328D01*
X43464000Y-62841328D01*
X43475000Y-62869328D01*
X43483000Y-62898328D01*
X43491000Y-62927328D01*
X43497000Y-62956328D01*
X43501000Y-62986328D01*
X43504000Y-63015328D01*
X43506000Y-63045328D01*
X43506000Y-63075328D01*
X43504000Y-63105328D01*
X43501000Y-63135328D01*
X43497000Y-63164328D01*
X43491000Y-63194328D01*
X43483000Y-63223328D01*
X43475000Y-63251328D01*
X43464000Y-63279328D01*
X43453000Y-63307328D01*
X43440000Y-63334328D01*
X43425000Y-63360328D01*
X43410000Y-63386328D01*
X43393000Y-63410328D01*
X43375000Y-63434328D01*
X43356000Y-63457328D01*
X43335000Y-63479328D01*
X43314000Y-63500328D01*
X43291000Y-63520328D01*
X43268000Y-63538328D01*
X43244000Y-63556328D01*
X43219000Y-63572328D01*
X43193000Y-63587328D01*
X43166000Y-63601328D01*
X43139000Y-63613328D01*
X43111000Y-63624328D01*
X43083000Y-63633328D01*
X43054000Y-63642328D01*
X43025000Y-63648328D01*
X42995000Y-63653328D01*
X42966000Y-63657328D01*
X42936000Y-63659328D01*
X42906000Y-63660328D01*
X42106000Y-63660328D01*
X42076000Y-63659328D01*
X42046000Y-63657328D01*
X42016000Y-63653328D01*
X41987000Y-63648328D01*
X41958000Y-63642328D01*
X41929000Y-63633328D01*
X41901000Y-63624328D01*
X41873000Y-63613328D01*
X41845000Y-63601328D01*
X41819000Y-63587328D01*
X41793000Y-63572328D01*
X41768000Y-63556328D01*
X41744000Y-63538328D01*
X41720000Y-63520328D01*
X41698000Y-63500328D01*
X41676000Y-63479328D01*
X41656000Y-63457328D01*
X41637000Y-63434328D01*
X41619000Y-63410328D01*
X41602000Y-63386328D01*
X41586000Y-63360328D01*
X41572000Y-63334328D01*
X41559000Y-63307328D01*
X41547000Y-63279328D01*
X41537000Y-63251328D01*
X41528000Y-63223328D01*
X41521000Y-63194328D01*
X41515000Y-63164328D01*
X41510000Y-63135328D01*
X41507000Y-63105328D01*
X41506000Y-63075328D01*
X41506000Y-63045328D01*
X41507000Y-63015328D01*
X41510000Y-62986328D01*
X41515000Y-62956328D01*
X41521000Y-62927328D01*
X41528000Y-62898328D01*
X41537000Y-62869328D01*
X41547000Y-62841328D01*
X41559000Y-62813328D01*
X41572000Y-62786328D01*
X41586000Y-62760328D01*
X41602000Y-62735328D01*
X41619000Y-62710328D01*
X41637000Y-62686328D01*
X41656000Y-62663328D01*
X41676000Y-62641328D01*
X41698000Y-62620328D01*
X41720000Y-62600328D01*
X41744000Y-62582328D01*
X41768000Y-62564328D01*
X41793000Y-62548328D01*
X41819000Y-62533328D01*
X41845000Y-62520328D01*
X41873000Y-62507328D01*
X41901000Y-62496328D01*
X41929000Y-62487328D01*
X41958000Y-62479328D01*
X41987000Y-62472328D01*
X42016000Y-62467328D01*
X42046000Y-62463328D01*
X42076000Y-62461328D01*
X42106000Y-62460328D01*
X42906000Y-62460328D01*
X42936000Y-62461328D01*
G37*
X38656000Y-62461328D02*
X38686000Y-62463328D01*
X38715000Y-62467328D01*
X38745000Y-62472328D01*
X38774000Y-62479328D01*
X38803000Y-62487328D01*
X38831000Y-62496328D01*
X38859000Y-62507328D01*
X38886000Y-62520328D01*
X38913000Y-62533328D01*
X38939000Y-62548328D01*
X38964000Y-62564328D01*
X38988000Y-62582328D01*
X39012000Y-62600328D01*
X39034000Y-62620328D01*
X39055000Y-62641328D01*
X39076000Y-62663328D01*
X39095000Y-62686328D01*
X39113000Y-62710328D01*
X39130000Y-62735328D01*
X39145000Y-62760328D01*
X39160000Y-62786328D01*
X39173000Y-62813328D01*
X39184000Y-62841328D01*
X39195000Y-62869328D01*
X39203000Y-62898328D01*
X39211000Y-62927328D01*
X39217000Y-62956328D01*
X39221000Y-62986328D01*
X39224000Y-63015328D01*
X39226000Y-63045328D01*
X39226000Y-63075328D01*
X39224000Y-63105328D01*
X39221000Y-63135328D01*
X39217000Y-63164328D01*
X39211000Y-63194328D01*
X39203000Y-63223328D01*
X39195000Y-63251328D01*
X39184000Y-63279328D01*
X39173000Y-63307328D01*
X39160000Y-63334328D01*
X39145000Y-63360328D01*
X39130000Y-63386328D01*
X39113000Y-63410328D01*
X39095000Y-63434328D01*
X39076000Y-63457328D01*
X39055000Y-63479328D01*
X39034000Y-63500328D01*
X39012000Y-63520328D01*
X38988000Y-63538328D01*
X38964000Y-63556328D01*
X38939000Y-63572328D01*
X38913000Y-63587328D01*
X38886000Y-63601328D01*
X38859000Y-63613328D01*
X38831000Y-63624328D01*
X38803000Y-63633328D01*
X38774000Y-63642328D01*
X38745000Y-63648328D01*
X38715000Y-63653328D01*
X38686000Y-63657328D01*
X38656000Y-63659328D01*
X38626000Y-63660328D01*
X38026000Y-63660328D01*
X37996000Y-63659328D01*
X37966000Y-63657328D01*
X37936000Y-63653328D01*
X37907000Y-63648328D01*
X37878000Y-63642328D01*
X37849000Y-63633328D01*
X37821000Y-63624328D01*
X37793000Y-63613328D01*
X37766000Y-63601328D01*
X37739000Y-63587328D01*
X37713000Y-63572328D01*
X37688000Y-63556328D01*
X37664000Y-63538328D01*
X37640000Y-63520328D01*
X37618000Y-63500328D01*
X37596000Y-63479328D01*
X37576000Y-63457328D01*
X37557000Y-63434328D01*
X37539000Y-63410328D01*
X37522000Y-63386328D01*
X37506000Y-63360328D01*
X37492000Y-63334328D01*
X37479000Y-63307328D01*
X37467000Y-63279328D01*
X37457000Y-63251328D01*
X37448000Y-63223328D01*
X37441000Y-63194328D01*
X37435000Y-63164328D01*
X37431000Y-63135328D01*
X37428000Y-63105328D01*
X37426000Y-63075328D01*
X37426000Y-63045328D01*
X37428000Y-63015328D01*
X37431000Y-62986328D01*
X37435000Y-62956328D01*
X37441000Y-62927328D01*
X37448000Y-62898328D01*
X37457000Y-62869328D01*
X37467000Y-62841328D01*
X37479000Y-62813328D01*
X37492000Y-62786328D01*
X37506000Y-62760328D01*
X37522000Y-62735328D01*
X37539000Y-62710328D01*
X37557000Y-62686328D01*
X37576000Y-62663328D01*
X37596000Y-62641328D01*
X37618000Y-62620328D01*
X37640000Y-62600328D01*
X37664000Y-62582328D01*
X37688000Y-62564328D01*
X37713000Y-62548328D01*
X37739000Y-62533328D01*
X37766000Y-62520328D01*
X37793000Y-62507328D01*
X37821000Y-62496328D01*
X37849000Y-62487328D01*
X37878000Y-62479328D01*
X37907000Y-62472328D01*
X37936000Y-62467328D01*
X37966000Y-62463328D01*
X37996000Y-62461328D01*
X38026000Y-62460328D01*
X38626000Y-62460328D01*
X38656000Y-62461328D01*
G36*
X38656000Y-62461328D02*
G01*
X38686000Y-62463328D01*
X38715000Y-62467328D01*
X38745000Y-62472328D01*
X38774000Y-62479328D01*
X38803000Y-62487328D01*
X38831000Y-62496328D01*
X38859000Y-62507328D01*
X38886000Y-62520328D01*
X38913000Y-62533328D01*
X38939000Y-62548328D01*
X38964000Y-62564328D01*
X38988000Y-62582328D01*
X39012000Y-62600328D01*
X39034000Y-62620328D01*
X39055000Y-62641328D01*
X39076000Y-62663328D01*
X39095000Y-62686328D01*
X39113000Y-62710328D01*
X39130000Y-62735328D01*
X39145000Y-62760328D01*
X39160000Y-62786328D01*
X39173000Y-62813328D01*
X39184000Y-62841328D01*
X39195000Y-62869328D01*
X39203000Y-62898328D01*
X39211000Y-62927328D01*
X39217000Y-62956328D01*
X39221000Y-62986328D01*
X39224000Y-63015328D01*
X39226000Y-63045328D01*
X39226000Y-63075328D01*
X39224000Y-63105328D01*
X39221000Y-63135328D01*
X39217000Y-63164328D01*
X39211000Y-63194328D01*
X39203000Y-63223328D01*
X39195000Y-63251328D01*
X39184000Y-63279328D01*
X39173000Y-63307328D01*
X39160000Y-63334328D01*
X39145000Y-63360328D01*
X39130000Y-63386328D01*
X39113000Y-63410328D01*
X39095000Y-63434328D01*
X39076000Y-63457328D01*
X39055000Y-63479328D01*
X39034000Y-63500328D01*
X39012000Y-63520328D01*
X38988000Y-63538328D01*
X38964000Y-63556328D01*
X38939000Y-63572328D01*
X38913000Y-63587328D01*
X38886000Y-63601328D01*
X38859000Y-63613328D01*
X38831000Y-63624328D01*
X38803000Y-63633328D01*
X38774000Y-63642328D01*
X38745000Y-63648328D01*
X38715000Y-63653328D01*
X38686000Y-63657328D01*
X38656000Y-63659328D01*
X38626000Y-63660328D01*
X38026000Y-63660328D01*
X37996000Y-63659328D01*
X37966000Y-63657328D01*
X37936000Y-63653328D01*
X37907000Y-63648328D01*
X37878000Y-63642328D01*
X37849000Y-63633328D01*
X37821000Y-63624328D01*
X37793000Y-63613328D01*
X37766000Y-63601328D01*
X37739000Y-63587328D01*
X37713000Y-63572328D01*
X37688000Y-63556328D01*
X37664000Y-63538328D01*
X37640000Y-63520328D01*
X37618000Y-63500328D01*
X37596000Y-63479328D01*
X37576000Y-63457328D01*
X37557000Y-63434328D01*
X37539000Y-63410328D01*
X37522000Y-63386328D01*
X37506000Y-63360328D01*
X37492000Y-63334328D01*
X37479000Y-63307328D01*
X37467000Y-63279328D01*
X37457000Y-63251328D01*
X37448000Y-63223328D01*
X37441000Y-63194328D01*
X37435000Y-63164328D01*
X37431000Y-63135328D01*
X37428000Y-63105328D01*
X37426000Y-63075328D01*
X37426000Y-63045328D01*
X37428000Y-63015328D01*
X37431000Y-62986328D01*
X37435000Y-62956328D01*
X37441000Y-62927328D01*
X37448000Y-62898328D01*
X37457000Y-62869328D01*
X37467000Y-62841328D01*
X37479000Y-62813328D01*
X37492000Y-62786328D01*
X37506000Y-62760328D01*
X37522000Y-62735328D01*
X37539000Y-62710328D01*
X37557000Y-62686328D01*
X37576000Y-62663328D01*
X37596000Y-62641328D01*
X37618000Y-62620328D01*
X37640000Y-62600328D01*
X37664000Y-62582328D01*
X37688000Y-62564328D01*
X37713000Y-62548328D01*
X37739000Y-62533328D01*
X37766000Y-62520328D01*
X37793000Y-62507328D01*
X37821000Y-62496328D01*
X37849000Y-62487328D01*
X37878000Y-62479328D01*
X37907000Y-62472328D01*
X37936000Y-62467328D01*
X37966000Y-62463328D01*
X37996000Y-62461328D01*
X38026000Y-62460328D01*
X38626000Y-62460328D01*
X38656000Y-62461328D01*
G37*
%TD*%
D11*
%TO.C,C10*%
X60800000Y-72860328D03*
X60800000Y-75810328D03*
%TD*%
D12*
%TO.C,R12*%
X94400000Y-36145328D03*
X94400000Y-35125328D03*
%TD*%
D13*
%TO.C,R6*%
X68900000Y-43925328D03*
X68900000Y-44945328D03*
%TD*%
D14*
%TO.C,D1*%
X64110000Y-53935328D03*
X64110000Y-49935328D03*
%TD*%
D15*
%TO.C,U4*%
X67005000Y-68710328D03*
X65735000Y-68710328D03*
X64465000Y-68710328D03*
X63195000Y-68710328D03*
X63195000Y-73960328D03*
X64465000Y-73960328D03*
X65735000Y-73960328D03*
X67005000Y-73960328D03*
%TD*%
D16*
%TO.C,C6*%
X69900000Y-44915328D03*
X69900000Y-43955328D03*
%TD*%
D17*
%TO.C,R10*%
X99800000Y-45035328D03*
X98780000Y-45035328D03*
%TD*%
%TO.C,R11*%
X99820000Y-68135328D03*
X98800000Y-68135328D03*
%TD*%
D16*
%TO.C,C13*%
X69900000Y-42595328D03*
X69900000Y-41635328D03*
%TD*%
D18*
%TO.C,C2*%
X50975000Y-61235328D03*
X48025000Y-61235328D03*
%TD*%
D19*
%TO.C,Q1*%
X50850000Y-63650328D03*
X50850000Y-64750328D03*
X50850000Y-65850328D03*
X50850000Y-66950328D03*
X51920000Y-63650328D03*
X51920000Y-64750328D03*
X51920000Y-65850328D03*
X51920000Y-66950328D03*
X52990000Y-63650328D03*
X52990000Y-64750328D03*
X52990000Y-65850328D03*
X52990000Y-66950328D03*
D20*
X48350000Y-63395328D03*
X48350000Y-64665328D03*
X48350000Y-65935328D03*
X48350000Y-67205328D03*
D21*
X53900000Y-63395328D03*
X53900000Y-64665328D03*
X53900000Y-65935328D03*
X53900000Y-67205328D03*
%TD*%
D22*
%TO.C,R16*%
X90900000Y-44235328D03*
X91920000Y-44235328D03*
%TD*%
D17*
%TO.C,R17*%
X70010000Y-50235328D03*
X68990000Y-50235328D03*
%TD*%
D23*
%TO.C,U5*%
X71700000Y-41210328D03*
X71700000Y-42710328D03*
X71700000Y-44210328D03*
X71700000Y-45710328D03*
X71700000Y-47210328D03*
X71700000Y-48710328D03*
X71700000Y-50210328D03*
X71700000Y-51710328D03*
X71700000Y-53210328D03*
X89200000Y-53210328D03*
X89200000Y-51710328D03*
X89200000Y-50210328D03*
X89200000Y-48710328D03*
X89200000Y-47210328D03*
X89200000Y-45710328D03*
X89200000Y-44210328D03*
X89200000Y-42710328D03*
X89200000Y-41210328D03*
D24*
X80310000Y-46310328D03*
X80310000Y-47410328D03*
X80310000Y-48510328D03*
X81360000Y-46310328D03*
X81360000Y-47410328D03*
X81360000Y-48510328D03*
X82510000Y-46310328D03*
X82510000Y-47410328D03*
X82510000Y-48510328D03*
%TD*%
D19*
%TO.C,Q2*%
X63200000Y-81135328D03*
X63200000Y-80035328D03*
X63200000Y-78935328D03*
X63200000Y-77835328D03*
X62130000Y-81135328D03*
X62130000Y-80035328D03*
X62130000Y-78935328D03*
X62130000Y-77835328D03*
X61060000Y-81135328D03*
X61060000Y-80035328D03*
X61060000Y-78935328D03*
X61060000Y-77835328D03*
D20*
X65700000Y-81390328D03*
X65700000Y-80120328D03*
X65700000Y-78850328D03*
X65700000Y-77580328D03*
D21*
X60150000Y-81390328D03*
X60150000Y-80120328D03*
X60150000Y-78850328D03*
X60150000Y-77580328D03*
%TD*%
D25*
%TO.C,D3*%
X56700000Y-74535328D03*
X56700000Y-78535328D03*
%TD*%
D26*
%TO.C,C5*%
X49910000Y-40535328D03*
X49910000Y-48535328D03*
%TD*%
D13*
%TO.C,R4*%
X56110000Y-45525328D03*
X56110000Y-46545328D03*
%TD*%
D18*
%TO.C,C3*%
X60175000Y-55635328D03*
X57225000Y-55635328D03*
%TD*%
D13*
%TO.C,R9*%
X68000000Y-78125328D03*
X68000000Y-79145328D03*
%TD*%
D27*
%TO.C,D2*%
X69952500Y-82415328D03*
X68377500Y-82415328D03*
%TD*%
D28*
%TO.C,SW3*%
X106700000Y-35635328D03*
X102500000Y-35635328D03*
%TD*%
D22*
%TO.C,R1*%
X45690000Y-57435328D03*
X46710000Y-57435328D03*
%TD*%
D12*
%TO.C,R14*%
X102500000Y-79455328D03*
X102500000Y-78435328D03*
%TD*%
D29*
%TO.C,C12*%
X69900000Y-39555328D03*
X69900000Y-40515328D03*
%TD*%
D30*
%TO.C,SW6*%
X77000000Y-57235328D03*
X81200000Y-57235328D03*
%TD*%
%TO.C,SW5*%
X82950000Y-57335328D03*
X87150000Y-57335328D03*
%TD*%
D31*
%TO.C,D4*%
X92000000Y-36572828D03*
X92000000Y-34697828D03*
%TD*%
D32*
%TO.C,U2*%
X55525000Y-68097828D03*
X56175000Y-68097828D03*
X56825000Y-68097828D03*
X57475000Y-68097828D03*
X58125000Y-68097828D03*
X58775000Y-68097828D03*
X59425000Y-68097828D03*
X60075000Y-68097828D03*
X60075000Y-62372828D03*
X59425000Y-62372828D03*
X58775000Y-62372828D03*
X58125000Y-62372828D03*
X57475000Y-62372828D03*
X56825000Y-62372828D03*
X56175000Y-62372828D03*
X55525000Y-62372828D03*
%TD*%
D31*
%TO.C,D5*%
X92000000Y-82772828D03*
X92000000Y-80897828D03*
%TD*%
D33*
%TO.C,L1*%
X65660000Y-40835328D03*
X59610000Y-40835328D03*
%TD*%
D34*
%TO.C,U3*%
X61505000Y-47535328D03*
X60235000Y-47535328D03*
X58965000Y-47535328D03*
X57695000Y-47535328D03*
X57695000Y-52935328D03*
X58965000Y-52935328D03*
X60235000Y-52935328D03*
X61505000Y-52935328D03*
D35*
X59600000Y-50235328D03*
%TD*%
D22*
%TO.C,R3*%
X50190000Y-56235328D03*
X51210000Y-56235328D03*
%TD*%
D36*
%TO.C,C1*%
X56340000Y-69835328D03*
X57300000Y-69835328D03*
%TD*%
D13*
%TO.C,R5*%
X56110000Y-48325328D03*
X56110000Y-49345328D03*
%TD*%
%TO.C,R2*%
X46100000Y-59925328D03*
X46100000Y-60945328D03*
%TD*%
D28*
%TO.C,SW4*%
X106700000Y-81835328D03*
X102500000Y-81835328D03*
%TD*%
D13*
%TO.C,R13*%
X102500000Y-38015328D03*
X102500000Y-39035328D03*
%TD*%
D36*
%TO.C,C11*%
X84570000Y-59685328D03*
X85530000Y-59685328D03*
%TD*%
D12*
%TO.C,R8*%
X65765000Y-66670328D03*
X65765000Y-65650328D03*
%TD*%
D16*
%TO.C,C9*%
X54500000Y-62015328D03*
X54500000Y-61055328D03*
%TD*%
D36*
%TO.C,C4*%
X61530000Y-45735328D03*
X62490000Y-45735328D03*
%TD*%
D37*
%TO.C,J1*%
X43274000Y-55535328D03*
X43274000Y-56335328D03*
D38*
X43274000Y-57485328D03*
X43274000Y-58485328D03*
X43274000Y-58985328D03*
X43274000Y-59985328D03*
D37*
X43274000Y-61135328D03*
X43274000Y-61935328D03*
X43274000Y-61935328D03*
X43274000Y-61135328D03*
D38*
X43274000Y-60485328D03*
X43274000Y-59485328D03*
X43274000Y-57985328D03*
X43274000Y-56985328D03*
D37*
X43274000Y-56335328D03*
X43274000Y-55535328D03*
%TD*%
D12*
%TO.C,R15*%
X93800000Y-82445328D03*
X93800000Y-81425328D03*
%TD*%
M02*
