  0
SECTION
  2
HEADER
  9
$ANGBASE
  50
0.0
  9
$ANGDIR
  70
1
  9
$MEASUREMENT
  70
1
  0
ENDSEC
  0
SECTION
  2
TABLES
  0
TABLE
  2
LTYPE
  70
4
  0
LTYPE
  5
40F
  2
CONTINUOUS
  70
0
  3
Solid line
  72
65
  73
0
  40
0.0
  0
LTYPE
  5
410
  2
DASHDOT
 70
0
  3
Dash Dot ____ _ ____ _
 72
65
 73
4
 40
2.0
 49
1.25
 49
-0.25
 49
0.25
 49
-0.25
  0
LTYPE
  5
411
  2
DASHED
 70
0
  3
Dashed __ __ __ __ __
 72
65
 73
2
 40
0.75
 49
0.5
 49
-0.25
  0
LTYPE
  5
43B
  2
DOTTED
 70
0
  3
Dotted .  .  .  .
 72
65
 73
2
 40
0.2
 49
0.0
 49
-0.2
  0
ENDTAB
  0
TABLE
  2
STYLE
  70
4
  0
STYLE
  2
KICAD
  70
0
  40
0
  41
1
  42
1
  50
0
  71
0
  3
isocp.shx
  0
STYLE
  2
KICADB
  70
0
  40
0
  41
1
  42
1
  50
0
  71
0
  3
isocp.shx
  0
STYLE
  2
KICADI
  70
0
  40
0
  41
1
  42
1
  50
15
  71
0
  3
isocp.shx
  0
STYLE
  2
KICADBI
  70
0
  40
0
  41
1
  42
1
  50
15
  71
0
  3
isocp.shx
  0
ENDTAB
  0
TABLE
  2
LAYER
  70
1
  0
LAYER
  2
BLACK
  70
0
  62
7
  6
CONTINUOUS
  0
ENDTAB
  0
ENDSEC
  0
SECTION
  2
ENTITIES
0
ARC
8
BLACK
10
69
20
-35.7353
40
1.99997
50
-0.000802141
51
90
0
ARC
8
BLACK
10
121.45
20
-79.7353
40
4
50
-90
51
-0.00040107
0
ARC
8
BLACK
10
73
20
-38.1353
40
2.00003
50
-179.999
51
-90
0
LINE
8
BLACK
6
CONTINUOUS
10
69
20
-33.7353
11
39.45
21
-33.7353
0
LINE
8
BLACK
6
CONTINUOUS
10
35.45
20
-79.7353
11
35.45
21
-37.7353
0
ARC
8
BLACK
10
121.45
20
-37.7353
40
3.99997
50
-0.00040107
51
90
0
ARC
8
BLACK
10
39.45
20
-79.7353
40
4.00003
50
-180
51
-90
0
ARC
8
BLACK
10
87.9
20
-38.1353
40
2
50
-90
51
-0.000802141
0
LINE
8
BLACK
6
CONTINUOUS
10
91.9
20
-33.7353
11
121.45
21
-33.7353
0
LINE
8
BLACK
6
CONTINUOUS
10
121.45
20
-83.7353
11
39.45
21
-83.7353
0
ARC
8
BLACK
10
91.9
20
-35.7353
40
2
50
-270
51
-179.999
0
LINE
8
BLACK
6
CONTINUOUS
10
73
20
-40.1353
11
87.9
21
-40.1353
0
ARC
8
BLACK
10
39.45
20
-37.7353
40
4
50
90
51
180
0
LINE
8
BLACK
6
CONTINUOUS
10
71
20
-35.7353
11
71
21
-38.1353
0
LINE
8
BLACK
6
CONTINUOUS
10
89.9
20
-38.1353
11
89.9
21
-35.7353
0
LINE
8
BLACK
6
CONTINUOUS
10
125.45
20
-37.7353
11
125.45
21
-79.7353
0
LINE
8
BLACK
6
CONTINUOUS
10
44.15
20
-56.0853
11
44.45
21
-56.3853
0
LINE
8
BLACK
6
CONTINUOUS
10
44.45
20
-56.0853
11
44.15
21
-56.3853
0
LINE
8
BLACK
6
CONTINUOUS
10
44.2
20
-60.9853
11
44.5
21
-61.2853
0
LINE
8
BLACK
6
CONTINUOUS
10
44.5
20
-60.9853
11
44.2
21
-61.2853
0
LINE
8
BLACK
6
CONTINUOUS
10
44.25
20
-62.3853
11
44.55
21
-62.6853
0
LINE
8
BLACK
6
CONTINUOUS
10
44.55
20
-62.3853
11
44.25
21
-62.6853
0
LINE
8
BLACK
6
CONTINUOUS
10
44.25
20
-63.2853
11
44.55
21
-63.5853
0
LINE
8
BLACK
6
CONTINUOUS
10
44.55
20
-63.2853
11
44.25
21
-63.5853
0
LINE
8
BLACK
6
CONTINUOUS
10
44.35
20
-53.7853
11
44.65
21
-54.0853
0
LINE
8
BLACK
6
CONTINUOUS
10
44.65
20
-53.7853
11
44.35
21
-54.0853
0
LINE
8
BLACK
6
CONTINUOUS
10
44.35
20
-54.7853
11
44.65
21
-55.0853
0
LINE
8
BLACK
6
CONTINUOUS
10
44.65
20
-54.7853
11
44.35
21
-55.0853
0
LINE
8
BLACK
6
CONTINUOUS
10
45.95
20
-61.4853
11
46.25
21
-61.7853
0
LINE
8
BLACK
6
CONTINUOUS
10
46.25
20
-61.4853
11
45.95
21
-61.7853
0
LINE
8
BLACK
6
CONTINUOUS
10
46.95
20
-61.0853
11
47.25
21
-61.3853
0
LINE
8
BLACK
6
CONTINUOUS
10
47.25
20
-61.0853
11
46.95
21
-61.3853
0
LINE
8
BLACK
6
CONTINUOUS
10
47.15
20
-57.2853
11
47.45
21
-57.5853
0
LINE
8
BLACK
6
CONTINUOUS
10
47.45
20
-57.2853
11
47.15
21
-57.5853
0
LINE
8
BLACK
6
CONTINUOUS
10
48.45
20
-50.5853
11
48.75
21
-50.8853
0
LINE
8
BLACK
6
CONTINUOUS
10
48.75
20
-50.5853
11
48.45
21
-50.8853
0
LINE
8
BLACK
6
CONTINUOUS
10
49.35
20
-50.5853
11
49.65
21
-50.8853
0
LINE
8
BLACK
6
CONTINUOUS
10
49.65
20
-50.5853
11
49.35
21
-50.8853
0
LINE
8
BLACK
6
CONTINUOUS
10
50.15
20
-50.5853
11
50.45
21
-50.8853
0
LINE
8
BLACK
6
CONTINUOUS
10
50.45
20
-50.5853
11
50.15
21
-50.8853
0
LINE
8
BLACK
6
CONTINUOUS
10
50.95
20
-50.5853
11
51.25
21
-50.8853
0
LINE
8
BLACK
6
CONTINUOUS
10
51.25
20
-50.5853
11
50.95
21
-50.8853
0
LINE
8
BLACK
6
CONTINUOUS
10
52.15
20
-57.4853
11
52.45
21
-57.7853
0
LINE
8
BLACK
6
CONTINUOUS
10
52.45
20
-57.4853
11
52.15
21
-57.7853
0
LINE
8
BLACK
6
CONTINUOUS
10
52.15
20
-60.2853
11
52.45
21
-60.5853
0
LINE
8
BLACK
6
CONTINUOUS
10
52.45
20
-60.2853
11
52.15
21
-60.5853
0
LINE
8
BLACK
6
CONTINUOUS
10
53.15
20
-57.4853
11
53.45
21
-57.7853
0
LINE
8
BLACK
6
CONTINUOUS
10
53.45
20
-57.4853
11
53.15
21
-57.7853
0
LINE
8
BLACK
6
CONTINUOUS
10
53.15
20
-59.2853
11
53.45
21
-59.5853
0
LINE
8
BLACK
6
CONTINUOUS
10
53.45
20
-59.2853
11
53.15
21
-59.5853
0
LINE
8
BLACK
6
CONTINUOUS
10
53.63
20
-60.9053
11
53.93
21
-61.2053
0
LINE
8
BLACK
6
CONTINUOUS
10
53.93
20
-60.9053
11
53.63
21
-61.2053
0
LINE
8
BLACK
6
CONTINUOUS
10
55.35
20
-57.4853
11
55.65
21
-57.7853
0
LINE
8
BLACK
6
CONTINUOUS
10
55.65
20
-57.4853
11
55.35
21
-57.7853
0
LINE
8
BLACK
6
CONTINUOUS
10
55.375
20
-60.8853
11
55.675
21
-61.1853
0
LINE
8
BLACK
6
CONTINUOUS
10
55.675
20
-60.8853
11
55.375
21
-61.1853
0
LINE
8
BLACK
6
CONTINUOUS
10
55.95
20
-49.8853
11
56.25
21
-50.1853
0
LINE
8
BLACK
6
CONTINUOUS
10
56.25
20
-49.8853
11
55.95
21
-50.1853
0
LINE
8
BLACK
6
CONTINUOUS
10
55.95
20
-55.4853
11
56.25
21
-55.7853
0
LINE
8
BLACK
6
CONTINUOUS
10
56.25
20
-55.4853
11
55.95
21
-55.7853
0
LINE
8
BLACK
6
CONTINUOUS
10
57.75
20
-69.6853
11
58.05
21
-69.9853
0
LINE
8
BLACK
6
CONTINUOUS
10
58.05
20
-69.6853
11
57.75
21
-69.9853
0
LINE
8
BLACK
6
CONTINUOUS
10
57.95
20
-69.0853
11
58.25
21
-69.3853
0
LINE
8
BLACK
6
CONTINUOUS
10
58.25
20
-69.0853
11
57.95
21
-69.3853
0
LINE
8
BLACK
6
CONTINUOUS
10
58.85
20
-54.0853
11
59.15
21
-54.3853
0
LINE
8
BLACK
6
CONTINUOUS
10
59.15
20
-54.0853
11
58.85
21
-54.3853
0
LINE
8
BLACK
6
CONTINUOUS
10
61.95
20
-75.6853
11
62.25
21
-75.9853
0
LINE
8
BLACK
6
CONTINUOUS
10
62.25
20
-75.6853
11
61.95
21
-75.9853
0
LINE
8
BLACK
6
CONTINUOUS
10
63.05
20
-67.2853
11
63.35
21
-67.5853
0
LINE
8
BLACK
6
CONTINUOUS
10
63.35
20
-67.2853
11
63.05
21
-67.5853
0
LINE
8
BLACK
6
CONTINUOUS
10
63.35
20
-47.1853
11
63.65
21
-47.4853
0
LINE
8
BLACK
6
CONTINUOUS
10
63.65
20
-47.1853
11
63.35
21
-47.4853
0
LINE
8
BLACK
6
CONTINUOUS
10
63.35
20
-47.8853
11
63.65
21
-48.1853
0
LINE
8
BLACK
6
CONTINUOUS
10
63.65
20
-47.8853
11
63.35
21
-48.1853
0
LINE
8
BLACK
6
CONTINUOUS
10
64.25
20
-47.1853
11
64.55
21
-47.4853
0
LINE
8
BLACK
6
CONTINUOUS
10
64.55
20
-47.1853
11
64.25
21
-47.4853
0
LINE
8
BLACK
6
CONTINUOUS
10
64.25
20
-47.8853
11
64.55
21
-48.1853
0
LINE
8
BLACK
6
CONTINUOUS
10
64.55
20
-47.8853
11
64.25
21
-48.1853
0
LINE
8
BLACK
6
CONTINUOUS
10
64.315
20
-67.2503
11
64.615
21
-67.5503
0
LINE
8
BLACK
6
CONTINUOUS
10
64.615
20
-67.2503
11
64.315
21
-67.5503
0
LINE
8
BLACK
6
CONTINUOUS
10
65.75
20
-64.6853
11
66.05
21
-64.9853
0
LINE
8
BLACK
6
CONTINUOUS
10
66.05
20
-64.6853
11
65.75
21
-64.9853
0
LINE
8
BLACK
6
CONTINUOUS
10
66.535
20
-78.7003
11
66.835
21
-79.0003
0
LINE
8
BLACK
6
CONTINUOUS
10
66.835
20
-78.7003
11
66.535
21
-79.0003
0
LINE
8
BLACK
6
CONTINUOUS
10
66.55
20
-79.9703
11
66.85
21
-80.2703
0
LINE
8
BLACK
6
CONTINUOUS
10
66.85
20
-79.9703
11
66.55
21
-80.2703
0
LINE
8
BLACK
6
CONTINUOUS
10
66.55
20
-81.2403
11
66.85
21
-81.5403
0
LINE
8
BLACK
6
CONTINUOUS
10
66.85
20
-81.2403
11
66.55
21
-81.5403
0
LINE
8
BLACK
6
CONTINUOUS
10
67.95
20
-48.8853
11
68.25
21
-49.1853
0
LINE
8
BLACK
6
CONTINUOUS
10
68.25
20
-48.8853
11
67.95
21
-49.1853
0
LINE
8
BLACK
6
CONTINUOUS
10
69.15
20
-42.4853
11
69.45
21
-42.7853
0
LINE
8
BLACK
6
CONTINUOUS
10
69.45
20
-42.4853
11
69.15
21
-42.7853
0
LINE
8
BLACK
6
CONTINUOUS
10
69.75
20
-38.6853
11
70.05
21
-38.9853
0
LINE
8
BLACK
6
CONTINUOUS
10
70.05
20
-38.6853
11
69.75
21
-38.9853
0
LINE
8
BLACK
6
CONTINUOUS
10
69.75
20
-45.6853
11
70.05
21
-45.9853
0
LINE
8
BLACK
6
CONTINUOUS
10
70.05
20
-45.6853
11
69.75
21
-45.9853
0
LINE
8
BLACK
6
CONTINUOUS
10
69.75
20
-48.6853
11
70.05
21
-48.9853
0
LINE
8
BLACK
6
CONTINUOUS
10
70.05
20
-48.6853
11
69.75
21
-48.9853
0
LINE
8
BLACK
6
CONTINUOUS
10
69.8025
20
-81.1328
11
70.1025
21
-81.4328
0
LINE
8
BLACK
6
CONTINUOUS
10
70.1025
20
-81.1328
11
69.8025
21
-81.4328
0
LINE
8
BLACK
6
CONTINUOUS
10
70.375
20
-53.0603
11
70.675
21
-53.3603
0
LINE
8
BLACK
6
CONTINUOUS
10
70.675
20
-53.0603
11
70.375
21
-53.3603
0
LINE
8
BLACK
6
CONTINUOUS
10
71.55
20
-55.8853
11
71.85
21
-56.1853
0
LINE
8
BLACK
6
CONTINUOUS
10
71.85
20
-55.8853
11
71.55
21
-56.1853
0
LINE
8
BLACK
6
CONTINUOUS
10
72.15
20
-60.0853
11
72.45
21
-60.3853
0
LINE
8
BLACK
6
CONTINUOUS
10
72.45
20
-60.0853
11
72.15
21
-60.3853
0
LINE
8
BLACK
6
CONTINUOUS
10
72.75
20
-57.0853
11
73.05
21
-57.3853
0
LINE
8
BLACK
6
CONTINUOUS
10
73.05
20
-57.0853
11
72.75
21
-57.3853
0
LINE
8
BLACK
6
CONTINUOUS
10
72.95
20
-51.6853
11
73.25
21
-51.9853
0
LINE
8
BLACK
6
CONTINUOUS
10
73.25
20
-51.6853
11
72.95
21
-51.9853
0
LINE
8
BLACK
6
CONTINUOUS
10
73.55
20
-56.4853
11
73.85
21
-56.7853
0
LINE
8
BLACK
6
CONTINUOUS
10
73.85
20
-56.4853
11
73.55
21
-56.7853
0
LINE
8
BLACK
6
CONTINUOUS
10
73.75
20
-51.6853
11
74.05
21
-51.9853
0
LINE
8
BLACK
6
CONTINUOUS
10
74.05
20
-51.6853
11
73.75
21
-51.9853
0
LINE
8
BLACK
6
CONTINUOUS
10
74.15
20
-55.8853
11
74.45
21
-56.1853
0
LINE
8
BLACK
6
CONTINUOUS
10
74.45
20
-55.8853
11
74.15
21
-56.1853
0
LINE
8
BLACK
6
CONTINUOUS
10
74.75
20
-51.6853
11
75.05
21
-51.9853
0
LINE
8
BLACK
6
CONTINUOUS
10
75.05
20
-51.6853
11
74.75
21
-51.9853
0
LINE
8
BLACK
6
CONTINUOUS
10
74.95
20
-55.0853
11
75.25
21
-55.3853
0
LINE
8
BLACK
6
CONTINUOUS
10
75.25
20
-55.0853
11
74.95
21
-55.3853
0
LINE
8
BLACK
6
CONTINUOUS
10
75.15
20
-52.4853
11
75.45
21
-52.7853
0
LINE
8
BLACK
6
CONTINUOUS
10
75.45
20
-52.4853
11
75.15
21
-52.7853
0
LINE
8
BLACK
6
CONTINUOUS
10
76.15
20
-53.6853
11
76.45
21
-53.9853
0
LINE
8
BLACK
6
CONTINUOUS
10
76.45
20
-53.6853
11
76.15
21
-53.9853
0
LINE
8
BLACK
6
CONTINUOUS
10
76.55
20
-78.8853
11
76.85
21
-79.1853
0
LINE
8
BLACK
6
CONTINUOUS
10
76.85
20
-78.8853
11
76.55
21
-79.1853
0
LINE
8
BLACK
6
CONTINUOUS
10
77.45
20
-54.7853
11
77.75
21
-55.0853
0
LINE
8
BLACK
6
CONTINUOUS
10
77.75
20
-54.7853
11
77.45
21
-55.0853
0
LINE
8
BLACK
6
CONTINUOUS
10
78.75
20
-79.2853
11
79.05
21
-79.5853
0
LINE
8
BLACK
6
CONTINUOUS
10
79.05
20
-79.2853
11
78.75
21
-79.5853
0
LINE
8
BLACK
6
CONTINUOUS
10
78.95
20
-49.6853
11
79.25
21
-49.9853
0
LINE
8
BLACK
6
CONTINUOUS
10
79.25
20
-49.6853
11
78.95
21
-49.9853
0
LINE
8
BLACK
6
CONTINUOUS
10
78.95
20
-51.4853
11
79.25
21
-51.7853
0
LINE
8
BLACK
6
CONTINUOUS
10
79.25
20
-51.4853
11
78.95
21
-51.7853
0
LINE
8
BLACK
6
CONTINUOUS
10
80.15
20
-52.0853
11
80.45
21
-52.3853
0
LINE
8
BLACK
6
CONTINUOUS
10
80.45
20
-52.0853
11
80.15
21
-52.3853
0
LINE
8
BLACK
6
CONTINUOUS
10
80.16
20
-46.1753
11
80.46
21
-46.4753
0
LINE
8
BLACK
6
CONTINUOUS
10
80.46
20
-46.1753
11
80.16
21
-46.4753
0
LINE
8
BLACK
6
CONTINUOUS
10
80.16
20
-47.2753
11
80.46
21
-47.5753
0
LINE
8
BLACK
6
CONTINUOUS
10
80.46
20
-47.2753
11
80.16
21
-47.5753
0
LINE
8
BLACK
6
CONTINUOUS
10
80.16
20
-48.3753
11
80.46
21
-48.6753
0
LINE
8
BLACK
6
CONTINUOUS
10
80.46
20
-48.3753
11
80.16
21
-48.6753
0
LINE
8
BLACK
6
CONTINUOUS
10
81.25
20
-46.1753
11
81.55
21
-46.4753
0
LINE
8
BLACK
6
CONTINUOUS
10
81.55
20
-46.1753
11
81.25
21
-46.4753
0
LINE
8
BLACK
6
CONTINUOUS
10
81.25
20
-47.2753
11
81.55
21
-47.5753
0
LINE
8
BLACK
6
CONTINUOUS
10
81.55
20
-47.2753
11
81.25
21
-47.5753
0
LINE
8
BLACK
6
CONTINUOUS
10
81.25
20
-48.3753
11
81.55
21
-48.6753
0
LINE
8
BLACK
6
CONTINUOUS
10
81.55
20
-48.3753
11
81.25
21
-48.6753
0
LINE
8
BLACK
6
CONTINUOUS
10
81.95
20
-56.6853
11
82.25
21
-56.9853
0
LINE
8
BLACK
6
CONTINUOUS
10
82.25
20
-56.6853
11
81.95
21
-56.9853
0
LINE
8
BLACK
6
CONTINUOUS
10
81.95
20
-57.4853
11
82.25
21
-57.7853
0
LINE
8
BLACK
6
CONTINUOUS
10
82.25
20
-57.4853
11
81.95
21
-57.7853
0
LINE
8
BLACK
6
CONTINUOUS
10
82.36
20
-46.1753
11
82.66
21
-46.4753
0
LINE
8
BLACK
6
CONTINUOUS
10
82.66
20
-46.1753
11
82.36
21
-46.4753
0
LINE
8
BLACK
6
CONTINUOUS
10
82.36
20
-47.2753
11
82.66
21
-47.5753
0
LINE
8
BLACK
6
CONTINUOUS
10
82.66
20
-47.2753
11
82.36
21
-47.5753
0
LINE
8
BLACK
6
CONTINUOUS
10
82.36
20
-48.3753
11
82.66
21
-48.6753
0
LINE
8
BLACK
6
CONTINUOUS
10
82.66
20
-48.3753
11
82.36
21
-48.6753
0
LINE
8
BLACK
6
CONTINUOUS
10
82.45
20
-49.7853
11
82.75
21
-50.0853
0
LINE
8
BLACK
6
CONTINUOUS
10
82.75
20
-49.7853
11
82.45
21
-50.0853
0
LINE
8
BLACK
6
CONTINUOUS
10
83.75
20
-59.4853
11
84.05
21
-59.7853
0
LINE
8
BLACK
6
CONTINUOUS
10
84.05
20
-59.4853
11
83.75
21
-59.7853
0
LINE
8
BLACK
6
CONTINUOUS
10
86.35
20
-78.4853
11
86.65
21
-78.7853
0
LINE
8
BLACK
6
CONTINUOUS
10
86.65
20
-78.4853
11
86.35
21
-78.7853
0
LINE
8
BLACK
6
CONTINUOUS
10
86.35
20
-79.2853
11
86.65
21
-79.5853
0
LINE
8
BLACK
6
CONTINUOUS
10
86.65
20
-79.2853
11
86.35
21
-79.5853
0
LINE
8
BLACK
6
CONTINUOUS
10
87.35
20
-44.0853
11
87.65
21
-44.3853
0
LINE
8
BLACK
6
CONTINUOUS
10
87.65
20
-44.0853
11
87.35
21
-44.3853
0
LINE
8
BLACK
6
CONTINUOUS
10
90.45
20
-82.5853
11
90.75
21
-82.8853
0
LINE
8
BLACK
6
CONTINUOUS
10
90.75
20
-82.5853
11
90.45
21
-82.8853
0
LINE
8
BLACK
6
CONTINUOUS
10
92.35
20
-70.8853
11
92.65
21
-71.1853
0
LINE
8
BLACK
6
CONTINUOUS
10
92.65
20
-70.8853
11
92.35
21
-71.1853
0
LINE
8
BLACK
6
CONTINUOUS
10
92.35
20
-72.0853
11
92.65
21
-72.3853
0
LINE
8
BLACK
6
CONTINUOUS
10
92.65
20
-72.0853
11
92.35
21
-72.3853
0
LINE
8
BLACK
6
CONTINUOUS
10
92.75
20
-44.0853
11
93.05
21
-44.3853
0
LINE
8
BLACK
6
CONTINUOUS
10
93.05
20
-44.0853
11
92.75
21
-44.3853
0
LINE
8
BLACK
6
CONTINUOUS
10
92.75
20
-45.6853
11
93.05
21
-45.9853
0
LINE
8
BLACK
6
CONTINUOUS
10
93.05
20
-45.6853
11
92.75
21
-45.9853
0
LINE
8
BLACK
6
CONTINUOUS
10
93.25
20
-36.3853
11
93.55
21
-36.6853
0
LINE
8
BLACK
6
CONTINUOUS
10
93.55
20
-36.3853
11
93.25
21
-36.6853
0
LINE
8
BLACK
6
CONTINUOUS
10
94.15
20
-40.4853
11
94.45
21
-40.7853
0
LINE
8
BLACK
6
CONTINUOUS
10
94.45
20
-40.4853
11
94.15
21
-40.7853
0
LINE
8
BLACK
6
CONTINUOUS
10
94.75
20
-77.6853
11
95.05
21
-77.9853
0
LINE
8
BLACK
6
CONTINUOUS
10
95.05
20
-77.6853
11
94.75
21
-77.9853
0
LINE
8
BLACK
6
CONTINUOUS
10
95.55
20
-78.4853
11
95.85
21
-78.7853
0
LINE
8
BLACK
6
CONTINUOUS
10
95.85
20
-78.4853
11
95.55
21
-78.7853
0
LINE
8
BLACK
6
CONTINUOUS
10
95.75
20
-44.8853
11
96.05
21
-45.1853
0
LINE
8
BLACK
6
CONTINUOUS
10
96.05
20
-44.8853
11
95.75
21
-45.1853
0
LINE
8
BLACK
6
CONTINUOUS
10
95.75
20
-76.6853
11
96.05
21
-76.9853
0
LINE
8
BLACK
6
CONTINUOUS
10
96.05
20
-76.6853
11
95.75
21
-76.9853
0
LINE
8
BLACK
6
CONTINUOUS
10
96.55
20
-77.4853
11
96.85
21
-77.7853
0
LINE
8
BLACK
6
CONTINUOUS
10
96.85
20
-77.4853
11
96.55
21
-77.7853
0
LINE
8
BLACK
6
CONTINUOUS
10
97.15
20
-44.6853
11
97.45
21
-44.9853
0
LINE
8
BLACK
6
CONTINUOUS
10
97.45
20
-44.6853
11
97.15
21
-44.9853
0
LINE
8
BLACK
6
CONTINUOUS
10
99.35
20
-42.4853
11
99.65
21
-42.7853
0
LINE
8
BLACK
6
CONTINUOUS
10
99.65
20
-42.4853
11
99.35
21
-42.7853
0
LINE
8
BLACK
6
CONTINUOUS
10
100.15
20
-41.6853
11
100.45
21
-41.9853
0
LINE
8
BLACK
6
CONTINUOUS
10
100.45
20
-41.6853
11
100.15
21
-41.9853
0
LINE
8
BLACK
6
CONTINUOUS
10
102.35
20
-39.6853
11
102.65
21
-39.9853
0
LINE
8
BLACK
6
CONTINUOUS
10
102.65
20
-39.6853
11
102.35
21
-39.9853
0
LINE
8
BLACK
6
CONTINUOUS
10
102.35
20
-77.2853
11
102.65
21
-77.5853
0
LINE
8
BLACK
6
CONTINUOUS
10
102.65
20
-77.2853
11
102.35
21
-77.5853
0
LINE
8
BLACK
6
CONTINUOUS
10
102.55
20
-75.0853
11
102.85
21
-75.3853
0
LINE
8
BLACK
6
CONTINUOUS
10
102.85
20
-75.0853
11
102.55
21
-75.3853
0
LINE
8
BLACK
6
CONTINUOUS
10
103.35
20
-75.8853
11
103.65
21
-76.1853
0
LINE
8
BLACK
6
CONTINUOUS
10
103.65
20
-75.8853
11
103.35
21
-76.1853
0
LINE
8
BLACK
6
CONTINUOUS
10
104.15
20
-75.0853
11
104.45
21
-75.3853
0
LINE
8
BLACK
6
CONTINUOUS
10
104.45
20
-75.0853
11
104.15
21
-75.3853
0
LINE
8
BLACK
6
CONTINUOUS
10
105.05
20
-75.7853
11
105.35
21
-76.0853
0
LINE
8
BLACK
6
CONTINUOUS
10
105.35
20
-75.7853
11
105.05
21
-76.0853
0
CIRCLE
8
BLACK
10
57.8
20
-49.6353
40
0.15
0
CIRCLE
8
BLACK
10
57.8
20
-50.8353
40
0.15
0
CIRCLE
8
BLACK
10
58.9
20
-49.6353
40
0.15
0
CIRCLE
8
BLACK
10
58.9
20
-50.8353
40
0.15
0
CIRCLE
8
BLACK
10
60.2
20
-49.6353
40
0.15
0
CIRCLE
8
BLACK
10
60.2
20
-50.8353
40
0.15
0
CIRCLE
8
BLACK
10
61.4
20
-49.6353
40
0.15
0
CIRCLE
8
BLACK
10
61.4
20
-50.8353
40
0.15
0
LINE
8
BLACK
6
CONTINUOUS
10
37.8
20
-37.5353
11
37.8
21
-37.9353
0
LINE
8
BLACK
6
CONTINUOUS
10
37.6
20
-37.7353
11
38
21
-37.7353
0
LINE
8
BLACK
6
CONTINUOUS
10
37.8
20
-79.5353
11
37.8
21
-79.9353
0
LINE
8
BLACK
6
CONTINUOUS
10
37.6
20
-79.7353
11
38
21
-79.7353
0
LINE
8
BLACK
6
CONTINUOUS
10
38.2833
20
-36.3686
11
38.2833
21
-36.7686
0
LINE
8
BLACK
6
CONTINUOUS
10
38.0833
20
-36.5686
11
38.4833
21
-36.5686
0
LINE
8
BLACK
6
CONTINUOUS
10
38.2833
20
-38.7021
11
38.2833
21
-39.1021
0
LINE
8
BLACK
6
CONTINUOUS
10
38.0833
20
-38.9021
11
38.4833
21
-38.9021
0
LINE
8
BLACK
6
CONTINUOUS
10
38.2833
20
-78.3686
11
38.2833
21
-78.7686
0
LINE
8
BLACK
6
CONTINUOUS
10
38.0833
20
-78.5686
11
38.4833
21
-78.5686
0
LINE
8
BLACK
6
CONTINUOUS
10
38.2833
20
-80.7021
11
38.2833
21
-81.1021
0
LINE
8
BLACK
6
CONTINUOUS
10
38.0833
20
-80.9021
11
38.4833
21
-80.9021
0
LINE
8
BLACK
6
CONTINUOUS
10
39.45
20
-35.8853
11
39.45
21
-36.2853
0
LINE
8
BLACK
6
CONTINUOUS
10
39.25
20
-36.0853
11
39.65
21
-36.0853
0
LINE
8
BLACK
6
CONTINUOUS
10
39.45
20
-39.1853
11
39.45
21
-39.5853
0
LINE
8
BLACK
6
CONTINUOUS
10
39.25
20
-39.3853
11
39.65
21
-39.3853
0
LINE
8
BLACK
6
CONTINUOUS
10
39.45
20
-77.8853
11
39.45
21
-78.2853
0
LINE
8
BLACK
6
CONTINUOUS
10
39.25
20
-78.0853
11
39.65
21
-78.0853
0
LINE
8
BLACK
6
CONTINUOUS
10
39.45
20
-81.1853
11
39.45
21
-81.5853
0
LINE
8
BLACK
6
CONTINUOUS
10
39.25
20
-81.3853
11
39.65
21
-81.3853
0
LINE
8
BLACK
6
CONTINUOUS
10
40.6167
20
-36.3686
11
40.6167
21
-36.7686
0
LINE
8
BLACK
6
CONTINUOUS
10
40.4167
20
-36.5686
11
40.8167
21
-36.5686
0
LINE
8
BLACK
6
CONTINUOUS
10
40.6167
20
-38.7021
11
40.6167
21
-39.1021
0
LINE
8
BLACK
6
CONTINUOUS
10
40.4167
20
-38.9021
11
40.8167
21
-38.9021
0
LINE
8
BLACK
6
CONTINUOUS
10
40.6167
20
-78.3686
11
40.6167
21
-78.7686
0
LINE
8
BLACK
6
CONTINUOUS
10
40.4167
20
-78.5686
11
40.8167
21
-78.5686
0
LINE
8
BLACK
6
CONTINUOUS
10
40.6167
20
-80.7021
11
40.6167
21
-81.1021
0
LINE
8
BLACK
6
CONTINUOUS
10
40.4167
20
-80.9021
11
40.8167
21
-80.9021
0
LINE
8
BLACK
6
CONTINUOUS
10
41.1
20
-37.5353
11
41.1
21
-37.9353
0
LINE
8
BLACK
6
CONTINUOUS
10
40.9
20
-37.7353
11
41.3
21
-37.7353
0
LINE
8
BLACK
6
CONTINUOUS
10
41.1
20
-79.5353
11
41.1
21
-79.9353
0
LINE
8
BLACK
6
CONTINUOUS
10
40.9
20
-79.7353
11
41.3
21
-79.7353
0
LINE
8
BLACK
6
CONTINUOUS
10
119.8
20
-37.5353
11
119.8
21
-37.9353
0
LINE
8
BLACK
6
CONTINUOUS
10
119.6
20
-37.7353
11
120
21
-37.7353
0
LINE
8
BLACK
6
CONTINUOUS
10
119.8
20
-79.5353
11
119.8
21
-79.9353
0
LINE
8
BLACK
6
CONTINUOUS
10
119.6
20
-79.7353
11
120
21
-79.7353
0
LINE
8
BLACK
6
CONTINUOUS
10
120.283
20
-36.3686
11
120.283
21
-36.7686
0
LINE
8
BLACK
6
CONTINUOUS
10
120.083
20
-36.5686
11
120.483
21
-36.5686
0
LINE
8
BLACK
6
CONTINUOUS
10
120.283
20
-38.7021
11
120.283
21
-39.1021
0
LINE
8
BLACK
6
CONTINUOUS
10
120.083
20
-38.9021
11
120.483
21
-38.9021
0
LINE
8
BLACK
6
CONTINUOUS
10
120.283
20
-78.3686
11
120.283
21
-78.7686
0
LINE
8
BLACK
6
CONTINUOUS
10
120.083
20
-78.5686
11
120.483
21
-78.5686
0
LINE
8
BLACK
6
CONTINUOUS
10
120.283
20
-80.7021
11
120.283
21
-81.1021
0
LINE
8
BLACK
6
CONTINUOUS
10
120.083
20
-80.9021
11
120.483
21
-80.9021
0
LINE
8
BLACK
6
CONTINUOUS
10
121.45
20
-35.8853
11
121.45
21
-36.2853
0
LINE
8
BLACK
6
CONTINUOUS
10
121.25
20
-36.0853
11
121.65
21
-36.0853
0
LINE
8
BLACK
6
CONTINUOUS
10
121.45
20
-39.1853
11
121.45
21
-39.5853
0
LINE
8
BLACK
6
CONTINUOUS
10
121.25
20
-39.3853
11
121.65
21
-39.3853
0
LINE
8
BLACK
6
CONTINUOUS
10
121.45
20
-77.8853
11
121.45
21
-78.2853
0
LINE
8
BLACK
6
CONTINUOUS
10
121.25
20
-78.0853
11
121.65
21
-78.0853
0
LINE
8
BLACK
6
CONTINUOUS
10
121.45
20
-81.1853
11
121.45
21
-81.5853
0
LINE
8
BLACK
6
CONTINUOUS
10
121.25
20
-81.3853
11
121.65
21
-81.3853
0
LINE
8
BLACK
6
CONTINUOUS
10
122.617
20
-36.3686
11
122.617
21
-36.7686
0
LINE
8
BLACK
6
CONTINUOUS
10
122.417
20
-36.5686
11
122.817
21
-36.5686
0
LINE
8
BLACK
6
CONTINUOUS
10
122.617
20
-38.7021
11
122.617
21
-39.1021
0
LINE
8
BLACK
6
CONTINUOUS
10
122.417
20
-38.9021
11
122.817
21
-38.9021
0
LINE
8
BLACK
6
CONTINUOUS
10
122.617
20
-78.3686
11
122.617
21
-78.7686
0
LINE
8
BLACK
6
CONTINUOUS
10
122.417
20
-78.5686
11
122.817
21
-78.5686
0
LINE
8
BLACK
6
CONTINUOUS
10
122.617
20
-80.7021
11
122.617
21
-81.1021
0
LINE
8
BLACK
6
CONTINUOUS
10
122.417
20
-80.9021
11
122.817
21
-80.9021
0
LINE
8
BLACK
6
CONTINUOUS
10
123.1
20
-37.5353
11
123.1
21
-37.9353
0
LINE
8
BLACK
6
CONTINUOUS
10
122.9
20
-37.7353
11
123.3
21
-37.7353
0
LINE
8
BLACK
6
CONTINUOUS
10
123.1
20
-79.5353
11
123.1
21
-79.9353
0
LINE
8
BLACK
6
CONTINUOUS
10
122.9
20
-79.7353
11
123.3
21
-79.7353
0
LINE
8
BLACK
6
CONTINUOUS
10
38.6088
20
-54.6932
11
38.6088
21
-54.1275
0
LINE
8
BLACK
6
CONTINUOUS
10
38.6088
20
-54.1275
11
38.0432
21
-54.1275
0
LINE
8
BLACK
6
CONTINUOUS
10
38.0432
20
-54.1275
11
38.0432
21
-54.6932
0
LINE
8
BLACK
6
CONTINUOUS
10
38.0432
20
-54.6932
11
38.6088
21
-54.6932
0
LINE
8
BLACK
6
CONTINUOUS
10
38.626
20
-54.0103
11
38.026
21
-54.0103
0
ARC
8
BLACK
10
38.026
20
-54.4103
40
0.4
50
450
51
630
0
LINE
8
BLACK
6
CONTINUOUS
10
38.026
20
-54.8103
11
38.626
21
-54.8103
0
ARC
8
BLACK
10
38.626
20
-54.4103
40
0.4
50
270
51
450
0
LINE
8
BLACK
6
CONTINUOUS
10
38.6088
20
-63.3432
11
38.6088
21
-62.7775
0
LINE
8
BLACK
6
CONTINUOUS
10
38.6088
20
-62.7775
11
38.0432
21
-62.7775
0
LINE
8
BLACK
6
CONTINUOUS
10
38.0432
20
-62.7775
11
38.0432
21
-63.3432
0
LINE
8
BLACK
6
CONTINUOUS
10
38.0432
20
-63.3432
11
38.6088
21
-63.3432
0
LINE
8
BLACK
6
CONTINUOUS
10
38.626
20
-62.6603
11
38.026
21
-62.6603
0
ARC
8
BLACK
10
38.026
20
-63.0603
40
0.4
50
450
51
630
0
LINE
8
BLACK
6
CONTINUOUS
10
38.026
20
-63.4603
11
38.626
21
-63.4603
0
ARC
8
BLACK
10
38.626
20
-63.0603
40
0.4
50
270
51
450
0
LINE
8
BLACK
6
CONTINUOUS
10
42.7888
20
-54.6932
11
42.7888
21
-54.1275
0
LINE
8
BLACK
6
CONTINUOUS
10
42.7888
20
-54.1275
11
42.2232
21
-54.1275
0
LINE
8
BLACK
6
CONTINUOUS
10
42.2232
20
-54.1275
11
42.2232
21
-54.6932
0
LINE
8
BLACK
6
CONTINUOUS
10
42.2232
20
-54.6932
11
42.7888
21
-54.6932
0
LINE
8
BLACK
6
CONTINUOUS
10
42.906
20
-54.0103
11
42.106
21
-54.0103
0
ARC
8
BLACK
10
42.106
20
-54.4103
40
0.4
50
450
51
630
0
LINE
8
BLACK
6
CONTINUOUS
10
42.106
20
-54.8103
11
42.906
21
-54.8103
0
ARC
8
BLACK
10
42.906
20
-54.4103
40
0.4
50
270
51
450
0
LINE
8
BLACK
6
CONTINUOUS
10
42.7888
20
-63.3432
11
42.7888
21
-62.7775
0
LINE
8
BLACK
6
CONTINUOUS
10
42.7888
20
-62.7775
11
42.2232
21
-62.7775
0
LINE
8
BLACK
6
CONTINUOUS
10
42.2232
20
-62.7775
11
42.2232
21
-63.3432
0
LINE
8
BLACK
6
CONTINUOUS
10
42.2232
20
-63.3432
11
42.7888
21
-63.3432
0
LINE
8
BLACK
6
CONTINUOUS
10
42.906
20
-62.6603
11
42.106
21
-62.6603
0
ARC
8
BLACK
10
42.106
20
-63.0603
40
0.4
50
450
51
630
0
LINE
8
BLACK
6
CONTINUOUS
10
42.106
20
-63.4603
11
42.906
21
-63.4603
0
ARC
8
BLACK
10
42.906
20
-63.0603
40
0.4
50
270
51
450
0
LINE
8
BLACK
6
CONTINUOUS
10
73.08
20
-82.4353
11
73.58
21
-81.9353
0
LINE
8
BLACK
6
CONTINUOUS
10
73.58
20
-81.9353
11
73.08
21
-81.4353
0
LINE
8
BLACK
6
CONTINUOUS
10
73.08
20
-81.4353
11
72.58
21
-81.9353
0
LINE
8
BLACK
6
CONTINUOUS
10
72.58
20
-81.9353
11
73.08
21
-82.4353
0
LINE
8
BLACK
6
CONTINUOUS
10
75.62
20
-82.4353
11
76.12
21
-81.9353
0
LINE
8
BLACK
6
CONTINUOUS
10
76.12
20
-81.9353
11
75.62
21
-81.4353
0
LINE
8
BLACK
6
CONTINUOUS
10
75.62
20
-81.4353
11
75.12
21
-81.9353
0
LINE
8
BLACK
6
CONTINUOUS
10
75.12
20
-81.9353
11
75.62
21
-82.4353
0
LINE
8
BLACK
6
CONTINUOUS
10
78.16
20
-82.4353
11
78.66
21
-81.9353
0
LINE
8
BLACK
6
CONTINUOUS
10
78.66
20
-81.9353
11
78.16
21
-81.4353
0
LINE
8
BLACK
6
CONTINUOUS
10
78.16
20
-81.4353
11
77.66
21
-81.9353
0
LINE
8
BLACK
6
CONTINUOUS
10
77.66
20
-81.9353
11
78.16
21
-82.4353
0
LINE
8
BLACK
6
CONTINUOUS
10
80.7
20
-82.4353
11
81.2
21
-81.9353
0
LINE
8
BLACK
6
CONTINUOUS
10
81.2
20
-81.9353
11
80.7
21
-81.4353
0
LINE
8
BLACK
6
CONTINUOUS
10
80.7
20
-81.4353
11
80.2
21
-81.9353
0
LINE
8
BLACK
6
CONTINUOUS
10
80.2
20
-81.9353
11
80.7
21
-82.4353
0
LINE
8
BLACK
6
CONTINUOUS
10
83.24
20
-82.4353
11
83.74
21
-81.9353
0
LINE
8
BLACK
6
CONTINUOUS
10
83.74
20
-81.9353
11
83.24
21
-81.4353
0
LINE
8
BLACK
6
CONTINUOUS
10
83.24
20
-81.4353
11
82.74
21
-81.9353
0
LINE
8
BLACK
6
CONTINUOUS
10
82.74
20
-81.9353
11
83.24
21
-82.4353
0
LINE
8
BLACK
6
CONTINUOUS
10
85.78
20
-82.4353
11
86.28
21
-81.9353
0
LINE
8
BLACK
6
CONTINUOUS
10
86.28
20
-81.9353
11
85.78
21
-81.4353
0
LINE
8
BLACK
6
CONTINUOUS
10
85.78
20
-81.4353
11
85.28
21
-81.9353
0
LINE
8
BLACK
6
CONTINUOUS
10
85.28
20
-81.9353
11
85.78
21
-82.4353
0
LINE
8
BLACK
6
CONTINUOUS
10
88.32
20
-82.4353
11
88.82
21
-81.9353
0
LINE
8
BLACK
6
CONTINUOUS
10
88.82
20
-81.9353
11
88.32
21
-81.4353
0
LINE
8
BLACK
6
CONTINUOUS
10
88.32
20
-81.4353
11
87.82
21
-81.9353
0
LINE
8
BLACK
6
CONTINUOUS
10
87.82
20
-81.9353
11
88.32
21
-82.4353
0
LINE
8
BLACK
6
CONTINUOUS
10
103.24
20
-68.6453
11
103.74
21
-68.1453
0
LINE
8
BLACK
6
CONTINUOUS
10
103.74
20
-68.1453
11
103.24
21
-67.6453
0
LINE
8
BLACK
6
CONTINUOUS
10
103.24
20
-67.6453
11
102.74
21
-68.1453
0
LINE
8
BLACK
6
CONTINUOUS
10
102.74
20
-68.1453
11
103.24
21
-68.6453
0
LINE
8
BLACK
6
CONTINUOUS
10
103.25
20
-45.5353
11
103.75
21
-45.0353
0
LINE
8
BLACK
6
CONTINUOUS
10
103.75
20
-45.0353
11
103.25
21
-44.5353
0
LINE
8
BLACK
6
CONTINUOUS
10
103.25
20
-44.5353
11
102.75
21
-45.0353
0
LINE
8
BLACK
6
CONTINUOUS
10
102.75
20
-45.0353
11
103.25
21
-45.5353
0
LINE
8
BLACK
6
CONTINUOUS
10
106.8
20
-45.5353
11
107.3
21
-45.0353
0
LINE
8
BLACK
6
CONTINUOUS
10
107.3
20
-45.0353
11
106.8
21
-44.5353
0
LINE
8
BLACK
6
CONTINUOUS
10
106.8
20
-44.5353
11
106.3
21
-45.0353
0
LINE
8
BLACK
6
CONTINUOUS
10
106.3
20
-45.0353
11
106.8
21
-45.5353
0
LINE
8
BLACK
6
CONTINUOUS
10
106.8
20
-68.6353
11
107.3
21
-68.1353
0
LINE
8
BLACK
6
CONTINUOUS
10
107.3
20
-68.1353
11
106.8
21
-67.6353
0
LINE
8
BLACK
6
CONTINUOUS
10
106.8
20
-67.6353
11
106.3
21
-68.1353
0
LINE
8
BLACK
6
CONTINUOUS
10
106.3
20
-68.1353
11
106.8
21
-68.6353
0
LINE
8
BLACK
6
CONTINUOUS
10
114.75
20
-76.1853
11
115.25
21
-75.6853
0
LINE
8
BLACK
6
CONTINUOUS
10
115.25
20
-75.6853
11
114.75
21
-75.1853
0
LINE
8
BLACK
6
CONTINUOUS
10
114.75
20
-75.1853
11
114.25
21
-75.6853
0
LINE
8
BLACK
6
CONTINUOUS
10
114.25
20
-75.6853
11
114.75
21
-76.1853
0
LINE
8
BLACK
6
CONTINUOUS
10
117.29
20
-76.1853
11
117.79
21
-75.6853
0
LINE
8
BLACK
6
CONTINUOUS
10
117.79
20
-75.6853
11
117.29
21
-75.1853
0
LINE
8
BLACK
6
CONTINUOUS
10
117.29
20
-75.1853
11
116.79
21
-75.6853
0
LINE
8
BLACK
6
CONTINUOUS
10
116.79
20
-75.6853
11
117.29
21
-76.1853
0
LINE
8
BLACK
6
CONTINUOUS
10
119.83
20
-76.1853
11
120.33
21
-75.6853
0
LINE
8
BLACK
6
CONTINUOUS
10
120.33
20
-75.6853
11
119.83
21
-75.1853
0
LINE
8
BLACK
6
CONTINUOUS
10
119.83
20
-75.1853
11
119.33
21
-75.6853
0
LINE
8
BLACK
6
CONTINUOUS
10
119.33
20
-75.6853
11
119.83
21
-76.1853
0
LINE
8
BLACK
6
CONTINUOUS
10
122.37
20
-76.1853
11
122.87
21
-75.6853
0
LINE
8
BLACK
6
CONTINUOUS
10
122.87
20
-75.6853
11
122.37
21
-75.1853
0
LINE
8
BLACK
6
CONTINUOUS
10
122.37
20
-75.1853
11
121.87
21
-75.6853
0
LINE
8
BLACK
6
CONTINUOUS
10
121.87
20
-75.6853
11
122.37
21
-76.1853
0
LINE
8
BLACK
6
CONTINUOUS
10
38.35
20
-36.6353
11
40.55
21
-38.8353
0
LINE
8
BLACK
6
CONTINUOUS
10
40.55
20
-36.6353
11
38.35
21
-38.8353
0
CIRCLE
8
BLACK
10
39.45
20
-37.7353
40
1.1
0
LINE
8
BLACK
6
CONTINUOUS
10
38.35
20
-78.6353
11
40.55
21
-80.8353
0
LINE
8
BLACK
6
CONTINUOUS
10
40.55
20
-78.6353
11
38.35
21
-80.8353
0
CIRCLE
8
BLACK
10
39.45
20
-79.7353
40
1.1
0
LINE
8
BLACK
6
CONTINUOUS
10
120.35
20
-36.6353
11
122.55
21
-38.8353
0
LINE
8
BLACK
6
CONTINUOUS
10
122.55
20
-36.6353
11
120.35
21
-38.8353
0
CIRCLE
8
BLACK
10
121.45
20
-37.7353
40
1.1
0
LINE
8
BLACK
6
CONTINUOUS
10
120.35
20
-78.6353
11
122.55
21
-80.8353
0
LINE
8
BLACK
6
CONTINUOUS
10
122.55
20
-78.6353
11
120.35
21
-80.8353
0
CIRCLE
8
BLACK
10
121.45
20
-79.7353
40
1.1
0
LINE
8
BLACK
6
CONTINUOUS
10
50.1
20
-71.2353
11
53.1
21
-74.2353
0
LINE
8
BLACK
6
CONTINUOUS
10
53.1
20
-71.2353
11
50.1
21
-74.2353
0
LINE
8
BLACK
6
CONTINUOUS
10
51.6
20
-71.2353
11
51.6
21
-74.2353
0
LINE
8
BLACK
6
CONTINUOUS
10
50.1
20
-72.7353
11
53.1
21
-72.7353
0
LINE
8
BLACK
6
CONTINUOUS
10
50.3
20
-77.9353
11
53.3
21
-80.9353
0
LINE
8
BLACK
6
CONTINUOUS
10
53.3
20
-77.9353
11
50.3
21
-80.9353
0
LINE
8
BLACK
6
CONTINUOUS
10
51.8
20
-77.9353
11
51.8
21
-80.9353
0
LINE
8
BLACK
6
CONTINUOUS
10
50.3
20
-79.4353
11
53.3
21
-79.4353
0
LINE
8
BLACK
6
CONTINUOUS
10
38.0078
20
-86.9002
11
38.0078
21
-84.9002
0
LINE
8
BLACK
6
CONTINUOUS
10
38.0078
20
-84.9002
11
38.484
21
-84.9002
0
LINE
8
BLACK
6
CONTINUOUS
10
38.484
20
-84.9002
11
38.7697
21
-84.9954
0
LINE
8
BLACK
6
CONTINUOUS
10
38.7697
20
-84.9954
11
38.9601
21
-85.1859
0
LINE
8
BLACK
6
CONTINUOUS
10
38.9601
20
-85.1859
11
39.0554
21
-85.3764
0
LINE
8
BLACK
6
CONTINUOUS
10
39.0554
20
-85.3764
11
39.1506
21
-85.7573
0
LINE
8
BLACK
6
CONTINUOUS
10
39.1506
20
-85.7573
11
39.1506
21
-86.043
0
LINE
8
BLACK
6
CONTINUOUS
10
39.1506
20
-86.043
11
39.0554
21
-86.424
0
LINE
8
BLACK
6
CONTINUOUS
10
39.0554
20
-86.424
11
38.9601
21
-86.6145
0
LINE
8
BLACK
6
CONTINUOUS
10
38.9601
20
-86.6145
11
38.7697
21
-86.8049
0
LINE
8
BLACK
6
CONTINUOUS
10
38.7697
20
-86.8049
11
38.484
21
-86.9002
0
LINE
8
BLACK
6
CONTINUOUS
10
38.484
20
-86.9002
11
38.0078
21
-86.9002
0
LINE
8
BLACK
6
CONTINUOUS
10
40.0078
20
-86.9002
11
40.0078
21
-85.5668
0
LINE
8
BLACK
6
CONTINUOUS
10
40.0078
20
-85.9478
11
40.103
21
-85.7573
0
LINE
8
BLACK
6
CONTINUOUS
10
40.103
20
-85.7573
11
40.1982
21
-85.6621
0
LINE
8
BLACK
6
CONTINUOUS
10
40.1982
20
-85.6621
11
40.3887
21
-85.5668
0
LINE
8
BLACK
6
CONTINUOUS
10
40.3887
20
-85.5668
11
40.5792
21
-85.5668
0
LINE
8
BLACK
6
CONTINUOUS
10
41.2459
20
-86.9002
11
41.2459
21
-85.5668
0
LINE
8
BLACK
6
CONTINUOUS
10
41.2459
20
-84.9002
11
41.1506
21
-84.9954
0
LINE
8
BLACK
6
CONTINUOUS
10
41.1506
20
-84.9954
11
41.2459
21
-85.0906
0
LINE
8
BLACK
6
CONTINUOUS
10
41.2459
20
-85.0906
11
41.3411
21
-84.9954
0
LINE
8
BLACK
6
CONTINUOUS
10
41.3411
20
-84.9954
11
41.2459
21
-84.9002
0
LINE
8
BLACK
6
CONTINUOUS
10
41.2459
20
-84.9002
11
41.2459
21
-85.0906
0
LINE
8
BLACK
6
CONTINUOUS
10
42.484
20
-86.9002
11
42.2935
21
-86.8049
0
LINE
8
BLACK
6
CONTINUOUS
10
42.2935
20
-86.8049
11
42.1982
21
-86.6145
0
LINE
8
BLACK
6
CONTINUOUS
10
42.1982
20
-86.6145
11
42.1982
21
-84.9002
0
LINE
8
BLACK
6
CONTINUOUS
10
43.5316
20
-86.9002
11
43.3411
21
-86.8049
0
LINE
8
BLACK
6
CONTINUOUS
10
43.3411
20
-86.8049
11
43.2459
21
-86.6145
0
LINE
8
BLACK
6
CONTINUOUS
10
43.2459
20
-86.6145
11
43.2459
21
-84.9002
0
LINE
8
BLACK
6
CONTINUOUS
10
45.8173
20
-86.9002
11
45.8173
21
-84.9002
0
LINE
8
BLACK
6
CONTINUOUS
10
45.8173
20
-84.9002
11
46.484
21
-86.3287
0
LINE
8
BLACK
6
CONTINUOUS
10
46.484
20
-86.3287
11
47.1506
21
-84.9002
0
LINE
8
BLACK
6
CONTINUOUS
10
47.1506
20
-84.9002
11
47.1506
21
-86.9002
0
LINE
8
BLACK
6
CONTINUOUS
10
48.9601
20
-86.9002
11
48.9601
21
-85.8525
0
LINE
8
BLACK
6
CONTINUOUS
10
48.9601
20
-85.8525
11
48.8649
21
-85.6621
0
LINE
8
BLACK
6
CONTINUOUS
10
48.8649
20
-85.6621
11
48.6744
21
-85.5668
0
LINE
8
BLACK
6
CONTINUOUS
10
48.6744
20
-85.5668
11
48.2935
21
-85.5668
0
LINE
8
BLACK
6
CONTINUOUS
10
48.2935
20
-85.5668
11
48.103
21
-85.6621
0
LINE
8
BLACK
6
CONTINUOUS
10
48.9601
20
-86.8049
11
48.7697
21
-86.9002
0
LINE
8
BLACK
6
CONTINUOUS
10
48.7697
20
-86.9002
11
48.2935
21
-86.9002
0
LINE
8
BLACK
6
CONTINUOUS
10
48.2935
20
-86.9002
11
48.103
21
-86.8049
0
LINE
8
BLACK
6
CONTINUOUS
10
48.103
20
-86.8049
11
48.0078
21
-86.6145
0
LINE
8
BLACK
6
CONTINUOUS
10
48.0078
20
-86.6145
11
48.0078
21
-86.424
0
LINE
8
BLACK
6
CONTINUOUS
10
48.0078
20
-86.424
11
48.103
21
-86.2335
0
LINE
8
BLACK
6
CONTINUOUS
10
48.103
20
-86.2335
11
48.2935
21
-86.1383
0
LINE
8
BLACK
6
CONTINUOUS
10
48.2935
20
-86.1383
11
48.7697
21
-86.1383
0
LINE
8
BLACK
6
CONTINUOUS
10
48.7697
20
-86.1383
11
48.9601
21
-86.043
0
LINE
8
BLACK
6
CONTINUOUS
10
49.9125
20
-85.5668
11
49.9125
21
-87.5668
0
LINE
8
BLACK
6
CONTINUOUS
10
49.9125
20
-85.6621
11
50.103
21
-85.5668
0
LINE
8
BLACK
6
CONTINUOUS
10
50.103
20
-85.5668
11
50.484
21
-85.5668
0
LINE
8
BLACK
6
CONTINUOUS
10
50.484
20
-85.5668
11
50.6744
21
-85.6621
0
LINE
8
BLACK
6
CONTINUOUS
10
50.6744
20
-85.6621
11
50.7697
21
-85.7573
0
LINE
8
BLACK
6
CONTINUOUS
10
50.7697
20
-85.7573
11
50.8649
21
-85.9478
0
LINE
8
BLACK
6
CONTINUOUS
10
50.8649
20
-85.9478
11
50.8649
21
-86.5192
0
LINE
8
BLACK
6
CONTINUOUS
10
50.8649
20
-86.5192
11
50.7697
21
-86.7097
0
LINE
8
BLACK
6
CONTINUOUS
10
50.7697
20
-86.7097
11
50.6744
21
-86.8049
0
LINE
8
BLACK
6
CONTINUOUS
10
50.6744
20
-86.8049
11
50.484
21
-86.9002
0
LINE
8
BLACK
6
CONTINUOUS
10
50.484
20
-86.9002
11
50.103
21
-86.9002
0
LINE
8
BLACK
6
CONTINUOUS
10
50.103
20
-86.9002
11
49.9125
21
-86.8049
0
LINE
8
BLACK
6
CONTINUOUS
10
51.7221
20
-86.7097
11
51.8173
21
-86.8049
0
LINE
8
BLACK
6
CONTINUOUS
10
51.8173
20
-86.8049
11
51.7221
21
-86.9002
0
LINE
8
BLACK
6
CONTINUOUS
10
51.7221
20
-86.9002
11
51.6268
21
-86.8049
0
LINE
8
BLACK
6
CONTINUOUS
10
51.6268
20
-86.8049
11
51.7221
21
-86.7097
0
LINE
8
BLACK
6
CONTINUOUS
10
51.7221
20
-86.7097
11
51.7221
21
-86.9002
0
LINE
8
BLACK
6
CONTINUOUS
10
51.7221
20
-85.6621
11
51.8173
21
-85.7573
0
LINE
8
BLACK
6
CONTINUOUS
10
51.8173
20
-85.7573
11
51.7221
21
-85.8525
0
LINE
8
BLACK
6
CONTINUOUS
10
51.7221
20
-85.8525
11
51.6268
21
-85.7573
0
LINE
8
BLACK
6
CONTINUOUS
10
51.6268
20
-85.7573
11
51.7221
21
-85.6621
0
LINE
8
BLACK
6
CONTINUOUS
10
51.7221
20
-85.6621
11
51.7221
21
-85.8525
0
LINE
8
BLACK
6
CONTINUOUS
10
35.1
20
-90.0353
11
35.4
21
-90.3353
0
LINE
8
BLACK
6
CONTINUOUS
10
35.4
20
-90.0353
11
35.1
21
-90.3353
0
LINE
8
BLACK
6
CONTINUOUS
10
38.3887
20
-89.1002
11
38.5792
21
-89.1002
0
LINE
8
BLACK
6
CONTINUOUS
10
38.5792
20
-89.1002
11
38.7697
21
-89.1954
0
LINE
8
BLACK
6
CONTINUOUS
10
38.7697
20
-89.1954
11
38.8649
21
-89.2906
0
LINE
8
BLACK
6
CONTINUOUS
10
38.8649
20
-89.2906
11
38.9601
21
-89.4811
0
LINE
8
BLACK
6
CONTINUOUS
10
38.9601
20
-89.4811
11
39.0554
21
-89.8621
0
LINE
8
BLACK
6
CONTINUOUS
10
39.0554
20
-89.8621
11
39.0554
21
-90.3383
0
LINE
8
BLACK
6
CONTINUOUS
10
39.0554
20
-90.3383
11
38.9601
21
-90.7192
0
LINE
8
BLACK
6
CONTINUOUS
10
38.9601
20
-90.7192
11
38.8649
21
-90.9097
0
LINE
8
BLACK
6
CONTINUOUS
10
38.8649
20
-90.9097
11
38.7697
21
-91.0049
0
LINE
8
BLACK
6
CONTINUOUS
10
38.7697
20
-91.0049
11
38.5792
21
-91.1002
0
LINE
8
BLACK
6
CONTINUOUS
10
38.5792
20
-91.1002
11
38.3887
21
-91.1002
0
LINE
8
BLACK
6
CONTINUOUS
10
38.3887
20
-91.1002
11
38.1982
21
-91.0049
0
LINE
8
BLACK
6
CONTINUOUS
10
38.1982
20
-91.0049
11
38.103
21
-90.9097
0
LINE
8
BLACK
6
CONTINUOUS
10
38.103
20
-90.9097
11
38.0078
21
-90.7192
0
LINE
8
BLACK
6
CONTINUOUS
10
38.0078
20
-90.7192
11
37.9125
21
-90.3383
0
LINE
8
BLACK
6
CONTINUOUS
10
37.9125
20
-90.3383
11
37.9125
21
-89.8621
0
LINE
8
BLACK
6
CONTINUOUS
10
37.9125
20
-89.8621
11
38.0078
21
-89.4811
0
LINE
8
BLACK
6
CONTINUOUS
10
38.0078
20
-89.4811
11
38.103
21
-89.2906
0
LINE
8
BLACK
6
CONTINUOUS
10
38.103
20
-89.2906
11
38.1982
21
-89.1954
0
LINE
8
BLACK
6
CONTINUOUS
10
38.1982
20
-89.1954
11
38.3887
21
-89.1002
0
LINE
8
BLACK
6
CONTINUOUS
10
39.9125
20
-90.9097
11
40.0078
21
-91.0049
0
LINE
8
BLACK
6
CONTINUOUS
10
40.0078
20
-91.0049
11
39.9125
21
-91.1002
0
LINE
8
BLACK
6
CONTINUOUS
10
39.9125
20
-91.1002
11
39.8173
21
-91.0049
0
LINE
8
BLACK
6
CONTINUOUS
10
39.8173
20
-91.0049
11
39.9125
21
-90.9097
0
LINE
8
BLACK
6
CONTINUOUS
10
39.9125
20
-90.9097
11
39.9125
21
-91.1002
0
LINE
8
BLACK
6
CONTINUOUS
10
40.6744
20
-89.1002
11
41.9125
21
-89.1002
0
LINE
8
BLACK
6
CONTINUOUS
10
41.9125
20
-89.1002
11
41.2459
21
-89.8621
0
LINE
8
BLACK
6
CONTINUOUS
10
41.2459
20
-89.8621
11
41.5316
21
-89.8621
0
LINE
8
BLACK
6
CONTINUOUS
10
41.5316
20
-89.8621
11
41.7221
21
-89.9573
0
LINE
8
BLACK
6
CONTINUOUS
10
41.7221
20
-89.9573
11
41.8173
21
-90.0525
0
LINE
8
BLACK
6
CONTINUOUS
10
41.8173
20
-90.0525
11
41.9125
21
-90.243
0
LINE
8
BLACK
6
CONTINUOUS
10
41.9125
20
-90.243
11
41.9125
21
-90.7192
0
LINE
8
BLACK
6
CONTINUOUS
10
41.9125
20
-90.7192
11
41.8173
21
-90.9097
0
LINE
8
BLACK
6
CONTINUOUS
10
41.8173
20
-90.9097
11
41.7221
21
-91.0049
0
LINE
8
BLACK
6
CONTINUOUS
10
41.7221
20
-91.0049
11
41.5316
21
-91.1002
0
LINE
8
BLACK
6
CONTINUOUS
10
41.5316
20
-91.1002
11
40.9601
21
-91.1002
0
LINE
8
BLACK
6
CONTINUOUS
10
40.9601
20
-91.1002
11
40.7697
21
-91.0049
0
LINE
8
BLACK
6
CONTINUOUS
10
40.7697
20
-91.0049
11
40.6744
21
-90.9097
0
LINE
8
BLACK
6
CONTINUOUS
10
43.1506
20
-89.1002
11
43.3411
21
-89.1002
0
LINE
8
BLACK
6
CONTINUOUS
10
43.3411
20
-89.1002
11
43.5316
21
-89.1954
0
LINE
8
BLACK
6
CONTINUOUS
10
43.5316
20
-89.1954
11
43.6268
21
-89.2906
0
LINE
8
BLACK
6
CONTINUOUS
10
43.6268
20
-89.2906
11
43.7221
21
-89.4811
0
LINE
8
BLACK
6
CONTINUOUS
10
43.7221
20
-89.4811
11
43.8173
21
-89.8621
0
LINE
8
BLACK
6
CONTINUOUS
10
43.8173
20
-89.8621
11
43.8173
21
-90.3383
0
LINE
8
BLACK
6
CONTINUOUS
10
43.8173
20
-90.3383
11
43.7221
21
-90.7192
0
LINE
8
BLACK
6
CONTINUOUS
10
43.7221
20
-90.7192
11
43.6268
21
-90.9097
0
LINE
8
BLACK
6
CONTINUOUS
10
43.6268
20
-90.9097
11
43.5316
21
-91.0049
0
LINE
8
BLACK
6
CONTINUOUS
10
43.5316
20
-91.0049
11
43.3411
21
-91.1002
0
LINE
8
BLACK
6
CONTINUOUS
10
43.3411
20
-91.1002
11
43.1506
21
-91.1002
0
LINE
8
BLACK
6
CONTINUOUS
10
43.1506
20
-91.1002
11
42.9601
21
-91.0049
0
LINE
8
BLACK
6
CONTINUOUS
10
42.9601
20
-91.0049
11
42.8649
21
-90.9097
0
LINE
8
BLACK
6
CONTINUOUS
10
42.8649
20
-90.9097
11
42.7697
21
-90.7192
0
LINE
8
BLACK
6
CONTINUOUS
10
42.7697
20
-90.7192
11
42.6744
21
-90.3383
0
LINE
8
BLACK
6
CONTINUOUS
10
42.6744
20
-90.3383
11
42.6744
21
-89.8621
0
LINE
8
BLACK
6
CONTINUOUS
10
42.6744
20
-89.8621
11
42.7697
21
-89.4811
0
LINE
8
BLACK
6
CONTINUOUS
10
42.7697
20
-89.4811
11
42.8649
21
-89.2906
0
LINE
8
BLACK
6
CONTINUOUS
10
42.8649
20
-89.2906
11
42.9601
21
-89.1954
0
LINE
8
BLACK
6
CONTINUOUS
10
42.9601
20
-89.1954
11
43.1506
21
-89.1002
0
LINE
8
BLACK
6
CONTINUOUS
10
45.0554
20
-89.1002
11
45.2459
21
-89.1002
0
LINE
8
BLACK
6
CONTINUOUS
10
45.2459
20
-89.1002
11
45.4363
21
-89.1954
0
LINE
8
BLACK
6
CONTINUOUS
10
45.4363
20
-89.1954
11
45.5316
21
-89.2906
0
LINE
8
BLACK
6
CONTINUOUS
10
45.5316
20
-89.2906
11
45.6268
21
-89.4811
0
LINE
8
BLACK
6
CONTINUOUS
10
45.6268
20
-89.4811
11
45.7221
21
-89.8621
0
LINE
8
BLACK
6
CONTINUOUS
10
45.7221
20
-89.8621
11
45.7221
21
-90.3383
0
LINE
8
BLACK
6
CONTINUOUS
10
45.7221
20
-90.3383
11
45.6268
21
-90.7192
0
LINE
8
BLACK
6
CONTINUOUS
10
45.6268
20
-90.7192
11
45.5316
21
-90.9097
0
LINE
8
BLACK
6
CONTINUOUS
10
45.5316
20
-90.9097
11
45.4363
21
-91.0049
0
LINE
8
BLACK
6
CONTINUOUS
10
45.4363
20
-91.0049
11
45.2459
21
-91.1002
0
LINE
8
BLACK
6
CONTINUOUS
10
45.2459
20
-91.1002
11
45.0554
21
-91.1002
0
LINE
8
BLACK
6
CONTINUOUS
10
45.0554
20
-91.1002
11
44.8649
21
-91.0049
0
LINE
8
BLACK
6
CONTINUOUS
10
44.8649
20
-91.0049
11
44.7697
21
-90.9097
0
LINE
8
BLACK
6
CONTINUOUS
10
44.7697
20
-90.9097
11
44.6744
21
-90.7192
0
LINE
8
BLACK
6
CONTINUOUS
10
44.6744
20
-90.7192
11
44.5792
21
-90.3383
0
LINE
8
BLACK
6
CONTINUOUS
10
44.5792
20
-90.3383
11
44.5792
21
-89.8621
0
LINE
8
BLACK
6
CONTINUOUS
10
44.5792
20
-89.8621
11
44.6744
21
-89.4811
0
LINE
8
BLACK
6
CONTINUOUS
10
44.6744
20
-89.4811
11
44.7697
21
-89.2906
0
LINE
8
BLACK
6
CONTINUOUS
10
44.7697
20
-89.2906
11
44.8649
21
-89.1954
0
LINE
8
BLACK
6
CONTINUOUS
10
44.8649
20
-89.1954
11
45.0554
21
-89.1002
0
LINE
8
BLACK
6
CONTINUOUS
10
46.5792
20
-91.1002
11
46.5792
21
-89.7668
0
LINE
8
BLACK
6
CONTINUOUS
10
46.5792
20
-89.9573
11
46.6744
21
-89.8621
0
LINE
8
BLACK
6
CONTINUOUS
10
46.6744
20
-89.8621
11
46.8649
21
-89.7668
0
LINE
8
BLACK
6
CONTINUOUS
10
46.8649
20
-89.7668
11
47.1506
21
-89.7668
0
LINE
8
BLACK
6
CONTINUOUS
10
47.1506
20
-89.7668
11
47.3411
21
-89.8621
0
LINE
8
BLACK
6
CONTINUOUS
10
47.3411
20
-89.8621
11
47.4363
21
-90.0525
0
LINE
8
BLACK
6
CONTINUOUS
10
47.4363
20
-90.0525
11
47.4363
21
-91.1002
0
LINE
8
BLACK
6
CONTINUOUS
10
47.4363
20
-90.0525
11
47.5316
21
-89.8621
0
LINE
8
BLACK
6
CONTINUOUS
10
47.5316
20
-89.8621
11
47.7221
21
-89.7668
0
LINE
8
BLACK
6
CONTINUOUS
10
47.7221
20
-89.7668
11
48.0078
21
-89.7668
0
LINE
8
BLACK
6
CONTINUOUS
10
48.0078
20
-89.7668
11
48.1982
21
-89.8621
0
LINE
8
BLACK
6
CONTINUOUS
10
48.1982
20
-89.8621
11
48.2935
21
-90.0525
0
LINE
8
BLACK
6
CONTINUOUS
10
48.2935
20
-90.0525
11
48.2935
21
-91.1002
0
LINE
8
BLACK
6
CONTINUOUS
10
49.2459
20
-91.1002
11
49.2459
21
-89.7668
0
LINE
8
BLACK
6
CONTINUOUS
10
49.2459
20
-89.9573
11
49.3411
21
-89.8621
0
LINE
8
BLACK
6
CONTINUOUS
10
49.3411
20
-89.8621
11
49.5316
21
-89.7668
0
LINE
8
BLACK
6
CONTINUOUS
10
49.5316
20
-89.7668
11
49.8173
21
-89.7668
0
LINE
8
BLACK
6
CONTINUOUS
10
49.8173
20
-89.7668
11
50.0078
21
-89.8621
0
LINE
8
BLACK
6
CONTINUOUS
10
50.0078
20
-89.8621
11
50.103
21
-90.0525
0
LINE
8
BLACK
6
CONTINUOUS
10
50.103
20
-90.0525
11
50.103
21
-91.1002
0
LINE
8
BLACK
6
CONTINUOUS
10
50.103
20
-90.0525
11
50.1982
21
-89.8621
0
LINE
8
BLACK
6
CONTINUOUS
10
50.1982
20
-89.8621
11
50.3887
21
-89.7668
0
LINE
8
BLACK
6
CONTINUOUS
10
50.3887
20
-89.7668
11
50.6744
21
-89.7668
0
LINE
8
BLACK
6
CONTINUOUS
10
50.6744
20
-89.7668
11
50.8649
21
-89.8621
0
LINE
8
BLACK
6
CONTINUOUS
10
50.8649
20
-89.8621
11
50.9601
21
-90.0525
0
LINE
8
BLACK
6
CONTINUOUS
10
50.9601
20
-90.0525
11
50.9601
21
-91.1002
0
LINE
8
BLACK
6
CONTINUOUS
10
54.8649
20
-89.0049
11
53.1506
21
-91.5764
0
LINE
8
BLACK
6
CONTINUOUS
10
57.4363
20
-89.1002
11
57.6268
21
-89.1002
0
LINE
8
BLACK
6
CONTINUOUS
10
57.6268
20
-89.1002
11
57.8173
21
-89.1954
0
LINE
8
BLACK
6
CONTINUOUS
10
57.8173
20
-89.1954
11
57.9125
21
-89.2906
0
LINE
8
BLACK
6
CONTINUOUS
10
57.9125
20
-89.2906
11
58.0078
21
-89.4811
0
LINE
8
BLACK
6
CONTINUOUS
10
58.0078
20
-89.4811
11
58.103
21
-89.8621
0
LINE
8
BLACK
6
CONTINUOUS
10
58.103
20
-89.8621
11
58.103
21
-90.3383
0
LINE
8
BLACK
6
CONTINUOUS
10
58.103
20
-90.3383
11
58.0078
21
-90.7192
0
LINE
8
BLACK
6
CONTINUOUS
10
58.0078
20
-90.7192
11
57.9125
21
-90.9097
0
LINE
8
BLACK
6
CONTINUOUS
10
57.9125
20
-90.9097
11
57.8173
21
-91.0049
0
LINE
8
BLACK
6
CONTINUOUS
10
57.8173
20
-91.0049
11
57.6268
21
-91.1002
0
LINE
8
BLACK
6
CONTINUOUS
10
57.6268
20
-91.1002
11
57.4363
21
-91.1002
0
LINE
8
BLACK
6
CONTINUOUS
10
57.4363
20
-91.1002
11
57.2459
21
-91.0049
0
LINE
8
BLACK
6
CONTINUOUS
10
57.2459
20
-91.0049
11
57.1506
21
-90.9097
0
LINE
8
BLACK
6
CONTINUOUS
10
57.1506
20
-90.9097
11
57.0554
21
-90.7192
0
LINE
8
BLACK
6
CONTINUOUS
10
57.0554
20
-90.7192
11
56.9602
21
-90.3383
0
LINE
8
BLACK
6
CONTINUOUS
10
56.9602
20
-90.3383
11
56.9602
21
-89.8621
0
LINE
8
BLACK
6
CONTINUOUS
10
56.9602
20
-89.8621
11
57.0554
21
-89.4811
0
LINE
8
BLACK
6
CONTINUOUS
10
57.0554
20
-89.4811
11
57.1506
21
-89.2906
0
LINE
8
BLACK
6
CONTINUOUS
10
57.1506
20
-89.2906
11
57.2459
21
-89.1954
0
LINE
8
BLACK
6
CONTINUOUS
10
57.2459
20
-89.1954
11
57.4363
21
-89.1002
0
LINE
8
BLACK
6
CONTINUOUS
10
58.9602
20
-90.9097
11
59.0554
21
-91.0049
0
LINE
8
BLACK
6
CONTINUOUS
10
59.0554
20
-91.0049
11
58.9602
21
-91.1002
0
LINE
8
BLACK
6
CONTINUOUS
10
58.9602
20
-91.1002
11
58.8649
21
-91.0049
0
LINE
8
BLACK
6
CONTINUOUS
10
58.8649
20
-91.0049
11
58.9602
21
-90.9097
0
LINE
8
BLACK
6
CONTINUOUS
10
58.9602
20
-90.9097
11
58.9602
21
-91.1002
0
LINE
8
BLACK
6
CONTINUOUS
10
60.2935
20
-89.1002
11
60.484
21
-89.1002
0
LINE
8
BLACK
6
CONTINUOUS
10
60.484
20
-89.1002
11
60.6744
21
-89.1954
0
LINE
8
BLACK
6
CONTINUOUS
10
60.6744
20
-89.1954
11
60.7697
21
-89.2906
0
LINE
8
BLACK
6
CONTINUOUS
10
60.7697
20
-89.2906
11
60.8649
21
-89.4811
0
LINE
8
BLACK
6
CONTINUOUS
10
60.8649
20
-89.4811
11
60.9602
21
-89.8621
0
LINE
8
BLACK
6
CONTINUOUS
10
60.9602
20
-89.8621
11
60.9602
21
-90.3383
0
LINE
8
BLACK
6
CONTINUOUS
10
60.9602
20
-90.3383
11
60.8649
21
-90.7192
0
LINE
8
BLACK
6
CONTINUOUS
10
60.8649
20
-90.7192
11
60.7697
21
-90.9097
0
LINE
8
BLACK
6
CONTINUOUS
10
60.7697
20
-90.9097
11
60.6744
21
-91.0049
0
LINE
8
BLACK
6
CONTINUOUS
10
60.6744
20
-91.0049
11
60.484
21
-91.1002
0
LINE
8
BLACK
6
CONTINUOUS
10
60.484
20
-91.1002
11
60.2935
21
-91.1002
0
LINE
8
BLACK
6
CONTINUOUS
10
60.2935
20
-91.1002
11
60.103
21
-91.0049
0
LINE
8
BLACK
6
CONTINUOUS
10
60.103
20
-91.0049
11
60.0078
21
-90.9097
0
LINE
8
BLACK
6
CONTINUOUS
10
60.0078
20
-90.9097
11
59.9125
21
-90.7192
0
LINE
8
BLACK
6
CONTINUOUS
10
59.9125
20
-90.7192
11
59.8173
21
-90.3383
0
LINE
8
BLACK
6
CONTINUOUS
10
59.8173
20
-90.3383
11
59.8173
21
-89.8621
0
LINE
8
BLACK
6
CONTINUOUS
10
59.8173
20
-89.8621
11
59.9125
21
-89.4811
0
LINE
8
BLACK
6
CONTINUOUS
10
59.9125
20
-89.4811
11
60.0078
21
-89.2906
0
LINE
8
BLACK
6
CONTINUOUS
10
60.0078
20
-89.2906
11
60.103
21
-89.1954
0
LINE
8
BLACK
6
CONTINUOUS
10
60.103
20
-89.1954
11
60.2935
21
-89.1002
0
LINE
8
BLACK
6
CONTINUOUS
10
62.8649
20
-91.1002
11
61.7221
21
-91.1002
0
LINE
8
BLACK
6
CONTINUOUS
10
62.2935
20
-91.1002
11
62.2935
21
-89.1002
0
LINE
8
BLACK
6
CONTINUOUS
10
62.2935
20
-89.1002
11
62.103
21
-89.3859
0
LINE
8
BLACK
6
CONTINUOUS
10
62.103
20
-89.3859
11
61.9125
21
-89.5764
0
LINE
8
BLACK
6
CONTINUOUS
10
61.9125
20
-89.5764
11
61.7221
21
-89.6716
0
LINE
8
BLACK
6
CONTINUOUS
10
64.7697
20
-91.1002
11
63.6268
21
-91.1002
0
LINE
8
BLACK
6
CONTINUOUS
10
64.1982
20
-91.1002
11
64.1982
21
-89.1002
0
LINE
8
BLACK
6
CONTINUOUS
10
64.1982
20
-89.1002
11
64.0078
21
-89.3859
0
LINE
8
BLACK
6
CONTINUOUS
10
64.0078
20
-89.3859
11
63.8173
21
-89.5764
0
LINE
8
BLACK
6
CONTINUOUS
10
63.8173
20
-89.5764
11
63.6268
21
-89.6716
0
LINE
8
BLACK
6
CONTINUOUS
10
65.9125
20
-89.9573
11
65.7221
21
-89.8621
0
LINE
8
BLACK
6
CONTINUOUS
10
65.7221
20
-89.8621
11
65.6268
21
-89.7668
0
LINE
8
BLACK
6
CONTINUOUS
10
65.6268
20
-89.7668
11
65.5316
21
-89.5764
0
LINE
8
BLACK
6
CONTINUOUS
10
65.5316
20
-89.5764
11
65.5316
21
-89.4811
0
LINE
8
BLACK
6
CONTINUOUS
10
65.5316
20
-89.4811
11
65.6268
21
-89.2906
0
LINE
8
BLACK
6
CONTINUOUS
10
65.6268
20
-89.2906
11
65.7221
21
-89.1954
0
LINE
8
BLACK
6
CONTINUOUS
10
65.7221
20
-89.1954
11
65.9125
21
-89.1002
0
LINE
8
BLACK
6
CONTINUOUS
10
65.9125
20
-89.1002
11
66.2935
21
-89.1002
0
LINE
8
BLACK
6
CONTINUOUS
10
66.2935
20
-89.1002
11
66.484
21
-89.1954
0
LINE
8
BLACK
6
CONTINUOUS
10
66.484
20
-89.1954
11
66.5792
21
-89.2906
0
LINE
8
BLACK
6
CONTINUOUS
10
66.5792
20
-89.2906
11
66.6744
21
-89.4811
0
LINE
8
BLACK
6
CONTINUOUS
10
66.6744
20
-89.4811
11
66.6744
21
-89.5764
0
LINE
8
BLACK
6
CONTINUOUS
10
66.6744
20
-89.5764
11
66.5792
21
-89.7668
0
LINE
8
BLACK
6
CONTINUOUS
10
66.5792
20
-89.7668
11
66.484
21
-89.8621
0
LINE
8
BLACK
6
CONTINUOUS
10
66.484
20
-89.8621
11
66.2935
21
-89.9573
0
LINE
8
BLACK
6
CONTINUOUS
10
66.2935
20
-89.9573
11
65.9125
21
-89.9573
0
LINE
8
BLACK
6
CONTINUOUS
10
65.9125
20
-89.9573
11
65.7221
21
-90.0525
0
LINE
8
BLACK
6
CONTINUOUS
10
65.7221
20
-90.0525
11
65.6268
21
-90.1478
0
LINE
8
BLACK
6
CONTINUOUS
10
65.6268
20
-90.1478
11
65.5316
21
-90.3383
0
LINE
8
BLACK
6
CONTINUOUS
10
65.5316
20
-90.3383
11
65.5316
21
-90.7192
0
LINE
8
BLACK
6
CONTINUOUS
10
65.5316
20
-90.7192
11
65.6268
21
-90.9097
0
LINE
8
BLACK
6
CONTINUOUS
10
65.6268
20
-90.9097
11
65.7221
21
-91.0049
0
LINE
8
BLACK
6
CONTINUOUS
10
65.7221
20
-91.0049
11
65.9125
21
-91.1002
0
LINE
8
BLACK
6
CONTINUOUS
10
65.9125
20
-91.1002
11
66.2935
21
-91.1002
0
LINE
8
BLACK
6
CONTINUOUS
10
66.2935
20
-91.1002
11
66.484
21
-91.0049
0
LINE
8
BLACK
6
CONTINUOUS
10
66.484
20
-91.0049
11
66.5792
21
-90.9097
0
LINE
8
BLACK
6
CONTINUOUS
10
66.5792
20
-90.9097
11
66.6744
21
-90.7192
0
LINE
8
BLACK
6
CONTINUOUS
10
66.6744
20
-90.7192
11
66.6744
21
-90.3383
0
LINE
8
BLACK
6
CONTINUOUS
10
66.6744
20
-90.3383
11
66.5792
21
-90.1478
0
LINE
8
BLACK
6
CONTINUOUS
10
66.5792
20
-90.1478
11
66.484
21
-90.0525
0
LINE
8
BLACK
6
CONTINUOUS
10
66.484
20
-90.0525
11
66.2935
21
-89.9573
0
LINE
8
BLACK
6
CONTINUOUS
10
67.4363
20
-89.1002
11
67.4363
21
-89.4811
0
LINE
8
BLACK
6
CONTINUOUS
10
68.1982
20
-89.1002
11
68.1982
21
-89.4811
0
LINE
8
BLACK
6
CONTINUOUS
10
71.1506
20
-91.8621
11
71.0554
21
-91.7668
0
LINE
8
BLACK
6
CONTINUOUS
10
71.0554
20
-91.7668
11
70.8649
21
-91.4811
0
LINE
8
BLACK
6
CONTINUOUS
10
70.8649
20
-91.4811
11
70.7697
21
-91.2906
0
LINE
8
BLACK
6
CONTINUOUS
10
70.7697
20
-91.2906
11
70.6744
21
-91.0049
0
LINE
8
BLACK
6
CONTINUOUS
10
70.6744
20
-91.0049
11
70.5792
21
-90.5287
0
LINE
8
BLACK
6
CONTINUOUS
10
70.5792
20
-90.5287
11
70.5792
21
-90.1478
0
LINE
8
BLACK
6
CONTINUOUS
10
70.5792
20
-90.1478
11
70.6744
21
-89.6716
0
LINE
8
BLACK
6
CONTINUOUS
10
70.6744
20
-89.6716
11
70.7697
21
-89.3859
0
LINE
8
BLACK
6
CONTINUOUS
10
70.7697
20
-89.3859
11
70.8649
21
-89.1954
0
LINE
8
BLACK
6
CONTINUOUS
10
70.8649
20
-89.1954
11
71.0554
21
-88.9097
0
LINE
8
BLACK
6
CONTINUOUS
10
71.0554
20
-88.9097
11
71.1506
21
-88.8145
0
LINE
8
BLACK
6
CONTINUOUS
10
72.0078
20
-91.1002
11
72.3887
21
-91.1002
0
LINE
8
BLACK
6
CONTINUOUS
10
72.3887
20
-91.1002
11
72.5792
21
-91.0049
0
LINE
8
BLACK
6
CONTINUOUS
10
72.5792
20
-91.0049
11
72.6744
21
-90.9097
0
LINE
8
BLACK
6
CONTINUOUS
10
72.6744
20
-90.9097
11
72.8649
21
-90.624
0
LINE
8
BLACK
6
CONTINUOUS
10
72.8649
20
-90.624
11
72.9602
21
-90.243
0
LINE
8
BLACK
6
CONTINUOUS
10
72.9602
20
-90.243
11
72.9602
21
-89.4811
0
LINE
8
BLACK
6
CONTINUOUS
10
72.9602
20
-89.4811
11
72.8649
21
-89.2906
0
LINE
8
BLACK
6
CONTINUOUS
10
72.8649
20
-89.2906
11
72.7697
21
-89.1954
0
LINE
8
BLACK
6
CONTINUOUS
10
72.7697
20
-89.1954
11
72.5792
21
-89.1002
0
LINE
8
BLACK
6
CONTINUOUS
10
72.5792
20
-89.1002
11
72.1982
21
-89.1002
0
LINE
8
BLACK
6
CONTINUOUS
10
72.1982
20
-89.1002
11
72.0078
21
-89.1954
0
LINE
8
BLACK
6
CONTINUOUS
10
72.0078
20
-89.1954
11
71.9125
21
-89.2906
0
LINE
8
BLACK
6
CONTINUOUS
10
71.9125
20
-89.2906
11
71.8173
21
-89.4811
0
LINE
8
BLACK
6
CONTINUOUS
10
71.8173
20
-89.4811
11
71.8173
21
-89.9573
0
LINE
8
BLACK
6
CONTINUOUS
10
71.8173
20
-89.9573
11
71.9125
21
-90.1478
0
LINE
8
BLACK
6
CONTINUOUS
10
71.9125
20
-90.1478
11
72.0078
21
-90.243
0
LINE
8
BLACK
6
CONTINUOUS
10
72.0078
20
-90.243
11
72.1982
21
-90.3383
0
LINE
8
BLACK
6
CONTINUOUS
10
72.1982
20
-90.3383
11
72.5792
21
-90.3383
0
LINE
8
BLACK
6
CONTINUOUS
10
72.5792
20
-90.3383
11
72.7697
21
-90.243
0
LINE
8
BLACK
6
CONTINUOUS
10
72.7697
20
-90.243
11
72.8649
21
-90.1478
0
LINE
8
BLACK
6
CONTINUOUS
10
72.8649
20
-90.1478
11
72.9602
21
-89.9573
0
LINE
8
BLACK
6
CONTINUOUS
10
73.6268
20
-89.1002
11
74.9602
21
-89.1002
0
LINE
8
BLACK
6
CONTINUOUS
10
74.9602
20
-89.1002
11
74.103
21
-91.1002
0
LINE
8
BLACK
6
CONTINUOUS
10
77.2459
20
-91.1002
11
77.2459
21
-89.1002
0
LINE
8
BLACK
6
CONTINUOUS
10
78.103
20
-91.1002
11
78.103
21
-90.0525
0
LINE
8
BLACK
6
CONTINUOUS
10
78.103
20
-90.0525
11
78.0078
21
-89.8621
0
LINE
8
BLACK
6
CONTINUOUS
10
78.0078
20
-89.8621
11
77.8173
21
-89.7668
0
LINE
8
BLACK
6
CONTINUOUS
10
77.8173
20
-89.7668
11
77.5316
21
-89.7668
0
LINE
8
BLACK
6
CONTINUOUS
10
77.5316
20
-89.7668
11
77.3411
21
-89.8621
0
LINE
8
BLACK
6
CONTINUOUS
10
77.3411
20
-89.8621
11
77.2459
21
-89.9573
0
LINE
8
BLACK
6
CONTINUOUS
10
79.3411
20
-91.1002
11
79.1506
21
-91.0049
0
LINE
8
BLACK
6
CONTINUOUS
10
79.1506
20
-91.0049
11
79.0554
21
-90.9097
0
LINE
8
BLACK
6
CONTINUOUS
10
79.0554
20
-90.9097
11
78.9602
21
-90.7192
0
LINE
8
BLACK
6
CONTINUOUS
10
78.9602
20
-90.7192
11
78.9602
21
-90.1478
0
LINE
8
BLACK
6
CONTINUOUS
10
78.9602
20
-90.1478
11
79.0554
21
-89.9573
0
LINE
8
BLACK
6
CONTINUOUS
10
79.0554
20
-89.9573
11
79.1506
21
-89.8621
0
LINE
8
BLACK
6
CONTINUOUS
10
79.1506
20
-89.8621
11
79.3411
21
-89.7668
0
LINE
8
BLACK
6
CONTINUOUS
10
79.3411
20
-89.7668
11
79.6268
21
-89.7668
0
LINE
8
BLACK
6
CONTINUOUS
10
79.6268
20
-89.7668
11
79.8173
21
-89.8621
0
LINE
8
BLACK
6
CONTINUOUS
10
79.8173
20
-89.8621
11
79.9125
21
-89.9573
0
LINE
8
BLACK
6
CONTINUOUS
10
79.9125
20
-89.9573
11
80.0078
21
-90.1478
0
LINE
8
BLACK
6
CONTINUOUS
10
80.0078
20
-90.1478
11
80.0078
21
-90.7192
0
LINE
8
BLACK
6
CONTINUOUS
10
80.0078
20
-90.7192
11
79.9125
21
-90.9097
0
LINE
8
BLACK
6
CONTINUOUS
10
79.9125
20
-90.9097
11
79.8173
21
-91.0049
0
LINE
8
BLACK
6
CONTINUOUS
10
79.8173
20
-91.0049
11
79.6268
21
-91.1002
0
LINE
8
BLACK
6
CONTINUOUS
10
79.6268
20
-91.1002
11
79.3411
21
-91.1002
0
LINE
8
BLACK
6
CONTINUOUS
10
81.1506
20
-91.1002
11
80.9602
21
-91.0049
0
LINE
8
BLACK
6
CONTINUOUS
10
80.9602
20
-91.0049
11
80.8649
21
-90.8145
0
LINE
8
BLACK
6
CONTINUOUS
10
80.8649
20
-90.8145
11
80.8649
21
-89.1002
0
LINE
8
BLACK
6
CONTINUOUS
10
82.6744
20
-91.0049
11
82.484
21
-91.1002
0
LINE
8
BLACK
6
CONTINUOUS
10
82.484
20
-91.1002
11
82.103
21
-91.1002
0
LINE
8
BLACK
6
CONTINUOUS
10
82.103
20
-91.1002
11
81.9125
21
-91.0049
0
LINE
8
BLACK
6
CONTINUOUS
10
81.9125
20
-91.0049
11
81.8173
21
-90.8145
0
LINE
8
BLACK
6
CONTINUOUS
10
81.8173
20
-90.8145
11
81.8173
21
-90.0525
0
LINE
8
BLACK
6
CONTINUOUS
10
81.8173
20
-90.0525
11
81.9125
21
-89.8621
0
LINE
8
BLACK
6
CONTINUOUS
10
81.9125
20
-89.8621
11
82.103
21
-89.7668
0
LINE
8
BLACK
6
CONTINUOUS
10
82.103
20
-89.7668
11
82.484
21
-89.7668
0
LINE
8
BLACK
6
CONTINUOUS
10
82.484
20
-89.7668
11
82.6744
21
-89.8621
0
LINE
8
BLACK
6
CONTINUOUS
10
82.6744
20
-89.8621
11
82.7697
21
-90.0525
0
LINE
8
BLACK
6
CONTINUOUS
10
82.7697
20
-90.0525
11
82.7697
21
-90.243
0
LINE
8
BLACK
6
CONTINUOUS
10
82.7697
20
-90.243
11
81.8173
21
-90.4335
0
LINE
8
BLACK
6
CONTINUOUS
10
83.5316
20
-91.0049
11
83.7221
21
-91.1002
0
LINE
8
BLACK
6
CONTINUOUS
10
83.7221
20
-91.1002
11
84.103
21
-91.1002
0
LINE
8
BLACK
6
CONTINUOUS
10
84.103
20
-91.1002
11
84.2935
21
-91.0049
0
LINE
8
BLACK
6
CONTINUOUS
10
84.2935
20
-91.0049
11
84.3887
21
-90.8145
0
LINE
8
BLACK
6
CONTINUOUS
10
84.3887
20
-90.8145
11
84.3887
21
-90.7192
0
LINE
8
BLACK
6
CONTINUOUS
10
84.3887
20
-90.7192
11
84.2935
21
-90.5287
0
LINE
8
BLACK
6
CONTINUOUS
10
84.2935
20
-90.5287
11
84.103
21
-90.4335
0
LINE
8
BLACK
6
CONTINUOUS
10
84.103
20
-90.4335
11
83.8173
21
-90.4335
0
LINE
8
BLACK
6
CONTINUOUS
10
83.8173
20
-90.4335
11
83.6268
21
-90.3383
0
LINE
8
BLACK
6
CONTINUOUS
10
83.6268
20
-90.3383
11
83.5316
21
-90.1478
0
LINE
8
BLACK
6
CONTINUOUS
10
83.5316
20
-90.1478
11
83.5316
21
-90.0525
0
LINE
8
BLACK
6
CONTINUOUS
10
83.5316
20
-90.0525
11
83.6268
21
-89.8621
0
LINE
8
BLACK
6
CONTINUOUS
10
83.6268
20
-89.8621
11
83.8173
21
-89.7668
0
LINE
8
BLACK
6
CONTINUOUS
10
83.8173
20
-89.7668
11
84.103
21
-89.7668
0
LINE
8
BLACK
6
CONTINUOUS
10
84.103
20
-89.7668
11
84.2935
21
-89.8621
0
LINE
8
BLACK
6
CONTINUOUS
10
85.0554
20
-91.8621
11
85.1506
21
-91.7668
0
LINE
8
BLACK
6
CONTINUOUS
10
85.1506
20
-91.7668
11
85.3411
21
-91.4811
0
LINE
8
BLACK
6
CONTINUOUS
10
85.3411
20
-91.4811
11
85.4363
21
-91.2906
0
LINE
8
BLACK
6
CONTINUOUS
10
85.4363
20
-91.2906
11
85.5316
21
-91.0049
0
LINE
8
BLACK
6
CONTINUOUS
10
85.5316
20
-91.0049
11
85.6268
21
-90.5287
0
LINE
8
BLACK
6
CONTINUOUS
10
85.6268
20
-90.5287
11
85.6268
21
-90.1478
0
LINE
8
BLACK
6
CONTINUOUS
10
85.6268
20
-90.1478
11
85.5316
21
-89.6716
0
LINE
8
BLACK
6
CONTINUOUS
10
85.5316
20
-89.6716
11
85.4363
21
-89.3859
0
LINE
8
BLACK
6
CONTINUOUS
10
85.4363
20
-89.3859
11
85.3411
21
-89.1954
0
LINE
8
BLACK
6
CONTINUOUS
10
85.3411
20
-89.1954
11
85.1506
21
-88.9097
0
LINE
8
BLACK
6
CONTINUOUS
10
85.1506
20
-88.9097
11
85.0554
21
-88.8145
0
CIRCLE
8
BLACK
10
35.25
20
-92.8253
40
0.15
0
LINE
8
BLACK
6
CONTINUOUS
10
38.3887
20
-91.7402
11
38.5792
21
-91.7402
0
LINE
8
BLACK
6
CONTINUOUS
10
38.5792
20
-91.7402
11
38.7697
21
-91.8354
0
LINE
8
BLACK
6
CONTINUOUS
10
38.7697
20
-91.8354
11
38.8649
21
-91.9306
0
LINE
8
BLACK
6
CONTINUOUS
10
38.8649
20
-91.9306
11
38.9601
21
-92.1211
0
LINE
8
BLACK
6
CONTINUOUS
10
38.9601
20
-92.1211
11
39.0554
21
-92.5021
0
LINE
8
BLACK
6
CONTINUOUS
10
39.0554
20
-92.5021
11
39.0554
21
-92.9783
0
LINE
8
BLACK
6
CONTINUOUS
10
39.0554
20
-92.9783
11
38.9601
21
-93.3592
0
LINE
8
BLACK
6
CONTINUOUS
10
38.9601
20
-93.3592
11
38.8649
21
-93.5497
0
LINE
8
BLACK
6
CONTINUOUS
10
38.8649
20
-93.5497
11
38.7697
21
-93.6449
0
LINE
8
BLACK
6
CONTINUOUS
10
38.7697
20
-93.6449
11
38.5792
21
-93.7402
0
LINE
8
BLACK
6
CONTINUOUS
10
38.5792
20
-93.7402
11
38.3887
21
-93.7402
0
LINE
8
BLACK
6
CONTINUOUS
10
38.3887
20
-93.7402
11
38.1982
21
-93.6449
0
LINE
8
BLACK
6
CONTINUOUS
10
38.1982
20
-93.6449
11
38.103
21
-93.5497
0
LINE
8
BLACK
6
CONTINUOUS
10
38.103
20
-93.5497
11
38.0078
21
-93.3592
0
LINE
8
BLACK
6
CONTINUOUS
10
38.0078
20
-93.3592
11
37.9125
21
-92.9783
0
LINE
8
BLACK
6
CONTINUOUS
10
37.9125
20
-92.9783
11
37.9125
21
-92.5021
0
LINE
8
BLACK
6
CONTINUOUS
10
37.9125
20
-92.5021
11
38.0078
21
-92.1211
0
LINE
8
BLACK
6
CONTINUOUS
10
38.0078
20
-92.1211
11
38.103
21
-91.9306
0
LINE
8
BLACK
6
CONTINUOUS
10
38.103
20
-91.9306
11
38.1982
21
-91.8354
0
LINE
8
BLACK
6
CONTINUOUS
10
38.1982
20
-91.8354
11
38.3887
21
-91.7402
0
LINE
8
BLACK
6
CONTINUOUS
10
39.9125
20
-93.5497
11
40.0078
21
-93.6449
0
LINE
8
BLACK
6
CONTINUOUS
10
40.0078
20
-93.6449
11
39.9125
21
-93.7402
0
LINE
8
BLACK
6
CONTINUOUS
10
39.9125
20
-93.7402
11
39.8173
21
-93.6449
0
LINE
8
BLACK
6
CONTINUOUS
10
39.8173
20
-93.6449
11
39.9125
21
-93.5497
0
LINE
8
BLACK
6
CONTINUOUS
10
39.9125
20
-93.5497
11
39.9125
21
-93.7402
0
LINE
8
BLACK
6
CONTINUOUS
10
40.6744
20
-91.7402
11
41.9125
21
-91.7402
0
LINE
8
BLACK
6
CONTINUOUS
10
41.9125
20
-91.7402
11
41.2459
21
-92.5021
0
LINE
8
BLACK
6
CONTINUOUS
10
41.2459
20
-92.5021
11
41.5316
21
-92.5021
0
LINE
8
BLACK
6
CONTINUOUS
10
41.5316
20
-92.5021
11
41.7221
21
-92.5973
0
LINE
8
BLACK
6
CONTINUOUS
10
41.7221
20
-92.5973
11
41.8173
21
-92.6925
0
LINE
8
BLACK
6
CONTINUOUS
10
41.8173
20
-92.6925
11
41.9125
21
-92.883
0
LINE
8
BLACK
6
CONTINUOUS
10
41.9125
20
-92.883
11
41.9125
21
-93.3592
0
LINE
8
BLACK
6
CONTINUOUS
10
41.9125
20
-93.3592
11
41.8173
21
-93.5497
0
LINE
8
BLACK
6
CONTINUOUS
10
41.8173
20
-93.5497
11
41.7221
21
-93.6449
0
LINE
8
BLACK
6
CONTINUOUS
10
41.7221
20
-93.6449
11
41.5316
21
-93.7402
0
LINE
8
BLACK
6
CONTINUOUS
10
41.5316
20
-93.7402
11
40.9601
21
-93.7402
0
LINE
8
BLACK
6
CONTINUOUS
10
40.9601
20
-93.7402
11
40.7697
21
-93.6449
0
LINE
8
BLACK
6
CONTINUOUS
10
40.7697
20
-93.6449
11
40.6744
21
-93.5497
0
LINE
8
BLACK
6
CONTINUOUS
10
43.1506
20
-91.7402
11
43.3411
21
-91.7402
0
LINE
8
BLACK
6
CONTINUOUS
10
43.3411
20
-91.7402
11
43.5316
21
-91.8354
0
LINE
8
BLACK
6
CONTINUOUS
10
43.5316
20
-91.8354
11
43.6268
21
-91.9306
0
LINE
8
BLACK
6
CONTINUOUS
10
43.6268
20
-91.9306
11
43.7221
21
-92.1211
0
LINE
8
BLACK
6
CONTINUOUS
10
43.7221
20
-92.1211
11
43.8173
21
-92.5021
0
LINE
8
BLACK
6
CONTINUOUS
10
43.8173
20
-92.5021
11
43.8173
21
-92.9783
0
LINE
8
BLACK
6
CONTINUOUS
10
43.8173
20
-92.9783
11
43.7221
21
-93.3592
0
LINE
8
BLACK
6
CONTINUOUS
10
43.7221
20
-93.3592
11
43.6268
21
-93.5497
0
LINE
8
BLACK
6
CONTINUOUS
10
43.6268
20
-93.5497
11
43.5316
21
-93.6449
0
LINE
8
BLACK
6
CONTINUOUS
10
43.5316
20
-93.6449
11
43.3411
21
-93.7402
0
LINE
8
BLACK
6
CONTINUOUS
10
43.3411
20
-93.7402
11
43.1506
21
-93.7402
0
LINE
8
BLACK
6
CONTINUOUS
10
43.1506
20
-93.7402
11
42.9601
21
-93.6449
0
LINE
8
BLACK
6
CONTINUOUS
10
42.9601
20
-93.6449
11
42.8649
21
-93.5497
0
LINE
8
BLACK
6
CONTINUOUS
10
42.8649
20
-93.5497
11
42.7697
21
-93.3592
0
LINE
8
BLACK
6
CONTINUOUS
10
42.7697
20
-93.3592
11
42.6744
21
-92.9783
0
LINE
8
BLACK
6
CONTINUOUS
10
42.6744
20
-92.9783
11
42.6744
21
-92.5021
0
LINE
8
BLACK
6
CONTINUOUS
10
42.6744
20
-92.5021
11
42.7697
21
-92.1211
0
LINE
8
BLACK
6
CONTINUOUS
10
42.7697
20
-92.1211
11
42.8649
21
-91.9306
0
LINE
8
BLACK
6
CONTINUOUS
10
42.8649
20
-91.9306
11
42.9601
21
-91.8354
0
LINE
8
BLACK
6
CONTINUOUS
10
42.9601
20
-91.8354
11
43.1506
21
-91.7402
0
LINE
8
BLACK
6
CONTINUOUS
10
45.0554
20
-91.7402
11
45.2459
21
-91.7402
0
LINE
8
BLACK
6
CONTINUOUS
10
45.2459
20
-91.7402
11
45.4363
21
-91.8354
0
LINE
8
BLACK
6
CONTINUOUS
10
45.4363
20
-91.8354
11
45.5316
21
-91.9306
0
LINE
8
BLACK
6
CONTINUOUS
10
45.5316
20
-91.9306
11
45.6268
21
-92.1211
0
LINE
8
BLACK
6
CONTINUOUS
10
45.6268
20
-92.1211
11
45.7221
21
-92.5021
0
LINE
8
BLACK
6
CONTINUOUS
10
45.7221
20
-92.5021
11
45.7221
21
-92.9783
0
LINE
8
BLACK
6
CONTINUOUS
10
45.7221
20
-92.9783
11
45.6268
21
-93.3592
0
LINE
8
BLACK
6
CONTINUOUS
10
45.6268
20
-93.3592
11
45.5316
21
-93.5497
0
LINE
8
BLACK
6
CONTINUOUS
10
45.5316
20
-93.5497
11
45.4363
21
-93.6449
0
LINE
8
BLACK
6
CONTINUOUS
10
45.4363
20
-93.6449
11
45.2459
21
-93.7402
0
LINE
8
BLACK
6
CONTINUOUS
10
45.2459
20
-93.7402
11
45.0554
21
-93.7402
0
LINE
8
BLACK
6
CONTINUOUS
10
45.0554
20
-93.7402
11
44.8649
21
-93.6449
0
LINE
8
BLACK
6
CONTINUOUS
10
44.8649
20
-93.6449
11
44.7697
21
-93.5497
0
LINE
8
BLACK
6
CONTINUOUS
10
44.7697
20
-93.5497
11
44.6744
21
-93.3592
0
LINE
8
BLACK
6
CONTINUOUS
10
44.6744
20
-93.3592
11
44.5792
21
-92.9783
0
LINE
8
BLACK
6
CONTINUOUS
10
44.5792
20
-92.9783
11
44.5792
21
-92.5021
0
LINE
8
BLACK
6
CONTINUOUS
10
44.5792
20
-92.5021
11
44.6744
21
-92.1211
0
LINE
8
BLACK
6
CONTINUOUS
10
44.6744
20
-92.1211
11
44.7697
21
-91.9306
0
LINE
8
BLACK
6
CONTINUOUS
10
44.7697
20
-91.9306
11
44.8649
21
-91.8354
0
LINE
8
BLACK
6
CONTINUOUS
10
44.8649
20
-91.8354
11
45.0554
21
-91.7402
0
LINE
8
BLACK
6
CONTINUOUS
10
46.5792
20
-93.7402
11
46.5792
21
-92.4068
0
LINE
8
BLACK
6
CONTINUOUS
10
46.5792
20
-92.5973
11
46.6744
21
-92.5021
0
LINE
8
BLACK
6
CONTINUOUS
10
46.6744
20
-92.5021
11
46.8649
21
-92.4068
0
LINE
8
BLACK
6
CONTINUOUS
10
46.8649
20
-92.4068
11
47.1506
21
-92.4068
0
LINE
8
BLACK
6
CONTINUOUS
10
47.1506
20
-92.4068
11
47.3411
21
-92.5021
0
LINE
8
BLACK
6
CONTINUOUS
10
47.3411
20
-92.5021
11
47.4363
21
-92.6925
0
LINE
8
BLACK
6
CONTINUOUS
10
47.4363
20
-92.6925
11
47.4363
21
-93.7402
0
LINE
8
BLACK
6
CONTINUOUS
10
47.4363
20
-92.6925
11
47.5316
21
-92.5021
0
LINE
8
BLACK
6
CONTINUOUS
10
47.5316
20
-92.5021
11
47.7221
21
-92.4068
0
LINE
8
BLACK
6
CONTINUOUS
10
47.7221
20
-92.4068
11
48.0078
21
-92.4068
0
LINE
8
BLACK
6
CONTINUOUS
10
48.0078
20
-92.4068
11
48.1982
21
-92.5021
0
LINE
8
BLACK
6
CONTINUOUS
10
48.1982
20
-92.5021
11
48.2935
21
-92.6925
0
LINE
8
BLACK
6
CONTINUOUS
10
48.2935
20
-92.6925
11
48.2935
21
-93.7402
0
LINE
8
BLACK
6
CONTINUOUS
10
49.2459
20
-93.7402
11
49.2459
21
-92.4068
0
LINE
8
BLACK
6
CONTINUOUS
10
49.2459
20
-92.5973
11
49.3411
21
-92.5021
0
LINE
8
BLACK
6
CONTINUOUS
10
49.3411
20
-92.5021
11
49.5316
21
-92.4068
0
LINE
8
BLACK
6
CONTINUOUS
10
49.5316
20
-92.4068
11
49.8173
21
-92.4068
0
LINE
8
BLACK
6
CONTINUOUS
10
49.8173
20
-92.4068
11
50.0078
21
-92.5021
0
LINE
8
BLACK
6
CONTINUOUS
10
50.0078
20
-92.5021
11
50.103
21
-92.6925
0
LINE
8
BLACK
6
CONTINUOUS
10
50.103
20
-92.6925
11
50.103
21
-93.7402
0
LINE
8
BLACK
6
CONTINUOUS
10
50.103
20
-92.6925
11
50.1982
21
-92.5021
0
LINE
8
BLACK
6
CONTINUOUS
10
50.1982
20
-92.5021
11
50.3887
21
-92.4068
0
LINE
8
BLACK
6
CONTINUOUS
10
50.3887
20
-92.4068
11
50.6744
21
-92.4068
0
LINE
8
BLACK
6
CONTINUOUS
10
50.6744
20
-92.4068
11
50.8649
21
-92.5021
0
LINE
8
BLACK
6
CONTINUOUS
10
50.8649
20
-92.5021
11
50.9601
21
-92.6925
0
LINE
8
BLACK
6
CONTINUOUS
10
50.9601
20
-92.6925
11
50.9601
21
-93.7402
0
LINE
8
BLACK
6
CONTINUOUS
10
54.8649
20
-91.6449
11
53.1506
21
-94.2164
0
LINE
8
BLACK
6
CONTINUOUS
10
57.4363
20
-91.7402
11
57.6268
21
-91.7402
0
LINE
8
BLACK
6
CONTINUOUS
10
57.6268
20
-91.7402
11
57.8173
21
-91.8354
0
LINE
8
BLACK
6
CONTINUOUS
10
57.8173
20
-91.8354
11
57.9125
21
-91.9306
0
LINE
8
BLACK
6
CONTINUOUS
10
57.9125
20
-91.9306
11
58.0078
21
-92.1211
0
LINE
8
BLACK
6
CONTINUOUS
10
58.0078
20
-92.1211
11
58.103
21
-92.5021
0
LINE
8
BLACK
6
CONTINUOUS
10
58.103
20
-92.5021
11
58.103
21
-92.9783
0
LINE
8
BLACK
6
CONTINUOUS
10
58.103
20
-92.9783
11
58.0078
21
-93.3592
0
LINE
8
BLACK
6
CONTINUOUS
10
58.0078
20
-93.3592
11
57.9125
21
-93.5497
0
LINE
8
BLACK
6
CONTINUOUS
10
57.9125
20
-93.5497
11
57.8173
21
-93.6449
0
LINE
8
BLACK
6
CONTINUOUS
10
57.8173
20
-93.6449
11
57.6268
21
-93.7402
0
LINE
8
BLACK
6
CONTINUOUS
10
57.6268
20
-93.7402
11
57.4363
21
-93.7402
0
LINE
8
BLACK
6
CONTINUOUS
10
57.4363
20
-93.7402
11
57.2459
21
-93.6449
0
LINE
8
BLACK
6
CONTINUOUS
10
57.2459
20
-93.6449
11
57.1506
21
-93.5497
0
LINE
8
BLACK
6
CONTINUOUS
10
57.1506
20
-93.5497
11
57.0554
21
-93.3592
0
LINE
8
BLACK
6
CONTINUOUS
10
57.0554
20
-93.3592
11
56.9602
21
-92.9783
0
LINE
8
BLACK
6
CONTINUOUS
10
56.9602
20
-92.9783
11
56.9602
21
-92.5021
0
LINE
8
BLACK
6
CONTINUOUS
10
56.9602
20
-92.5021
11
57.0554
21
-92.1211
0
LINE
8
BLACK
6
CONTINUOUS
10
57.0554
20
-92.1211
11
57.1506
21
-91.9306
0
LINE
8
BLACK
6
CONTINUOUS
10
57.1506
20
-91.9306
11
57.2459
21
-91.8354
0
LINE
8
BLACK
6
CONTINUOUS
10
57.2459
20
-91.8354
11
57.4363
21
-91.7402
0
LINE
8
BLACK
6
CONTINUOUS
10
58.9602
20
-93.5497
11
59.0554
21
-93.6449
0
LINE
8
BLACK
6
CONTINUOUS
10
59.0554
20
-93.6449
11
58.9602
21
-93.7402
0
LINE
8
BLACK
6
CONTINUOUS
10
58.9602
20
-93.7402
11
58.8649
21
-93.6449
0
LINE
8
BLACK
6
CONTINUOUS
10
58.8649
20
-93.6449
11
58.9602
21
-93.5497
0
LINE
8
BLACK
6
CONTINUOUS
10
58.9602
20
-93.5497
11
58.9602
21
-93.7402
0
LINE
8
BLACK
6
CONTINUOUS
10
60.2935
20
-91.7402
11
60.484
21
-91.7402
0
LINE
8
BLACK
6
CONTINUOUS
10
60.484
20
-91.7402
11
60.6744
21
-91.8354
0
LINE
8
BLACK
6
CONTINUOUS
10
60.6744
20
-91.8354
11
60.7697
21
-91.9306
0
LINE
8
BLACK
6
CONTINUOUS
10
60.7697
20
-91.9306
11
60.8649
21
-92.1211
0
LINE
8
BLACK
6
CONTINUOUS
10
60.8649
20
-92.1211
11
60.9602
21
-92.5021
0
LINE
8
BLACK
6
CONTINUOUS
10
60.9602
20
-92.5021
11
60.9602
21
-92.9783
0
LINE
8
BLACK
6
CONTINUOUS
10
60.9602
20
-92.9783
11
60.8649
21
-93.3592
0
LINE
8
BLACK
6
CONTINUOUS
10
60.8649
20
-93.3592
11
60.7697
21
-93.5497
0
LINE
8
BLACK
6
CONTINUOUS
10
60.7697
20
-93.5497
11
60.6744
21
-93.6449
0
LINE
8
BLACK
6
CONTINUOUS
10
60.6744
20
-93.6449
11
60.484
21
-93.7402
0
LINE
8
BLACK
6
CONTINUOUS
10
60.484
20
-93.7402
11
60.2935
21
-93.7402
0
LINE
8
BLACK
6
CONTINUOUS
10
60.2935
20
-93.7402
11
60.103
21
-93.6449
0
LINE
8
BLACK
6
CONTINUOUS
10
60.103
20
-93.6449
11
60.0078
21
-93.5497
0
LINE
8
BLACK
6
CONTINUOUS
10
60.0078
20
-93.5497
11
59.9125
21
-93.3592
0
LINE
8
BLACK
6
CONTINUOUS
10
59.9125
20
-93.3592
11
59.8173
21
-92.9783
0
LINE
8
BLACK
6
CONTINUOUS
10
59.8173
20
-92.9783
11
59.8173
21
-92.5021
0
LINE
8
BLACK
6
CONTINUOUS
10
59.8173
20
-92.5021
11
59.9125
21
-92.1211
0
LINE
8
BLACK
6
CONTINUOUS
10
59.9125
20
-92.1211
11
60.0078
21
-91.9306
0
LINE
8
BLACK
6
CONTINUOUS
10
60.0078
20
-91.9306
11
60.103
21
-91.8354
0
LINE
8
BLACK
6
CONTINUOUS
10
60.103
20
-91.8354
11
60.2935
21
-91.7402
0
LINE
8
BLACK
6
CONTINUOUS
10
62.8649
20
-93.7402
11
61.7221
21
-93.7402
0
LINE
8
BLACK
6
CONTINUOUS
10
62.2935
20
-93.7402
11
62.2935
21
-91.7402
0
LINE
8
BLACK
6
CONTINUOUS
10
62.2935
20
-91.7402
11
62.103
21
-92.0259
0
LINE
8
BLACK
6
CONTINUOUS
10
62.103
20
-92.0259
11
61.9125
21
-92.2164
0
LINE
8
BLACK
6
CONTINUOUS
10
61.9125
20
-92.2164
11
61.7221
21
-92.3116
0
LINE
8
BLACK
6
CONTINUOUS
10
64.7697
20
-93.7402
11
63.6268
21
-93.7402
0
LINE
8
BLACK
6
CONTINUOUS
10
64.1982
20
-93.7402
11
64.1982
21
-91.7402
0
LINE
8
BLACK
6
CONTINUOUS
10
64.1982
20
-91.7402
11
64.0078
21
-92.0259
0
LINE
8
BLACK
6
CONTINUOUS
10
64.0078
20
-92.0259
11
63.8173
21
-92.2164
0
LINE
8
BLACK
6
CONTINUOUS
10
63.8173
20
-92.2164
11
63.6268
21
-92.3116
0
LINE
8
BLACK
6
CONTINUOUS
10
65.9125
20
-92.5973
11
65.7221
21
-92.5021
0
LINE
8
BLACK
6
CONTINUOUS
10
65.7221
20
-92.5021
11
65.6268
21
-92.4068
0
LINE
8
BLACK
6
CONTINUOUS
10
65.6268
20
-92.4068
11
65.5316
21
-92.2164
0
LINE
8
BLACK
6
CONTINUOUS
10
65.5316
20
-92.2164
11
65.5316
21
-92.1211
0
LINE
8
BLACK
6
CONTINUOUS
10
65.5316
20
-92.1211
11
65.6268
21
-91.9306
0
LINE
8
BLACK
6
CONTINUOUS
10
65.6268
20
-91.9306
11
65.7221
21
-91.8354
0
LINE
8
BLACK
6
CONTINUOUS
10
65.7221
20
-91.8354
11
65.9125
21
-91.7402
0
LINE
8
BLACK
6
CONTINUOUS
10
65.9125
20
-91.7402
11
66.2935
21
-91.7402
0
LINE
8
BLACK
6
CONTINUOUS
10
66.2935
20
-91.7402
11
66.484
21
-91.8354
0
LINE
8
BLACK
6
CONTINUOUS
10
66.484
20
-91.8354
11
66.5792
21
-91.9306
0
LINE
8
BLACK
6
CONTINUOUS
10
66.5792
20
-91.9306
11
66.6744
21
-92.1211
0
LINE
8
BLACK
6
CONTINUOUS
10
66.6744
20
-92.1211
11
66.6744
21
-92.2164
0
LINE
8
BLACK
6
CONTINUOUS
10
66.6744
20
-92.2164
11
66.5792
21
-92.4068
0
LINE
8
BLACK
6
CONTINUOUS
10
66.5792
20
-92.4068
11
66.484
21
-92.5021
0
LINE
8
BLACK
6
CONTINUOUS
10
66.484
20
-92.5021
11
66.2935
21
-92.5973
0
LINE
8
BLACK
6
CONTINUOUS
10
66.2935
20
-92.5973
11
65.9125
21
-92.5973
0
LINE
8
BLACK
6
CONTINUOUS
10
65.9125
20
-92.5973
11
65.7221
21
-92.6925
0
LINE
8
BLACK
6
CONTINUOUS
10
65.7221
20
-92.6925
11
65.6268
21
-92.7878
0
LINE
8
BLACK
6
CONTINUOUS
10
65.6268
20
-92.7878
11
65.5316
21
-92.9783
0
LINE
8
BLACK
6
CONTINUOUS
10
65.5316
20
-92.9783
11
65.5316
21
-93.3592
0
LINE
8
BLACK
6
CONTINUOUS
10
65.5316
20
-93.3592
11
65.6268
21
-93.5497
0
LINE
8
BLACK
6
CONTINUOUS
10
65.6268
20
-93.5497
11
65.7221
21
-93.6449
0
LINE
8
BLACK
6
CONTINUOUS
10
65.7221
20
-93.6449
11
65.9125
21
-93.7402
0
LINE
8
BLACK
6
CONTINUOUS
10
65.9125
20
-93.7402
11
66.2935
21
-93.7402
0
LINE
8
BLACK
6
CONTINUOUS
10
66.2935
20
-93.7402
11
66.484
21
-93.6449
0
LINE
8
BLACK
6
CONTINUOUS
10
66.484
20
-93.6449
11
66.5792
21
-93.5497
0
LINE
8
BLACK
6
CONTINUOUS
10
66.5792
20
-93.5497
11
66.6744
21
-93.3592
0
LINE
8
BLACK
6
CONTINUOUS
10
66.6744
20
-93.3592
11
66.6744
21
-92.9783
0
LINE
8
BLACK
6
CONTINUOUS
10
66.6744
20
-92.9783
11
66.5792
21
-92.7878
0
LINE
8
BLACK
6
CONTINUOUS
10
66.5792
20
-92.7878
11
66.484
21
-92.6925
0
LINE
8
BLACK
6
CONTINUOUS
10
66.484
20
-92.6925
11
66.2935
21
-92.5973
0
LINE
8
BLACK
6
CONTINUOUS
10
67.4363
20
-91.7402
11
67.4363
21
-92.1211
0
LINE
8
BLACK
6
CONTINUOUS
10
68.1982
20
-91.7402
11
68.1982
21
-92.1211
0
LINE
8
BLACK
6
CONTINUOUS
10
71.1506
20
-94.5021
11
71.0554
21
-94.4068
0
LINE
8
BLACK
6
CONTINUOUS
10
71.0554
20
-94.4068
11
70.8649
21
-94.1211
0
LINE
8
BLACK
6
CONTINUOUS
10
70.8649
20
-94.1211
11
70.7697
21
-93.9306
0
LINE
8
BLACK
6
CONTINUOUS
10
70.7697
20
-93.9306
11
70.6744
21
-93.6449
0
LINE
8
BLACK
6
CONTINUOUS
10
70.6744
20
-93.6449
11
70.5792
21
-93.1687
0
LINE
8
BLACK
6
CONTINUOUS
10
70.5792
20
-93.1687
11
70.5792
21
-92.7878
0
LINE
8
BLACK
6
CONTINUOUS
10
70.5792
20
-92.7878
11
70.6744
21
-92.3116
0
LINE
8
BLACK
6
CONTINUOUS
10
70.6744
20
-92.3116
11
70.7697
21
-92.0259
0
LINE
8
BLACK
6
CONTINUOUS
10
70.7697
20
-92.0259
11
70.8649
21
-91.8354
0
LINE
8
BLACK
6
CONTINUOUS
10
70.8649
20
-91.8354
11
71.0554
21
-91.5497
0
LINE
8
BLACK
6
CONTINUOUS
10
71.0554
20
-91.5497
11
71.1506
21
-91.4545
0
LINE
8
BLACK
6
CONTINUOUS
10
72.1982
20
-92.5973
11
72.0078
21
-92.5021
0
LINE
8
BLACK
6
CONTINUOUS
10
72.0078
20
-92.5021
11
71.9125
21
-92.4068
0
LINE
8
BLACK
6
CONTINUOUS
10
71.9125
20
-92.4068
11
71.8173
21
-92.2164
0
LINE
8
BLACK
6
CONTINUOUS
10
71.8173
20
-92.2164
11
71.8173
21
-92.1211
0
LINE
8
BLACK
6
CONTINUOUS
10
71.8173
20
-92.1211
11
71.9125
21
-91.9306
0
LINE
8
BLACK
6
CONTINUOUS
10
71.9125
20
-91.9306
11
72.0078
21
-91.8354
0
LINE
8
BLACK
6
CONTINUOUS
10
72.0078
20
-91.8354
11
72.1982
21
-91.7402
0
LINE
8
BLACK
6
CONTINUOUS
10
72.1982
20
-91.7402
11
72.5792
21
-91.7402
0
LINE
8
BLACK
6
CONTINUOUS
10
72.5792
20
-91.7402
11
72.7697
21
-91.8354
0
LINE
8
BLACK
6
CONTINUOUS
10
72.7697
20
-91.8354
11
72.8649
21
-91.9306
0
LINE
8
BLACK
6
CONTINUOUS
10
72.8649
20
-91.9306
11
72.9602
21
-92.1211
0
LINE
8
BLACK
6
CONTINUOUS
10
72.9602
20
-92.1211
11
72.9602
21
-92.2164
0
LINE
8
BLACK
6
CONTINUOUS
10
72.9602
20
-92.2164
11
72.8649
21
-92.4068
0
LINE
8
BLACK
6
CONTINUOUS
10
72.8649
20
-92.4068
11
72.7697
21
-92.5021
0
LINE
8
BLACK
6
CONTINUOUS
10
72.7697
20
-92.5021
11
72.5792
21
-92.5973
0
LINE
8
BLACK
6
CONTINUOUS
10
72.5792
20
-92.5973
11
72.1982
21
-92.5973
0
LINE
8
BLACK
6
CONTINUOUS
10
72.1982
20
-92.5973
11
72.0078
21
-92.6925
0
LINE
8
BLACK
6
CONTINUOUS
10
72.0078
20
-92.6925
11
71.9125
21
-92.7878
0
LINE
8
BLACK
6
CONTINUOUS
10
71.9125
20
-92.7878
11
71.8173
21
-92.9783
0
LINE
8
BLACK
6
CONTINUOUS
10
71.8173
20
-92.9783
11
71.8173
21
-93.3592
0
LINE
8
BLACK
6
CONTINUOUS
10
71.8173
20
-93.3592
11
71.9125
21
-93.5497
0
LINE
8
BLACK
6
CONTINUOUS
10
71.9125
20
-93.5497
11
72.0078
21
-93.6449
0
LINE
8
BLACK
6
CONTINUOUS
10
72.0078
20
-93.6449
11
72.1982
21
-93.7402
0
LINE
8
BLACK
6
CONTINUOUS
10
72.1982
20
-93.7402
11
72.5792
21
-93.7402
0
LINE
8
BLACK
6
CONTINUOUS
10
72.5792
20
-93.7402
11
72.7697
21
-93.6449
0
LINE
8
BLACK
6
CONTINUOUS
10
72.7697
20
-93.6449
11
72.8649
21
-93.5497
0
LINE
8
BLACK
6
CONTINUOUS
10
72.8649
20
-93.5497
11
72.9602
21
-93.3592
0
LINE
8
BLACK
6
CONTINUOUS
10
72.9602
20
-93.3592
11
72.9602
21
-92.9783
0
LINE
8
BLACK
6
CONTINUOUS
10
72.9602
20
-92.9783
11
72.8649
21
-92.7878
0
LINE
8
BLACK
6
CONTINUOUS
10
72.8649
20
-92.7878
11
72.7697
21
-92.6925
0
LINE
8
BLACK
6
CONTINUOUS
10
72.7697
20
-92.6925
11
72.5792
21
-92.5973
0
LINE
8
BLACK
6
CONTINUOUS
10
75.3411
20
-93.7402
11
75.3411
21
-91.7402
0
LINE
8
BLACK
6
CONTINUOUS
10
76.1982
20
-93.7402
11
76.1982
21
-92.6925
0
LINE
8
BLACK
6
CONTINUOUS
10
76.1982
20
-92.6925
11
76.103
21
-92.5021
0
LINE
8
BLACK
6
CONTINUOUS
10
76.103
20
-92.5021
11
75.9125
21
-92.4068
0
LINE
8
BLACK
6
CONTINUOUS
10
75.9125
20
-92.4068
11
75.6268
21
-92.4068
0
LINE
8
BLACK
6
CONTINUOUS
10
75.6268
20
-92.4068
11
75.4363
21
-92.5021
0
LINE
8
BLACK
6
CONTINUOUS
10
75.4363
20
-92.5021
11
75.3411
21
-92.5973
0
LINE
8
BLACK
6
CONTINUOUS
10
77.4363
20
-93.7402
11
77.2459
21
-93.6449
0
LINE
8
BLACK
6
CONTINUOUS
10
77.2459
20
-93.6449
11
77.1506
21
-93.5497
0
LINE
8
BLACK
6
CONTINUOUS
10
77.1506
20
-93.5497
11
77.0554
21
-93.3592
0
LINE
8
BLACK
6
CONTINUOUS
10
77.0554
20
-93.3592
11
77.0554
21
-92.7878
0
LINE
8
BLACK
6
CONTINUOUS
10
77.0554
20
-92.7878
11
77.1506
21
-92.5973
0
LINE
8
BLACK
6
CONTINUOUS
10
77.1506
20
-92.5973
11
77.2459
21
-92.5021
0
LINE
8
BLACK
6
CONTINUOUS
10
77.2459
20
-92.5021
11
77.4363
21
-92.4068
0
LINE
8
BLACK
6
CONTINUOUS
10
77.4363
20
-92.4068
11
77.7221
21
-92.4068
0
LINE
8
BLACK
6
CONTINUOUS
10
77.7221
20
-92.4068
11
77.9125
21
-92.5021
0
LINE
8
BLACK
6
CONTINUOUS
10
77.9125
20
-92.5021
11
78.0078
21
-92.5973
0
LINE
8
BLACK
6
CONTINUOUS
10
78.0078
20
-92.5973
11
78.103
21
-92.7878
0
LINE
8
BLACK
6
CONTINUOUS
10
78.103
20
-92.7878
11
78.103
21
-93.3592
0
LINE
8
BLACK
6
CONTINUOUS
10
78.103
20
-93.3592
11
78.0078
21
-93.5497
0
LINE
8
BLACK
6
CONTINUOUS
10
78.0078
20
-93.5497
11
77.9125
21
-93.6449
0
LINE
8
BLACK
6
CONTINUOUS
10
77.9125
20
-93.6449
11
77.7221
21
-93.7402
0
LINE
8
BLACK
6
CONTINUOUS
10
77.7221
20
-93.7402
11
77.4363
21
-93.7402
0
LINE
8
BLACK
6
CONTINUOUS
10
79.2459
20
-93.7402
11
79.0554
21
-93.6449
0
LINE
8
BLACK
6
CONTINUOUS
10
79.0554
20
-93.6449
11
78.9602
21
-93.4545
0
LINE
8
BLACK
6
CONTINUOUS
10
78.9602
20
-93.4545
11
78.9602
21
-91.7402
0
LINE
8
BLACK
6
CONTINUOUS
10
80.7697
20
-93.6449
11
80.5792
21
-93.7402
0
LINE
8
BLACK
6
CONTINUOUS
10
80.5792
20
-93.7402
11
80.1982
21
-93.7402
0
LINE
8
BLACK
6
CONTINUOUS
10
80.1982
20
-93.7402
11
80.0078
21
-93.6449
0
LINE
8
BLACK
6
CONTINUOUS
10
80.0078
20
-93.6449
11
79.9125
21
-93.4545
0
LINE
8
BLACK
6
CONTINUOUS
10
79.9125
20
-93.4545
11
79.9125
21
-92.6925
0
LINE
8
BLACK
6
CONTINUOUS
10
79.9125
20
-92.6925
11
80.0078
21
-92.5021
0
LINE
8
BLACK
6
CONTINUOUS
10
80.0078
20
-92.5021
11
80.1982
21
-92.4068
0
LINE
8
BLACK
6
CONTINUOUS
10
80.1982
20
-92.4068
11
80.5792
21
-92.4068
0
LINE
8
BLACK
6
CONTINUOUS
10
80.5792
20
-92.4068
11
80.7697
21
-92.5021
0
LINE
8
BLACK
6
CONTINUOUS
10
80.7697
20
-92.5021
11
80.8649
21
-92.6925
0
LINE
8
BLACK
6
CONTINUOUS
10
80.8649
20
-92.6925
11
80.8649
21
-92.883
0
LINE
8
BLACK
6
CONTINUOUS
10
80.8649
20
-92.883
11
79.9125
21
-93.0735
0
LINE
8
BLACK
6
CONTINUOUS
10
81.6268
20
-93.6449
11
81.8173
21
-93.7402
0
LINE
8
BLACK
6
CONTINUOUS
10
81.8173
20
-93.7402
11
82.1982
21
-93.7402
0
LINE
8
BLACK
6
CONTINUOUS
10
82.1982
20
-93.7402
11
82.3887
21
-93.6449
0
LINE
8
BLACK
6
CONTINUOUS
10
82.3887
20
-93.6449
11
82.484
21
-93.4545
0
LINE
8
BLACK
6
CONTINUOUS
10
82.484
20
-93.4545
11
82.484
21
-93.3592
0
LINE
8
BLACK
6
CONTINUOUS
10
82.484
20
-93.3592
11
82.3887
21
-93.1687
0
LINE
8
BLACK
6
CONTINUOUS
10
82.3887
20
-93.1687
11
82.1982
21
-93.0735
0
LINE
8
BLACK
6
CONTINUOUS
10
82.1982
20
-93.0735
11
81.9125
21
-93.0735
0
LINE
8
BLACK
6
CONTINUOUS
10
81.9125
20
-93.0735
11
81.7221
21
-92.9783
0
LINE
8
BLACK
6
CONTINUOUS
10
81.7221
20
-92.9783
11
81.6268
21
-92.7878
0
LINE
8
BLACK
6
CONTINUOUS
10
81.6268
20
-92.7878
11
81.6268
21
-92.6925
0
LINE
8
BLACK
6
CONTINUOUS
10
81.6268
20
-92.6925
11
81.7221
21
-92.5021
0
LINE
8
BLACK
6
CONTINUOUS
10
81.7221
20
-92.5021
11
81.9125
21
-92.4068
0
LINE
8
BLACK
6
CONTINUOUS
10
81.9125
20
-92.4068
11
82.1982
21
-92.4068
0
LINE
8
BLACK
6
CONTINUOUS
10
82.1982
20
-92.4068
11
82.3887
21
-92.5021
0
LINE
8
BLACK
6
CONTINUOUS
10
83.1506
20
-94.5021
11
83.2459
21
-94.4068
0
LINE
8
BLACK
6
CONTINUOUS
10
83.2459
20
-94.4068
11
83.4363
21
-94.1211
0
LINE
8
BLACK
6
CONTINUOUS
10
83.4363
20
-94.1211
11
83.5316
21
-93.9306
0
LINE
8
BLACK
6
CONTINUOUS
10
83.5316
20
-93.9306
11
83.6268
21
-93.6449
0
LINE
8
BLACK
6
CONTINUOUS
10
83.6268
20
-93.6449
11
83.7221
21
-93.1687
0
LINE
8
BLACK
6
CONTINUOUS
10
83.7221
20
-93.1687
11
83.7221
21
-92.7878
0
LINE
8
BLACK
6
CONTINUOUS
10
83.7221
20
-92.7878
11
83.6268
21
-92.3116
0
LINE
8
BLACK
6
CONTINUOUS
10
83.6268
20
-92.3116
11
83.5316
21
-92.0259
0
LINE
8
BLACK
6
CONTINUOUS
10
83.5316
20
-92.0259
11
83.4363
21
-91.8354
0
LINE
8
BLACK
6
CONTINUOUS
10
83.4363
20
-91.8354
11
83.2459
21
-91.5497
0
LINE
8
BLACK
6
CONTINUOUS
10
83.2459
20
-91.5497
11
83.1506
21
-91.4545
0
LINE
8
BLACK
6
CONTINUOUS
10
35.2
20
-95.2653
11
35.2
21
-95.6653
0
LINE
8
BLACK
6
CONTINUOUS
10
35
20
-95.4653
11
35.4
21
-95.4653
0
LINE
8
BLACK
6
CONTINUOUS
10
38.3887
20
-94.3802
11
38.5792
21
-94.3802
0
LINE
8
BLACK
6
CONTINUOUS
10
38.5792
20
-94.3802
11
38.7697
21
-94.4754
0
LINE
8
BLACK
6
CONTINUOUS
10
38.7697
20
-94.4754
11
38.8649
21
-94.5706
0
LINE
8
BLACK
6
CONTINUOUS
10
38.8649
20
-94.5706
11
38.9601
21
-94.7611
0
LINE
8
BLACK
6
CONTINUOUS
10
38.9601
20
-94.7611
11
39.0554
21
-95.1421
0
LINE
8
BLACK
6
CONTINUOUS
10
39.0554
20
-95.1421
11
39.0554
21
-95.6183
0
LINE
8
BLACK
6
CONTINUOUS
10
39.0554
20
-95.6183
11
38.9601
21
-95.9992
0
LINE
8
BLACK
6
CONTINUOUS
10
38.9601
20
-95.9992
11
38.8649
21
-96.1897
0
LINE
8
BLACK
6
CONTINUOUS
10
38.8649
20
-96.1897
11
38.7697
21
-96.2849
0
LINE
8
BLACK
6
CONTINUOUS
10
38.7697
20
-96.2849
11
38.5792
21
-96.3802
0
LINE
8
BLACK
6
CONTINUOUS
10
38.5792
20
-96.3802
11
38.3887
21
-96.3802
0
LINE
8
BLACK
6
CONTINUOUS
10
38.3887
20
-96.3802
11
38.1982
21
-96.2849
0
LINE
8
BLACK
6
CONTINUOUS
10
38.1982
20
-96.2849
11
38.103
21
-96.1897
0
LINE
8
BLACK
6
CONTINUOUS
10
38.103
20
-96.1897
11
38.0078
21
-95.9992
0
LINE
8
BLACK
6
CONTINUOUS
10
38.0078
20
-95.9992
11
37.9125
21
-95.6183
0
LINE
8
BLACK
6
CONTINUOUS
10
37.9125
20
-95.6183
11
37.9125
21
-95.1421
0
LINE
8
BLACK
6
CONTINUOUS
10
37.9125
20
-95.1421
11
38.0078
21
-94.7611
0
LINE
8
BLACK
6
CONTINUOUS
10
38.0078
20
-94.7611
11
38.103
21
-94.5706
0
LINE
8
BLACK
6
CONTINUOUS
10
38.103
20
-94.5706
11
38.1982
21
-94.4754
0
LINE
8
BLACK
6
CONTINUOUS
10
38.1982
20
-94.4754
11
38.3887
21
-94.3802
0
LINE
8
BLACK
6
CONTINUOUS
10
39.9125
20
-96.1897
11
40.0078
21
-96.2849
0
LINE
8
BLACK
6
CONTINUOUS
10
40.0078
20
-96.2849
11
39.9125
21
-96.3802
0
LINE
8
BLACK
6
CONTINUOUS
10
39.9125
20
-96.3802
11
39.8173
21
-96.2849
0
LINE
8
BLACK
6
CONTINUOUS
10
39.8173
20
-96.2849
11
39.9125
21
-96.1897
0
LINE
8
BLACK
6
CONTINUOUS
10
39.9125
20
-96.1897
11
39.9125
21
-96.3802
0
LINE
8
BLACK
6
CONTINUOUS
10
41.7221
20
-95.0468
11
41.7221
21
-96.3802
0
LINE
8
BLACK
6
CONTINUOUS
10
41.2459
20
-94.2849
11
40.7697
21
-95.7135
0
LINE
8
BLACK
6
CONTINUOUS
10
40.7697
20
-95.7135
11
42.0078
21
-95.7135
0
LINE
8
BLACK
6
CONTINUOUS
10
43.1506
20
-94.3802
11
43.3411
21
-94.3802
0
LINE
8
BLACK
6
CONTINUOUS
10
43.3411
20
-94.3802
11
43.5316
21
-94.4754
0
LINE
8
BLACK
6
CONTINUOUS
10
43.5316
20
-94.4754
11
43.6268
21
-94.5706
0
LINE
8
BLACK
6
CONTINUOUS
10
43.6268
20
-94.5706
11
43.7221
21
-94.7611
0
LINE
8
BLACK
6
CONTINUOUS
10
43.7221
20
-94.7611
11
43.8173
21
-95.1421
0
LINE
8
BLACK
6
CONTINUOUS
10
43.8173
20
-95.1421
11
43.8173
21
-95.6183
0
LINE
8
BLACK
6
CONTINUOUS
10
43.8173
20
-95.6183
11
43.7221
21
-95.9992
0
LINE
8
BLACK
6
CONTINUOUS
10
43.7221
20
-95.9992
11
43.6268
21
-96.1897
0
LINE
8
BLACK
6
CONTINUOUS
10
43.6268
20
-96.1897
11
43.5316
21
-96.2849
0
LINE
8
BLACK
6
CONTINUOUS
10
43.5316
20
-96.2849
11
43.3411
21
-96.3802
0
LINE
8
BLACK
6
CONTINUOUS
10
43.3411
20
-96.3802
11
43.1506
21
-96.3802
0
LINE
8
BLACK
6
CONTINUOUS
10
43.1506
20
-96.3802
11
42.9601
21
-96.2849
0
LINE
8
BLACK
6
CONTINUOUS
10
42.9601
20
-96.2849
11
42.8649
21
-96.1897
0
LINE
8
BLACK
6
CONTINUOUS
10
42.8649
20
-96.1897
11
42.7697
21
-95.9992
0
LINE
8
BLACK
6
CONTINUOUS
10
42.7697
20
-95.9992
11
42.6744
21
-95.6183
0
LINE
8
BLACK
6
CONTINUOUS
10
42.6744
20
-95.6183
11
42.6744
21
-95.1421
0
LINE
8
BLACK
6
CONTINUOUS
10
42.6744
20
-95.1421
11
42.7697
21
-94.7611
0
LINE
8
BLACK
6
CONTINUOUS
10
42.7697
20
-94.7611
11
42.8649
21
-94.5706
0
LINE
8
BLACK
6
CONTINUOUS
10
42.8649
20
-94.5706
11
42.9601
21
-94.4754
0
LINE
8
BLACK
6
CONTINUOUS
10
42.9601
20
-94.4754
11
43.1506
21
-94.3802
0
LINE
8
BLACK
6
CONTINUOUS
10
45.0554
20
-94.3802
11
45.2459
21
-94.3802
0
LINE
8
BLACK
6
CONTINUOUS
10
45.2459
20
-94.3802
11
45.4363
21
-94.4754
0
LINE
8
BLACK
6
CONTINUOUS
10
45.4363
20
-94.4754
11
45.5316
21
-94.5706
0
LINE
8
BLACK
6
CONTINUOUS
10
45.5316
20
-94.5706
11
45.6268
21
-94.7611
0
LINE
8
BLACK
6
CONTINUOUS
10
45.6268
20
-94.7611
11
45.7221
21
-95.1421
0
LINE
8
BLACK
6
CONTINUOUS
10
45.7221
20
-95.1421
11
45.7221
21
-95.6183
0
LINE
8
BLACK
6
CONTINUOUS
10
45.7221
20
-95.6183
11
45.6268
21
-95.9992
0
LINE
8
BLACK
6
CONTINUOUS
10
45.6268
20
-95.9992
11
45.5316
21
-96.1897
0
LINE
8
BLACK
6
CONTINUOUS
10
45.5316
20
-96.1897
11
45.4363
21
-96.2849
0
LINE
8
BLACK
6
CONTINUOUS
10
45.4363
20
-96.2849
11
45.2459
21
-96.3802
0
LINE
8
BLACK
6
CONTINUOUS
10
45.2459
20
-96.3802
11
45.0554
21
-96.3802
0
LINE
8
BLACK
6
CONTINUOUS
10
45.0554
20
-96.3802
11
44.8649
21
-96.2849
0
LINE
8
BLACK
6
CONTINUOUS
10
44.8649
20
-96.2849
11
44.7697
21
-96.1897
0
LINE
8
BLACK
6
CONTINUOUS
10
44.7697
20
-96.1897
11
44.6744
21
-95.9992
0
LINE
8
BLACK
6
CONTINUOUS
10
44.6744
20
-95.9992
11
44.5792
21
-95.6183
0
LINE
8
BLACK
6
CONTINUOUS
10
44.5792
20
-95.6183
11
44.5792
21
-95.1421
0
LINE
8
BLACK
6
CONTINUOUS
10
44.5792
20
-95.1421
11
44.6744
21
-94.7611
0
LINE
8
BLACK
6
CONTINUOUS
10
44.6744
20
-94.7611
11
44.7697
21
-94.5706
0
LINE
8
BLACK
6
CONTINUOUS
10
44.7697
20
-94.5706
11
44.8649
21
-94.4754
0
LINE
8
BLACK
6
CONTINUOUS
10
44.8649
20
-94.4754
11
45.0554
21
-94.3802
0
LINE
8
BLACK
6
CONTINUOUS
10
46.5792
20
-96.3802
11
46.5792
21
-95.0468
0
LINE
8
BLACK
6
CONTINUOUS
10
46.5792
20
-95.2373
11
46.6744
21
-95.1421
0
LINE
8
BLACK
6
CONTINUOUS
10
46.6744
20
-95.1421
11
46.8649
21
-95.0468
0
LINE
8
BLACK
6
CONTINUOUS
10
46.8649
20
-95.0468
11
47.1506
21
-95.0468
0
LINE
8
BLACK
6
CONTINUOUS
10
47.1506
20
-95.0468
11
47.3411
21
-95.1421
0
LINE
8
BLACK
6
CONTINUOUS
10
47.3411
20
-95.1421
11
47.4363
21
-95.3325
0
LINE
8
BLACK
6
CONTINUOUS
10
47.4363
20
-95.3325
11
47.4363
21
-96.3802
0
LINE
8
BLACK
6
CONTINUOUS
10
47.4363
20
-95.3325
11
47.5316
21
-95.1421
0
LINE
8
BLACK
6
CONTINUOUS
10
47.5316
20
-95.1421
11
47.7221
21
-95.0468
0
LINE
8
BLACK
6
CONTINUOUS
10
47.7221
20
-95.0468
11
48.0078
21
-95.0468
0
LINE
8
BLACK
6
CONTINUOUS
10
48.0078
20
-95.0468
11
48.1982
21
-95.1421
0
LINE
8
BLACK
6
CONTINUOUS
10
48.1982
20
-95.1421
11
48.2935
21
-95.3325
0
LINE
8
BLACK
6
CONTINUOUS
10
48.2935
20
-95.3325
11
48.2935
21
-96.3802
0
LINE
8
BLACK
6
CONTINUOUS
10
49.2459
20
-96.3802
11
49.2459
21
-95.0468
0
LINE
8
BLACK
6
CONTINUOUS
10
49.2459
20
-95.2373
11
49.3411
21
-95.1421
0
LINE
8
BLACK
6
CONTINUOUS
10
49.3411
20
-95.1421
11
49.5316
21
-95.0468
0
LINE
8
BLACK
6
CONTINUOUS
10
49.5316
20
-95.0468
11
49.8173
21
-95.0468
0
LINE
8
BLACK
6
CONTINUOUS
10
49.8173
20
-95.0468
11
50.0078
21
-95.1421
0
LINE
8
BLACK
6
CONTINUOUS
10
50.0078
20
-95.1421
11
50.103
21
-95.3325
0
LINE
8
BLACK
6
CONTINUOUS
10
50.103
20
-95.3325
11
50.103
21
-96.3802
0
LINE
8
BLACK
6
CONTINUOUS
10
50.103
20
-95.3325
11
50.1982
21
-95.1421
0
LINE
8
BLACK
6
CONTINUOUS
10
50.1982
20
-95.1421
11
50.3887
21
-95.0468
0
LINE
8
BLACK
6
CONTINUOUS
10
50.3887
20
-95.0468
11
50.6744
21
-95.0468
0
LINE
8
BLACK
6
CONTINUOUS
10
50.6744
20
-95.0468
11
50.8649
21
-95.1421
0
LINE
8
BLACK
6
CONTINUOUS
10
50.8649
20
-95.1421
11
50.9601
21
-95.3325
0
LINE
8
BLACK
6
CONTINUOUS
10
50.9601
20
-95.3325
11
50.9601
21
-96.3802
0
LINE
8
BLACK
6
CONTINUOUS
10
54.8649
20
-94.2849
11
53.1506
21
-96.8564
0
LINE
8
BLACK
6
CONTINUOUS
10
57.4363
20
-94.3802
11
57.6268
21
-94.3802
0
LINE
8
BLACK
6
CONTINUOUS
10
57.6268
20
-94.3802
11
57.8173
21
-94.4754
0
LINE
8
BLACK
6
CONTINUOUS
10
57.8173
20
-94.4754
11
57.9125
21
-94.5706
0
LINE
8
BLACK
6
CONTINUOUS
10
57.9125
20
-94.5706
11
58.0078
21
-94.7611
0
LINE
8
BLACK
6
CONTINUOUS
10
58.0078
20
-94.7611
11
58.103
21
-95.1421
0
LINE
8
BLACK
6
CONTINUOUS
10
58.103
20
-95.1421
11
58.103
21
-95.6183
0
LINE
8
BLACK
6
CONTINUOUS
10
58.103
20
-95.6183
11
58.0078
21
-95.9992
0
LINE
8
BLACK
6
CONTINUOUS
10
58.0078
20
-95.9992
11
57.9125
21
-96.1897
0
LINE
8
BLACK
6
CONTINUOUS
10
57.9125
20
-96.1897
11
57.8173
21
-96.2849
0
LINE
8
BLACK
6
CONTINUOUS
10
57.8173
20
-96.2849
11
57.6268
21
-96.3802
0
LINE
8
BLACK
6
CONTINUOUS
10
57.6268
20
-96.3802
11
57.4363
21
-96.3802
0
LINE
8
BLACK
6
CONTINUOUS
10
57.4363
20
-96.3802
11
57.2459
21
-96.2849
0
LINE
8
BLACK
6
CONTINUOUS
10
57.2459
20
-96.2849
11
57.1506
21
-96.1897
0
LINE
8
BLACK
6
CONTINUOUS
10
57.1506
20
-96.1897
11
57.0554
21
-95.9992
0
LINE
8
BLACK
6
CONTINUOUS
10
57.0554
20
-95.9992
11
56.9602
21
-95.6183
0
LINE
8
BLACK
6
CONTINUOUS
10
56.9602
20
-95.6183
11
56.9602
21
-95.1421
0
LINE
8
BLACK
6
CONTINUOUS
10
56.9602
20
-95.1421
11
57.0554
21
-94.7611
0
LINE
8
BLACK
6
CONTINUOUS
10
57.0554
20
-94.7611
11
57.1506
21
-94.5706
0
LINE
8
BLACK
6
CONTINUOUS
10
57.1506
20
-94.5706
11
57.2459
21
-94.4754
0
LINE
8
BLACK
6
CONTINUOUS
10
57.2459
20
-94.4754
11
57.4363
21
-94.3802
0
LINE
8
BLACK
6
CONTINUOUS
10
58.9602
20
-96.1897
11
59.0554
21
-96.2849
0
LINE
8
BLACK
6
CONTINUOUS
10
59.0554
20
-96.2849
11
58.9602
21
-96.3802
0
LINE
8
BLACK
6
CONTINUOUS
10
58.9602
20
-96.3802
11
58.8649
21
-96.2849
0
LINE
8
BLACK
6
CONTINUOUS
10
58.8649
20
-96.2849
11
58.9602
21
-96.1897
0
LINE
8
BLACK
6
CONTINUOUS
10
58.9602
20
-96.1897
11
58.9602
21
-96.3802
0
LINE
8
BLACK
6
CONTINUOUS
10
60.2935
20
-94.3802
11
60.484
21
-94.3802
0
LINE
8
BLACK
6
CONTINUOUS
10
60.484
20
-94.3802
11
60.6744
21
-94.4754
0
LINE
8
BLACK
6
CONTINUOUS
10
60.6744
20
-94.4754
11
60.7697
21
-94.5706
0
LINE
8
BLACK
6
CONTINUOUS
10
60.7697
20
-94.5706
11
60.8649
21
-94.7611
0
LINE
8
BLACK
6
CONTINUOUS
10
60.8649
20
-94.7611
11
60.9602
21
-95.1421
0
LINE
8
BLACK
6
CONTINUOUS
10
60.9602
20
-95.1421
11
60.9602
21
-95.6183
0
LINE
8
BLACK
6
CONTINUOUS
10
60.9602
20
-95.6183
11
60.8649
21
-95.9992
0
LINE
8
BLACK
6
CONTINUOUS
10
60.8649
20
-95.9992
11
60.7697
21
-96.1897
0
LINE
8
BLACK
6
CONTINUOUS
10
60.7697
20
-96.1897
11
60.6744
21
-96.2849
0
LINE
8
BLACK
6
CONTINUOUS
10
60.6744
20
-96.2849
11
60.484
21
-96.3802
0
LINE
8
BLACK
6
CONTINUOUS
10
60.484
20
-96.3802
11
60.2935
21
-96.3802
0
LINE
8
BLACK
6
CONTINUOUS
10
60.2935
20
-96.3802
11
60.103
21
-96.2849
0
LINE
8
BLACK
6
CONTINUOUS
10
60.103
20
-96.2849
11
60.0078
21
-96.1897
0
LINE
8
BLACK
6
CONTINUOUS
10
60.0078
20
-96.1897
11
59.9125
21
-95.9992
0
LINE
8
BLACK
6
CONTINUOUS
10
59.9125
20
-95.9992
11
59.8173
21
-95.6183
0
LINE
8
BLACK
6
CONTINUOUS
10
59.8173
20
-95.6183
11
59.8173
21
-95.1421
0
LINE
8
BLACK
6
CONTINUOUS
10
59.8173
20
-95.1421
11
59.9125
21
-94.7611
0
LINE
8
BLACK
6
CONTINUOUS
10
59.9125
20
-94.7611
11
60.0078
21
-94.5706
0
LINE
8
BLACK
6
CONTINUOUS
10
60.0078
20
-94.5706
11
60.103
21
-94.4754
0
LINE
8
BLACK
6
CONTINUOUS
10
60.103
20
-94.4754
11
60.2935
21
-94.3802
0
LINE
8
BLACK
6
CONTINUOUS
10
62.8649
20
-96.3802
11
61.7221
21
-96.3802
0
LINE
8
BLACK
6
CONTINUOUS
10
62.2935
20
-96.3802
11
62.2935
21
-94.3802
0
LINE
8
BLACK
6
CONTINUOUS
10
62.2935
20
-94.3802
11
62.103
21
-94.6659
0
LINE
8
BLACK
6
CONTINUOUS
10
62.103
20
-94.6659
11
61.9125
21
-94.8564
0
LINE
8
BLACK
6
CONTINUOUS
10
61.9125
20
-94.8564
11
61.7221
21
-94.9516
0
LINE
8
BLACK
6
CONTINUOUS
10
64.6744
20
-94.3802
11
63.7221
21
-94.3802
0
LINE
8
BLACK
6
CONTINUOUS
10
63.7221
20
-94.3802
11
63.6268
21
-95.3325
0
LINE
8
BLACK
6
CONTINUOUS
10
63.6268
20
-95.3325
11
63.7221
21
-95.2373
0
LINE
8
BLACK
6
CONTINUOUS
10
63.7221
20
-95.2373
11
63.9125
21
-95.1421
0
LINE
8
BLACK
6
CONTINUOUS
10
63.9125
20
-95.1421
11
64.3887
21
-95.1421
0
LINE
8
BLACK
6
CONTINUOUS
10
64.3887
20
-95.1421
11
64.5792
21
-95.2373
0
LINE
8
BLACK
6
CONTINUOUS
10
64.5792
20
-95.2373
11
64.6744
21
-95.3325
0
LINE
8
BLACK
6
CONTINUOUS
10
64.6744
20
-95.3325
11
64.7697
21
-95.523
0
LINE
8
BLACK
6
CONTINUOUS
10
64.7697
20
-95.523
11
64.7697
21
-95.9992
0
LINE
8
BLACK
6
CONTINUOUS
10
64.7697
20
-95.9992
11
64.6744
21
-96.1897
0
LINE
8
BLACK
6
CONTINUOUS
10
64.6744
20
-96.1897
11
64.5792
21
-96.2849
0
LINE
8
BLACK
6
CONTINUOUS
10
64.5792
20
-96.2849
11
64.3887
21
-96.3802
0
LINE
8
BLACK
6
CONTINUOUS
10
64.3887
20
-96.3802
11
63.9125
21
-96.3802
0
LINE
8
BLACK
6
CONTINUOUS
10
63.9125
20
-96.3802
11
63.7221
21
-96.2849
0
LINE
8
BLACK
6
CONTINUOUS
10
63.7221
20
-96.2849
11
63.6268
21
-96.1897
0
LINE
8
BLACK
6
CONTINUOUS
10
65.4363
20
-94.3802
11
66.7697
21
-94.3802
0
LINE
8
BLACK
6
CONTINUOUS
10
66.7697
20
-94.3802
11
65.9125
21
-96.3802
0
LINE
8
BLACK
6
CONTINUOUS
10
67.4363
20
-94.3802
11
67.4363
21
-94.7611
0
LINE
8
BLACK
6
CONTINUOUS
10
68.1982
20
-94.3802
11
68.1982
21
-94.7611
0
LINE
8
BLACK
6
CONTINUOUS
10
71.1506
20
-97.1421
11
71.0554
21
-97.0468
0
LINE
8
BLACK
6
CONTINUOUS
10
71.0554
20
-97.0468
11
70.8649
21
-96.7611
0
LINE
8
BLACK
6
CONTINUOUS
10
70.8649
20
-96.7611
11
70.7697
21
-96.5706
0
LINE
8
BLACK
6
CONTINUOUS
10
70.7697
20
-96.5706
11
70.6744
21
-96.2849
0
LINE
8
BLACK
6
CONTINUOUS
10
70.6744
20
-96.2849
11
70.5792
21
-95.8087
0
LINE
8
BLACK
6
CONTINUOUS
10
70.5792
20
-95.8087
11
70.5792
21
-95.4278
0
LINE
8
BLACK
6
CONTINUOUS
10
70.5792
20
-95.4278
11
70.6744
21
-94.9516
0
LINE
8
BLACK
6
CONTINUOUS
10
70.6744
20
-94.9516
11
70.7697
21
-94.6659
0
LINE
8
BLACK
6
CONTINUOUS
10
70.7697
20
-94.6659
11
70.8649
21
-94.4754
0
LINE
8
BLACK
6
CONTINUOUS
10
70.8649
20
-94.4754
11
71.0554
21
-94.1897
0
LINE
8
BLACK
6
CONTINUOUS
10
71.0554
20
-94.1897
11
71.1506
21
-94.0945
0
LINE
8
BLACK
6
CONTINUOUS
10
71.7221
20
-94.3802
11
72.9602
21
-94.3802
0
LINE
8
BLACK
6
CONTINUOUS
10
72.9602
20
-94.3802
11
72.2935
21
-95.1421
0
LINE
8
BLACK
6
CONTINUOUS
10
72.2935
20
-95.1421
11
72.5792
21
-95.1421
0
LINE
8
BLACK
6
CONTINUOUS
10
72.5792
20
-95.1421
11
72.7697
21
-95.2373
0
LINE
8
BLACK
6
CONTINUOUS
10
72.7697
20
-95.2373
11
72.8649
21
-95.3325
0
LINE
8
BLACK
6
CONTINUOUS
10
72.8649
20
-95.3325
11
72.9602
21
-95.523
0
LINE
8
BLACK
6
CONTINUOUS
10
72.9602
20
-95.523
11
72.9602
21
-95.9992
0
LINE
8
BLACK
6
CONTINUOUS
10
72.9602
20
-95.9992
11
72.8649
21
-96.1897
0
LINE
8
BLACK
6
CONTINUOUS
10
72.8649
20
-96.1897
11
72.7697
21
-96.2849
0
LINE
8
BLACK
6
CONTINUOUS
10
72.7697
20
-96.2849
11
72.5792
21
-96.3802
0
LINE
8
BLACK
6
CONTINUOUS
10
72.5792
20
-96.3802
11
72.0078
21
-96.3802
0
LINE
8
BLACK
6
CONTINUOUS
10
72.0078
20
-96.3802
11
71.8173
21
-96.2849
0
LINE
8
BLACK
6
CONTINUOUS
10
71.8173
20
-96.2849
11
71.7221
21
-96.1897
0
LINE
8
BLACK
6
CONTINUOUS
10
73.7221
20
-94.5706
11
73.8173
21
-94.4754
0
LINE
8
BLACK
6
CONTINUOUS
10
73.8173
20
-94.4754
11
74.0078
21
-94.3802
0
LINE
8
BLACK
6
CONTINUOUS
10
74.0078
20
-94.3802
11
74.484
21
-94.3802
0
LINE
8
BLACK
6
CONTINUOUS
10
74.484
20
-94.3802
11
74.6744
21
-94.4754
0
LINE
8
BLACK
6
CONTINUOUS
10
74.6744
20
-94.4754
11
74.7697
21
-94.5706
0
LINE
8
BLACK
6
CONTINUOUS
10
74.7697
20
-94.5706
11
74.8649
21
-94.7611
0
LINE
8
BLACK
6
CONTINUOUS
10
74.8649
20
-94.7611
11
74.8649
21
-94.9516
0
LINE
8
BLACK
6
CONTINUOUS
10
74.8649
20
-94.9516
11
74.7697
21
-95.2373
0
LINE
8
BLACK
6
CONTINUOUS
10
74.7697
20
-95.2373
11
73.6268
21
-96.3802
0
LINE
8
BLACK
6
CONTINUOUS
10
73.6268
20
-96.3802
11
74.8649
21
-96.3802
0
LINE
8
BLACK
6
CONTINUOUS
10
77.2459
20
-96.3802
11
77.2459
21
-94.3802
0
LINE
8
BLACK
6
CONTINUOUS
10
78.103
20
-96.3802
11
78.103
21
-95.3325
0
LINE
8
BLACK
6
CONTINUOUS
10
78.103
20
-95.3325
11
78.0078
21
-95.1421
0
LINE
8
BLACK
6
CONTINUOUS
10
78.0078
20
-95.1421
11
77.8173
21
-95.0468
0
LINE
8
BLACK
6
CONTINUOUS
10
77.8173
20
-95.0468
11
77.5316
21
-95.0468
0
LINE
8
BLACK
6
CONTINUOUS
10
77.5316
20
-95.0468
11
77.3411
21
-95.1421
0
LINE
8
BLACK
6
CONTINUOUS
10
77.3411
20
-95.1421
11
77.2459
21
-95.2373
0
LINE
8
BLACK
6
CONTINUOUS
10
79.3411
20
-96.3802
11
79.1506
21
-96.2849
0
LINE
8
BLACK
6
CONTINUOUS
10
79.1506
20
-96.2849
11
79.0554
21
-96.1897
0
LINE
8
BLACK
6
CONTINUOUS
10
79.0554
20
-96.1897
11
78.9602
21
-95.9992
0
LINE
8
BLACK
6
CONTINUOUS
10
78.9602
20
-95.9992
11
78.9602
21
-95.4278
0
LINE
8
BLACK
6
CONTINUOUS
10
78.9602
20
-95.4278
11
79.0554
21
-95.2373
0
LINE
8
BLACK
6
CONTINUOUS
10
79.0554
20
-95.2373
11
79.1506
21
-95.1421
0
LINE
8
BLACK
6
CONTINUOUS
10
79.1506
20
-95.1421
11
79.3411
21
-95.0468
0
LINE
8
BLACK
6
CONTINUOUS
10
79.3411
20
-95.0468
11
79.6268
21
-95.0468
0
LINE
8
BLACK
6
CONTINUOUS
10
79.6268
20
-95.0468
11
79.8173
21
-95.1421
0
LINE
8
BLACK
6
CONTINUOUS
10
79.8173
20
-95.1421
11
79.9125
21
-95.2373
0
LINE
8
BLACK
6
CONTINUOUS
10
79.9125
20
-95.2373
11
80.0078
21
-95.4278
0
LINE
8
BLACK
6
CONTINUOUS
10
80.0078
20
-95.4278
11
80.0078
21
-95.9992
0
LINE
8
BLACK
6
CONTINUOUS
10
80.0078
20
-95.9992
11
79.9125
21
-96.1897
0
LINE
8
BLACK
6
CONTINUOUS
10
79.9125
20
-96.1897
11
79.8173
21
-96.2849
0
LINE
8
BLACK
6
CONTINUOUS
10
79.8173
20
-96.2849
11
79.6268
21
-96.3802
0
LINE
8
BLACK
6
CONTINUOUS
10
79.6268
20
-96.3802
11
79.3411
21
-96.3802
0
LINE
8
BLACK
6
CONTINUOUS
10
81.1506
20
-96.3802
11
80.9602
21
-96.2849
0
LINE
8
BLACK
6
CONTINUOUS
10
80.9602
20
-96.2849
11
80.8649
21
-96.0945
0
LINE
8
BLACK
6
CONTINUOUS
10
80.8649
20
-96.0945
11
80.8649
21
-94.3802
0
LINE
8
BLACK
6
CONTINUOUS
10
82.6744
20
-96.2849
11
82.484
21
-96.3802
0
LINE
8
BLACK
6
CONTINUOUS
10
82.484
20
-96.3802
11
82.103
21
-96.3802
0
LINE
8
BLACK
6
CONTINUOUS
10
82.103
20
-96.3802
11
81.9125
21
-96.2849
0
LINE
8
BLACK
6
CONTINUOUS
10
81.9125
20
-96.2849
11
81.8173
21
-96.0945
0
LINE
8
BLACK
6
CONTINUOUS
10
81.8173
20
-96.0945
11
81.8173
21
-95.3325
0
LINE
8
BLACK
6
CONTINUOUS
10
81.8173
20
-95.3325
11
81.9125
21
-95.1421
0
LINE
8
BLACK
6
CONTINUOUS
10
81.9125
20
-95.1421
11
82.103
21
-95.0468
0
LINE
8
BLACK
6
CONTINUOUS
10
82.103
20
-95.0468
11
82.484
21
-95.0468
0
LINE
8
BLACK
6
CONTINUOUS
10
82.484
20
-95.0468
11
82.6744
21
-95.1421
0
LINE
8
BLACK
6
CONTINUOUS
10
82.6744
20
-95.1421
11
82.7697
21
-95.3325
0
LINE
8
BLACK
6
CONTINUOUS
10
82.7697
20
-95.3325
11
82.7697
21
-95.523
0
LINE
8
BLACK
6
CONTINUOUS
10
82.7697
20
-95.523
11
81.8173
21
-95.7135
0
LINE
8
BLACK
6
CONTINUOUS
10
83.5316
20
-96.2849
11
83.7221
21
-96.3802
0
LINE
8
BLACK
6
CONTINUOUS
10
83.7221
20
-96.3802
11
84.103
21
-96.3802
0
LINE
8
BLACK
6
CONTINUOUS
10
84.103
20
-96.3802
11
84.2935
21
-96.2849
0
LINE
8
BLACK
6
CONTINUOUS
10
84.2935
20
-96.2849
11
84.3887
21
-96.0945
0
LINE
8
BLACK
6
CONTINUOUS
10
84.3887
20
-96.0945
11
84.3887
21
-95.9992
0
LINE
8
BLACK
6
CONTINUOUS
10
84.3887
20
-95.9992
11
84.2935
21
-95.8087
0
LINE
8
BLACK
6
CONTINUOUS
10
84.2935
20
-95.8087
11
84.103
21
-95.7135
0
LINE
8
BLACK
6
CONTINUOUS
10
84.103
20
-95.7135
11
83.8173
21
-95.7135
0
LINE
8
BLACK
6
CONTINUOUS
10
83.8173
20
-95.7135
11
83.6268
21
-95.6183
0
LINE
8
BLACK
6
CONTINUOUS
10
83.6268
20
-95.6183
11
83.5316
21
-95.4278
0
LINE
8
BLACK
6
CONTINUOUS
10
83.5316
20
-95.4278
11
83.5316
21
-95.3325
0
LINE
8
BLACK
6
CONTINUOUS
10
83.5316
20
-95.3325
11
83.6268
21
-95.1421
0
LINE
8
BLACK
6
CONTINUOUS
10
83.6268
20
-95.1421
11
83.8173
21
-95.0468
0
LINE
8
BLACK
6
CONTINUOUS
10
83.8173
20
-95.0468
11
84.103
21
-95.0468
0
LINE
8
BLACK
6
CONTINUOUS
10
84.103
20
-95.0468
11
84.2935
21
-95.1421
0
LINE
8
BLACK
6
CONTINUOUS
10
85.0554
20
-97.1421
11
85.1506
21
-97.0468
0
LINE
8
BLACK
6
CONTINUOUS
10
85.1506
20
-97.0468
11
85.3411
21
-96.7611
0
LINE
8
BLACK
6
CONTINUOUS
10
85.3411
20
-96.7611
11
85.4363
21
-96.5706
0
LINE
8
BLACK
6
CONTINUOUS
10
85.4363
20
-96.5706
11
85.5316
21
-96.2849
0
LINE
8
BLACK
6
CONTINUOUS
10
85.5316
20
-96.2849
11
85.6268
21
-95.8087
0
LINE
8
BLACK
6
CONTINUOUS
10
85.6268
20
-95.8087
11
85.6268
21
-95.4278
0
LINE
8
BLACK
6
CONTINUOUS
10
85.6268
20
-95.4278
11
85.5316
21
-94.9516
0
LINE
8
BLACK
6
CONTINUOUS
10
85.5316
20
-94.9516
11
85.4363
21
-94.6659
0
LINE
8
BLACK
6
CONTINUOUS
10
85.4363
20
-94.6659
11
85.3411
21
-94.4754
0
LINE
8
BLACK
6
CONTINUOUS
10
85.3411
20
-94.4754
11
85.1506
21
-94.1897
0
LINE
8
BLACK
6
CONTINUOUS
10
85.1506
20
-94.1897
11
85.0554
21
-94.0945
0
LINE
8
BLACK
6
CONTINUOUS
10
35.2828
20
-98.3882
11
35.2828
21
-97.8225
0
LINE
8
BLACK
6
CONTINUOUS
10
35.2828
20
-97.8225
11
34.7172
21
-97.8225
0
LINE
8
BLACK
6
CONTINUOUS
10
34.7172
20
-97.8225
11
34.7172
21
-98.3882
0
LINE
8
BLACK
6
CONTINUOUS
10
34.7172
20
-98.3882
11
35.2828
21
-98.3882
0
LINE
8
BLACK
6
CONTINUOUS
10
38.3887
20
-97.0202
11
38.5792
21
-97.0202
0
LINE
8
BLACK
6
CONTINUOUS
10
38.5792
20
-97.0202
11
38.7697
21
-97.1154
0
LINE
8
BLACK
6
CONTINUOUS
10
38.7697
20
-97.1154
11
38.8649
21
-97.2106
0
LINE
8
BLACK
6
CONTINUOUS
10
38.8649
20
-97.2106
11
38.9601
21
-97.4011
0
LINE
8
BLACK
6
CONTINUOUS
10
38.9601
20
-97.4011
11
39.0554
21
-97.7821
0
LINE
8
BLACK
6
CONTINUOUS
10
39.0554
20
-97.7821
11
39.0554
21
-98.2583
0
LINE
8
BLACK
6
CONTINUOUS
10
39.0554
20
-98.2583
11
38.9601
21
-98.6392
0
LINE
8
BLACK
6
CONTINUOUS
10
38.9601
20
-98.6392
11
38.8649
21
-98.8297
0
LINE
8
BLACK
6
CONTINUOUS
10
38.8649
20
-98.8297
11
38.7697
21
-98.9249
0
LINE
8
BLACK
6
CONTINUOUS
10
38.7697
20
-98.9249
11
38.5792
21
-99.0202
0
LINE
8
BLACK
6
CONTINUOUS
10
38.5792
20
-99.0202
11
38.3887
21
-99.0202
0
LINE
8
BLACK
6
CONTINUOUS
10
38.3887
20
-99.0202
11
38.1982
21
-98.9249
0
LINE
8
BLACK
6
CONTINUOUS
10
38.1982
20
-98.9249
11
38.103
21
-98.8297
0
LINE
8
BLACK
6
CONTINUOUS
10
38.103
20
-98.8297
11
38.0078
21
-98.6392
0
LINE
8
BLACK
6
CONTINUOUS
10
38.0078
20
-98.6392
11
37.9125
21
-98.2583
0
LINE
8
BLACK
6
CONTINUOUS
10
37.9125
20
-98.2583
11
37.9125
21
-97.7821
0
LINE
8
BLACK
6
CONTINUOUS
10
37.9125
20
-97.7821
11
38.0078
21
-97.4011
0
LINE
8
BLACK
6
CONTINUOUS
10
38.0078
20
-97.4011
11
38.103
21
-97.2106
0
LINE
8
BLACK
6
CONTINUOUS
10
38.103
20
-97.2106
11
38.1982
21
-97.1154
0
LINE
8
BLACK
6
CONTINUOUS
10
38.1982
20
-97.1154
11
38.3887
21
-97.0202
0
LINE
8
BLACK
6
CONTINUOUS
10
39.9125
20
-98.8297
11
40.0078
21
-98.9249
0
LINE
8
BLACK
6
CONTINUOUS
10
40.0078
20
-98.9249
11
39.9125
21
-99.0202
0
LINE
8
BLACK
6
CONTINUOUS
10
39.9125
20
-99.0202
11
39.8173
21
-98.9249
0
LINE
8
BLACK
6
CONTINUOUS
10
39.8173
20
-98.9249
11
39.9125
21
-98.8297
0
LINE
8
BLACK
6
CONTINUOUS
10
39.9125
20
-98.8297
11
39.9125
21
-99.0202
0
LINE
8
BLACK
6
CONTINUOUS
10
41.1506
20
-97.8773
11
40.9601
21
-97.7821
0
LINE
8
BLACK
6
CONTINUOUS
10
40.9601
20
-97.7821
11
40.8649
21
-97.6868
0
LINE
8
BLACK
6
CONTINUOUS
10
40.8649
20
-97.6868
11
40.7697
21
-97.4964
0
LINE
8
BLACK
6
CONTINUOUS
10
40.7697
20
-97.4964
11
40.7697
21
-97.4011
0
LINE
8
BLACK
6
CONTINUOUS
10
40.7697
20
-97.4011
11
40.8649
21
-97.2106
0
LINE
8
BLACK
6
CONTINUOUS
10
40.8649
20
-97.2106
11
40.9601
21
-97.1154
0
LINE
8
BLACK
6
CONTINUOUS
10
40.9601
20
-97.1154
11
41.1506
21
-97.0202
0
LINE
8
BLACK
6
CONTINUOUS
10
41.1506
20
-97.0202
11
41.5316
21
-97.0202
0
LINE
8
BLACK
6
CONTINUOUS
10
41.5316
20
-97.0202
11
41.7221
21
-97.1154
0
LINE
8
BLACK
6
CONTINUOUS
10
41.7221
20
-97.1154
11
41.8173
21
-97.2106
0
LINE
8
BLACK
6
CONTINUOUS
10
41.8173
20
-97.2106
11
41.9125
21
-97.4011
0
LINE
8
BLACK
6
CONTINUOUS
10
41.9125
20
-97.4011
11
41.9125
21
-97.4964
0
LINE
8
BLACK
6
CONTINUOUS
10
41.9125
20
-97.4964
11
41.8173
21
-97.6868
0
LINE
8
BLACK
6
CONTINUOUS
10
41.8173
20
-97.6868
11
41.7221
21
-97.7821
0
LINE
8
BLACK
6
CONTINUOUS
10
41.7221
20
-97.7821
11
41.5316
21
-97.8773
0
LINE
8
BLACK
6
CONTINUOUS
10
41.5316
20
-97.8773
11
41.1506
21
-97.8773
0
LINE
8
BLACK
6
CONTINUOUS
10
41.1506
20
-97.8773
11
40.9601
21
-97.9725
0
LINE
8
BLACK
6
CONTINUOUS
10
40.9601
20
-97.9725
11
40.8649
21
-98.0678
0
LINE
8
BLACK
6
CONTINUOUS
10
40.8649
20
-98.0678
11
40.7697
21
-98.2583
0
LINE
8
BLACK
6
CONTINUOUS
10
40.7697
20
-98.2583
11
40.7697
21
-98.6392
0
LINE
8
BLACK
6
CONTINUOUS
10
40.7697
20
-98.6392
11
40.8649
21
-98.8297
0
LINE
8
BLACK
6
CONTINUOUS
10
40.8649
20
-98.8297
11
40.9601
21
-98.9249
0
LINE
8
BLACK
6
CONTINUOUS
10
40.9601
20
-98.9249
11
41.1506
21
-99.0202
0
LINE
8
BLACK
6
CONTINUOUS
10
41.1506
20
-99.0202
11
41.5316
21
-99.0202
0
LINE
8
BLACK
6
CONTINUOUS
10
41.5316
20
-99.0202
11
41.7221
21
-98.9249
0
LINE
8
BLACK
6
CONTINUOUS
10
41.7221
20
-98.9249
11
41.8173
21
-98.8297
0
LINE
8
BLACK
6
CONTINUOUS
10
41.8173
20
-98.8297
11
41.9125
21
-98.6392
0
LINE
8
BLACK
6
CONTINUOUS
10
41.9125
20
-98.6392
11
41.9125
21
-98.2583
0
LINE
8
BLACK
6
CONTINUOUS
10
41.9125
20
-98.2583
11
41.8173
21
-98.0678
0
LINE
8
BLACK
6
CONTINUOUS
10
41.8173
20
-98.0678
11
41.7221
21
-97.9725
0
LINE
8
BLACK
6
CONTINUOUS
10
41.7221
20
-97.9725
11
41.5316
21
-97.8773
0
LINE
8
BLACK
6
CONTINUOUS
10
43.1506
20
-97.0202
11
43.3411
21
-97.0202
0
LINE
8
BLACK
6
CONTINUOUS
10
43.3411
20
-97.0202
11
43.5316
21
-97.1154
0
LINE
8
BLACK
6
CONTINUOUS
10
43.5316
20
-97.1154
11
43.6268
21
-97.2106
0
LINE
8
BLACK
6
CONTINUOUS
10
43.6268
20
-97.2106
11
43.7221
21
-97.4011
0
LINE
8
BLACK
6
CONTINUOUS
10
43.7221
20
-97.4011
11
43.8173
21
-97.7821
0
LINE
8
BLACK
6
CONTINUOUS
10
43.8173
20
-97.7821
11
43.8173
21
-98.2583
0
LINE
8
BLACK
6
CONTINUOUS
10
43.8173
20
-98.2583
11
43.7221
21
-98.6392
0
LINE
8
BLACK
6
CONTINUOUS
10
43.7221
20
-98.6392
11
43.6268
21
-98.8297
0
LINE
8
BLACK
6
CONTINUOUS
10
43.6268
20
-98.8297
11
43.5316
21
-98.9249
0
LINE
8
BLACK
6
CONTINUOUS
10
43.5316
20
-98.9249
11
43.3411
21
-99.0202
0
LINE
8
BLACK
6
CONTINUOUS
10
43.3411
20
-99.0202
11
43.1506
21
-99.0202
0
LINE
8
BLACK
6
CONTINUOUS
10
43.1506
20
-99.0202
11
42.9601
21
-98.9249
0
LINE
8
BLACK
6
CONTINUOUS
10
42.9601
20
-98.9249
11
42.8649
21
-98.8297
0
LINE
8
BLACK
6
CONTINUOUS
10
42.8649
20
-98.8297
11
42.7697
21
-98.6392
0
LINE
8
BLACK
6
CONTINUOUS
10
42.7697
20
-98.6392
11
42.6744
21
-98.2583
0
LINE
8
BLACK
6
CONTINUOUS
10
42.6744
20
-98.2583
11
42.6744
21
-97.7821
0
LINE
8
BLACK
6
CONTINUOUS
10
42.6744
20
-97.7821
11
42.7697
21
-97.4011
0
LINE
8
BLACK
6
CONTINUOUS
10
42.7697
20
-97.4011
11
42.8649
21
-97.2106
0
LINE
8
BLACK
6
CONTINUOUS
10
42.8649
20
-97.2106
11
42.9601
21
-97.1154
0
LINE
8
BLACK
6
CONTINUOUS
10
42.9601
20
-97.1154
11
43.1506
21
-97.0202
0
LINE
8
BLACK
6
CONTINUOUS
10
45.0554
20
-97.0202
11
45.2459
21
-97.0202
0
LINE
8
BLACK
6
CONTINUOUS
10
45.2459
20
-97.0202
11
45.4363
21
-97.1154
0
LINE
8
BLACK
6
CONTINUOUS
10
45.4363
20
-97.1154
11
45.5316
21
-97.2106
0
LINE
8
BLACK
6
CONTINUOUS
10
45.5316
20
-97.2106
11
45.6268
21
-97.4011
0
LINE
8
BLACK
6
CONTINUOUS
10
45.6268
20
-97.4011
11
45.7221
21
-97.7821
0
LINE
8
BLACK
6
CONTINUOUS
10
45.7221
20
-97.7821
11
45.7221
21
-98.2583
0
LINE
8
BLACK
6
CONTINUOUS
10
45.7221
20
-98.2583
11
45.6268
21
-98.6392
0
LINE
8
BLACK
6
CONTINUOUS
10
45.6268
20
-98.6392
11
45.5316
21
-98.8297
0
LINE
8
BLACK
6
CONTINUOUS
10
45.5316
20
-98.8297
11
45.4363
21
-98.9249
0
LINE
8
BLACK
6
CONTINUOUS
10
45.4363
20
-98.9249
11
45.2459
21
-99.0202
0
LINE
8
BLACK
6
CONTINUOUS
10
45.2459
20
-99.0202
11
45.0554
21
-99.0202
0
LINE
8
BLACK
6
CONTINUOUS
10
45.0554
20
-99.0202
11
44.8649
21
-98.9249
0
LINE
8
BLACK
6
CONTINUOUS
10
44.8649
20
-98.9249
11
44.7697
21
-98.8297
0
LINE
8
BLACK
6
CONTINUOUS
10
44.7697
20
-98.8297
11
44.6744
21
-98.6392
0
LINE
8
BLACK
6
CONTINUOUS
10
44.6744
20
-98.6392
11
44.5792
21
-98.2583
0
LINE
8
BLACK
6
CONTINUOUS
10
44.5792
20
-98.2583
11
44.5792
21
-97.7821
0
LINE
8
BLACK
6
CONTINUOUS
10
44.5792
20
-97.7821
11
44.6744
21
-97.4011
0
LINE
8
BLACK
6
CONTINUOUS
10
44.6744
20
-97.4011
11
44.7697
21
-97.2106
0
LINE
8
BLACK
6
CONTINUOUS
10
44.7697
20
-97.2106
11
44.8649
21
-97.1154
0
LINE
8
BLACK
6
CONTINUOUS
10
44.8649
20
-97.1154
11
45.0554
21
-97.0202
0
LINE
8
BLACK
6
CONTINUOUS
10
46.5792
20
-99.0202
11
46.5792
21
-97.6868
0
LINE
8
BLACK
6
CONTINUOUS
10
46.5792
20
-97.8773
11
46.6744
21
-97.7821
0
LINE
8
BLACK
6
CONTINUOUS
10
46.6744
20
-97.7821
11
46.8649
21
-97.6868
0
LINE
8
BLACK
6
CONTINUOUS
10
46.8649
20
-97.6868
11
47.1506
21
-97.6868
0
LINE
8
BLACK
6
CONTINUOUS
10
47.1506
20
-97.6868
11
47.3411
21
-97.7821
0
LINE
8
BLACK
6
CONTINUOUS
10
47.3411
20
-97.7821
11
47.4363
21
-97.9725
0
LINE
8
BLACK
6
CONTINUOUS
10
47.4363
20
-97.9725
11
47.4363
21
-99.0202
0
LINE
8
BLACK
6
CONTINUOUS
10
47.4363
20
-97.9725
11
47.5316
21
-97.7821
0
LINE
8
BLACK
6
CONTINUOUS
10
47.5316
20
-97.7821
11
47.7221
21
-97.6868
0
LINE
8
BLACK
6
CONTINUOUS
10
47.7221
20
-97.6868
11
48.0078
21
-97.6868
0
LINE
8
BLACK
6
CONTINUOUS
10
48.0078
20
-97.6868
11
48.1982
21
-97.7821
0
LINE
8
BLACK
6
CONTINUOUS
10
48.1982
20
-97.7821
11
48.2935
21
-97.9725
0
LINE
8
BLACK
6
CONTINUOUS
10
48.2935
20
-97.9725
11
48.2935
21
-99.0202
0
LINE
8
BLACK
6
CONTINUOUS
10
49.2459
20
-99.0202
11
49.2459
21
-97.6868
0
LINE
8
BLACK
6
CONTINUOUS
10
49.2459
20
-97.8773
11
49.3411
21
-97.7821
0
LINE
8
BLACK
6
CONTINUOUS
10
49.3411
20
-97.7821
11
49.5316
21
-97.6868
0
LINE
8
BLACK
6
CONTINUOUS
10
49.5316
20
-97.6868
11
49.8173
21
-97.6868
0
LINE
8
BLACK
6
CONTINUOUS
10
49.8173
20
-97.6868
11
50.0078
21
-97.7821
0
LINE
8
BLACK
6
CONTINUOUS
10
50.0078
20
-97.7821
11
50.103
21
-97.9725
0
LINE
8
BLACK
6
CONTINUOUS
10
50.103
20
-97.9725
11
50.103
21
-99.0202
0
LINE
8
BLACK
6
CONTINUOUS
10
50.103
20
-97.9725
11
50.1982
21
-97.7821
0
LINE
8
BLACK
6
CONTINUOUS
10
50.1982
20
-97.7821
11
50.3887
21
-97.6868
0
LINE
8
BLACK
6
CONTINUOUS
10
50.3887
20
-97.6868
11
50.6744
21
-97.6868
0
LINE
8
BLACK
6
CONTINUOUS
10
50.6744
20
-97.6868
11
50.8649
21
-97.7821
0
LINE
8
BLACK
6
CONTINUOUS
10
50.8649
20
-97.7821
11
50.9601
21
-97.9725
0
LINE
8
BLACK
6
CONTINUOUS
10
50.9601
20
-97.9725
11
50.9601
21
-99.0202
0
LINE
8
BLACK
6
CONTINUOUS
10
54.8649
20
-96.9249
11
53.1506
21
-99.4964
0
LINE
8
BLACK
6
CONTINUOUS
10
57.4363
20
-97.0202
11
57.6268
21
-97.0202
0
LINE
8
BLACK
6
CONTINUOUS
10
57.6268
20
-97.0202
11
57.8173
21
-97.1154
0
LINE
8
BLACK
6
CONTINUOUS
10
57.8173
20
-97.1154
11
57.9125
21
-97.2106
0
LINE
8
BLACK
6
CONTINUOUS
10
57.9125
20
-97.2106
11
58.0078
21
-97.4011
0
LINE
8
BLACK
6
CONTINUOUS
10
58.0078
20
-97.4011
11
58.103
21
-97.7821
0
LINE
8
BLACK
6
CONTINUOUS
10
58.103
20
-97.7821
11
58.103
21
-98.2583
0
LINE
8
BLACK
6
CONTINUOUS
10
58.103
20
-98.2583
11
58.0078
21
-98.6392
0
LINE
8
BLACK
6
CONTINUOUS
10
58.0078
20
-98.6392
11
57.9125
21
-98.8297
0
LINE
8
BLACK
6
CONTINUOUS
10
57.9125
20
-98.8297
11
57.8173
21
-98.9249
0
LINE
8
BLACK
6
CONTINUOUS
10
57.8173
20
-98.9249
11
57.6268
21
-99.0202
0
LINE
8
BLACK
6
CONTINUOUS
10
57.6268
20
-99.0202
11
57.4363
21
-99.0202
0
LINE
8
BLACK
6
CONTINUOUS
10
57.4363
20
-99.0202
11
57.2459
21
-98.9249
0
LINE
8
BLACK
6
CONTINUOUS
10
57.2459
20
-98.9249
11
57.1506
21
-98.8297
0
LINE
8
BLACK
6
CONTINUOUS
10
57.1506
20
-98.8297
11
57.0554
21
-98.6392
0
LINE
8
BLACK
6
CONTINUOUS
10
57.0554
20
-98.6392
11
56.9602
21
-98.2583
0
LINE
8
BLACK
6
CONTINUOUS
10
56.9602
20
-98.2583
11
56.9602
21
-97.7821
0
LINE
8
BLACK
6
CONTINUOUS
10
56.9602
20
-97.7821
11
57.0554
21
-97.4011
0
LINE
8
BLACK
6
CONTINUOUS
10
57.0554
20
-97.4011
11
57.1506
21
-97.2106
0
LINE
8
BLACK
6
CONTINUOUS
10
57.1506
20
-97.2106
11
57.2459
21
-97.1154
0
LINE
8
BLACK
6
CONTINUOUS
10
57.2459
20
-97.1154
11
57.4363
21
-97.0202
0
LINE
8
BLACK
6
CONTINUOUS
10
58.9602
20
-98.8297
11
59.0554
21
-98.9249
0
LINE
8
BLACK
6
CONTINUOUS
10
59.0554
20
-98.9249
11
58.9602
21
-99.0202
0
LINE
8
BLACK
6
CONTINUOUS
10
58.9602
20
-99.0202
11
58.8649
21
-98.9249
0
LINE
8
BLACK
6
CONTINUOUS
10
58.8649
20
-98.9249
11
58.9602
21
-98.8297
0
LINE
8
BLACK
6
CONTINUOUS
10
58.9602
20
-98.8297
11
58.9602
21
-99.0202
0
LINE
8
BLACK
6
CONTINUOUS
10
60.2935
20
-97.0202
11
60.484
21
-97.0202
0
LINE
8
BLACK
6
CONTINUOUS
10
60.484
20
-97.0202
11
60.6744
21
-97.1154
0
LINE
8
BLACK
6
CONTINUOUS
10
60.6744
20
-97.1154
11
60.7697
21
-97.2106
0
LINE
8
BLACK
6
CONTINUOUS
10
60.7697
20
-97.2106
11
60.8649
21
-97.4011
0
LINE
8
BLACK
6
CONTINUOUS
10
60.8649
20
-97.4011
11
60.9602
21
-97.7821
0
LINE
8
BLACK
6
CONTINUOUS
10
60.9602
20
-97.7821
11
60.9602
21
-98.2583
0
LINE
8
BLACK
6
CONTINUOUS
10
60.9602
20
-98.2583
11
60.8649
21
-98.6392
0
LINE
8
BLACK
6
CONTINUOUS
10
60.8649
20
-98.6392
11
60.7697
21
-98.8297
0
LINE
8
BLACK
6
CONTINUOUS
10
60.7697
20
-98.8297
11
60.6744
21
-98.9249
0
LINE
8
BLACK
6
CONTINUOUS
10
60.6744
20
-98.9249
11
60.484
21
-99.0202
0
LINE
8
BLACK
6
CONTINUOUS
10
60.484
20
-99.0202
11
60.2935
21
-99.0202
0
LINE
8
BLACK
6
CONTINUOUS
10
60.2935
20
-99.0202
11
60.103
21
-98.9249
0
LINE
8
BLACK
6
CONTINUOUS
10
60.103
20
-98.9249
11
60.0078
21
-98.8297
0
LINE
8
BLACK
6
CONTINUOUS
10
60.0078
20
-98.8297
11
59.9125
21
-98.6392
0
LINE
8
BLACK
6
CONTINUOUS
10
59.9125
20
-98.6392
11
59.8173
21
-98.2583
0
LINE
8
BLACK
6
CONTINUOUS
10
59.8173
20
-98.2583
11
59.8173
21
-97.7821
0
LINE
8
BLACK
6
CONTINUOUS
10
59.8173
20
-97.7821
11
59.9125
21
-97.4011
0
LINE
8
BLACK
6
CONTINUOUS
10
59.9125
20
-97.4011
11
60.0078
21
-97.2106
0
LINE
8
BLACK
6
CONTINUOUS
10
60.0078
20
-97.2106
11
60.103
21
-97.1154
0
LINE
8
BLACK
6
CONTINUOUS
10
60.103
20
-97.1154
11
60.2935
21
-97.0202
0
LINE
8
BLACK
6
CONTINUOUS
10
61.6268
20
-97.0202
11
62.8649
21
-97.0202
0
LINE
8
BLACK
6
CONTINUOUS
10
62.8649
20
-97.0202
11
62.1982
21
-97.7821
0
LINE
8
BLACK
6
CONTINUOUS
10
62.1982
20
-97.7821
11
62.484
21
-97.7821
0
LINE
8
BLACK
6
CONTINUOUS
10
62.484
20
-97.7821
11
62.6744
21
-97.8773
0
LINE
8
BLACK
6
CONTINUOUS
10
62.6744
20
-97.8773
11
62.7697
21
-97.9725
0
LINE
8
BLACK
6
CONTINUOUS
10
62.7697
20
-97.9725
11
62.8649
21
-98.163
0
LINE
8
BLACK
6
CONTINUOUS
10
62.8649
20
-98.163
11
62.8649
21
-98.6392
0
LINE
8
BLACK
6
CONTINUOUS
10
62.8649
20
-98.6392
11
62.7697
21
-98.8297
0
LINE
8
BLACK
6
CONTINUOUS
10
62.7697
20
-98.8297
11
62.6744
21
-98.9249
0
LINE
8
BLACK
6
CONTINUOUS
10
62.6744
20
-98.9249
11
62.484
21
-99.0202
0
LINE
8
BLACK
6
CONTINUOUS
10
62.484
20
-99.0202
11
61.9125
21
-99.0202
0
LINE
8
BLACK
6
CONTINUOUS
10
61.9125
20
-99.0202
11
61.7221
21
-98.9249
0
LINE
8
BLACK
6
CONTINUOUS
10
61.7221
20
-98.9249
11
61.6268
21
-98.8297
0
LINE
8
BLACK
6
CONTINUOUS
10
64.7697
20
-99.0202
11
63.6268
21
-99.0202
0
LINE
8
BLACK
6
CONTINUOUS
10
64.1982
20
-99.0202
11
64.1982
21
-97.0202
0
LINE
8
BLACK
6
CONTINUOUS
10
64.1982
20
-97.0202
11
64.0078
21
-97.3059
0
LINE
8
BLACK
6
CONTINUOUS
10
64.0078
20
-97.3059
11
63.8173
21
-97.4964
0
LINE
8
BLACK
6
CONTINUOUS
10
63.8173
20
-97.4964
11
63.6268
21
-97.5916
0
LINE
8
BLACK
6
CONTINUOUS
10
66.5792
20
-97.0202
11
65.6268
21
-97.0202
0
LINE
8
BLACK
6
CONTINUOUS
10
65.6268
20
-97.0202
11
65.5316
21
-97.9725
0
LINE
8
BLACK
6
CONTINUOUS
10
65.5316
20
-97.9725
11
65.6268
21
-97.8773
0
LINE
8
BLACK
6
CONTINUOUS
10
65.6268
20
-97.8773
11
65.8173
21
-97.7821
0
LINE
8
BLACK
6
CONTINUOUS
10
65.8173
20
-97.7821
11
66.2935
21
-97.7821
0
LINE
8
BLACK
6
CONTINUOUS
10
66.2935
20
-97.7821
11
66.484
21
-97.8773
0
LINE
8
BLACK
6
CONTINUOUS
10
66.484
20
-97.8773
11
66.5792
21
-97.9725
0
LINE
8
BLACK
6
CONTINUOUS
10
66.5792
20
-97.9725
11
66.6744
21
-98.163
0
LINE
8
BLACK
6
CONTINUOUS
10
66.6744
20
-98.163
11
66.6744
21
-98.6392
0
LINE
8
BLACK
6
CONTINUOUS
10
66.6744
20
-98.6392
11
66.5792
21
-98.8297
0
LINE
8
BLACK
6
CONTINUOUS
10
66.5792
20
-98.8297
11
66.484
21
-98.9249
0
LINE
8
BLACK
6
CONTINUOUS
10
66.484
20
-98.9249
11
66.2935
21
-99.0202
0
LINE
8
BLACK
6
CONTINUOUS
10
66.2935
20
-99.0202
11
65.8173
21
-99.0202
0
LINE
8
BLACK
6
CONTINUOUS
10
65.8173
20
-99.0202
11
65.6268
21
-98.9249
0
LINE
8
BLACK
6
CONTINUOUS
10
65.6268
20
-98.9249
11
65.5316
21
-98.8297
0
LINE
8
BLACK
6
CONTINUOUS
10
67.4363
20
-97.0202
11
67.4363
21
-97.4011
0
LINE
8
BLACK
6
CONTINUOUS
10
68.1982
20
-97.0202
11
68.1982
21
-97.4011
0
LINE
8
BLACK
6
CONTINUOUS
10
71.1506
20
-99.7821
11
71.0554
21
-99.6868
0
LINE
8
BLACK
6
CONTINUOUS
10
71.0554
20
-99.6868
11
70.8649
21
-99.4011
0
LINE
8
BLACK
6
CONTINUOUS
10
70.8649
20
-99.4011
11
70.7697
21
-99.2106
0
LINE
8
BLACK
6
CONTINUOUS
10
70.7697
20
-99.2106
11
70.6744
21
-98.9249
0
LINE
8
BLACK
6
CONTINUOUS
10
70.6744
20
-98.9249
11
70.5792
21
-98.4487
0
LINE
8
BLACK
6
CONTINUOUS
10
70.5792
20
-98.4487
11
70.5792
21
-98.0678
0
LINE
8
BLACK
6
CONTINUOUS
10
70.5792
20
-98.0678
11
70.6744
21
-97.5916
0
LINE
8
BLACK
6
CONTINUOUS
10
70.6744
20
-97.5916
11
70.7697
21
-97.3059
0
LINE
8
BLACK
6
CONTINUOUS
10
70.7697
20
-97.3059
11
70.8649
21
-97.1154
0
LINE
8
BLACK
6
CONTINUOUS
10
70.8649
20
-97.1154
11
71.0554
21
-96.8297
0
LINE
8
BLACK
6
CONTINUOUS
10
71.0554
20
-96.8297
11
71.1506
21
-96.7345
0
LINE
8
BLACK
6
CONTINUOUS
10
72.2935
20
-97.0202
11
72.484
21
-97.0202
0
LINE
8
BLACK
6
CONTINUOUS
10
72.484
20
-97.0202
11
72.6744
21
-97.1154
0
LINE
8
BLACK
6
CONTINUOUS
10
72.6744
20
-97.1154
11
72.7697
21
-97.2106
0
LINE
8
BLACK
6
CONTINUOUS
10
72.7697
20
-97.2106
11
72.8649
21
-97.4011
0
LINE
8
BLACK
6
CONTINUOUS
10
72.8649
20
-97.4011
11
72.9602
21
-97.7821
0
LINE
8
BLACK
6
CONTINUOUS
10
72.9602
20
-97.7821
11
72.9602
21
-98.2583
0
LINE
8
BLACK
6
CONTINUOUS
10
72.9602
20
-98.2583
11
72.8649
21
-98.6392
0
LINE
8
BLACK
6
CONTINUOUS
10
72.8649
20
-98.6392
11
72.7697
21
-98.8297
0
LINE
8
BLACK
6
CONTINUOUS
10
72.7697
20
-98.8297
11
72.6744
21
-98.9249
0
LINE
8
BLACK
6
CONTINUOUS
10
72.6744
20
-98.9249
11
72.484
21
-99.0202
0
LINE
8
BLACK
6
CONTINUOUS
10
72.484
20
-99.0202
11
72.2935
21
-99.0202
0
LINE
8
BLACK
6
CONTINUOUS
10
72.2935
20
-99.0202
11
72.103
21
-98.9249
0
LINE
8
BLACK
6
CONTINUOUS
10
72.103
20
-98.9249
11
72.0078
21
-98.8297
0
LINE
8
BLACK
6
CONTINUOUS
10
72.0078
20
-98.8297
11
71.9125
21
-98.6392
0
LINE
8
BLACK
6
CONTINUOUS
10
71.9125
20
-98.6392
11
71.8173
21
-98.2583
0
LINE
8
BLACK
6
CONTINUOUS
10
71.8173
20
-98.2583
11
71.8173
21
-97.7821
0
LINE
8
BLACK
6
CONTINUOUS
10
71.8173
20
-97.7821
11
71.9125
21
-97.4011
0
LINE
8
BLACK
6
CONTINUOUS
10
71.9125
20
-97.4011
11
72.0078
21
-97.2106
0
LINE
8
BLACK
6
CONTINUOUS
10
72.0078
20
-97.2106
11
72.103
21
-97.1154
0
LINE
8
BLACK
6
CONTINUOUS
10
72.103
20
-97.1154
11
72.2935
21
-97.0202
0
LINE
8
BLACK
6
CONTINUOUS
10
75.3411
20
-99.0202
11
75.3411
21
-97.0202
0
LINE
8
BLACK
6
CONTINUOUS
10
76.1982
20
-99.0202
11
76.1982
21
-97.9725
0
LINE
8
BLACK
6
CONTINUOUS
10
76.1982
20
-97.9725
11
76.103
21
-97.7821
0
LINE
8
BLACK
6
CONTINUOUS
10
76.103
20
-97.7821
11
75.9125
21
-97.6868
0
LINE
8
BLACK
6
CONTINUOUS
10
75.9125
20
-97.6868
11
75.6268
21
-97.6868
0
LINE
8
BLACK
6
CONTINUOUS
10
75.6268
20
-97.6868
11
75.4363
21
-97.7821
0
LINE
8
BLACK
6
CONTINUOUS
10
75.4363
20
-97.7821
11
75.3411
21
-97.8773
0
LINE
8
BLACK
6
CONTINUOUS
10
77.4363
20
-99.0202
11
77.2459
21
-98.9249
0
LINE
8
BLACK
6
CONTINUOUS
10
77.2459
20
-98.9249
11
77.1506
21
-98.8297
0
LINE
8
BLACK
6
CONTINUOUS
10
77.1506
20
-98.8297
11
77.0554
21
-98.6392
0
LINE
8
BLACK
6
CONTINUOUS
10
77.0554
20
-98.6392
11
77.0554
21
-98.0678
0
LINE
8
BLACK
6
CONTINUOUS
10
77.0554
20
-98.0678
11
77.1506
21
-97.8773
0
LINE
8
BLACK
6
CONTINUOUS
10
77.1506
20
-97.8773
11
77.2459
21
-97.7821
0
LINE
8
BLACK
6
CONTINUOUS
10
77.2459
20
-97.7821
11
77.4363
21
-97.6868
0
LINE
8
BLACK
6
CONTINUOUS
10
77.4363
20
-97.6868
11
77.7221
21
-97.6868
0
LINE
8
BLACK
6
CONTINUOUS
10
77.7221
20
-97.6868
11
77.9125
21
-97.7821
0
LINE
8
BLACK
6
CONTINUOUS
10
77.9125
20
-97.7821
11
78.0078
21
-97.8773
0
LINE
8
BLACK
6
CONTINUOUS
10
78.0078
20
-97.8773
11
78.103
21
-98.0678
0
LINE
8
BLACK
6
CONTINUOUS
10
78.103
20
-98.0678
11
78.103
21
-98.6392
0
LINE
8
BLACK
6
CONTINUOUS
10
78.103
20
-98.6392
11
78.0078
21
-98.8297
0
LINE
8
BLACK
6
CONTINUOUS
10
78.0078
20
-98.8297
11
77.9125
21
-98.9249
0
LINE
8
BLACK
6
CONTINUOUS
10
77.9125
20
-98.9249
11
77.7221
21
-99.0202
0
LINE
8
BLACK
6
CONTINUOUS
10
77.7221
20
-99.0202
11
77.4363
21
-99.0202
0
LINE
8
BLACK
6
CONTINUOUS
10
79.2459
20
-99.0202
11
79.0554
21
-98.9249
0
LINE
8
BLACK
6
CONTINUOUS
10
79.0554
20
-98.9249
11
78.9602
21
-98.7345
0
LINE
8
BLACK
6
CONTINUOUS
10
78.9602
20
-98.7345
11
78.9602
21
-97.0202
0
LINE
8
BLACK
6
CONTINUOUS
10
80.7697
20
-98.9249
11
80.5792
21
-99.0202
0
LINE
8
BLACK
6
CONTINUOUS
10
80.5792
20
-99.0202
11
80.1982
21
-99.0202
0
LINE
8
BLACK
6
CONTINUOUS
10
80.1982
20
-99.0202
11
80.0078
21
-98.9249
0
LINE
8
BLACK
6
CONTINUOUS
10
80.0078
20
-98.9249
11
79.9125
21
-98.7345
0
LINE
8
BLACK
6
CONTINUOUS
10
79.9125
20
-98.7345
11
79.9125
21
-97.9725
0
LINE
8
BLACK
6
CONTINUOUS
10
79.9125
20
-97.9725
11
80.0078
21
-97.7821
0
LINE
8
BLACK
6
CONTINUOUS
10
80.0078
20
-97.7821
11
80.1982
21
-97.6868
0
LINE
8
BLACK
6
CONTINUOUS
10
80.1982
20
-97.6868
11
80.5792
21
-97.6868
0
LINE
8
BLACK
6
CONTINUOUS
10
80.5792
20
-97.6868
11
80.7697
21
-97.7821
0
LINE
8
BLACK
6
CONTINUOUS
10
80.7697
20
-97.7821
11
80.8649
21
-97.9725
0
LINE
8
BLACK
6
CONTINUOUS
10
80.8649
20
-97.9725
11
80.8649
21
-98.163
0
LINE
8
BLACK
6
CONTINUOUS
10
80.8649
20
-98.163
11
79.9125
21
-98.3535
0
LINE
8
BLACK
6
CONTINUOUS
10
81.6268
20
-98.9249
11
81.8173
21
-99.0202
0
LINE
8
BLACK
6
CONTINUOUS
10
81.8173
20
-99.0202
11
82.1982
21
-99.0202
0
LINE
8
BLACK
6
CONTINUOUS
10
82.1982
20
-99.0202
11
82.3887
21
-98.9249
0
LINE
8
BLACK
6
CONTINUOUS
10
82.3887
20
-98.9249
11
82.484
21
-98.7345
0
LINE
8
BLACK
6
CONTINUOUS
10
82.484
20
-98.7345
11
82.484
21
-98.6392
0
LINE
8
BLACK
6
CONTINUOUS
10
82.484
20
-98.6392
11
82.3887
21
-98.4487
0
LINE
8
BLACK
6
CONTINUOUS
10
82.3887
20
-98.4487
11
82.1982
21
-98.3535
0
LINE
8
BLACK
6
CONTINUOUS
10
82.1982
20
-98.3535
11
81.9125
21
-98.3535
0
LINE
8
BLACK
6
CONTINUOUS
10
81.9125
20
-98.3535
11
81.7221
21
-98.2583
0
LINE
8
BLACK
6
CONTINUOUS
10
81.7221
20
-98.2583
11
81.6268
21
-98.0678
0
LINE
8
BLACK
6
CONTINUOUS
10
81.6268
20
-98.0678
11
81.6268
21
-97.9725
0
LINE
8
BLACK
6
CONTINUOUS
10
81.6268
20
-97.9725
11
81.7221
21
-97.7821
0
LINE
8
BLACK
6
CONTINUOUS
10
81.7221
20
-97.7821
11
81.9125
21
-97.6868
0
LINE
8
BLACK
6
CONTINUOUS
10
81.9125
20
-97.6868
11
82.1982
21
-97.6868
0
LINE
8
BLACK
6
CONTINUOUS
10
82.1982
20
-97.6868
11
82.3887
21
-97.7821
0
LINE
8
BLACK
6
CONTINUOUS
10
84.8649
20
-98.2583
11
86.3887
21
-98.2583
0
LINE
8
BLACK
6
CONTINUOUS
10
85.6268
20
-99.0202
11
85.6268
21
-97.4964
0
LINE
8
BLACK
6
CONTINUOUS
10
89.7221
20
-97.6868
11
89.7221
21
-99.0202
0
LINE
8
BLACK
6
CONTINUOUS
10
89.2459
20
-96.9249
11
88.7697
21
-98.3535
0
LINE
8
BLACK
6
CONTINUOUS
10
88.7697
20
-98.3535
11
90.0078
21
-98.3535
0
LINE
8
BLACK
6
CONTINUOUS
10
92.1983
20
-98.9249
11
92.3887
21
-99.0202
0
LINE
8
BLACK
6
CONTINUOUS
10
92.3887
20
-99.0202
11
92.7697
21
-99.0202
0
LINE
8
BLACK
6
CONTINUOUS
10
92.7697
20
-99.0202
11
92.9602
21
-98.9249
0
LINE
8
BLACK
6
CONTINUOUS
10
92.9602
20
-98.9249
11
93.0554
21
-98.7345
0
LINE
8
BLACK
6
CONTINUOUS
10
93.0554
20
-98.7345
11
93.0554
21
-98.6392
0
LINE
8
BLACK
6
CONTINUOUS
10
93.0554
20
-98.6392
11
92.9602
21
-98.4487
0
LINE
8
BLACK
6
CONTINUOUS
10
92.9602
20
-98.4487
11
92.7697
21
-98.3535
0
LINE
8
BLACK
6
CONTINUOUS
10
92.7697
20
-98.3535
11
92.484
21
-98.3535
0
LINE
8
BLACK
6
CONTINUOUS
10
92.484
20
-98.3535
11
92.2935
21
-98.2583
0
LINE
8
BLACK
6
CONTINUOUS
10
92.2935
20
-98.2583
11
92.1983
21
-98.0678
0
LINE
8
BLACK
6
CONTINUOUS
10
92.1983
20
-98.0678
11
92.1983
21
-97.9725
0
LINE
8
BLACK
6
CONTINUOUS
10
92.1983
20
-97.9725
11
92.2935
21
-97.7821
0
LINE
8
BLACK
6
CONTINUOUS
10
92.2935
20
-97.7821
11
92.484
21
-97.6868
0
LINE
8
BLACK
6
CONTINUOUS
10
92.484
20
-97.6868
11
92.7697
21
-97.6868
0
LINE
8
BLACK
6
CONTINUOUS
10
92.7697
20
-97.6868
11
92.9602
21
-97.7821
0
LINE
8
BLACK
6
CONTINUOUS
10
94.1983
20
-99.0202
11
94.0078
21
-98.9249
0
LINE
8
BLACK
6
CONTINUOUS
10
94.0078
20
-98.9249
11
93.9125
21
-98.7345
0
LINE
8
BLACK
6
CONTINUOUS
10
93.9125
20
-98.7345
11
93.9125
21
-97.0202
0
LINE
8
BLACK
6
CONTINUOUS
10
95.2459
20
-99.0202
11
95.0554
21
-98.9249
0
LINE
8
BLACK
6
CONTINUOUS
10
95.0554
20
-98.9249
11
94.9602
21
-98.8297
0
LINE
8
BLACK
6
CONTINUOUS
10
94.9602
20
-98.8297
11
94.8649
21
-98.6392
0
LINE
8
BLACK
6
CONTINUOUS
10
94.8649
20
-98.6392
11
94.8649
21
-98.0678
0
LINE
8
BLACK
6
CONTINUOUS
10
94.8649
20
-98.0678
11
94.9602
21
-97.8773
0
LINE
8
BLACK
6
CONTINUOUS
10
94.9602
20
-97.8773
11
95.0554
21
-97.7821
0
LINE
8
BLACK
6
CONTINUOUS
10
95.0554
20
-97.7821
11
95.2459
21
-97.6868
0
LINE
8
BLACK
6
CONTINUOUS
10
95.2459
20
-97.6868
11
95.5316
21
-97.6868
0
LINE
8
BLACK
6
CONTINUOUS
10
95.5316
20
-97.6868
11
95.7221
21
-97.7821
0
LINE
8
BLACK
6
CONTINUOUS
10
95.7221
20
-97.7821
11
95.8173
21
-97.8773
0
LINE
8
BLACK
6
CONTINUOUS
10
95.8173
20
-97.8773
11
95.9125
21
-98.0678
0
LINE
8
BLACK
6
CONTINUOUS
10
95.9125
20
-98.0678
11
95.9125
21
-98.6392
0
LINE
8
BLACK
6
CONTINUOUS
10
95.9125
20
-98.6392
11
95.8173
21
-98.8297
0
LINE
8
BLACK
6
CONTINUOUS
10
95.8173
20
-98.8297
11
95.7221
21
-98.9249
0
LINE
8
BLACK
6
CONTINUOUS
10
95.7221
20
-98.9249
11
95.5316
21
-99.0202
0
LINE
8
BLACK
6
CONTINUOUS
10
95.5316
20
-99.0202
11
95.2459
21
-99.0202
0
LINE
8
BLACK
6
CONTINUOUS
10
96.484
20
-97.6868
11
97.2459
21
-97.6868
0
LINE
8
BLACK
6
CONTINUOUS
10
96.7697
20
-97.0202
11
96.7697
21
-98.7345
0
LINE
8
BLACK
6
CONTINUOUS
10
96.7697
20
-98.7345
11
96.8649
21
-98.9249
0
LINE
8
BLACK
6
CONTINUOUS
10
96.8649
20
-98.9249
11
97.0554
21
-99.0202
0
LINE
8
BLACK
6
CONTINUOUS
10
97.0554
20
-99.0202
11
97.2459
21
-99.0202
0
LINE
8
BLACK
6
CONTINUOUS
10
97.8173
20
-98.9249
11
98.0078
21
-99.0202
0
LINE
8
BLACK
6
CONTINUOUS
10
98.0078
20
-99.0202
11
98.3887
21
-99.0202
0
LINE
8
BLACK
6
CONTINUOUS
10
98.3887
20
-99.0202
11
98.5792
21
-98.9249
0
LINE
8
BLACK
6
CONTINUOUS
10
98.5792
20
-98.9249
11
98.6744
21
-98.7345
0
LINE
8
BLACK
6
CONTINUOUS
10
98.6744
20
-98.7345
11
98.6744
21
-98.6392
0
LINE
8
BLACK
6
CONTINUOUS
10
98.6744
20
-98.6392
11
98.5792
21
-98.4487
0
LINE
8
BLACK
6
CONTINUOUS
10
98.5792
20
-98.4487
11
98.3887
21
-98.3535
0
LINE
8
BLACK
6
CONTINUOUS
10
98.3887
20
-98.3535
11
98.103
21
-98.3535
0
LINE
8
BLACK
6
CONTINUOUS
10
98.103
20
-98.3535
11
97.9125
21
-98.2583
0
LINE
8
BLACK
6
CONTINUOUS
10
97.9125
20
-98.2583
11
97.8173
21
-98.0678
0
LINE
8
BLACK
6
CONTINUOUS
10
97.8173
20
-98.0678
11
97.8173
21
-97.9725
0
LINE
8
BLACK
6
CONTINUOUS
10
97.8173
20
-97.9725
11
97.9125
21
-97.7821
0
LINE
8
BLACK
6
CONTINUOUS
10
97.9125
20
-97.7821
11
98.103
21
-97.6868
0
LINE
8
BLACK
6
CONTINUOUS
10
98.103
20
-97.6868
11
98.3887
21
-97.6868
0
LINE
8
BLACK
6
CONTINUOUS
10
98.3887
20
-97.6868
11
98.5792
21
-97.7821
0
LINE
8
BLACK
6
CONTINUOUS
10
99.3411
20
-99.7821
11
99.4363
21
-99.6868
0
LINE
8
BLACK
6
CONTINUOUS
10
99.4363
20
-99.6868
11
99.6268
21
-99.4011
0
LINE
8
BLACK
6
CONTINUOUS
10
99.6268
20
-99.4011
11
99.7221
21
-99.2106
0
LINE
8
BLACK
6
CONTINUOUS
10
99.7221
20
-99.2106
11
99.8173
21
-98.9249
0
LINE
8
BLACK
6
CONTINUOUS
10
99.8173
20
-98.9249
11
99.9125
21
-98.4487
0
LINE
8
BLACK
6
CONTINUOUS
10
99.9125
20
-98.4487
11
99.9125
21
-98.0678
0
LINE
8
BLACK
6
CONTINUOUS
10
99.9125
20
-98.0678
11
99.8173
21
-97.5916
0
LINE
8
BLACK
6
CONTINUOUS
10
99.8173
20
-97.5916
11
99.7221
21
-97.3059
0
LINE
8
BLACK
6
CONTINUOUS
10
99.7221
20
-97.3059
11
99.6268
21
-97.1154
0
LINE
8
BLACK
6
CONTINUOUS
10
99.6268
20
-97.1154
11
99.4363
21
-96.8297
0
LINE
8
BLACK
6
CONTINUOUS
10
99.4363
20
-96.8297
11
99.3411
21
-96.7345
0
LINE
8
BLACK
6
CONTINUOUS
10
34.9
20
-101.245
11
35.4
21
-100.745
0
LINE
8
BLACK
6
CONTINUOUS
10
35.4
20
-100.745
11
34.9
21
-100.245
0
LINE
8
BLACK
6
CONTINUOUS
10
34.9
20
-100.245
11
34.4
21
-100.745
0
LINE
8
BLACK
6
CONTINUOUS
10
34.4
20
-100.745
11
34.9
21
-101.245
0
LINE
8
BLACK
6
CONTINUOUS
10
39.0554
20
-101.66
11
37.9125
21
-101.66
0
LINE
8
BLACK
6
CONTINUOUS
10
38.484
20
-101.66
11
38.484
21
-99.6602
0
LINE
8
BLACK
6
CONTINUOUS
10
38.484
20
-99.6602
11
38.2935
21
-99.9459
0
LINE
8
BLACK
6
CONTINUOUS
10
38.2935
20
-99.9459
11
38.103
21
-100.136
0
LINE
8
BLACK
6
CONTINUOUS
10
38.103
20
-100.136
11
37.9125
21
-100.232
0
LINE
8
BLACK
6
CONTINUOUS
10
39.9125
20
-101.47
11
40.0078
21
-101.565
0
LINE
8
BLACK
6
CONTINUOUS
10
40.0078
20
-101.565
11
39.9125
21
-101.66
0
LINE
8
BLACK
6
CONTINUOUS
10
39.9125
20
-101.66
11
39.8173
21
-101.565
0
LINE
8
BLACK
6
CONTINUOUS
10
39.8173
20
-101.565
11
39.9125
21
-101.47
0
LINE
8
BLACK
6
CONTINUOUS
10
39.9125
20
-101.47
11
39.9125
21
-101.66
0
LINE
8
BLACK
6
CONTINUOUS
10
41.2459
20
-99.6602
11
41.4363
21
-99.6602
0
LINE
8
BLACK
6
CONTINUOUS
10
41.4363
20
-99.6602
11
41.6268
21
-99.7554
0
LINE
8
BLACK
6
CONTINUOUS
10
41.6268
20
-99.7554
11
41.7221
21
-99.8506
0
LINE
8
BLACK
6
CONTINUOUS
10
41.7221
20
-99.8506
11
41.8173
21
-100.041
0
LINE
8
BLACK
6
CONTINUOUS
10
41.8173
20
-100.041
11
41.9125
21
-100.422
0
LINE
8
BLACK
6
CONTINUOUS
10
41.9125
20
-100.422
11
41.9125
21
-100.898
0
LINE
8
BLACK
6
CONTINUOUS
10
41.9125
20
-100.898
11
41.8173
21
-101.279
0
LINE
8
BLACK
6
CONTINUOUS
10
41.8173
20
-101.279
11
41.7221
21
-101.47
0
LINE
8
BLACK
6
CONTINUOUS
10
41.7221
20
-101.47
11
41.6268
21
-101.565
0
LINE
8
BLACK
6
CONTINUOUS
10
41.6268
20
-101.565
11
41.4363
21
-101.66
0
LINE
8
BLACK
6
CONTINUOUS
10
41.4363
20
-101.66
11
41.2459
21
-101.66
0
LINE
8
BLACK
6
CONTINUOUS
10
41.2459
20
-101.66
11
41.0554
21
-101.565
0
LINE
8
BLACK
6
CONTINUOUS
10
41.0554
20
-101.565
11
40.9601
21
-101.47
0
LINE
8
BLACK
6
CONTINUOUS
10
40.9601
20
-101.47
11
40.8649
21
-101.279
0
LINE
8
BLACK
6
CONTINUOUS
10
40.8649
20
-101.279
11
40.7697
21
-100.898
0
LINE
8
BLACK
6
CONTINUOUS
10
40.7697
20
-100.898
11
40.7697
21
-100.422
0
LINE
8
BLACK
6
CONTINUOUS
10
40.7697
20
-100.422
11
40.8649
21
-100.041
0
LINE
8
BLACK
6
CONTINUOUS
10
40.8649
20
-100.041
11
40.9601
21
-99.8506
0
LINE
8
BLACK
6
CONTINUOUS
10
40.9601
20
-99.8506
11
41.0554
21
-99.7554
0
LINE
8
BLACK
6
CONTINUOUS
10
41.0554
20
-99.7554
11
41.2459
21
-99.6602
0
LINE
8
BLACK
6
CONTINUOUS
10
43.1506
20
-99.6602
11
43.3411
21
-99.6602
0
LINE
8
BLACK
6
CONTINUOUS
10
43.3411
20
-99.6602
11
43.5316
21
-99.7554
0
LINE
8
BLACK
6
CONTINUOUS
10
43.5316
20
-99.7554
11
43.6268
21
-99.8506
0
LINE
8
BLACK
6
CONTINUOUS
10
43.6268
20
-99.8506
11
43.7221
21
-100.041
0
LINE
8
BLACK
6
CONTINUOUS
10
43.7221
20
-100.041
11
43.8173
21
-100.422
0
LINE
8
BLACK
6
CONTINUOUS
10
43.8173
20
-100.422
11
43.8173
21
-100.898
0
LINE
8
BLACK
6
CONTINUOUS
10
43.8173
20
-100.898
11
43.7221
21
-101.279
0
LINE
8
BLACK
6
CONTINUOUS
10
43.7221
20
-101.279
11
43.6268
21
-101.47
0
LINE
8
BLACK
6
CONTINUOUS
10
43.6268
20
-101.47
11
43.5316
21
-101.565
0
LINE
8
BLACK
6
CONTINUOUS
10
43.5316
20
-101.565
11
43.3411
21
-101.66
0
LINE
8
BLACK
6
CONTINUOUS
10
43.3411
20
-101.66
11
43.1506
21
-101.66
0
LINE
8
BLACK
6
CONTINUOUS
10
43.1506
20
-101.66
11
42.9601
21
-101.565
0
LINE
8
BLACK
6
CONTINUOUS
10
42.9601
20
-101.565
11
42.8649
21
-101.47
0
LINE
8
BLACK
6
CONTINUOUS
10
42.8649
20
-101.47
11
42.7697
21
-101.279
0
LINE
8
BLACK
6
CONTINUOUS
10
42.7697
20
-101.279
11
42.6744
21
-100.898
0
LINE
8
BLACK
6
CONTINUOUS
10
42.6744
20
-100.898
11
42.6744
21
-100.422
0
LINE
8
BLACK
6
CONTINUOUS
10
42.6744
20
-100.422
11
42.7697
21
-100.041
0
LINE
8
BLACK
6
CONTINUOUS
10
42.7697
20
-100.041
11
42.8649
21
-99.8506
0
LINE
8
BLACK
6
CONTINUOUS
10
42.8649
20
-99.8506
11
42.9601
21
-99.7554
0
LINE
8
BLACK
6
CONTINUOUS
10
42.9601
20
-99.7554
11
43.1506
21
-99.6602
0
LINE
8
BLACK
6
CONTINUOUS
10
45.0554
20
-99.6602
11
45.2459
21
-99.6602
0
LINE
8
BLACK
6
CONTINUOUS
10
45.2459
20
-99.6602
11
45.4363
21
-99.7554
0
LINE
8
BLACK
6
CONTINUOUS
10
45.4363
20
-99.7554
11
45.5316
21
-99.8506
0
LINE
8
BLACK
6
CONTINUOUS
10
45.5316
20
-99.8506
11
45.6268
21
-100.041
0
LINE
8
BLACK
6
CONTINUOUS
10
45.6268
20
-100.041
11
45.7221
21
-100.422
0
LINE
8
BLACK
6
CONTINUOUS
10
45.7221
20
-100.422
11
45.7221
21
-100.898
0
LINE
8
BLACK
6
CONTINUOUS
10
45.7221
20
-100.898
11
45.6268
21
-101.279
0
LINE
8
BLACK
6
CONTINUOUS
10
45.6268
20
-101.279
11
45.5316
21
-101.47
0
LINE
8
BLACK
6
CONTINUOUS
10
45.5316
20
-101.47
11
45.4363
21
-101.565
0
LINE
8
BLACK
6
CONTINUOUS
10
45.4363
20
-101.565
11
45.2459
21
-101.66
0
LINE
8
BLACK
6
CONTINUOUS
10
45.2459
20
-101.66
11
45.0554
21
-101.66
0
LINE
8
BLACK
6
CONTINUOUS
10
45.0554
20
-101.66
11
44.8649
21
-101.565
0
LINE
8
BLACK
6
CONTINUOUS
10
44.8649
20
-101.565
11
44.7697
21
-101.47
0
LINE
8
BLACK
6
CONTINUOUS
10
44.7697
20
-101.47
11
44.6744
21
-101.279
0
LINE
8
BLACK
6
CONTINUOUS
10
44.6744
20
-101.279
11
44.5792
21
-100.898
0
LINE
8
BLACK
6
CONTINUOUS
10
44.5792
20
-100.898
11
44.5792
21
-100.422
0
LINE
8
BLACK
6
CONTINUOUS
10
44.5792
20
-100.422
11
44.6744
21
-100.041
0
LINE
8
BLACK
6
CONTINUOUS
10
44.6744
20
-100.041
11
44.7697
21
-99.8506
0
LINE
8
BLACK
6
CONTINUOUS
10
44.7697
20
-99.8506
11
44.8649
21
-99.7554
0
LINE
8
BLACK
6
CONTINUOUS
10
44.8649
20
-99.7554
11
45.0554
21
-99.6602
0
LINE
8
BLACK
6
CONTINUOUS
10
46.5792
20
-101.66
11
46.5792
21
-100.327
0
LINE
8
BLACK
6
CONTINUOUS
10
46.5792
20
-100.517
11
46.6744
21
-100.422
0
LINE
8
BLACK
6
CONTINUOUS
10
46.6744
20
-100.422
11
46.8649
21
-100.327
0
LINE
8
BLACK
6
CONTINUOUS
10
46.8649
20
-100.327
11
47.1506
21
-100.327
0
LINE
8
BLACK
6
CONTINUOUS
10
47.1506
20
-100.327
11
47.3411
21
-100.422
0
LINE
8
BLACK
6
CONTINUOUS
10
47.3411
20
-100.422
11
47.4363
21
-100.613
0
LINE
8
BLACK
6
CONTINUOUS
10
47.4363
20
-100.613
11
47.4363
21
-101.66
0
LINE
8
BLACK
6
CONTINUOUS
10
47.4363
20
-100.613
11
47.5316
21
-100.422
0
LINE
8
BLACK
6
CONTINUOUS
10
47.5316
20
-100.422
11
47.7221
21
-100.327
0
LINE
8
BLACK
6
CONTINUOUS
10
47.7221
20
-100.327
11
48.0078
21
-100.327
0
LINE
8
BLACK
6
CONTINUOUS
10
48.0078
20
-100.327
11
48.1982
21
-100.422
0
LINE
8
BLACK
6
CONTINUOUS
10
48.1982
20
-100.422
11
48.2935
21
-100.613
0
LINE
8
BLACK
6
CONTINUOUS
10
48.2935
20
-100.613
11
48.2935
21
-101.66
0
LINE
8
BLACK
6
CONTINUOUS
10
49.2459
20
-101.66
11
49.2459
21
-100.327
0
LINE
8
BLACK
6
CONTINUOUS
10
49.2459
20
-100.517
11
49.3411
21
-100.422
0
LINE
8
BLACK
6
CONTINUOUS
10
49.3411
20
-100.422
11
49.5316
21
-100.327
0
LINE
8
BLACK
6
CONTINUOUS
10
49.5316
20
-100.327
11
49.8173
21
-100.327
0
LINE
8
BLACK
6
CONTINUOUS
10
49.8173
20
-100.327
11
50.0078
21
-100.422
0
LINE
8
BLACK
6
CONTINUOUS
10
50.0078
20
-100.422
11
50.103
21
-100.613
0
LINE
8
BLACK
6
CONTINUOUS
10
50.103
20
-100.613
11
50.103
21
-101.66
0
LINE
8
BLACK
6
CONTINUOUS
10
50.103
20
-100.613
11
50.1982
21
-100.422
0
LINE
8
BLACK
6
CONTINUOUS
10
50.1982
20
-100.422
11
50.3887
21
-100.327
0
LINE
8
BLACK
6
CONTINUOUS
10
50.3887
20
-100.327
11
50.6744
21
-100.327
0
LINE
8
BLACK
6
CONTINUOUS
10
50.6744
20
-100.327
11
50.8649
21
-100.422
0
LINE
8
BLACK
6
CONTINUOUS
10
50.8649
20
-100.422
11
50.9601
21
-100.613
0
LINE
8
BLACK
6
CONTINUOUS
10
50.9601
20
-100.613
11
50.9601
21
-101.66
0
LINE
8
BLACK
6
CONTINUOUS
10
54.8649
20
-99.5649
11
53.1506
21
-102.136
0
LINE
8
BLACK
6
CONTINUOUS
10
57.4363
20
-99.6602
11
57.6268
21
-99.6602
0
LINE
8
BLACK
6
CONTINUOUS
10
57.6268
20
-99.6602
11
57.8173
21
-99.7554
0
LINE
8
BLACK
6
CONTINUOUS
10
57.8173
20
-99.7554
11
57.9125
21
-99.8506
0
LINE
8
BLACK
6
CONTINUOUS
10
57.9125
20
-99.8506
11
58.0078
21
-100.041
0
LINE
8
BLACK
6
CONTINUOUS
10
58.0078
20
-100.041
11
58.103
21
-100.422
0
LINE
8
BLACK
6
CONTINUOUS
10
58.103
20
-100.422
11
58.103
21
-100.898
0
LINE
8
BLACK
6
CONTINUOUS
10
58.103
20
-100.898
11
58.0078
21
-101.279
0
LINE
8
BLACK
6
CONTINUOUS
10
58.0078
20
-101.279
11
57.9125
21
-101.47
0
LINE
8
BLACK
6
CONTINUOUS
10
57.9125
20
-101.47
11
57.8173
21
-101.565
0
LINE
8
BLACK
6
CONTINUOUS
10
57.8173
20
-101.565
11
57.6268
21
-101.66
0
LINE
8
BLACK
6
CONTINUOUS
10
57.6268
20
-101.66
11
57.4363
21
-101.66
0
LINE
8
BLACK
6
CONTINUOUS
10
57.4363
20
-101.66
11
57.2459
21
-101.565
0
LINE
8
BLACK
6
CONTINUOUS
10
57.2459
20
-101.565
11
57.1506
21
-101.47
0
LINE
8
BLACK
6
CONTINUOUS
10
57.1506
20
-101.47
11
57.0554
21
-101.279
0
LINE
8
BLACK
6
CONTINUOUS
10
57.0554
20
-101.279
11
56.9602
21
-100.898
0
LINE
8
BLACK
6
CONTINUOUS
10
56.9602
20
-100.898
11
56.9602
21
-100.422
0
LINE
8
BLACK
6
CONTINUOUS
10
56.9602
20
-100.422
11
57.0554
21
-100.041
0
LINE
8
BLACK
6
CONTINUOUS
10
57.0554
20
-100.041
11
57.1506
21
-99.8506
0
LINE
8
BLACK
6
CONTINUOUS
10
57.1506
20
-99.8506
11
57.2459
21
-99.7554
0
LINE
8
BLACK
6
CONTINUOUS
10
57.2459
20
-99.7554
11
57.4363
21
-99.6602
0
LINE
8
BLACK
6
CONTINUOUS
10
58.9602
20
-101.47
11
59.0554
21
-101.565
0
LINE
8
BLACK
6
CONTINUOUS
10
59.0554
20
-101.565
11
58.9602
21
-101.66
0
LINE
8
BLACK
6
CONTINUOUS
10
58.9602
20
-101.66
11
58.8649
21
-101.565
0
LINE
8
BLACK
6
CONTINUOUS
10
58.8649
20
-101.565
11
58.9602
21
-101.47
0
LINE
8
BLACK
6
CONTINUOUS
10
58.9602
20
-101.47
11
58.9602
21
-101.66
0
LINE
8
BLACK
6
CONTINUOUS
10
60.2935
20
-99.6602
11
60.484
21
-99.6602
0
LINE
8
BLACK
6
CONTINUOUS
10
60.484
20
-99.6602
11
60.6744
21
-99.7554
0
LINE
8
BLACK
6
CONTINUOUS
10
60.6744
20
-99.7554
11
60.7697
21
-99.8506
0
LINE
8
BLACK
6
CONTINUOUS
10
60.7697
20
-99.8506
11
60.8649
21
-100.041
0
LINE
8
BLACK
6
CONTINUOUS
10
60.8649
20
-100.041
11
60.9602
21
-100.422
0
LINE
8
BLACK
6
CONTINUOUS
10
60.9602
20
-100.422
11
60.9602
21
-100.898
0
LINE
8
BLACK
6
CONTINUOUS
10
60.9602
20
-100.898
11
60.8649
21
-101.279
0
LINE
8
BLACK
6
CONTINUOUS
10
60.8649
20
-101.279
11
60.7697
21
-101.47
0
LINE
8
BLACK
6
CONTINUOUS
10
60.7697
20
-101.47
11
60.6744
21
-101.565
0
LINE
8
BLACK
6
CONTINUOUS
10
60.6744
20
-101.565
11
60.484
21
-101.66
0
LINE
8
BLACK
6
CONTINUOUS
10
60.484
20
-101.66
11
60.2935
21
-101.66
0
LINE
8
BLACK
6
CONTINUOUS
10
60.2935
20
-101.66
11
60.103
21
-101.565
0
LINE
8
BLACK
6
CONTINUOUS
10
60.103
20
-101.565
11
60.0078
21
-101.47
0
LINE
8
BLACK
6
CONTINUOUS
10
60.0078
20
-101.47
11
59.9125
21
-101.279
0
LINE
8
BLACK
6
CONTINUOUS
10
59.9125
20
-101.279
11
59.8173
21
-100.898
0
LINE
8
BLACK
6
CONTINUOUS
10
59.8173
20
-100.898
11
59.8173
21
-100.422
0
LINE
8
BLACK
6
CONTINUOUS
10
59.8173
20
-100.422
11
59.9125
21
-100.041
0
LINE
8
BLACK
6
CONTINUOUS
10
59.9125
20
-100.041
11
60.0078
21
-99.8506
0
LINE
8
BLACK
6
CONTINUOUS
10
60.0078
20
-99.8506
11
60.103
21
-99.7554
0
LINE
8
BLACK
6
CONTINUOUS
10
60.103
20
-99.7554
11
60.2935
21
-99.6602
0
LINE
8
BLACK
6
CONTINUOUS
10
61.6268
20
-99.6602
11
62.8649
21
-99.6602
0
LINE
8
BLACK
6
CONTINUOUS
10
62.8649
20
-99.6602
11
62.1982
21
-100.422
0
LINE
8
BLACK
6
CONTINUOUS
10
62.1982
20
-100.422
11
62.484
21
-100.422
0
LINE
8
BLACK
6
CONTINUOUS
10
62.484
20
-100.422
11
62.6744
21
-100.517
0
LINE
8
BLACK
6
CONTINUOUS
10
62.6744
20
-100.517
11
62.7697
21
-100.613
0
LINE
8
BLACK
6
CONTINUOUS
10
62.7697
20
-100.613
11
62.8649
21
-100.803
0
LINE
8
BLACK
6
CONTINUOUS
10
62.8649
20
-100.803
11
62.8649
21
-101.279
0
LINE
8
BLACK
6
CONTINUOUS
10
62.8649
20
-101.279
11
62.7697
21
-101.47
0
LINE
8
BLACK
6
CONTINUOUS
10
62.7697
20
-101.47
11
62.6744
21
-101.565
0
LINE
8
BLACK
6
CONTINUOUS
10
62.6744
20
-101.565
11
62.484
21
-101.66
0
LINE
8
BLACK
6
CONTINUOUS
10
62.484
20
-101.66
11
61.9125
21
-101.66
0
LINE
8
BLACK
6
CONTINUOUS
10
61.9125
20
-101.66
11
61.7221
21
-101.565
0
LINE
8
BLACK
6
CONTINUOUS
10
61.7221
20
-101.565
11
61.6268
21
-101.47
0
LINE
8
BLACK
6
CONTINUOUS
10
63.8173
20
-101.66
11
64.1982
21
-101.66
0
LINE
8
BLACK
6
CONTINUOUS
10
64.1982
20
-101.66
11
64.3887
21
-101.565
0
LINE
8
BLACK
6
CONTINUOUS
10
64.3887
20
-101.565
11
64.484
21
-101.47
0
LINE
8
BLACK
6
CONTINUOUS
10
64.484
20
-101.47
11
64.6744
21
-101.184
0
LINE
8
BLACK
6
CONTINUOUS
10
64.6744
20
-101.184
11
64.7697
21
-100.803
0
LINE
8
BLACK
6
CONTINUOUS
10
64.7697
20
-100.803
11
64.7697
21
-100.041
0
LINE
8
BLACK
6
CONTINUOUS
10
64.7697
20
-100.041
11
64.6744
21
-99.8506
0
LINE
8
BLACK
6
CONTINUOUS
10
64.6744
20
-99.8506
11
64.5792
21
-99.7554
0
LINE
8
BLACK
6
CONTINUOUS
10
64.5792
20
-99.7554
11
64.3887
21
-99.6602
0
LINE
8
BLACK
6
CONTINUOUS
10
64.3887
20
-99.6602
11
64.0078
21
-99.6602
0
LINE
8
BLACK
6
CONTINUOUS
10
64.0078
20
-99.6602
11
63.8173
21
-99.7554
0
LINE
8
BLACK
6
CONTINUOUS
10
63.8173
20
-99.7554
11
63.7221
21
-99.8506
0
LINE
8
BLACK
6
CONTINUOUS
10
63.7221
20
-99.8506
11
63.6268
21
-100.041
0
LINE
8
BLACK
6
CONTINUOUS
10
63.6268
20
-100.041
11
63.6268
21
-100.517
0
LINE
8
BLACK
6
CONTINUOUS
10
63.6268
20
-100.517
11
63.7221
21
-100.708
0
LINE
8
BLACK
6
CONTINUOUS
10
63.7221
20
-100.708
11
63.8173
21
-100.803
0
LINE
8
BLACK
6
CONTINUOUS
10
63.8173
20
-100.803
11
64.0078
21
-100.898
0
LINE
8
BLACK
6
CONTINUOUS
10
64.0078
20
-100.898
11
64.3887
21
-100.898
0
LINE
8
BLACK
6
CONTINUOUS
10
64.3887
20
-100.898
11
64.5792
21
-100.803
0
LINE
8
BLACK
6
CONTINUOUS
10
64.5792
20
-100.803
11
64.6744
21
-100.708
0
LINE
8
BLACK
6
CONTINUOUS
10
64.6744
20
-100.708
11
64.7697
21
-100.517
0
LINE
8
BLACK
6
CONTINUOUS
10
66.484
20
-100.327
11
66.484
21
-101.66
0
LINE
8
BLACK
6
CONTINUOUS
10
66.0078
20
-99.5649
11
65.5316
21
-100.993
0
LINE
8
BLACK
6
CONTINUOUS
10
65.5316
20
-100.993
11
66.7697
21
-100.993
0
LINE
8
BLACK
6
CONTINUOUS
10
67.4363
20
-99.6602
11
67.4363
21
-100.041
0
LINE
8
BLACK
6
CONTINUOUS
10
68.1982
20
-99.6602
11
68.1982
21
-100.041
0
LINE
8
BLACK
6
CONTINUOUS
10
71.1506
20
-102.422
11
71.0554
21
-102.327
0
LINE
8
BLACK
6
CONTINUOUS
10
71.0554
20
-102.327
11
70.8649
21
-102.041
0
LINE
8
BLACK
6
CONTINUOUS
10
70.8649
20
-102.041
11
70.7697
21
-101.851
0
LINE
8
BLACK
6
CONTINUOUS
10
70.7697
20
-101.851
11
70.6744
21
-101.565
0
LINE
8
BLACK
6
CONTINUOUS
10
70.6744
20
-101.565
11
70.5792
21
-101.089
0
LINE
8
BLACK
6
CONTINUOUS
10
70.5792
20
-101.089
11
70.5792
21
-100.708
0
LINE
8
BLACK
6
CONTINUOUS
10
70.5792
20
-100.708
11
70.6744
21
-100.232
0
LINE
8
BLACK
6
CONTINUOUS
10
70.6744
20
-100.232
11
70.7697
21
-99.9459
0
LINE
8
BLACK
6
CONTINUOUS
10
70.7697
20
-99.9459
11
70.8649
21
-99.7554
0
LINE
8
BLACK
6
CONTINUOUS
10
70.8649
20
-99.7554
11
71.0554
21
-99.4697
0
LINE
8
BLACK
6
CONTINUOUS
10
71.0554
20
-99.4697
11
71.1506
21
-99.3745
0
LINE
8
BLACK
6
CONTINUOUS
10
72.9602
20
-101.66
11
71.8173
21
-101.66
0
LINE
8
BLACK
6
CONTINUOUS
10
72.3887
20
-101.66
11
72.3887
21
-99.6602
0
LINE
8
BLACK
6
CONTINUOUS
10
72.3887
20
-99.6602
11
72.1982
21
-99.9459
0
LINE
8
BLACK
6
CONTINUOUS
10
72.1982
20
-99.9459
11
72.0078
21
-100.136
0
LINE
8
BLACK
6
CONTINUOUS
10
72.0078
20
-100.136
11
71.8173
21
-100.232
0
LINE
8
BLACK
6
CONTINUOUS
10
74.7697
20
-99.6602
11
73.8173
21
-99.6602
0
LINE
8
BLACK
6
CONTINUOUS
10
73.8173
20
-99.6602
11
73.7221
21
-100.613
0
LINE
8
BLACK
6
CONTINUOUS
10
73.7221
20
-100.613
11
73.8173
21
-100.517
0
LINE
8
BLACK
6
CONTINUOUS
10
73.8173
20
-100.517
11
74.0078
21
-100.422
0
LINE
8
BLACK
6
CONTINUOUS
10
74.0078
20
-100.422
11
74.484
21
-100.422
0
LINE
8
BLACK
6
CONTINUOUS
10
74.484
20
-100.422
11
74.6744
21
-100.517
0
LINE
8
BLACK
6
CONTINUOUS
10
74.6744
20
-100.517
11
74.7697
21
-100.613
0
LINE
8
BLACK
6
CONTINUOUS
10
74.7697
20
-100.613
11
74.8649
21
-100.803
0
LINE
8
BLACK
6
CONTINUOUS
10
74.8649
20
-100.803
11
74.8649
21
-101.279
0
LINE
8
BLACK
6
CONTINUOUS
10
74.8649
20
-101.279
11
74.7697
21
-101.47
0
LINE
8
BLACK
6
CONTINUOUS
10
74.7697
20
-101.47
11
74.6744
21
-101.565
0
LINE
8
BLACK
6
CONTINUOUS
10
74.6744
20
-101.565
11
74.484
21
-101.66
0
LINE
8
BLACK
6
CONTINUOUS
10
74.484
20
-101.66
11
74.0078
21
-101.66
0
LINE
8
BLACK
6
CONTINUOUS
10
74.0078
20
-101.66
11
73.8173
21
-101.565
0
LINE
8
BLACK
6
CONTINUOUS
10
73.8173
20
-101.565
11
73.7221
21
-101.47
0
LINE
8
BLACK
6
CONTINUOUS
10
77.2459
20
-101.66
11
77.2459
21
-99.6602
0
LINE
8
BLACK
6
CONTINUOUS
10
78.103
20
-101.66
11
78.103
21
-100.613
0
LINE
8
BLACK
6
CONTINUOUS
10
78.103
20
-100.613
11
78.0078
21
-100.422
0
LINE
8
BLACK
6
CONTINUOUS
10
78.0078
20
-100.422
11
77.8173
21
-100.327
0
LINE
8
BLACK
6
CONTINUOUS
10
77.8173
20
-100.327
11
77.5316
21
-100.327
0
LINE
8
BLACK
6
CONTINUOUS
10
77.5316
20
-100.327
11
77.3411
21
-100.422
0
LINE
8
BLACK
6
CONTINUOUS
10
77.3411
20
-100.422
11
77.2459
21
-100.517
0
LINE
8
BLACK
6
CONTINUOUS
10
79.3411
20
-101.66
11
79.1506
21
-101.565
0
LINE
8
BLACK
6
CONTINUOUS
10
79.1506
20
-101.565
11
79.0554
21
-101.47
0
LINE
8
BLACK
6
CONTINUOUS
10
79.0554
20
-101.47
11
78.9602
21
-101.279
0
LINE
8
BLACK
6
CONTINUOUS
10
78.9602
20
-101.279
11
78.9602
21
-100.708
0
LINE
8
BLACK
6
CONTINUOUS
10
78.9602
20
-100.708
11
79.0554
21
-100.517
0
LINE
8
BLACK
6
CONTINUOUS
10
79.0554
20
-100.517
11
79.1506
21
-100.422
0
LINE
8
BLACK
6
CONTINUOUS
10
79.1506
20
-100.422
11
79.3411
21
-100.327
0
LINE
8
BLACK
6
CONTINUOUS
10
79.3411
20
-100.327
11
79.6268
21
-100.327
0
LINE
8
BLACK
6
CONTINUOUS
10
79.6268
20
-100.327
11
79.8173
21
-100.422
0
LINE
8
BLACK
6
CONTINUOUS
10
79.8173
20
-100.422
11
79.9125
21
-100.517
0
LINE
8
BLACK
6
CONTINUOUS
10
79.9125
20
-100.517
11
80.0078
21
-100.708
0
LINE
8
BLACK
6
CONTINUOUS
10
80.0078
20
-100.708
11
80.0078
21
-101.279
0
LINE
8
BLACK
6
CONTINUOUS
10
80.0078
20
-101.279
11
79.9125
21
-101.47
0
LINE
8
BLACK
6
CONTINUOUS
10
79.9125
20
-101.47
11
79.8173
21
-101.565
0
LINE
8
BLACK
6
CONTINUOUS
10
79.8173
20
-101.565
11
79.6268
21
-101.66
0
LINE
8
BLACK
6
CONTINUOUS
10
79.6268
20
-101.66
11
79.3411
21
-101.66
0
LINE
8
BLACK
6
CONTINUOUS
10
81.1506
20
-101.66
11
80.9602
21
-101.565
0
LINE
8
BLACK
6
CONTINUOUS
10
80.9602
20
-101.565
11
80.8649
21
-101.374
0
LINE
8
BLACK
6
CONTINUOUS
10
80.8649
20
-101.374
11
80.8649
21
-99.6602
0
LINE
8
BLACK
6
CONTINUOUS
10
82.6744
20
-101.565
11
82.484
21
-101.66
0
LINE
8
BLACK
6
CONTINUOUS
10
82.484
20
-101.66
11
82.103
21
-101.66
0
LINE
8
BLACK
6
CONTINUOUS
10
82.103
20
-101.66
11
81.9125
21
-101.565
0
LINE
8
BLACK
6
CONTINUOUS
10
81.9125
20
-101.565
11
81.8173
21
-101.374
0
LINE
8
BLACK
6
CONTINUOUS
10
81.8173
20
-101.374
11
81.8173
21
-100.613
0
LINE
8
BLACK
6
CONTINUOUS
10
81.8173
20
-100.613
11
81.9125
21
-100.422
0
LINE
8
BLACK
6
CONTINUOUS
10
81.9125
20
-100.422
11
82.103
21
-100.327
0
LINE
8
BLACK
6
CONTINUOUS
10
82.103
20
-100.327
11
82.484
21
-100.327
0
LINE
8
BLACK
6
CONTINUOUS
10
82.484
20
-100.327
11
82.6744
21
-100.422
0
LINE
8
BLACK
6
CONTINUOUS
10
82.6744
20
-100.422
11
82.7697
21
-100.613
0
LINE
8
BLACK
6
CONTINUOUS
10
82.7697
20
-100.613
11
82.7697
21
-100.803
0
LINE
8
BLACK
6
CONTINUOUS
10
82.7697
20
-100.803
11
81.8173
21
-100.993
0
LINE
8
BLACK
6
CONTINUOUS
10
83.5316
20
-101.565
11
83.7221
21
-101.66
0
LINE
8
BLACK
6
CONTINUOUS
10
83.7221
20
-101.66
11
84.103
21
-101.66
0
LINE
8
BLACK
6
CONTINUOUS
10
84.103
20
-101.66
11
84.2935
21
-101.565
0
LINE
8
BLACK
6
CONTINUOUS
10
84.2935
20
-101.565
11
84.3887
21
-101.374
0
LINE
8
BLACK
6
CONTINUOUS
10
84.3887
20
-101.374
11
84.3887
21
-101.279
0
LINE
8
BLACK
6
CONTINUOUS
10
84.3887
20
-101.279
11
84.2935
21
-101.089
0
LINE
8
BLACK
6
CONTINUOUS
10
84.2935
20
-101.089
11
84.103
21
-100.993
0
LINE
8
BLACK
6
CONTINUOUS
10
84.103
20
-100.993
11
83.8173
21
-100.993
0
LINE
8
BLACK
6
CONTINUOUS
10
83.8173
20
-100.993
11
83.6268
21
-100.898
0
LINE
8
BLACK
6
CONTINUOUS
10
83.6268
20
-100.898
11
83.5316
21
-100.708
0
LINE
8
BLACK
6
CONTINUOUS
10
83.5316
20
-100.708
11
83.5316
21
-100.613
0
LINE
8
BLACK
6
CONTINUOUS
10
83.5316
20
-100.613
11
83.6268
21
-100.422
0
LINE
8
BLACK
6
CONTINUOUS
10
83.6268
20
-100.422
11
83.8173
21
-100.327
0
LINE
8
BLACK
6
CONTINUOUS
10
83.8173
20
-100.327
11
84.103
21
-100.327
0
LINE
8
BLACK
6
CONTINUOUS
10
84.103
20
-100.327
11
84.2935
21
-100.422
0
LINE
8
BLACK
6
CONTINUOUS
10
85.0554
20
-102.422
11
85.1506
21
-102.327
0
LINE
8
BLACK
6
CONTINUOUS
10
85.1506
20
-102.327
11
85.3411
21
-102.041
0
LINE
8
BLACK
6
CONTINUOUS
10
85.3411
20
-102.041
11
85.4363
21
-101.851
0
LINE
8
BLACK
6
CONTINUOUS
10
85.4363
20
-101.851
11
85.5316
21
-101.565
0
LINE
8
BLACK
6
CONTINUOUS
10
85.5316
20
-101.565
11
85.6268
21
-101.089
0
LINE
8
BLACK
6
CONTINUOUS
10
85.6268
20
-101.089
11
85.6268
21
-100.708
0
LINE
8
BLACK
6
CONTINUOUS
10
85.6268
20
-100.708
11
85.5316
21
-100.232
0
LINE
8
BLACK
6
CONTINUOUS
10
85.5316
20
-100.232
11
85.4363
21
-99.9459
0
LINE
8
BLACK
6
CONTINUOUS
10
85.4363
20
-99.9459
11
85.3411
21
-99.7554
0
LINE
8
BLACK
6
CONTINUOUS
10
85.3411
20
-99.7554
11
85.1506
21
-99.4697
0
LINE
8
BLACK
6
CONTINUOUS
10
85.1506
20
-99.4697
11
85.0554
21
-99.3745
0
LINE
8
BLACK
6
CONTINUOUS
10
33.4
20
-102.385
11
35.4
21
-104.385
0
LINE
8
BLACK
6
CONTINUOUS
10
35.4
20
-102.385
11
33.4
21
-104.385
0
CIRCLE
8
BLACK
10
34.4
20
-103.385
40
1
0
LINE
8
BLACK
6
CONTINUOUS
10
37.9125
20
-102.491
11
38.0078
21
-102.395
0
LINE
8
BLACK
6
CONTINUOUS
10
38.0078
20
-102.395
11
38.1982
21
-102.3
0
LINE
8
BLACK
6
CONTINUOUS
10
38.1982
20
-102.3
11
38.6744
21
-102.3
0
LINE
8
BLACK
6
CONTINUOUS
10
38.6744
20
-102.3
11
38.8649
21
-102.395
0
LINE
8
BLACK
6
CONTINUOUS
10
38.8649
20
-102.395
11
38.9601
21
-102.491
0
LINE
8
BLACK
6
CONTINUOUS
10
38.9601
20
-102.491
11
39.0554
21
-102.681
0
LINE
8
BLACK
6
CONTINUOUS
10
39.0554
20
-102.681
11
39.0554
21
-102.872
0
LINE
8
BLACK
6
CONTINUOUS
10
39.0554
20
-102.872
11
38.9601
21
-103.157
0
LINE
8
BLACK
6
CONTINUOUS
10
38.9601
20
-103.157
11
37.8173
21
-104.3
0
LINE
8
BLACK
6
CONTINUOUS
10
37.8173
20
-104.3
11
39.0554
21
-104.3
0
LINE
8
BLACK
6
CONTINUOUS
10
39.9125
20
-104.11
11
40.0078
21
-104.205
0
LINE
8
BLACK
6
CONTINUOUS
10
40.0078
20
-104.205
11
39.9125
21
-104.3
0
LINE
8
BLACK
6
CONTINUOUS
10
39.9125
20
-104.3
11
39.8173
21
-104.205
0
LINE
8
BLACK
6
CONTINUOUS
10
39.8173
20
-104.205
11
39.9125
21
-104.11
0
LINE
8
BLACK
6
CONTINUOUS
10
39.9125
20
-104.11
11
39.9125
21
-104.3
0
LINE
8
BLACK
6
CONTINUOUS
10
40.7697
20
-102.491
11
40.8649
21
-102.395
0
LINE
8
BLACK
6
CONTINUOUS
10
40.8649
20
-102.395
11
41.0554
21
-102.3
0
LINE
8
BLACK
6
CONTINUOUS
10
41.0554
20
-102.3
11
41.5316
21
-102.3
0
LINE
8
BLACK
6
CONTINUOUS
10
41.5316
20
-102.3
11
41.7221
21
-102.395
0
LINE
8
BLACK
6
CONTINUOUS
10
41.7221
20
-102.395
11
41.8173
21
-102.491
0
LINE
8
BLACK
6
CONTINUOUS
10
41.8173
20
-102.491
11
41.9125
21
-102.681
0
LINE
8
BLACK
6
CONTINUOUS
10
41.9125
20
-102.681
11
41.9125
21
-102.872
0
LINE
8
BLACK
6
CONTINUOUS
10
41.9125
20
-102.872
11
41.8173
21
-103.157
0
LINE
8
BLACK
6
CONTINUOUS
10
41.8173
20
-103.157
11
40.6744
21
-104.3
0
LINE
8
BLACK
6
CONTINUOUS
10
40.6744
20
-104.3
11
41.9125
21
-104.3
0
LINE
8
BLACK
6
CONTINUOUS
10
43.1506
20
-102.3
11
43.3411
21
-102.3
0
LINE
8
BLACK
6
CONTINUOUS
10
43.3411
20
-102.3
11
43.5316
21
-102.395
0
LINE
8
BLACK
6
CONTINUOUS
10
43.5316
20
-102.395
11
43.6268
21
-102.491
0
LINE
8
BLACK
6
CONTINUOUS
10
43.6268
20
-102.491
11
43.7221
21
-102.681
0
LINE
8
BLACK
6
CONTINUOUS
10
43.7221
20
-102.681
11
43.8173
21
-103.062
0
LINE
8
BLACK
6
CONTINUOUS
10
43.8173
20
-103.062
11
43.8173
21
-103.538
0
LINE
8
BLACK
6
CONTINUOUS
10
43.8173
20
-103.538
11
43.7221
21
-103.919
0
LINE
8
BLACK
6
CONTINUOUS
10
43.7221
20
-103.919
11
43.6268
21
-104.11
0
LINE
8
BLACK
6
CONTINUOUS
10
43.6268
20
-104.11
11
43.5316
21
-104.205
0
LINE
8
BLACK
6
CONTINUOUS
10
43.5316
20
-104.205
11
43.3411
21
-104.3
0
LINE
8
BLACK
6
CONTINUOUS
10
43.3411
20
-104.3
11
43.1506
21
-104.3
0
LINE
8
BLACK
6
CONTINUOUS
10
43.1506
20
-104.3
11
42.9601
21
-104.205
0
LINE
8
BLACK
6
CONTINUOUS
10
42.9601
20
-104.205
11
42.8649
21
-104.11
0
LINE
8
BLACK
6
CONTINUOUS
10
42.8649
20
-104.11
11
42.7697
21
-103.919
0
LINE
8
BLACK
6
CONTINUOUS
10
42.7697
20
-103.919
11
42.6744
21
-103.538
0
LINE
8
BLACK
6
CONTINUOUS
10
42.6744
20
-103.538
11
42.6744
21
-103.062
0
LINE
8
BLACK
6
CONTINUOUS
10
42.6744
20
-103.062
11
42.7697
21
-102.681
0
LINE
8
BLACK
6
CONTINUOUS
10
42.7697
20
-102.681
11
42.8649
21
-102.491
0
LINE
8
BLACK
6
CONTINUOUS
10
42.8649
20
-102.491
11
42.9601
21
-102.395
0
LINE
8
BLACK
6
CONTINUOUS
10
42.9601
20
-102.395
11
43.1506
21
-102.3
0
LINE
8
BLACK
6
CONTINUOUS
10
45.0554
20
-102.3
11
45.2459
21
-102.3
0
LINE
8
BLACK
6
CONTINUOUS
10
45.2459
20
-102.3
11
45.4363
21
-102.395
0
LINE
8
BLACK
6
CONTINUOUS
10
45.4363
20
-102.395
11
45.5316
21
-102.491
0
LINE
8
BLACK
6
CONTINUOUS
10
45.5316
20
-102.491
11
45.6268
21
-102.681
0
LINE
8
BLACK
6
CONTINUOUS
10
45.6268
20
-102.681
11
45.7221
21
-103.062
0
LINE
8
BLACK
6
CONTINUOUS
10
45.7221
20
-103.062
11
45.7221
21
-103.538
0
LINE
8
BLACK
6
CONTINUOUS
10
45.7221
20
-103.538
11
45.6268
21
-103.919
0
LINE
8
BLACK
6
CONTINUOUS
10
45.6268
20
-103.919
11
45.5316
21
-104.11
0
LINE
8
BLACK
6
CONTINUOUS
10
45.5316
20
-104.11
11
45.4363
21
-104.205
0
LINE
8
BLACK
6
CONTINUOUS
10
45.4363
20
-104.205
11
45.2459
21
-104.3
0
LINE
8
BLACK
6
CONTINUOUS
10
45.2459
20
-104.3
11
45.0554
21
-104.3
0
LINE
8
BLACK
6
CONTINUOUS
10
45.0554
20
-104.3
11
44.8649
21
-104.205
0
LINE
8
BLACK
6
CONTINUOUS
10
44.8649
20
-104.205
11
44.7697
21
-104.11
0
LINE
8
BLACK
6
CONTINUOUS
10
44.7697
20
-104.11
11
44.6744
21
-103.919
0
LINE
8
BLACK
6
CONTINUOUS
10
44.6744
20
-103.919
11
44.5792
21
-103.538
0
LINE
8
BLACK
6
CONTINUOUS
10
44.5792
20
-103.538
11
44.5792
21
-103.062
0
LINE
8
BLACK
6
CONTINUOUS
10
44.5792
20
-103.062
11
44.6744
21
-102.681
0
LINE
8
BLACK
6
CONTINUOUS
10
44.6744
20
-102.681
11
44.7697
21
-102.491
0
LINE
8
BLACK
6
CONTINUOUS
10
44.7697
20
-102.491
11
44.8649
21
-102.395
0
LINE
8
BLACK
6
CONTINUOUS
10
44.8649
20
-102.395
11
45.0554
21
-102.3
0
LINE
8
BLACK
6
CONTINUOUS
10
46.5792
20
-104.3
11
46.5792
21
-102.967
0
LINE
8
BLACK
6
CONTINUOUS
10
46.5792
20
-103.157
11
46.6744
21
-103.062
0
LINE
8
BLACK
6
CONTINUOUS
10
46.6744
20
-103.062
11
46.8649
21
-102.967
0
LINE
8
BLACK
6
CONTINUOUS
10
46.8649
20
-102.967
11
47.1506
21
-102.967
0
LINE
8
BLACK
6
CONTINUOUS
10
47.1506
20
-102.967
11
47.3411
21
-103.062
0
LINE
8
BLACK
6
CONTINUOUS
10
47.3411
20
-103.062
11
47.4363
21
-103.253
0
LINE
8
BLACK
6
CONTINUOUS
10
47.4363
20
-103.253
11
47.4363
21
-104.3
0
LINE
8
BLACK
6
CONTINUOUS
10
47.4363
20
-103.253
11
47.5316
21
-103.062
0
LINE
8
BLACK
6
CONTINUOUS
10
47.5316
20
-103.062
11
47.7221
21
-102.967
0
LINE
8
BLACK
6
CONTINUOUS
10
47.7221
20
-102.967
11
48.0078
21
-102.967
0
LINE
8
BLACK
6
CONTINUOUS
10
48.0078
20
-102.967
11
48.1982
21
-103.062
0
LINE
8
BLACK
6
CONTINUOUS
10
48.1982
20
-103.062
11
48.2935
21
-103.253
0
LINE
8
BLACK
6
CONTINUOUS
10
48.2935
20
-103.253
11
48.2935
21
-104.3
0
LINE
8
BLACK
6
CONTINUOUS
10
49.2459
20
-104.3
11
49.2459
21
-102.967
0
LINE
8
BLACK
6
CONTINUOUS
10
49.2459
20
-103.157
11
49.3411
21
-103.062
0
LINE
8
BLACK
6
CONTINUOUS
10
49.3411
20
-103.062
11
49.5316
21
-102.967
0
LINE
8
BLACK
6
CONTINUOUS
10
49.5316
20
-102.967
11
49.8173
21
-102.967
0
LINE
8
BLACK
6
CONTINUOUS
10
49.8173
20
-102.967
11
50.0078
21
-103.062
0
LINE
8
BLACK
6
CONTINUOUS
10
50.0078
20
-103.062
11
50.103
21
-103.253
0
LINE
8
BLACK
6
CONTINUOUS
10
50.103
20
-103.253
11
50.103
21
-104.3
0
LINE
8
BLACK
6
CONTINUOUS
10
50.103
20
-103.253
11
50.1982
21
-103.062
0
LINE
8
BLACK
6
CONTINUOUS
10
50.1982
20
-103.062
11
50.3887
21
-102.967
0
LINE
8
BLACK
6
CONTINUOUS
10
50.3887
20
-102.967
11
50.6744
21
-102.967
0
LINE
8
BLACK
6
CONTINUOUS
10
50.6744
20
-102.967
11
50.8649
21
-103.062
0
LINE
8
BLACK
6
CONTINUOUS
10
50.8649
20
-103.062
11
50.9601
21
-103.253
0
LINE
8
BLACK
6
CONTINUOUS
10
50.9601
20
-103.253
11
50.9601
21
-104.3
0
LINE
8
BLACK
6
CONTINUOUS
10
54.8649
20
-102.205
11
53.1506
21
-104.776
0
LINE
8
BLACK
6
CONTINUOUS
10
57.4363
20
-102.3
11
57.6268
21
-102.3
0
LINE
8
BLACK
6
CONTINUOUS
10
57.6268
20
-102.3
11
57.8173
21
-102.395
0
LINE
8
BLACK
6
CONTINUOUS
10
57.8173
20
-102.395
11
57.9125
21
-102.491
0
LINE
8
BLACK
6
CONTINUOUS
10
57.9125
20
-102.491
11
58.0078
21
-102.681
0
LINE
8
BLACK
6
CONTINUOUS
10
58.0078
20
-102.681
11
58.103
21
-103.062
0
LINE
8
BLACK
6
CONTINUOUS
10
58.103
20
-103.062
11
58.103
21
-103.538
0
LINE
8
BLACK
6
CONTINUOUS
10
58.103
20
-103.538
11
58.0078
21
-103.919
0
LINE
8
BLACK
6
CONTINUOUS
10
58.0078
20
-103.919
11
57.9125
21
-104.11
0
LINE
8
BLACK
6
CONTINUOUS
10
57.9125
20
-104.11
11
57.8173
21
-104.205
0
LINE
8
BLACK
6
CONTINUOUS
10
57.8173
20
-104.205
11
57.6268
21
-104.3
0
LINE
8
BLACK
6
CONTINUOUS
10
57.6268
20
-104.3
11
57.4363
21
-104.3
0
LINE
8
BLACK
6
CONTINUOUS
10
57.4363
20
-104.3
11
57.2459
21
-104.205
0
LINE
8
BLACK
6
CONTINUOUS
10
57.2459
20
-104.205
11
57.1506
21
-104.11
0
LINE
8
BLACK
6
CONTINUOUS
10
57.1506
20
-104.11
11
57.0554
21
-103.919
0
LINE
8
BLACK
6
CONTINUOUS
10
57.0554
20
-103.919
11
56.9602
21
-103.538
0
LINE
8
BLACK
6
CONTINUOUS
10
56.9602
20
-103.538
11
56.9602
21
-103.062
0
LINE
8
BLACK
6
CONTINUOUS
10
56.9602
20
-103.062
11
57.0554
21
-102.681
0
LINE
8
BLACK
6
CONTINUOUS
10
57.0554
20
-102.681
11
57.1506
21
-102.491
0
LINE
8
BLACK
6
CONTINUOUS
10
57.1506
20
-102.491
11
57.2459
21
-102.395
0
LINE
8
BLACK
6
CONTINUOUS
10
57.2459
20
-102.395
11
57.4363
21
-102.3
0
LINE
8
BLACK
6
CONTINUOUS
10
58.9602
20
-104.11
11
59.0554
21
-104.205
0
LINE
8
BLACK
6
CONTINUOUS
10
59.0554
20
-104.205
11
58.9602
21
-104.3
0
LINE
8
BLACK
6
CONTINUOUS
10
58.9602
20
-104.3
11
58.8649
21
-104.205
0
LINE
8
BLACK
6
CONTINUOUS
10
58.8649
20
-104.205
11
58.9602
21
-104.11
0
LINE
8
BLACK
6
CONTINUOUS
10
58.9602
20
-104.11
11
58.9602
21
-104.3
0
LINE
8
BLACK
6
CONTINUOUS
10
60.2935
20
-102.3
11
60.484
21
-102.3
0
LINE
8
BLACK
6
CONTINUOUS
10
60.484
20
-102.3
11
60.6744
21
-102.395
0
LINE
8
BLACK
6
CONTINUOUS
10
60.6744
20
-102.395
11
60.7697
21
-102.491
0
LINE
8
BLACK
6
CONTINUOUS
10
60.7697
20
-102.491
11
60.8649
21
-102.681
0
LINE
8
BLACK
6
CONTINUOUS
10
60.8649
20
-102.681
11
60.9602
21
-103.062
0
LINE
8
BLACK
6
CONTINUOUS
10
60.9602
20
-103.062
11
60.9602
21
-103.538
0
LINE
8
BLACK
6
CONTINUOUS
10
60.9602
20
-103.538
11
60.8649
21
-103.919
0
LINE
8
BLACK
6
CONTINUOUS
10
60.8649
20
-103.919
11
60.7697
21
-104.11
0
LINE
8
BLACK
6
CONTINUOUS
10
60.7697
20
-104.11
11
60.6744
21
-104.205
0
LINE
8
BLACK
6
CONTINUOUS
10
60.6744
20
-104.205
11
60.484
21
-104.3
0
LINE
8
BLACK
6
CONTINUOUS
10
60.484
20
-104.3
11
60.2935
21
-104.3
0
LINE
8
BLACK
6
CONTINUOUS
10
60.2935
20
-104.3
11
60.103
21
-104.205
0
LINE
8
BLACK
6
CONTINUOUS
10
60.103
20
-104.205
11
60.0078
21
-104.11
0
LINE
8
BLACK
6
CONTINUOUS
10
60.0078
20
-104.11
11
59.9125
21
-103.919
0
LINE
8
BLACK
6
CONTINUOUS
10
59.9125
20
-103.919
11
59.8173
21
-103.538
0
LINE
8
BLACK
6
CONTINUOUS
10
59.8173
20
-103.538
11
59.8173
21
-103.062
0
LINE
8
BLACK
6
CONTINUOUS
10
59.8173
20
-103.062
11
59.9125
21
-102.681
0
LINE
8
BLACK
6
CONTINUOUS
10
59.9125
20
-102.681
11
60.0078
21
-102.491
0
LINE
8
BLACK
6
CONTINUOUS
10
60.0078
20
-102.491
11
60.103
21
-102.395
0
LINE
8
BLACK
6
CONTINUOUS
10
60.103
20
-102.395
11
60.2935
21
-102.3
0
LINE
8
BLACK
6
CONTINUOUS
10
62.103
20
-103.157
11
61.9125
21
-103.062
0
LINE
8
BLACK
6
CONTINUOUS
10
61.9125
20
-103.062
11
61.8173
21
-102.967
0
LINE
8
BLACK
6
CONTINUOUS
10
61.8173
20
-102.967
11
61.7221
21
-102.776
0
LINE
8
BLACK
6
CONTINUOUS
10
61.7221
20
-102.776
11
61.7221
21
-102.681
0
LINE
8
BLACK
6
CONTINUOUS
10
61.7221
20
-102.681
11
61.8173
21
-102.491
0
LINE
8
BLACK
6
CONTINUOUS
10
61.8173
20
-102.491
11
61.9125
21
-102.395
0
LINE
8
BLACK
6
CONTINUOUS
10
61.9125
20
-102.395
11
62.103
21
-102.3
0
LINE
8
BLACK
6
CONTINUOUS
10
62.103
20
-102.3
11
62.484
21
-102.3
0
LINE
8
BLACK
6
CONTINUOUS
10
62.484
20
-102.3
11
62.6744
21
-102.395
0
LINE
8
BLACK
6
CONTINUOUS
10
62.6744
20
-102.395
11
62.7697
21
-102.491
0
LINE
8
BLACK
6
CONTINUOUS
10
62.7697
20
-102.491
11
62.8649
21
-102.681
0
LINE
8
BLACK
6
CONTINUOUS
10
62.8649
20
-102.681
11
62.8649
21
-102.776
0
LINE
8
BLACK
6
CONTINUOUS
10
62.8649
20
-102.776
11
62.7697
21
-102.967
0
LINE
8
BLACK
6
CONTINUOUS
10
62.7697
20
-102.967
11
62.6744
21
-103.062
0
LINE
8
BLACK
6
CONTINUOUS
10
62.6744
20
-103.062
11
62.484
21
-103.157
0
LINE
8
BLACK
6
CONTINUOUS
10
62.484
20
-103.157
11
62.103
21
-103.157
0
LINE
8
BLACK
6
CONTINUOUS
10
62.103
20
-103.157
11
61.9125
21
-103.253
0
LINE
8
BLACK
6
CONTINUOUS
10
61.9125
20
-103.253
11
61.8173
21
-103.348
0
LINE
8
BLACK
6
CONTINUOUS
10
61.8173
20
-103.348
11
61.7221
21
-103.538
0
LINE
8
BLACK
6
CONTINUOUS
10
61.7221
20
-103.538
11
61.7221
21
-103.919
0
LINE
8
BLACK
6
CONTINUOUS
10
61.7221
20
-103.919
11
61.8173
21
-104.11
0
LINE
8
BLACK
6
CONTINUOUS
10
61.8173
20
-104.11
11
61.9125
21
-104.205
0
LINE
8
BLACK
6
CONTINUOUS
10
61.9125
20
-104.205
11
62.103
21
-104.3
0
LINE
8
BLACK
6
CONTINUOUS
10
62.103
20
-104.3
11
62.484
21
-104.3
0
LINE
8
BLACK
6
CONTINUOUS
10
62.484
20
-104.3
11
62.6744
21
-104.205
0
LINE
8
BLACK
6
CONTINUOUS
10
62.6744
20
-104.205
11
62.7697
21
-104.11
0
LINE
8
BLACK
6
CONTINUOUS
10
62.7697
20
-104.11
11
62.8649
21
-103.919
0
LINE
8
BLACK
6
CONTINUOUS
10
62.8649
20
-103.919
11
62.8649
21
-103.538
0
LINE
8
BLACK
6
CONTINUOUS
10
62.8649
20
-103.538
11
62.7697
21
-103.348
0
LINE
8
BLACK
6
CONTINUOUS
10
62.7697
20
-103.348
11
62.6744
21
-103.253
0
LINE
8
BLACK
6
CONTINUOUS
10
62.6744
20
-103.253
11
62.484
21
-103.157
0
LINE
8
BLACK
6
CONTINUOUS
10
64.5792
20
-102.3
11
64.1982
21
-102.3
0
LINE
8
BLACK
6
CONTINUOUS
10
64.1982
20
-102.3
11
64.0078
21
-102.395
0
LINE
8
BLACK
6
CONTINUOUS
10
64.0078
20
-102.395
11
63.9125
21
-102.491
0
LINE
8
BLACK
6
CONTINUOUS
10
63.9125
20
-102.491
11
63.7221
21
-102.776
0
LINE
8
BLACK
6
CONTINUOUS
10
63.7221
20
-102.776
11
63.6268
21
-103.157
0
LINE
8
BLACK
6
CONTINUOUS
10
63.6268
20
-103.157
11
63.6268
21
-103.919
0
LINE
8
BLACK
6
CONTINUOUS
10
63.6268
20
-103.919
11
63.7221
21
-104.11
0
LINE
8
BLACK
6
CONTINUOUS
10
63.7221
20
-104.11
11
63.8173
21
-104.205
0
LINE
8
BLACK
6
CONTINUOUS
10
63.8173
20
-104.205
11
64.0078
21
-104.3
0
LINE
8
BLACK
6
CONTINUOUS
10
64.0078
20
-104.3
11
64.3887
21
-104.3
0
LINE
8
BLACK
6
CONTINUOUS
10
64.3887
20
-104.3
11
64.5792
21
-104.205
0
LINE
8
BLACK
6
CONTINUOUS
10
64.5792
20
-104.205
11
64.6744
21
-104.11
0
LINE
8
BLACK
6
CONTINUOUS
10
64.6744
20
-104.11
11
64.7697
21
-103.919
0
LINE
8
BLACK
6
CONTINUOUS
10
64.7697
20
-103.919
11
64.7697
21
-103.443
0
LINE
8
BLACK
6
CONTINUOUS
10
64.7697
20
-103.443
11
64.6744
21
-103.253
0
LINE
8
BLACK
6
CONTINUOUS
10
64.6744
20
-103.253
11
64.5792
21
-103.157
0
LINE
8
BLACK
6
CONTINUOUS
10
64.5792
20
-103.157
11
64.3887
21
-103.062
0
LINE
8
BLACK
6
CONTINUOUS
10
64.3887
20
-103.062
11
64.0078
21
-103.062
0
LINE
8
BLACK
6
CONTINUOUS
10
64.0078
20
-103.062
11
63.8173
21
-103.157
0
LINE
8
BLACK
6
CONTINUOUS
10
63.8173
20
-103.157
11
63.7221
21
-103.253
0
LINE
8
BLACK
6
CONTINUOUS
10
63.7221
20
-103.253
11
63.6268
21
-103.443
0
LINE
8
BLACK
6
CONTINUOUS
10
66.484
20
-102.3
11
66.103
21
-102.3
0
LINE
8
BLACK
6
CONTINUOUS
10
66.103
20
-102.3
11
65.9125
21
-102.395
0
LINE
8
BLACK
6
CONTINUOUS
10
65.9125
20
-102.395
11
65.8173
21
-102.491
0
LINE
8
BLACK
6
CONTINUOUS
10
65.8173
20
-102.491
11
65.6268
21
-102.776
0
LINE
8
BLACK
6
CONTINUOUS
10
65.6268
20
-102.776
11
65.5316
21
-103.157
0
LINE
8
BLACK
6
CONTINUOUS
10
65.5316
20
-103.157
11
65.5316
21
-103.919
0
LINE
8
BLACK
6
CONTINUOUS
10
65.5316
20
-103.919
11
65.6268
21
-104.11
0
LINE
8
BLACK
6
CONTINUOUS
10
65.6268
20
-104.11
11
65.7221
21
-104.205
0
LINE
8
BLACK
6
CONTINUOUS
10
65.7221
20
-104.205
11
65.9125
21
-104.3
0
LINE
8
BLACK
6
CONTINUOUS
10
65.9125
20
-104.3
11
66.2935
21
-104.3
0
LINE
8
BLACK
6
CONTINUOUS
10
66.2935
20
-104.3
11
66.484
21
-104.205
0
LINE
8
BLACK
6
CONTINUOUS
10
66.484
20
-104.205
11
66.5792
21
-104.11
0
LINE
8
BLACK
6
CONTINUOUS
10
66.5792
20
-104.11
11
66.6744
21
-103.919
0
LINE
8
BLACK
6
CONTINUOUS
10
66.6744
20
-103.919
11
66.6744
21
-103.443
0
LINE
8
BLACK
6
CONTINUOUS
10
66.6744
20
-103.443
11
66.5792
21
-103.253
0
LINE
8
BLACK
6
CONTINUOUS
10
66.5792
20
-103.253
11
66.484
21
-103.157
0
LINE
8
BLACK
6
CONTINUOUS
10
66.484
20
-103.157
11
66.2935
21
-103.062
0
LINE
8
BLACK
6
CONTINUOUS
10
66.2935
20
-103.062
11
65.9125
21
-103.062
0
LINE
8
BLACK
6
CONTINUOUS
10
65.9125
20
-103.062
11
65.7221
21
-103.157
0
LINE
8
BLACK
6
CONTINUOUS
10
65.7221
20
-103.157
11
65.6268
21
-103.253
0
LINE
8
BLACK
6
CONTINUOUS
10
65.6268
20
-103.253
11
65.5316
21
-103.443
0
LINE
8
BLACK
6
CONTINUOUS
10
67.4363
20
-102.3
11
67.4363
21
-102.681
0
LINE
8
BLACK
6
CONTINUOUS
10
68.1982
20
-102.3
11
68.1982
21
-102.681
0
LINE
8
BLACK
6
CONTINUOUS
10
71.1506
20
-105.062
11
71.0554
21
-104.967
0
LINE
8
BLACK
6
CONTINUOUS
10
71.0554
20
-104.967
11
70.8649
21
-104.681
0
LINE
8
BLACK
6
CONTINUOUS
10
70.8649
20
-104.681
11
70.7697
21
-104.491
0
LINE
8
BLACK
6
CONTINUOUS
10
70.7697
20
-104.491
11
70.6744
21
-104.205
0
LINE
8
BLACK
6
CONTINUOUS
10
70.6744
20
-104.205
11
70.5792
21
-103.729
0
LINE
8
BLACK
6
CONTINUOUS
10
70.5792
20
-103.729
11
70.5792
21
-103.348
0
LINE
8
BLACK
6
CONTINUOUS
10
70.5792
20
-103.348
11
70.6744
21
-102.872
0
LINE
8
BLACK
6
CONTINUOUS
10
70.6744
20
-102.872
11
70.7697
21
-102.586
0
LINE
8
BLACK
6
CONTINUOUS
10
70.7697
20
-102.586
11
70.8649
21
-102.395
0
LINE
8
BLACK
6
CONTINUOUS
10
70.8649
20
-102.395
11
71.0554
21
-102.11
0
LINE
8
BLACK
6
CONTINUOUS
10
71.0554
20
-102.11
11
71.1506
21
-102.014
0
LINE
8
BLACK
6
CONTINUOUS
10
72.7697
20
-102.967
11
72.7697
21
-104.3
0
LINE
8
BLACK
6
CONTINUOUS
10
72.2935
20
-102.205
11
71.8173
21
-103.633
0
LINE
8
BLACK
6
CONTINUOUS
10
71.8173
20
-103.633
11
73.0554
21
-103.633
0
LINE
8
BLACK
6
CONTINUOUS
10
75.3411
20
-104.3
11
75.3411
21
-102.3
0
LINE
8
BLACK
6
CONTINUOUS
10
76.1982
20
-104.3
11
76.1982
21
-103.253
0
LINE
8
BLACK
6
CONTINUOUS
10
76.1982
20
-103.253
11
76.103
21
-103.062
0
LINE
8
BLACK
6
CONTINUOUS
10
76.103
20
-103.062
11
75.9125
21
-102.967
0
LINE
8
BLACK
6
CONTINUOUS
10
75.9125
20
-102.967
11
75.6268
21
-102.967
0
LINE
8
BLACK
6
CONTINUOUS
10
75.6268
20
-102.967
11
75.4363
21
-103.062
0
LINE
8
BLACK
6
CONTINUOUS
10
75.4363
20
-103.062
11
75.3411
21
-103.157
0
LINE
8
BLACK
6
CONTINUOUS
10
77.4363
20
-104.3
11
77.2459
21
-104.205
0
LINE
8
BLACK
6
CONTINUOUS
10
77.2459
20
-104.205
11
77.1506
21
-104.11
0
LINE
8
BLACK
6
CONTINUOUS
10
77.1506
20
-104.11
11
77.0554
21
-103.919
0
LINE
8
BLACK
6
CONTINUOUS
10
77.0554
20
-103.919
11
77.0554
21
-103.348
0
LINE
8
BLACK
6
CONTINUOUS
10
77.0554
20
-103.348
11
77.1506
21
-103.157
0
LINE
8
BLACK
6
CONTINUOUS
10
77.1506
20
-103.157
11
77.2459
21
-103.062
0
LINE
8
BLACK
6
CONTINUOUS
10
77.2459
20
-103.062
11
77.4363
21
-102.967
0
LINE
8
BLACK
6
CONTINUOUS
10
77.4363
20
-102.967
11
77.7221
21
-102.967
0
LINE
8
BLACK
6
CONTINUOUS
10
77.7221
20
-102.967
11
77.9125
21
-103.062
0
LINE
8
BLACK
6
CONTINUOUS
10
77.9125
20
-103.062
11
78.0078
21
-103.157
0
LINE
8
BLACK
6
CONTINUOUS
10
78.0078
20
-103.157
11
78.103
21
-103.348
0
LINE
8
BLACK
6
CONTINUOUS
10
78.103
20
-103.348
11
78.103
21
-103.919
0
LINE
8
BLACK
6
CONTINUOUS
10
78.103
20
-103.919
11
78.0078
21
-104.11
0
LINE
8
BLACK
6
CONTINUOUS
10
78.0078
20
-104.11
11
77.9125
21
-104.205
0
LINE
8
BLACK
6
CONTINUOUS
10
77.9125
20
-104.205
11
77.7221
21
-104.3
0
LINE
8
BLACK
6
CONTINUOUS
10
77.7221
20
-104.3
11
77.4363
21
-104.3
0
LINE
8
BLACK
6
CONTINUOUS
10
79.2459
20
-104.3
11
79.0554
21
-104.205
0
LINE
8
BLACK
6
CONTINUOUS
10
79.0554
20
-104.205
11
78.9602
21
-104.014
0
LINE
8
BLACK
6
CONTINUOUS
10
78.9602
20
-104.014
11
78.9602
21
-102.3
0
LINE
8
BLACK
6
CONTINUOUS
10
80.7697
20
-104.205
11
80.5792
21
-104.3
0
LINE
8
BLACK
6
CONTINUOUS
10
80.5792
20
-104.3
11
80.1982
21
-104.3
0
LINE
8
BLACK
6
CONTINUOUS
10
80.1982
20
-104.3
11
80.0078
21
-104.205
0
LINE
8
BLACK
6
CONTINUOUS
10
80.0078
20
-104.205
11
79.9125
21
-104.014
0
LINE
8
BLACK
6
CONTINUOUS
10
79.9125
20
-104.014
11
79.9125
21
-103.253
0
LINE
8
BLACK
6
CONTINUOUS
10
79.9125
20
-103.253
11
80.0078
21
-103.062
0
LINE
8
BLACK
6
CONTINUOUS
10
80.0078
20
-103.062
11
80.1982
21
-102.967
0
LINE
8
BLACK
6
CONTINUOUS
10
80.1982
20
-102.967
11
80.5792
21
-102.967
0
LINE
8
BLACK
6
CONTINUOUS
10
80.5792
20
-102.967
11
80.7697
21
-103.062
0
LINE
8
BLACK
6
CONTINUOUS
10
80.7697
20
-103.062
11
80.8649
21
-103.253
0
LINE
8
BLACK
6
CONTINUOUS
10
80.8649
20
-103.253
11
80.8649
21
-103.443
0
LINE
8
BLACK
6
CONTINUOUS
10
80.8649
20
-103.443
11
79.9125
21
-103.633
0
LINE
8
BLACK
6
CONTINUOUS
10
81.6268
20
-104.205
11
81.8173
21
-104.3
0
LINE
8
BLACK
6
CONTINUOUS
10
81.8173
20
-104.3
11
82.1982
21
-104.3
0
LINE
8
BLACK
6
CONTINUOUS
10
82.1982
20
-104.3
11
82.3887
21
-104.205
0
LINE
8
BLACK
6
CONTINUOUS
10
82.3887
20
-104.205
11
82.484
21
-104.014
0
LINE
8
BLACK
6
CONTINUOUS
10
82.484
20
-104.014
11
82.484
21
-103.919
0
LINE
8
BLACK
6
CONTINUOUS
10
82.484
20
-103.919
11
82.3887
21
-103.729
0
LINE
8
BLACK
6
CONTINUOUS
10
82.3887
20
-103.729
11
82.1982
21
-103.633
0
LINE
8
BLACK
6
CONTINUOUS
10
82.1982
20
-103.633
11
81.9125
21
-103.633
0
LINE
8
BLACK
6
CONTINUOUS
10
81.9125
20
-103.633
11
81.7221
21
-103.538
0
LINE
8
BLACK
6
CONTINUOUS
10
81.7221
20
-103.538
11
81.6268
21
-103.348
0
LINE
8
BLACK
6
CONTINUOUS
10
81.6268
20
-103.348
11
81.6268
21
-103.253
0
LINE
8
BLACK
6
CONTINUOUS
10
81.6268
20
-103.253
11
81.7221
21
-103.062
0
LINE
8
BLACK
6
CONTINUOUS
10
81.7221
20
-103.062
11
81.9125
21
-102.967
0
LINE
8
BLACK
6
CONTINUOUS
10
81.9125
20
-102.967
11
82.1982
21
-102.967
0
LINE
8
BLACK
6
CONTINUOUS
10
82.1982
20
-102.967
11
82.3887
21
-103.062
0
LINE
8
BLACK
6
CONTINUOUS
10
83.1506
20
-105.062
11
83.2459
21
-104.967
0
LINE
8
BLACK
6
CONTINUOUS
10
83.2459
20
-104.967
11
83.4363
21
-104.681
0
LINE
8
BLACK
6
CONTINUOUS
10
83.4363
20
-104.681
11
83.5316
21
-104.491
0
LINE
8
BLACK
6
CONTINUOUS
10
83.5316
20
-104.491
11
83.6268
21
-104.205
0
LINE
8
BLACK
6
CONTINUOUS
10
83.6268
20
-104.205
11
83.7221
21
-103.729
0
LINE
8
BLACK
6
CONTINUOUS
10
83.7221
20
-103.729
11
83.7221
21
-103.348
0
LINE
8
BLACK
6
CONTINUOUS
10
83.7221
20
-103.348
11
83.6268
21
-102.872
0
LINE
8
BLACK
6
CONTINUOUS
10
83.6268
20
-102.872
11
83.5316
21
-102.586
0
LINE
8
BLACK
6
CONTINUOUS
10
83.5316
20
-102.586
11
83.4363
21
-102.395
0
LINE
8
BLACK
6
CONTINUOUS
10
83.4363
20
-102.395
11
83.2459
21
-102.11
0
LINE
8
BLACK
6
CONTINUOUS
10
83.2459
20
-102.11
11
83.1506
21
-102.014
0
LINE
8
BLACK
6
CONTINUOUS
10
33.4
20
-105.585
11
35.4
21
-107.585
0
LINE
8
BLACK
6
CONTINUOUS
10
35.4
20
-105.585
11
33.4
21
-107.585
0
LINE
8
BLACK
6
CONTINUOUS
10
34.4
20
-105.585
11
34.4
21
-107.585
0
LINE
8
BLACK
6
CONTINUOUS
10
33.4
20
-106.585
11
35.4
21
-106.585
0
LINE
8
BLACK
6
CONTINUOUS
10
37.8173
20
-105.5
11
39.0554
21
-105.5
0
LINE
8
BLACK
6
CONTINUOUS
10
39.0554
20
-105.5
11
38.3887
21
-106.262
0
LINE
8
BLACK
6
CONTINUOUS
10
38.3887
20
-106.262
11
38.6744
21
-106.262
0
LINE
8
BLACK
6
CONTINUOUS
10
38.6744
20
-106.262
11
38.8649
21
-106.357
0
LINE
8
BLACK
6
CONTINUOUS
10
38.8649
20
-106.357
11
38.9601
21
-106.453
0
LINE
8
BLACK
6
CONTINUOUS
10
38.9601
20
-106.453
11
39.0554
21
-106.643
0
LINE
8
BLACK
6
CONTINUOUS
10
39.0554
20
-106.643
11
39.0554
21
-107.119
0
LINE
8
BLACK
6
CONTINUOUS
10
39.0554
20
-107.119
11
38.9601
21
-107.31
0
LINE
8
BLACK
6
CONTINUOUS
10
38.9601
20
-107.31
11
38.8649
21
-107.405
0
LINE
8
BLACK
6
CONTINUOUS
10
38.8649
20
-107.405
11
38.6744
21
-107.5
0
LINE
8
BLACK
6
CONTINUOUS
10
38.6744
20
-107.5
11
38.103
21
-107.5
0
LINE
8
BLACK
6
CONTINUOUS
10
38.103
20
-107.5
11
37.9125
21
-107.405
0
LINE
8
BLACK
6
CONTINUOUS
10
37.9125
20
-107.405
11
37.8173
21
-107.31
0
LINE
8
BLACK
6
CONTINUOUS
10
39.9125
20
-107.31
11
40.0078
21
-107.405
0
LINE
8
BLACK
6
CONTINUOUS
10
40.0078
20
-107.405
11
39.9125
21
-107.5
0
LINE
8
BLACK
6
CONTINUOUS
10
39.9125
20
-107.5
11
39.8173
21
-107.405
0
LINE
8
BLACK
6
CONTINUOUS
10
39.8173
20
-107.405
11
39.9125
21
-107.31
0
LINE
8
BLACK
6
CONTINUOUS
10
39.9125
20
-107.31
11
39.9125
21
-107.5
0
LINE
8
BLACK
6
CONTINUOUS
10
41.2459
20
-105.5
11
41.4363
21
-105.5
0
LINE
8
BLACK
6
CONTINUOUS
10
41.4363
20
-105.5
11
41.6268
21
-105.595
0
LINE
8
BLACK
6
CONTINUOUS
10
41.6268
20
-105.595
11
41.7221
21
-105.691
0
LINE
8
BLACK
6
CONTINUOUS
10
41.7221
20
-105.691
11
41.8173
21
-105.881
0
LINE
8
BLACK
6
CONTINUOUS
10
41.8173
20
-105.881
11
41.9125
21
-106.262
0
LINE
8
BLACK
6
CONTINUOUS
10
41.9125
20
-106.262
11
41.9125
21
-106.738
0
LINE
8
BLACK
6
CONTINUOUS
10
41.9125
20
-106.738
11
41.8173
21
-107.119
0
LINE
8
BLACK
6
CONTINUOUS
10
41.8173
20
-107.119
11
41.7221
21
-107.31
0
LINE
8
BLACK
6
CONTINUOUS
10
41.7221
20
-107.31
11
41.6268
21
-107.405
0
LINE
8
BLACK
6
CONTINUOUS
10
41.6268
20
-107.405
11
41.4363
21
-107.5
0
LINE
8
BLACK
6
CONTINUOUS
10
41.4363
20
-107.5
11
41.2459
21
-107.5
0
LINE
8
BLACK
6
CONTINUOUS
10
41.2459
20
-107.5
11
41.0554
21
-107.405
0
LINE
8
BLACK
6
CONTINUOUS
10
41.0554
20
-107.405
11
40.9601
21
-107.31
0
LINE
8
BLACK
6
CONTINUOUS
10
40.9601
20
-107.31
11
40.8649
21
-107.119
0
LINE
8
BLACK
6
CONTINUOUS
10
40.8649
20
-107.119
11
40.7697
21
-106.738
0
LINE
8
BLACK
6
CONTINUOUS
10
40.7697
20
-106.738
11
40.7697
21
-106.262
0
LINE
8
BLACK
6
CONTINUOUS
10
40.7697
20
-106.262
11
40.8649
21
-105.881
0
LINE
8
BLACK
6
CONTINUOUS
10
40.8649
20
-105.881
11
40.9601
21
-105.691
0
LINE
8
BLACK
6
CONTINUOUS
10
40.9601
20
-105.691
11
41.0554
21
-105.595
0
LINE
8
BLACK
6
CONTINUOUS
10
41.0554
20
-105.595
11
41.2459
21
-105.5
0
LINE
8
BLACK
6
CONTINUOUS
10
43.1506
20
-105.5
11
43.3411
21
-105.5
0
LINE
8
BLACK
6
CONTINUOUS
10
43.3411
20
-105.5
11
43.5316
21
-105.595
0
LINE
8
BLACK
6
CONTINUOUS
10
43.5316
20
-105.595
11
43.6268
21
-105.691
0
LINE
8
BLACK
6
CONTINUOUS
10
43.6268
20
-105.691
11
43.7221
21
-105.881
0
LINE
8
BLACK
6
CONTINUOUS
10
43.7221
20
-105.881
11
43.8173
21
-106.262
0
LINE
8
BLACK
6
CONTINUOUS
10
43.8173
20
-106.262
11
43.8173
21
-106.738
0
LINE
8
BLACK
6
CONTINUOUS
10
43.8173
20
-106.738
11
43.7221
21
-107.119
0
LINE
8
BLACK
6
CONTINUOUS
10
43.7221
20
-107.119
11
43.6268
21
-107.31
0
LINE
8
BLACK
6
CONTINUOUS
10
43.6268
20
-107.31
11
43.5316
21
-107.405
0
LINE
8
BLACK
6
CONTINUOUS
10
43.5316
20
-107.405
11
43.3411
21
-107.5
0
LINE
8
BLACK
6
CONTINUOUS
10
43.3411
20
-107.5
11
43.1506
21
-107.5
0
LINE
8
BLACK
6
CONTINUOUS
10
43.1506
20
-107.5
11
42.9601
21
-107.405
0
LINE
8
BLACK
6
CONTINUOUS
10
42.9601
20
-107.405
11
42.8649
21
-107.31
0
LINE
8
BLACK
6
CONTINUOUS
10
42.8649
20
-107.31
11
42.7697
21
-107.119
0
LINE
8
BLACK
6
CONTINUOUS
10
42.7697
20
-107.119
11
42.6744
21
-106.738
0
LINE
8
BLACK
6
CONTINUOUS
10
42.6744
20
-106.738
11
42.6744
21
-106.262
0
LINE
8
BLACK
6
CONTINUOUS
10
42.6744
20
-106.262
11
42.7697
21
-105.881
0
LINE
8
BLACK
6
CONTINUOUS
10
42.7697
20
-105.881
11
42.8649
21
-105.691
0
LINE
8
BLACK
6
CONTINUOUS
10
42.8649
20
-105.691
11
42.9601
21
-105.595
0
LINE
8
BLACK
6
CONTINUOUS
10
42.9601
20
-105.595
11
43.1506
21
-105.5
0
LINE
8
BLACK
6
CONTINUOUS
10
45.0554
20
-105.5
11
45.2459
21
-105.5
0
LINE
8
BLACK
6
CONTINUOUS
10
45.2459
20
-105.5
11
45.4363
21
-105.595
0
LINE
8
BLACK
6
CONTINUOUS
10
45.4363
20
-105.595
11
45.5316
21
-105.691
0
LINE
8
BLACK
6
CONTINUOUS
10
45.5316
20
-105.691
11
45.6268
21
-105.881
0
LINE
8
BLACK
6
CONTINUOUS
10
45.6268
20
-105.881
11
45.7221
21
-106.262
0
LINE
8
BLACK
6
CONTINUOUS
10
45.7221
20
-106.262
11
45.7221
21
-106.738
0
LINE
8
BLACK
6
CONTINUOUS
10
45.7221
20
-106.738
11
45.6268
21
-107.119
0
LINE
8
BLACK
6
CONTINUOUS
10
45.6268
20
-107.119
11
45.5316
21
-107.31
0
LINE
8
BLACK
6
CONTINUOUS
10
45.5316
20
-107.31
11
45.4363
21
-107.405
0
LINE
8
BLACK
6
CONTINUOUS
10
45.4363
20
-107.405
11
45.2459
21
-107.5
0
LINE
8
BLACK
6
CONTINUOUS
10
45.2459
20
-107.5
11
45.0554
21
-107.5
0
LINE
8
BLACK
6
CONTINUOUS
10
45.0554
20
-107.5
11
44.8649
21
-107.405
0
LINE
8
BLACK
6
CONTINUOUS
10
44.8649
20
-107.405
11
44.7697
21
-107.31
0
LINE
8
BLACK
6
CONTINUOUS
10
44.7697
20
-107.31
11
44.6744
21
-107.119
0
LINE
8
BLACK
6
CONTINUOUS
10
44.6744
20
-107.119
11
44.5792
21
-106.738
0
LINE
8
BLACK
6
CONTINUOUS
10
44.5792
20
-106.738
11
44.5792
21
-106.262
0
LINE
8
BLACK
6
CONTINUOUS
10
44.5792
20
-106.262
11
44.6744
21
-105.881
0
LINE
8
BLACK
6
CONTINUOUS
10
44.6744
20
-105.881
11
44.7697
21
-105.691
0
LINE
8
BLACK
6
CONTINUOUS
10
44.7697
20
-105.691
11
44.8649
21
-105.595
0
LINE
8
BLACK
6
CONTINUOUS
10
44.8649
20
-105.595
11
45.0554
21
-105.5
0
LINE
8
BLACK
6
CONTINUOUS
10
46.5792
20
-107.5
11
46.5792
21
-106.167
0
LINE
8
BLACK
6
CONTINUOUS
10
46.5792
20
-106.357
11
46.6744
21
-106.262
0
LINE
8
BLACK
6
CONTINUOUS
10
46.6744
20
-106.262
11
46.8649
21
-106.167
0
LINE
8
BLACK
6
CONTINUOUS
10
46.8649
20
-106.167
11
47.1506
21
-106.167
0
LINE
8
BLACK
6
CONTINUOUS
10
47.1506
20
-106.167
11
47.3411
21
-106.262
0
LINE
8
BLACK
6
CONTINUOUS
10
47.3411
20
-106.262
11
47.4363
21
-106.453
0
LINE
8
BLACK
6
CONTINUOUS
10
47.4363
20
-106.453
11
47.4363
21
-107.5
0
LINE
8
BLACK
6
CONTINUOUS
10
47.4363
20
-106.453
11
47.5316
21
-106.262
0
LINE
8
BLACK
6
CONTINUOUS
10
47.5316
20
-106.262
11
47.7221
21
-106.167
0
LINE
8
BLACK
6
CONTINUOUS
10
47.7221
20
-106.167
11
48.0078
21
-106.167
0
LINE
8
BLACK
6
CONTINUOUS
10
48.0078
20
-106.167
11
48.1982
21
-106.262
0
LINE
8
BLACK
6
CONTINUOUS
10
48.1982
20
-106.262
11
48.2935
21
-106.453
0
LINE
8
BLACK
6
CONTINUOUS
10
48.2935
20
-106.453
11
48.2935
21
-107.5
0
LINE
8
BLACK
6
CONTINUOUS
10
49.2459
20
-107.5
11
49.2459
21
-106.167
0
LINE
8
BLACK
6
CONTINUOUS
10
49.2459
20
-106.357
11
49.3411
21
-106.262
0
LINE
8
BLACK
6
CONTINUOUS
10
49.3411
20
-106.262
11
49.5316
21
-106.167
0
LINE
8
BLACK
6
CONTINUOUS
10
49.5316
20
-106.167
11
49.8173
21
-106.167
0
LINE
8
BLACK
6
CONTINUOUS
10
49.8173
20
-106.167
11
50.0078
21
-106.262
0
LINE
8
BLACK
6
CONTINUOUS
10
50.0078
20
-106.262
11
50.103
21
-106.453
0
LINE
8
BLACK
6
CONTINUOUS
10
50.103
20
-106.453
11
50.103
21
-107.5
0
LINE
8
BLACK
6
CONTINUOUS
10
50.103
20
-106.453
11
50.1982
21
-106.262
0
LINE
8
BLACK
6
CONTINUOUS
10
50.1982
20
-106.262
11
50.3887
21
-106.167
0
LINE
8
BLACK
6
CONTINUOUS
10
50.3887
20
-106.167
11
50.6744
21
-106.167
0
LINE
8
BLACK
6
CONTINUOUS
10
50.6744
20
-106.167
11
50.8649
21
-106.262
0
LINE
8
BLACK
6
CONTINUOUS
10
50.8649
20
-106.262
11
50.9601
21
-106.453
0
LINE
8
BLACK
6
CONTINUOUS
10
50.9601
20
-106.453
11
50.9601
21
-107.5
0
LINE
8
BLACK
6
CONTINUOUS
10
54.8649
20
-105.405
11
53.1506
21
-107.976
0
LINE
8
BLACK
6
CONTINUOUS
10
57.4363
20
-105.5
11
57.6268
21
-105.5
0
LINE
8
BLACK
6
CONTINUOUS
10
57.6268
20
-105.5
11
57.8173
21
-105.595
0
LINE
8
BLACK
6
CONTINUOUS
10
57.8173
20
-105.595
11
57.9125
21
-105.691
0
LINE
8
BLACK
6
CONTINUOUS
10
57.9125
20
-105.691
11
58.0078
21
-105.881
0
LINE
8
BLACK
6
CONTINUOUS
10
58.0078
20
-105.881
11
58.103
21
-106.262
0
LINE
8
BLACK
6
CONTINUOUS
10
58.103
20
-106.262
11
58.103
21
-106.738
0
LINE
8
BLACK
6
CONTINUOUS
10
58.103
20
-106.738
11
58.0078
21
-107.119
0
LINE
8
BLACK
6
CONTINUOUS
10
58.0078
20
-107.119
11
57.9125
21
-107.31
0
LINE
8
BLACK
6
CONTINUOUS
10
57.9125
20
-107.31
11
57.8173
21
-107.405
0
LINE
8
BLACK
6
CONTINUOUS
10
57.8173
20
-107.405
11
57.6268
21
-107.5
0
LINE
8
BLACK
6
CONTINUOUS
10
57.6268
20
-107.5
11
57.4363
21
-107.5
0
LINE
8
BLACK
6
CONTINUOUS
10
57.4363
20
-107.5
11
57.2459
21
-107.405
0
LINE
8
BLACK
6
CONTINUOUS
10
57.2459
20
-107.405
11
57.1506
21
-107.31
0
LINE
8
BLACK
6
CONTINUOUS
10
57.1506
20
-107.31
11
57.0554
21
-107.119
0
LINE
8
BLACK
6
CONTINUOUS
10
57.0554
20
-107.119
11
56.9602
21
-106.738
0
LINE
8
BLACK
6
CONTINUOUS
10
56.9602
20
-106.738
11
56.9602
21
-106.262
0
LINE
8
BLACK
6
CONTINUOUS
10
56.9602
20
-106.262
11
57.0554
21
-105.881
0
LINE
8
BLACK
6
CONTINUOUS
10
57.0554
20
-105.881
11
57.1506
21
-105.691
0
LINE
8
BLACK
6
CONTINUOUS
10
57.1506
20
-105.691
11
57.2459
21
-105.595
0
LINE
8
BLACK
6
CONTINUOUS
10
57.2459
20
-105.595
11
57.4363
21
-105.5
0
LINE
8
BLACK
6
CONTINUOUS
10
58.9602
20
-107.31
11
59.0554
21
-107.405
0
LINE
8
BLACK
6
CONTINUOUS
10
59.0554
20
-107.405
11
58.9602
21
-107.5
0
LINE
8
BLACK
6
CONTINUOUS
10
58.9602
20
-107.5
11
58.8649
21
-107.405
0
LINE
8
BLACK
6
CONTINUOUS
10
58.8649
20
-107.405
11
58.9602
21
-107.31
0
LINE
8
BLACK
6
CONTINUOUS
10
58.9602
20
-107.31
11
58.9602
21
-107.5
0
LINE
8
BLACK
6
CONTINUOUS
10
60.9602
20
-107.5
11
59.8173
21
-107.5
0
LINE
8
BLACK
6
CONTINUOUS
10
60.3887
20
-107.5
11
60.3887
21
-105.5
0
LINE
8
BLACK
6
CONTINUOUS
10
60.3887
20
-105.5
11
60.1982
21
-105.786
0
LINE
8
BLACK
6
CONTINUOUS
10
60.1982
20
-105.786
11
60.0078
21
-105.976
0
LINE
8
BLACK
6
CONTINUOUS
10
60.0078
20
-105.976
11
59.8173
21
-106.072
0
LINE
8
BLACK
6
CONTINUOUS
10
62.8649
20
-107.5
11
61.7221
21
-107.5
0
LINE
8
BLACK
6
CONTINUOUS
10
62.2935
20
-107.5
11
62.2935
21
-105.5
0
LINE
8
BLACK
6
CONTINUOUS
10
62.2935
20
-105.5
11
62.103
21
-105.786
0
LINE
8
BLACK
6
CONTINUOUS
10
62.103
20
-105.786
11
61.9125
21
-105.976
0
LINE
8
BLACK
6
CONTINUOUS
10
61.9125
20
-105.976
11
61.7221
21
-106.072
0
LINE
8
BLACK
6
CONTINUOUS
10
64.0078
20
-106.357
11
63.8173
21
-106.262
0
LINE
8
BLACK
6
CONTINUOUS
10
63.8173
20
-106.262
11
63.7221
21
-106.167
0
LINE
8
BLACK
6
CONTINUOUS
10
63.7221
20
-106.167
11
63.6268
21
-105.976
0
LINE
8
BLACK
6
CONTINUOUS
10
63.6268
20
-105.976
11
63.6268
21
-105.881
0
LINE
8
BLACK
6
CONTINUOUS
10
63.6268
20
-105.881
11
63.7221
21
-105.691
0
LINE
8
BLACK
6
CONTINUOUS
10
63.7221
20
-105.691
11
63.8173
21
-105.595
0
LINE
8
BLACK
6
CONTINUOUS
10
63.8173
20
-105.595
11
64.0078
21
-105.5
0
LINE
8
BLACK
6
CONTINUOUS
10
64.0078
20
-105.5
11
64.3887
21
-105.5
0
LINE
8
BLACK
6
CONTINUOUS
10
64.3887
20
-105.5
11
64.5792
21
-105.595
0
LINE
8
BLACK
6
CONTINUOUS
10
64.5792
20
-105.595
11
64.6744
21
-105.691
0
LINE
8
BLACK
6
CONTINUOUS
10
64.6744
20
-105.691
11
64.7697
21
-105.881
0
LINE
8
BLACK
6
CONTINUOUS
10
64.7697
20
-105.881
11
64.7697
21
-105.976
0
LINE
8
BLACK
6
CONTINUOUS
10
64.7697
20
-105.976
11
64.6744
21
-106.167
0
LINE
8
BLACK
6
CONTINUOUS
10
64.6744
20
-106.167
11
64.5792
21
-106.262
0
LINE
8
BLACK
6
CONTINUOUS
10
64.5792
20
-106.262
11
64.3887
21
-106.357
0
LINE
8
BLACK
6
CONTINUOUS
10
64.3887
20
-106.357
11
64.0078
21
-106.357
0
LINE
8
BLACK
6
CONTINUOUS
10
64.0078
20
-106.357
11
63.8173
21
-106.453
0
LINE
8
BLACK
6
CONTINUOUS
10
63.8173
20
-106.453
11
63.7221
21
-106.548
0
LINE
8
BLACK
6
CONTINUOUS
10
63.7221
20
-106.548
11
63.6268
21
-106.738
0
LINE
8
BLACK
6
CONTINUOUS
10
63.6268
20
-106.738
11
63.6268
21
-107.119
0
LINE
8
BLACK
6
CONTINUOUS
10
63.6268
20
-107.119
11
63.7221
21
-107.31
0
LINE
8
BLACK
6
CONTINUOUS
10
63.7221
20
-107.31
11
63.8173
21
-107.405
0
LINE
8
BLACK
6
CONTINUOUS
10
63.8173
20
-107.405
11
64.0078
21
-107.5
0
LINE
8
BLACK
6
CONTINUOUS
10
64.0078
20
-107.5
11
64.3887
21
-107.5
0
LINE
8
BLACK
6
CONTINUOUS
10
64.3887
20
-107.5
11
64.5792
21
-107.405
0
LINE
8
BLACK
6
CONTINUOUS
10
64.5792
20
-107.405
11
64.6744
21
-107.31
0
LINE
8
BLACK
6
CONTINUOUS
10
64.6744
20
-107.31
11
64.7697
21
-107.119
0
LINE
8
BLACK
6
CONTINUOUS
10
64.7697
20
-107.119
11
64.7697
21
-106.738
0
LINE
8
BLACK
6
CONTINUOUS
10
64.7697
20
-106.738
11
64.6744
21
-106.548
0
LINE
8
BLACK
6
CONTINUOUS
10
64.6744
20
-106.548
11
64.5792
21
-106.453
0
LINE
8
BLACK
6
CONTINUOUS
10
64.5792
20
-106.453
11
64.3887
21
-106.357
0
LINE
8
BLACK
6
CONTINUOUS
10
66.6744
20
-107.5
11
65.5316
21
-107.5
0
LINE
8
BLACK
6
CONTINUOUS
10
66.103
20
-107.5
11
66.103
21
-105.5
0
LINE
8
BLACK
6
CONTINUOUS
10
66.103
20
-105.5
11
65.9125
21
-105.786
0
LINE
8
BLACK
6
CONTINUOUS
10
65.9125
20
-105.786
11
65.7221
21
-105.976
0
LINE
8
BLACK
6
CONTINUOUS
10
65.7221
20
-105.976
11
65.5316
21
-106.072
0
LINE
8
BLACK
6
CONTINUOUS
10
67.4363
20
-105.5
11
67.4363
21
-105.881
0
LINE
8
BLACK
6
CONTINUOUS
10
68.1982
20
-105.5
11
68.1982
21
-105.881
0
LINE
8
BLACK
6
CONTINUOUS
10
71.1506
20
-108.262
11
71.0554
21
-108.167
0
LINE
8
BLACK
6
CONTINUOUS
10
71.0554
20
-108.167
11
70.8649
21
-107.881
0
LINE
8
BLACK
6
CONTINUOUS
10
70.8649
20
-107.881
11
70.7697
21
-107.691
0
LINE
8
BLACK
6
CONTINUOUS
10
70.7697
20
-107.691
11
70.6744
21
-107.405
0
LINE
8
BLACK
6
CONTINUOUS
10
70.6744
20
-107.405
11
70.5792
21
-106.929
0
LINE
8
BLACK
6
CONTINUOUS
10
70.5792
20
-106.929
11
70.5792
21
-106.548
0
LINE
8
BLACK
6
CONTINUOUS
10
70.5792
20
-106.548
11
70.6744
21
-106.072
0
LINE
8
BLACK
6
CONTINUOUS
10
70.6744
20
-106.072
11
70.7697
21
-105.786
0
LINE
8
BLACK
6
CONTINUOUS
10
70.7697
20
-105.786
11
70.8649
21
-105.595
0
LINE
8
BLACK
6
CONTINUOUS
10
70.8649
20
-105.595
11
71.0554
21
-105.31
0
LINE
8
BLACK
6
CONTINUOUS
10
71.0554
20
-105.31
11
71.1506
21
-105.214
0
LINE
8
BLACK
6
CONTINUOUS
10
71.8173
20
-105.691
11
71.9125
21
-105.595
0
LINE
8
BLACK
6
CONTINUOUS
10
71.9125
20
-105.595
11
72.103
21
-105.5
0
LINE
8
BLACK
6
CONTINUOUS
10
72.103
20
-105.5
11
72.5792
21
-105.5
0
LINE
8
BLACK
6
CONTINUOUS
10
72.5792
20
-105.5
11
72.7697
21
-105.595
0
LINE
8
BLACK
6
CONTINUOUS
10
72.7697
20
-105.595
11
72.8649
21
-105.691
0
LINE
8
BLACK
6
CONTINUOUS
10
72.8649
20
-105.691
11
72.9602
21
-105.881
0
LINE
8
BLACK
6
CONTINUOUS
10
72.9602
20
-105.881
11
72.9602
21
-106.072
0
LINE
8
BLACK
6
CONTINUOUS
10
72.9602
20
-106.072
11
72.8649
21
-106.357
0
LINE
8
BLACK
6
CONTINUOUS
10
72.8649
20
-106.357
11
71.7221
21
-107.5
0
LINE
8
BLACK
6
CONTINUOUS
10
71.7221
20
-107.5
11
72.9602
21
-107.5
0
LINE
8
BLACK
6
CONTINUOUS
10
75.3411
20
-107.5
11
75.3411
21
-105.5
0
LINE
8
BLACK
6
CONTINUOUS
10
76.1982
20
-107.5
11
76.1982
21
-106.453
0
LINE
8
BLACK
6
CONTINUOUS
10
76.1982
20
-106.453
11
76.103
21
-106.262
0
LINE
8
BLACK
6
CONTINUOUS
10
76.103
20
-106.262
11
75.9125
21
-106.167
0
LINE
8
BLACK
6
CONTINUOUS
10
75.9125
20
-106.167
11
75.6268
21
-106.167
0
LINE
8
BLACK
6
CONTINUOUS
10
75.6268
20
-106.167
11
75.4363
21
-106.262
0
LINE
8
BLACK
6
CONTINUOUS
10
75.4363
20
-106.262
11
75.3411
21
-106.357
0
LINE
8
BLACK
6
CONTINUOUS
10
77.4363
20
-107.5
11
77.2459
21
-107.405
0
LINE
8
BLACK
6
CONTINUOUS
10
77.2459
20
-107.405
11
77.1506
21
-107.31
0
LINE
8
BLACK
6
CONTINUOUS
10
77.1506
20
-107.31
11
77.0554
21
-107.119
0
LINE
8
BLACK
6
CONTINUOUS
10
77.0554
20
-107.119
11
77.0554
21
-106.548
0
LINE
8
BLACK
6
CONTINUOUS
10
77.0554
20
-106.548
11
77.1506
21
-106.357
0
LINE
8
BLACK
6
CONTINUOUS
10
77.1506
20
-106.357
11
77.2459
21
-106.262
0
LINE
8
BLACK
6
CONTINUOUS
10
77.2459
20
-106.262
11
77.4363
21
-106.167
0
LINE
8
BLACK
6
CONTINUOUS
10
77.4363
20
-106.167
11
77.7221
21
-106.167
0
LINE
8
BLACK
6
CONTINUOUS
10
77.7221
20
-106.167
11
77.9125
21
-106.262
0
LINE
8
BLACK
6
CONTINUOUS
10
77.9125
20
-106.262
11
78.0078
21
-106.357
0
LINE
8
BLACK
6
CONTINUOUS
10
78.0078
20
-106.357
11
78.103
21
-106.548
0
LINE
8
BLACK
6
CONTINUOUS
10
78.103
20
-106.548
11
78.103
21
-107.119
0
LINE
8
BLACK
6
CONTINUOUS
10
78.103
20
-107.119
11
78.0078
21
-107.31
0
LINE
8
BLACK
6
CONTINUOUS
10
78.0078
20
-107.31
11
77.9125
21
-107.405
0
LINE
8
BLACK
6
CONTINUOUS
10
77.9125
20
-107.405
11
77.7221
21
-107.5
0
LINE
8
BLACK
6
CONTINUOUS
10
77.7221
20
-107.5
11
77.4363
21
-107.5
0
LINE
8
BLACK
6
CONTINUOUS
10
79.2459
20
-107.5
11
79.0554
21
-107.405
0
LINE
8
BLACK
6
CONTINUOUS
10
79.0554
20
-107.405
11
78.9602
21
-107.214
0
LINE
8
BLACK
6
CONTINUOUS
10
78.9602
20
-107.214
11
78.9602
21
-105.5
0
LINE
8
BLACK
6
CONTINUOUS
10
80.7697
20
-107.405
11
80.5792
21
-107.5
0
LINE
8
BLACK
6
CONTINUOUS
10
80.5792
20
-107.5
11
80.1982
21
-107.5
0
LINE
8
BLACK
6
CONTINUOUS
10
80.1982
20
-107.5
11
80.0078
21
-107.405
0
LINE
8
BLACK
6
CONTINUOUS
10
80.0078
20
-107.405
11
79.9125
21
-107.214
0
LINE
8
BLACK
6
CONTINUOUS
10
79.9125
20
-107.214
11
79.9125
21
-106.453
0
LINE
8
BLACK
6
CONTINUOUS
10
79.9125
20
-106.453
11
80.0078
21
-106.262
0
LINE
8
BLACK
6
CONTINUOUS
10
80.0078
20
-106.262
11
80.1982
21
-106.167
0
LINE
8
BLACK
6
CONTINUOUS
10
80.1982
20
-106.167
11
80.5792
21
-106.167
0
LINE
8
BLACK
6
CONTINUOUS
10
80.5792
20
-106.167
11
80.7697
21
-106.262
0
LINE
8
BLACK
6
CONTINUOUS
10
80.7697
20
-106.262
11
80.8649
21
-106.453
0
LINE
8
BLACK
6
CONTINUOUS
10
80.8649
20
-106.453
11
80.8649
21
-106.643
0
LINE
8
BLACK
6
CONTINUOUS
10
80.8649
20
-106.643
11
79.9125
21
-106.833
0
LINE
8
BLACK
6
CONTINUOUS
10
81.6268
20
-107.405
11
81.8173
21
-107.5
0
LINE
8
BLACK
6
CONTINUOUS
10
81.8173
20
-107.5
11
82.1982
21
-107.5
0
LINE
8
BLACK
6
CONTINUOUS
10
82.1982
20
-107.5
11
82.3887
21
-107.405
0
LINE
8
BLACK
6
CONTINUOUS
10
82.3887
20
-107.405
11
82.484
21
-107.214
0
LINE
8
BLACK
6
CONTINUOUS
10
82.484
20
-107.214
11
82.484
21
-107.119
0
LINE
8
BLACK
6
CONTINUOUS
10
82.484
20
-107.119
11
82.3887
21
-106.929
0
LINE
8
BLACK
6
CONTINUOUS
10
82.3887
20
-106.929
11
82.1982
21
-106.833
0
LINE
8
BLACK
6
CONTINUOUS
10
82.1982
20
-106.833
11
81.9125
21
-106.833
0
LINE
8
BLACK
6
CONTINUOUS
10
81.9125
20
-106.833
11
81.7221
21
-106.738
0
LINE
8
BLACK
6
CONTINUOUS
10
81.7221
20
-106.738
11
81.6268
21
-106.548
0
LINE
8
BLACK
6
CONTINUOUS
10
81.6268
20
-106.548
11
81.6268
21
-106.453
0
LINE
8
BLACK
6
CONTINUOUS
10
81.6268
20
-106.453
11
81.7221
21
-106.262
0
LINE
8
BLACK
6
CONTINUOUS
10
81.7221
20
-106.262
11
81.9125
21
-106.167
0
LINE
8
BLACK
6
CONTINUOUS
10
81.9125
20
-106.167
11
82.1982
21
-106.167
0
LINE
8
BLACK
6
CONTINUOUS
10
82.1982
20
-106.167
11
82.3887
21
-106.262
0
LINE
8
BLACK
6
CONTINUOUS
10
83.1506
20
-108.262
11
83.2459
21
-108.167
0
LINE
8
BLACK
6
CONTINUOUS
10
83.2459
20
-108.167
11
83.4363
21
-107.881
0
LINE
8
BLACK
6
CONTINUOUS
10
83.4363
20
-107.881
11
83.5316
21
-107.691
0
LINE
8
BLACK
6
CONTINUOUS
10
83.5316
20
-107.691
11
83.6268
21
-107.405
0
LINE
8
BLACK
6
CONTINUOUS
10
83.6268
20
-107.405
11
83.7221
21
-106.929
0
LINE
8
BLACK
6
CONTINUOUS
10
83.7221
20
-106.929
11
83.7221
21
-106.548
0
LINE
8
BLACK
6
CONTINUOUS
10
83.7221
20
-106.548
11
83.6268
21
-106.072
0
LINE
8
BLACK
6
CONTINUOUS
10
83.6268
20
-106.072
11
83.5316
21
-105.786
0
LINE
8
BLACK
6
CONTINUOUS
10
83.5316
20
-105.786
11
83.4363
21
-105.595
0
LINE
8
BLACK
6
CONTINUOUS
10
83.4363
20
-105.595
11
83.2459
21
-105.31
0
LINE
8
BLACK
6
CONTINUOUS
10
83.2459
20
-105.31
11
83.1506
21
-105.214
  0
ENDSEC
  0
EOF
