%TF.GenerationSoftware,KiCad,Pcbnew,7.0.7*%
%TF.CreationDate,2024-06-24T12:25:00-07:00*%
%TF.ProjectId,Business Card PCB Hot Plate,42757369-6e65-4737-9320-436172642050,rev?*%
%TF.SameCoordinates,Original*%
%TF.FileFunction,Soldermask,Bot*%
%TF.FilePolarity,Negative*%
%FSLAX46Y46*%
G04 Gerber Fmt 4.6, Leading zero omitted, Abs format (unit mm)*
G04 Created by KiCad (PCBNEW 7.0.7) date 2024-06-24 12:25:00*
%MOMM*%
%LPD*%
G01*
G04 APERTURE LIST*
%ADD10R,1.700000X1.700000*%
%ADD11O,1.700000X1.700000*%
%ADD12C,0.700000*%
%ADD13C,4.400000*%
%ADD14C,4.000000*%
%ADD15C,0.750000*%
%ADD16O,2.000000X1.200000*%
%ADD17O,1.800000X1.200000*%
G04 APERTURE END LIST*
D10*
%TO.C,J4*%
X103250000Y-45035328D03*
%TD*%
%TO.C,J7*%
X106800000Y-68135328D03*
%TD*%
%TO.C,J10*%
X114750000Y-75685328D03*
D11*
X117290000Y-75685328D03*
X119830000Y-75685328D03*
X122370000Y-75685328D03*
%TD*%
D10*
%TO.C,J8*%
X73080000Y-81935328D03*
D11*
X75620000Y-81935328D03*
X78160000Y-81935328D03*
X80700000Y-81935328D03*
X83240000Y-81935328D03*
X85780000Y-81935328D03*
X88320000Y-81935328D03*
%TD*%
D12*
%TO.C,H4*%
X37800000Y-37735328D03*
X38283274Y-36568602D03*
X38283274Y-38902054D03*
X39450000Y-36085328D03*
D13*
X39450000Y-37735328D03*
D12*
X39450000Y-39385328D03*
X40616726Y-36568602D03*
X40616726Y-38902054D03*
X41100000Y-37735328D03*
%TD*%
%TO.C,H2*%
X119800000Y-37735328D03*
X120283274Y-36568602D03*
X120283274Y-38902054D03*
X121450000Y-36085328D03*
D13*
X121450000Y-37735328D03*
D12*
X121450000Y-39385328D03*
X122616726Y-36568602D03*
X122616726Y-38902054D03*
X123100000Y-37735328D03*
%TD*%
D14*
%TO.C,J3*%
X51800000Y-79435328D03*
%TD*%
D12*
%TO.C,H3*%
X37800000Y-79735328D03*
X38283274Y-78568602D03*
X38283274Y-80902054D03*
X39450000Y-78085328D03*
D13*
X39450000Y-79735328D03*
D12*
X39450000Y-81385328D03*
X40616726Y-78568602D03*
X40616726Y-80902054D03*
X41100000Y-79735328D03*
%TD*%
D10*
%TO.C,J5*%
X106800000Y-45035328D03*
%TD*%
D14*
%TO.C,J2*%
X51600000Y-72735328D03*
%TD*%
D12*
%TO.C,H1*%
X119800000Y-79735328D03*
X120283274Y-78568602D03*
X120283274Y-80902054D03*
X121450000Y-78085328D03*
D13*
X121450000Y-79735328D03*
D12*
X121450000Y-81385328D03*
X122616726Y-78568602D03*
X122616726Y-80902054D03*
X123100000Y-79735328D03*
%TD*%
D10*
%TO.C,J6*%
X103240000Y-68145328D03*
%TD*%
D15*
%TO.C,J1*%
X42006000Y-55835328D03*
X42006000Y-61635328D03*
D16*
X42506000Y-54410328D03*
D17*
X38326000Y-54410328D03*
D16*
X42506000Y-63060328D03*
D17*
X38326000Y-63060328D03*
%TD*%
M02*
