M48
; DRILL file {KiCad 7.0.7} date 2024 June 24, Monday 12:24:55
; FORMAT={-:-/ absolute / metric / decimal}
; #@! TF.CreationDate,2024-06-24T12:24:55-07:00
; #@! TF.GenerationSoftware,Kicad,Pcbnew,7.0.7
; #@! TF.FileFunction,Plated,1,4,PTH
FMAT,2
METRIC
; #@! TA.AperFunction,Plated,PTH,ViaDrill
T1C0.300
; #@! TA.AperFunction,Plated,PTH,ComponentDrill
T2C0.300
; #@! TA.AperFunction,Plated,PTH,ComponentDrill
T3C0.400
; #@! TA.AperFunction,Plated,PTH,ComponentDrill
T4C0.800
; #@! TA.AperFunction,Plated,PTH,ComponentDrill
T5C1.000
; #@! TA.AperFunction,Plated,PTH,ComponentDrill
T6C2.200
; #@! TA.AperFunction,Plated,PTH,ComponentDrill
T7C3.000
%
G90
G05
T1
X44.3Y-56.235
X44.35Y-61.135
X44.4Y-62.535
X44.4Y-63.435
X44.5Y-53.935
X44.5Y-54.935
X46.1Y-61.635
X47.1Y-61.235
X47.3Y-57.435
X48.6Y-50.735
X49.5Y-50.735
X50.3Y-50.735
X51.1Y-50.735
X52.3Y-57.635
X52.3Y-60.435
X53.3Y-57.635
X53.3Y-59.435
X53.78Y-61.055
X55.5Y-57.635
X55.525Y-61.035
X56.1Y-50.035
X56.1Y-55.635
X57.9Y-69.835
X58.1Y-69.235
X59.0Y-54.235
X62.1Y-75.835
X63.2Y-67.435
X63.5Y-47.335
X63.5Y-48.035
X64.4Y-47.335
X64.4Y-48.035
X64.465Y-67.4
X65.9Y-64.835
X66.685Y-78.85
X66.7Y-80.12
X66.7Y-81.39
X68.1Y-49.035
X69.3Y-42.635
X69.9Y-38.835
X69.9Y-45.835
X69.9Y-48.835
X69.953Y-81.283
X70.525Y-53.21
X71.7Y-56.035
X72.3Y-60.235
X72.9Y-57.235
X73.1Y-51.835
X73.7Y-56.635
X73.9Y-51.835
X74.3Y-56.035
X74.9Y-51.835
X75.1Y-55.235
X75.3Y-52.635
X76.3Y-53.835
X76.7Y-79.035
X77.6Y-54.935
X78.9Y-79.435
X79.1Y-49.835
X79.1Y-51.635
X80.3Y-52.235
X80.31Y-46.325
X80.31Y-47.425
X80.31Y-48.525
X81.4Y-46.325
X81.4Y-47.425
X81.4Y-48.525
X82.1Y-56.835
X82.1Y-57.635
X82.51Y-46.325
X82.51Y-47.425
X82.51Y-48.525
X82.6Y-49.935
X83.9Y-59.635
X86.5Y-78.635
X86.5Y-79.435
X87.5Y-44.235
X90.6Y-82.735
X92.5Y-71.035
X92.5Y-72.235
X92.9Y-44.235
X92.9Y-45.835
X93.4Y-36.535
X94.3Y-40.635
X94.9Y-77.835
X95.7Y-78.635
X95.9Y-45.035
X95.9Y-76.835
X96.7Y-77.635
X97.3Y-44.835
X99.5Y-42.635
X100.3Y-41.835
X102.5Y-39.835
X102.5Y-77.435
X102.7Y-75.235
X103.5Y-76.035
X104.3Y-75.235
X105.2Y-75.935
T2
X57.8Y-49.635
X57.8Y-50.835
X58.9Y-49.635
X58.9Y-50.835
X60.2Y-49.635
X60.2Y-50.835
X61.4Y-49.635
X61.4Y-50.835
T3
X37.8Y-37.735
X37.8Y-79.735
X38.283Y-36.569
X38.283Y-38.902
X38.283Y-78.569
X38.283Y-80.902
X39.45Y-36.085
X39.45Y-39.385
X39.45Y-78.085
X39.45Y-81.385
X40.617Y-36.569
X40.617Y-38.902
X40.617Y-78.569
X40.617Y-80.902
X41.1Y-37.735
X41.1Y-79.735
X119.8Y-37.735
X119.8Y-79.735
X120.283Y-36.569
X120.283Y-38.902
X120.283Y-78.569
X120.283Y-80.902
X121.45Y-36.085
X121.45Y-39.385
X121.45Y-78.085
X121.45Y-81.385
X122.617Y-36.569
X122.617Y-38.902
X122.617Y-78.569
X122.617Y-80.902
X123.1Y-37.735
X123.1Y-79.735
T5
X73.08Y-81.935
X75.62Y-81.935
X78.16Y-81.935
X80.7Y-81.935
X83.24Y-81.935
X85.78Y-81.935
X88.32Y-81.935
X103.24Y-68.145
X103.25Y-45.035
X106.8Y-45.035
X106.8Y-68.135
X114.75Y-75.685
X117.29Y-75.685
X119.83Y-75.685
X122.37Y-75.685
T6
X39.45Y-37.735
X39.45Y-79.735
X121.45Y-37.735
X121.45Y-79.735
T7
X51.6Y-72.735
X51.8Y-79.435
T4
X38.626Y-54.41G85X38.026Y-54.41
G05
X38.626Y-63.06G85X38.026Y-63.06
G05
X42.906Y-54.41G85X42.106Y-54.41
G05
X42.906Y-63.06G85X42.106Y-63.06
G05
T0
M30
