%TF.GenerationSoftware,KiCad,Pcbnew,7.0.7*%
%TF.CreationDate,2024-06-24T12:25:00-07:00*%
%TF.ProjectId,Business Card PCB Hot Plate,42757369-6e65-4737-9320-436172642050,rev?*%
%TF.SameCoordinates,Original*%
%TF.FileFunction,Soldermask,Top*%
%TF.FilePolarity,Negative*%
%FSLAX46Y46*%
G04 Gerber Fmt 4.6, Leading zero omitted, Abs format (unit mm)*
G04 Created by KiCad (PCBNEW 7.0.7) date 2024-06-24 12:25:00*
%MOMM*%
%LPD*%
G01*
G04 APERTURE LIST*
G04 Aperture macros list*
%AMRoundRect*
0 Rectangle with rounded corners*
0 $1 Rounding radius*
0 $2 $3 $4 $5 $6 $7 $8 $9 X,Y pos of 4 corners*
0 Add a 4 corners polygon primitive as box body*
4,1,4,$2,$3,$4,$5,$6,$7,$8,$9,$2,$3,0*
0 Add four circle primitives for the rounded corners*
1,1,$1+$1,$2,$3*
1,1,$1+$1,$4,$5*
1,1,$1+$1,$6,$7*
1,1,$1+$1,$8,$9*
0 Add four rect primitives between the rounded corners*
20,1,$1+$1,$2,$3,$4,$5,0*
20,1,$1+$1,$4,$5,$6,$7,0*
20,1,$1+$1,$6,$7,$8,$9,0*
20,1,$1+$1,$8,$9,$2,$3,0*%
G04 Aperture macros list end*
%ADD10RoundRect,0.250000X-0.650000X0.325000X-0.650000X-0.325000X0.650000X-0.325000X0.650000X0.325000X0*%
%ADD11RoundRect,0.135000X0.185000X-0.135000X0.185000X0.135000X-0.185000X0.135000X-0.185000X-0.135000X0*%
%ADD12RoundRect,0.135000X-0.185000X0.135000X-0.185000X-0.135000X0.185000X-0.135000X0.185000X0.135000X0*%
%ADD13R,1.700000X1.700000*%
%ADD14RoundRect,0.250000X0.650000X-1.000000X0.650000X1.000000X-0.650000X1.000000X-0.650000X-1.000000X0*%
%ADD15O,1.700000X1.700000*%
%ADD16RoundRect,0.150000X-0.150000X0.675000X-0.150000X-0.675000X0.150000X-0.675000X0.150000X0.675000X0*%
%ADD17RoundRect,0.140000X0.170000X-0.140000X0.170000X0.140000X-0.170000X0.140000X-0.170000X-0.140000X0*%
%ADD18RoundRect,0.135000X0.135000X0.185000X-0.135000X0.185000X-0.135000X-0.185000X0.135000X-0.185000X0*%
%ADD19C,0.700000*%
%ADD20C,4.400000*%
%ADD21C,4.000000*%
%ADD22RoundRect,0.250000X0.325000X0.650000X-0.325000X0.650000X-0.325000X-0.650000X0.325000X-0.650000X0*%
%ADD23R,0.650000X0.500000*%
%ADD24R,3.400000X4.600000*%
%ADD25R,0.550000X0.500000*%
%ADD26RoundRect,0.135000X-0.135000X-0.185000X0.135000X-0.185000X0.135000X0.185000X-0.135000X0.185000X0*%
%ADD27R,1.500000X0.900000*%
%ADD28R,0.700000X0.700000*%
%ADD29RoundRect,0.250000X-0.650000X1.000000X-0.650000X-1.000000X0.650000X-1.000000X0.650000X1.000000X0*%
%ADD30RoundRect,0.250000X-1.000000X1.750000X-1.000000X-1.750000X1.000000X-1.750000X1.000000X1.750000X0*%
%ADD31RoundRect,0.218750X0.218750X0.256250X-0.218750X0.256250X-0.218750X-0.256250X0.218750X-0.256250X0*%
%ADD32RoundRect,0.200000X0.200000X0.800000X-0.200000X0.800000X-0.200000X-0.800000X0.200000X-0.800000X0*%
%ADD33RoundRect,0.140000X-0.170000X0.140000X-0.170000X-0.140000X0.170000X-0.140000X0.170000X0.140000X0*%
%ADD34RoundRect,0.200000X-0.200000X-0.800000X0.200000X-0.800000X0.200000X0.800000X-0.200000X0.800000X0*%
%ADD35RoundRect,0.243750X0.456250X-0.243750X0.456250X0.243750X-0.456250X0.243750X-0.456250X-0.243750X0*%
%ADD36RoundRect,0.100000X0.100000X-0.637500X0.100000X0.637500X-0.100000X0.637500X-0.100000X-0.637500X0*%
%ADD37R,2.350000X3.400000*%
%ADD38R,0.600000X1.550000*%
%ADD39R,3.100000X2.600000*%
%ADD40RoundRect,0.140000X-0.140000X-0.170000X0.140000X-0.170000X0.140000X0.170000X-0.140000X0.170000X0*%
%ADD41C,0.750000*%
%ADD42R,1.300000X0.600000*%
%ADD43R,1.300000X0.300000*%
%ADD44O,2.000000X1.200000*%
%ADD45O,1.800000X1.200000*%
G04 APERTURE END LIST*
D10*
%TO.C,C10*%
X60800000Y-72860328D03*
X60800000Y-75810328D03*
%TD*%
D11*
%TO.C,R12*%
X94400000Y-36145328D03*
X94400000Y-35125328D03*
%TD*%
D12*
%TO.C,R6*%
X68900000Y-43925328D03*
X68900000Y-44945328D03*
%TD*%
D13*
%TO.C,J4*%
X103250000Y-45035328D03*
%TD*%
D14*
%TO.C,D1*%
X64110000Y-53935328D03*
X64110000Y-49935328D03*
%TD*%
D13*
%TO.C,J7*%
X106800000Y-68135328D03*
%TD*%
%TO.C,J10*%
X114750000Y-75685328D03*
D15*
X117290000Y-75685328D03*
X119830000Y-75685328D03*
X122370000Y-75685328D03*
%TD*%
D13*
%TO.C,J8*%
X73080000Y-81935328D03*
D15*
X75620000Y-81935328D03*
X78160000Y-81935328D03*
X80700000Y-81935328D03*
X83240000Y-81935328D03*
X85780000Y-81935328D03*
X88320000Y-81935328D03*
%TD*%
D16*
%TO.C,U4*%
X67005000Y-68710328D03*
X65735000Y-68710328D03*
X64465000Y-68710328D03*
X63195000Y-68710328D03*
X63195000Y-73960328D03*
X64465000Y-73960328D03*
X65735000Y-73960328D03*
X67005000Y-73960328D03*
%TD*%
D17*
%TO.C,C6*%
X69900000Y-44915328D03*
X69900000Y-43955328D03*
%TD*%
D18*
%TO.C,R10*%
X99800000Y-45035328D03*
X98780000Y-45035328D03*
%TD*%
%TO.C,R11*%
X99820000Y-68135328D03*
X98800000Y-68135328D03*
%TD*%
D19*
%TO.C,H4*%
X37800000Y-37735328D03*
X38283274Y-36568602D03*
X38283274Y-38902054D03*
X39450000Y-36085328D03*
D20*
X39450000Y-37735328D03*
D19*
X39450000Y-39385328D03*
X40616726Y-36568602D03*
X40616726Y-38902054D03*
X41100000Y-37735328D03*
%TD*%
%TO.C,H2*%
X119800000Y-37735328D03*
X120283274Y-36568602D03*
X120283274Y-38902054D03*
X121450000Y-36085328D03*
D20*
X121450000Y-37735328D03*
D19*
X121450000Y-39385328D03*
X122616726Y-36568602D03*
X122616726Y-38902054D03*
X123100000Y-37735328D03*
%TD*%
D17*
%TO.C,C13*%
X69900000Y-42595328D03*
X69900000Y-41635328D03*
%TD*%
D21*
%TO.C,J3*%
X51800000Y-79435328D03*
%TD*%
D22*
%TO.C,C2*%
X50975000Y-61235328D03*
X48025000Y-61235328D03*
%TD*%
D23*
%TO.C,Q1*%
X48350000Y-63395328D03*
X48350000Y-64665328D03*
X48350000Y-65935328D03*
X48350000Y-67205328D03*
D24*
X51925000Y-65300328D03*
D25*
X53900000Y-63395328D03*
X53900000Y-64665328D03*
X53900000Y-65935328D03*
X53900000Y-67205328D03*
%TD*%
D26*
%TO.C,R16*%
X90900000Y-44235328D03*
X91920000Y-44235328D03*
%TD*%
D18*
%TO.C,R17*%
X70010000Y-50235328D03*
X68990000Y-50235328D03*
%TD*%
D27*
%TO.C,U5*%
X71700000Y-41210328D03*
X71700000Y-42710328D03*
X71700000Y-44210328D03*
X71700000Y-45710328D03*
X71700000Y-47210328D03*
X71700000Y-48710328D03*
X71700000Y-50210328D03*
X71700000Y-51710328D03*
X71700000Y-53210328D03*
X89200000Y-53210328D03*
X89200000Y-51710328D03*
X89200000Y-50210328D03*
X89200000Y-48710328D03*
X89200000Y-47210328D03*
X89200000Y-45710328D03*
X89200000Y-44210328D03*
X89200000Y-42710328D03*
X89200000Y-41210328D03*
D28*
X80310000Y-46310328D03*
X80310000Y-47410328D03*
X80310000Y-48510328D03*
X81360000Y-46310328D03*
X81360000Y-47410328D03*
X81360000Y-48510328D03*
X82510000Y-46310328D03*
X82510000Y-47410328D03*
X82510000Y-48510328D03*
%TD*%
D23*
%TO.C,Q2*%
X65700000Y-81390328D03*
X65700000Y-80120328D03*
X65700000Y-78850328D03*
X65700000Y-77580328D03*
D24*
X62125000Y-79485328D03*
D25*
X60150000Y-81390328D03*
X60150000Y-80120328D03*
X60150000Y-78850328D03*
X60150000Y-77580328D03*
%TD*%
D29*
%TO.C,D3*%
X56700000Y-74535328D03*
X56700000Y-78535328D03*
%TD*%
D30*
%TO.C,C5*%
X49910000Y-40535328D03*
X49910000Y-48535328D03*
%TD*%
D12*
%TO.C,R4*%
X56110000Y-45525328D03*
X56110000Y-46545328D03*
%TD*%
D22*
%TO.C,C3*%
X60175000Y-55635328D03*
X57225000Y-55635328D03*
%TD*%
D12*
%TO.C,R9*%
X68000000Y-78125328D03*
X68000000Y-79145328D03*
%TD*%
D31*
%TO.C,D2*%
X69952500Y-82415328D03*
X68377500Y-82415328D03*
%TD*%
D32*
%TO.C,SW3*%
X106700000Y-35635328D03*
X102500000Y-35635328D03*
%TD*%
D26*
%TO.C,R1*%
X45690000Y-57435328D03*
X46710000Y-57435328D03*
%TD*%
D19*
%TO.C,H3*%
X37800000Y-79735328D03*
X38283274Y-78568602D03*
X38283274Y-80902054D03*
X39450000Y-78085328D03*
D20*
X39450000Y-79735328D03*
D19*
X39450000Y-81385328D03*
X40616726Y-78568602D03*
X40616726Y-80902054D03*
X41100000Y-79735328D03*
%TD*%
D11*
%TO.C,R14*%
X102500000Y-79455328D03*
X102500000Y-78435328D03*
%TD*%
D33*
%TO.C,C12*%
X69900000Y-39555328D03*
X69900000Y-40515328D03*
%TD*%
D34*
%TO.C,SW6*%
X77000000Y-57235328D03*
X81200000Y-57235328D03*
%TD*%
%TO.C,SW5*%
X82950000Y-57335328D03*
X87150000Y-57335328D03*
%TD*%
D35*
%TO.C,D4*%
X92000000Y-36572828D03*
X92000000Y-34697828D03*
%TD*%
D36*
%TO.C,U2*%
X55525000Y-68097828D03*
X56175000Y-68097828D03*
X56825000Y-68097828D03*
X57475000Y-68097828D03*
X58125000Y-68097828D03*
X58775000Y-68097828D03*
X59425000Y-68097828D03*
X60075000Y-68097828D03*
X60075000Y-62372828D03*
X59425000Y-62372828D03*
X58775000Y-62372828D03*
X58125000Y-62372828D03*
X57475000Y-62372828D03*
X56825000Y-62372828D03*
X56175000Y-62372828D03*
X55525000Y-62372828D03*
%TD*%
D35*
%TO.C,D5*%
X92000000Y-82772828D03*
X92000000Y-80897828D03*
%TD*%
D37*
%TO.C,L1*%
X65660000Y-40835328D03*
X59610000Y-40835328D03*
%TD*%
D38*
%TO.C,U3*%
X61505000Y-47535328D03*
X60235000Y-47535328D03*
X58965000Y-47535328D03*
X57695000Y-47535328D03*
X57695000Y-52935328D03*
X58965000Y-52935328D03*
X60235000Y-52935328D03*
X61505000Y-52935328D03*
D39*
X59600000Y-50235328D03*
%TD*%
D26*
%TO.C,R3*%
X50190000Y-56235328D03*
X51210000Y-56235328D03*
%TD*%
D13*
%TO.C,J5*%
X106800000Y-45035328D03*
%TD*%
D40*
%TO.C,C1*%
X56340000Y-69835328D03*
X57300000Y-69835328D03*
%TD*%
D12*
%TO.C,R5*%
X56110000Y-48325328D03*
X56110000Y-49345328D03*
%TD*%
%TO.C,R2*%
X46100000Y-59925328D03*
X46100000Y-60945328D03*
%TD*%
D32*
%TO.C,SW4*%
X106700000Y-81835328D03*
X102500000Y-81835328D03*
%TD*%
D12*
%TO.C,R13*%
X102500000Y-38015328D03*
X102500000Y-39035328D03*
%TD*%
D21*
%TO.C,J2*%
X51600000Y-72735328D03*
%TD*%
D40*
%TO.C,C11*%
X84570000Y-59685328D03*
X85530000Y-59685328D03*
%TD*%
D11*
%TO.C,R8*%
X65765000Y-66670328D03*
X65765000Y-65650328D03*
%TD*%
D17*
%TO.C,C9*%
X54500000Y-62015328D03*
X54500000Y-61055328D03*
%TD*%
D40*
%TO.C,C4*%
X61530000Y-45735328D03*
X62490000Y-45735328D03*
%TD*%
D19*
%TO.C,H1*%
X119800000Y-79735328D03*
X120283274Y-78568602D03*
X120283274Y-80902054D03*
X121450000Y-78085328D03*
D20*
X121450000Y-79735328D03*
D19*
X121450000Y-81385328D03*
X122616726Y-78568602D03*
X122616726Y-80902054D03*
X123100000Y-79735328D03*
%TD*%
D13*
%TO.C,J6*%
X103240000Y-68145328D03*
%TD*%
D41*
%TO.C,J1*%
X42006000Y-55835328D03*
X42006000Y-61635328D03*
D42*
X43274000Y-55535328D03*
X43274000Y-56335328D03*
D43*
X43274000Y-57485328D03*
X43274000Y-58485328D03*
X43274000Y-58985328D03*
X43274000Y-59985328D03*
D42*
X43274000Y-61135328D03*
X43274000Y-61935328D03*
X43274000Y-61935328D03*
X43274000Y-61135328D03*
D43*
X43274000Y-60485328D03*
X43274000Y-59485328D03*
X43274000Y-57985328D03*
X43274000Y-56985328D03*
D42*
X43274000Y-56335328D03*
X43274000Y-55535328D03*
D44*
X42506000Y-54410328D03*
D45*
X38326000Y-54410328D03*
D44*
X42506000Y-63060328D03*
D45*
X38326000Y-63060328D03*
%TD*%
D11*
%TO.C,R15*%
X93800000Y-82445328D03*
X93800000Y-81425328D03*
%TD*%
M02*
